%TF.GenerationSoftware,KiCad,Pcbnew,7.0.8*%
%TF.CreationDate,2023-11-04T10:41:29+00:00*%
%TF.ProjectId,Z80Computer,5a383043-6f6d-4707-9574-65722e6b6963,rev?*%
%TF.SameCoordinates,Original*%
%TF.FileFunction,Legend,Top*%
%TF.FilePolarity,Positive*%
%FSLAX46Y46*%
G04 Gerber Fmt 4.6, Leading zero omitted, Abs format (unit mm)*
G04 Created by KiCad (PCBNEW 7.0.8) date 2023-11-04 10:41:29*
%MOMM*%
%LPD*%
G01*
G04 APERTURE LIST*
%ADD10C,0.150000*%
%ADD11C,0.120000*%
%ADD12C,0.127000*%
G04 APERTURE END LIST*
D10*
X160528095Y-96164819D02*
X160528095Y-96974342D01*
X160528095Y-96974342D02*
X160575714Y-97069580D01*
X160575714Y-97069580D02*
X160623333Y-97117200D01*
X160623333Y-97117200D02*
X160718571Y-97164819D01*
X160718571Y-97164819D02*
X160909047Y-97164819D01*
X160909047Y-97164819D02*
X161004285Y-97117200D01*
X161004285Y-97117200D02*
X161051904Y-97069580D01*
X161051904Y-97069580D02*
X161099523Y-96974342D01*
X161099523Y-96974342D02*
X161099523Y-96164819D01*
X161480476Y-96164819D02*
X162147142Y-96164819D01*
X162147142Y-96164819D02*
X161718571Y-97164819D01*
X96766667Y-123869819D02*
X96766667Y-122869819D01*
X97814285Y-123774580D02*
X97766666Y-123822200D01*
X97766666Y-123822200D02*
X97623809Y-123869819D01*
X97623809Y-123869819D02*
X97528571Y-123869819D01*
X97528571Y-123869819D02*
X97385714Y-123822200D01*
X97385714Y-123822200D02*
X97290476Y-123726961D01*
X97290476Y-123726961D02*
X97242857Y-123631723D01*
X97242857Y-123631723D02*
X97195238Y-123441247D01*
X97195238Y-123441247D02*
X97195238Y-123298390D01*
X97195238Y-123298390D02*
X97242857Y-123107914D01*
X97242857Y-123107914D02*
X97290476Y-123012676D01*
X97290476Y-123012676D02*
X97385714Y-122917438D01*
X97385714Y-122917438D02*
X97528571Y-122869819D01*
X97528571Y-122869819D02*
X97623809Y-122869819D01*
X97623809Y-122869819D02*
X97766666Y-122917438D01*
X97766666Y-122917438D02*
X97814285Y-122965057D01*
X98195238Y-122965057D02*
X98242857Y-122917438D01*
X98242857Y-122917438D02*
X98338095Y-122869819D01*
X98338095Y-122869819D02*
X98576190Y-122869819D01*
X98576190Y-122869819D02*
X98671428Y-122917438D01*
X98671428Y-122917438D02*
X98719047Y-122965057D01*
X98719047Y-122965057D02*
X98766666Y-123060295D01*
X98766666Y-123060295D02*
X98766666Y-123155533D01*
X98766666Y-123155533D02*
X98719047Y-123298390D01*
X98719047Y-123298390D02*
X98147619Y-123869819D01*
X98147619Y-123869819D02*
X98766666Y-123869819D01*
X98957143Y-123965057D02*
X99719047Y-123965057D01*
X99957143Y-123346009D02*
X100290476Y-123346009D01*
X100433333Y-123869819D02*
X99957143Y-123869819D01*
X99957143Y-123869819D02*
X99957143Y-122869819D01*
X99957143Y-122869819D02*
X100433333Y-122869819D01*
X100861905Y-123346009D02*
X101195238Y-123346009D01*
X101338095Y-123869819D02*
X100861905Y-123869819D01*
X100861905Y-123869819D02*
X100861905Y-122869819D01*
X100861905Y-122869819D02*
X101338095Y-122869819D01*
X101766667Y-123869819D02*
X101766667Y-122869819D01*
X101766667Y-122869819D02*
X102147619Y-122869819D01*
X102147619Y-122869819D02*
X102242857Y-122917438D01*
X102242857Y-122917438D02*
X102290476Y-122965057D01*
X102290476Y-122965057D02*
X102338095Y-123060295D01*
X102338095Y-123060295D02*
X102338095Y-123203152D01*
X102338095Y-123203152D02*
X102290476Y-123298390D01*
X102290476Y-123298390D02*
X102242857Y-123346009D01*
X102242857Y-123346009D02*
X102147619Y-123393628D01*
X102147619Y-123393628D02*
X101766667Y-123393628D01*
X103338095Y-123869819D02*
X103004762Y-123393628D01*
X102766667Y-123869819D02*
X102766667Y-122869819D01*
X102766667Y-122869819D02*
X103147619Y-122869819D01*
X103147619Y-122869819D02*
X103242857Y-122917438D01*
X103242857Y-122917438D02*
X103290476Y-122965057D01*
X103290476Y-122965057D02*
X103338095Y-123060295D01*
X103338095Y-123060295D02*
X103338095Y-123203152D01*
X103338095Y-123203152D02*
X103290476Y-123298390D01*
X103290476Y-123298390D02*
X103242857Y-123346009D01*
X103242857Y-123346009D02*
X103147619Y-123393628D01*
X103147619Y-123393628D02*
X102766667Y-123393628D01*
X103957143Y-122869819D02*
X104147619Y-122869819D01*
X104147619Y-122869819D02*
X104242857Y-122917438D01*
X104242857Y-122917438D02*
X104338095Y-123012676D01*
X104338095Y-123012676D02*
X104385714Y-123203152D01*
X104385714Y-123203152D02*
X104385714Y-123536485D01*
X104385714Y-123536485D02*
X104338095Y-123726961D01*
X104338095Y-123726961D02*
X104242857Y-123822200D01*
X104242857Y-123822200D02*
X104147619Y-123869819D01*
X104147619Y-123869819D02*
X103957143Y-123869819D01*
X103957143Y-123869819D02*
X103861905Y-123822200D01*
X103861905Y-123822200D02*
X103766667Y-123726961D01*
X103766667Y-123726961D02*
X103719048Y-123536485D01*
X103719048Y-123536485D02*
X103719048Y-123203152D01*
X103719048Y-123203152D02*
X103766667Y-123012676D01*
X103766667Y-123012676D02*
X103861905Y-122917438D01*
X103861905Y-122917438D02*
X103957143Y-122869819D01*
X104814286Y-123869819D02*
X104814286Y-122869819D01*
X104814286Y-122869819D02*
X105147619Y-123584104D01*
X105147619Y-123584104D02*
X105480952Y-122869819D01*
X105480952Y-122869819D02*
X105480952Y-123869819D01*
X106480952Y-123869819D02*
X105909524Y-123869819D01*
X106195238Y-123869819D02*
X106195238Y-122869819D01*
X106195238Y-122869819D02*
X106100000Y-123012676D01*
X106100000Y-123012676D02*
X106004762Y-123107914D01*
X106004762Y-123107914D02*
X105909524Y-123155533D01*
X151804761Y-77134819D02*
X151471428Y-76658628D01*
X151233333Y-77134819D02*
X151233333Y-76134819D01*
X151233333Y-76134819D02*
X151614285Y-76134819D01*
X151614285Y-76134819D02*
X151709523Y-76182438D01*
X151709523Y-76182438D02*
X151757142Y-76230057D01*
X151757142Y-76230057D02*
X151804761Y-76325295D01*
X151804761Y-76325295D02*
X151804761Y-76468152D01*
X151804761Y-76468152D02*
X151757142Y-76563390D01*
X151757142Y-76563390D02*
X151709523Y-76611009D01*
X151709523Y-76611009D02*
X151614285Y-76658628D01*
X151614285Y-76658628D02*
X151233333Y-76658628D01*
X152090476Y-76134819D02*
X152423809Y-77134819D01*
X152423809Y-77134819D02*
X152757142Y-76134819D01*
X153614285Y-77134819D02*
X153042857Y-77134819D01*
X153328571Y-77134819D02*
X153328571Y-76134819D01*
X153328571Y-76134819D02*
X153233333Y-76277676D01*
X153233333Y-76277676D02*
X153138095Y-76372914D01*
X153138095Y-76372914D02*
X153042857Y-76420533D01*
X177313333Y-156014819D02*
X176980000Y-155538628D01*
X176741905Y-156014819D02*
X176741905Y-155014819D01*
X176741905Y-155014819D02*
X177122857Y-155014819D01*
X177122857Y-155014819D02*
X177218095Y-155062438D01*
X177218095Y-155062438D02*
X177265714Y-155110057D01*
X177265714Y-155110057D02*
X177313333Y-155205295D01*
X177313333Y-155205295D02*
X177313333Y-155348152D01*
X177313333Y-155348152D02*
X177265714Y-155443390D01*
X177265714Y-155443390D02*
X177218095Y-155491009D01*
X177218095Y-155491009D02*
X177122857Y-155538628D01*
X177122857Y-155538628D02*
X176741905Y-155538628D01*
X177694286Y-155110057D02*
X177741905Y-155062438D01*
X177741905Y-155062438D02*
X177837143Y-155014819D01*
X177837143Y-155014819D02*
X178075238Y-155014819D01*
X178075238Y-155014819D02*
X178170476Y-155062438D01*
X178170476Y-155062438D02*
X178218095Y-155110057D01*
X178218095Y-155110057D02*
X178265714Y-155205295D01*
X178265714Y-155205295D02*
X178265714Y-155300533D01*
X178265714Y-155300533D02*
X178218095Y-155443390D01*
X178218095Y-155443390D02*
X177646667Y-156014819D01*
X177646667Y-156014819D02*
X178265714Y-156014819D01*
X108884819Y-80771904D02*
X109694342Y-80771904D01*
X109694342Y-80771904D02*
X109789580Y-80724285D01*
X109789580Y-80724285D02*
X109837200Y-80676666D01*
X109837200Y-80676666D02*
X109884819Y-80581428D01*
X109884819Y-80581428D02*
X109884819Y-80390952D01*
X109884819Y-80390952D02*
X109837200Y-80295714D01*
X109837200Y-80295714D02*
X109789580Y-80248095D01*
X109789580Y-80248095D02*
X109694342Y-80200476D01*
X109694342Y-80200476D02*
X108884819Y-80200476D01*
X108884819Y-79819523D02*
X108884819Y-79200476D01*
X108884819Y-79200476D02*
X109265771Y-79533809D01*
X109265771Y-79533809D02*
X109265771Y-79390952D01*
X109265771Y-79390952D02*
X109313390Y-79295714D01*
X109313390Y-79295714D02*
X109361009Y-79248095D01*
X109361009Y-79248095D02*
X109456247Y-79200476D01*
X109456247Y-79200476D02*
X109694342Y-79200476D01*
X109694342Y-79200476D02*
X109789580Y-79248095D01*
X109789580Y-79248095D02*
X109837200Y-79295714D01*
X109837200Y-79295714D02*
X109884819Y-79390952D01*
X109884819Y-79390952D02*
X109884819Y-79676666D01*
X109884819Y-79676666D02*
X109837200Y-79771904D01*
X109837200Y-79771904D02*
X109789580Y-79819523D01*
X154898400Y-73074736D02*
X154898400Y-72434719D01*
X154898400Y-72434719D02*
X155050785Y-72434719D01*
X155050785Y-72434719D02*
X155142216Y-72465196D01*
X155142216Y-72465196D02*
X155203170Y-72526150D01*
X155203170Y-72526150D02*
X155233647Y-72587104D01*
X155233647Y-72587104D02*
X155264124Y-72709012D01*
X155264124Y-72709012D02*
X155264124Y-72800443D01*
X155264124Y-72800443D02*
X155233647Y-72922351D01*
X155233647Y-72922351D02*
X155203170Y-72983305D01*
X155203170Y-72983305D02*
X155142216Y-73044259D01*
X155142216Y-73044259D02*
X155050785Y-73074736D01*
X155050785Y-73074736D02*
X154898400Y-73074736D01*
X155538417Y-73074736D02*
X155538417Y-72434719D01*
X155812710Y-73044259D02*
X155904141Y-73074736D01*
X155904141Y-73074736D02*
X156056526Y-73074736D01*
X156056526Y-73074736D02*
X156117480Y-73044259D01*
X156117480Y-73044259D02*
X156147957Y-73013782D01*
X156147957Y-73013782D02*
X156178434Y-72952828D01*
X156178434Y-72952828D02*
X156178434Y-72891874D01*
X156178434Y-72891874D02*
X156147957Y-72830920D01*
X156147957Y-72830920D02*
X156117480Y-72800443D01*
X156117480Y-72800443D02*
X156056526Y-72769966D01*
X156056526Y-72769966D02*
X155934618Y-72739489D01*
X155934618Y-72739489D02*
X155873664Y-72709012D01*
X155873664Y-72709012D02*
X155843187Y-72678535D01*
X155843187Y-72678535D02*
X155812710Y-72617581D01*
X155812710Y-72617581D02*
X155812710Y-72556627D01*
X155812710Y-72556627D02*
X155843187Y-72495673D01*
X155843187Y-72495673D02*
X155873664Y-72465196D01*
X155873664Y-72465196D02*
X155934618Y-72434719D01*
X155934618Y-72434719D02*
X156087003Y-72434719D01*
X156087003Y-72434719D02*
X156178434Y-72465196D01*
X156787974Y-73074736D02*
X156422250Y-73074736D01*
X156605112Y-73074736D02*
X156605112Y-72434719D01*
X156605112Y-72434719D02*
X156544158Y-72526150D01*
X156544158Y-72526150D02*
X156483204Y-72587104D01*
X156483204Y-72587104D02*
X156422250Y-72617581D01*
X177313333Y-132429119D02*
X176980000Y-131952928D01*
X176741905Y-132429119D02*
X176741905Y-131429119D01*
X176741905Y-131429119D02*
X177122857Y-131429119D01*
X177122857Y-131429119D02*
X177218095Y-131476738D01*
X177218095Y-131476738D02*
X177265714Y-131524357D01*
X177265714Y-131524357D02*
X177313333Y-131619595D01*
X177313333Y-131619595D02*
X177313333Y-131762452D01*
X177313333Y-131762452D02*
X177265714Y-131857690D01*
X177265714Y-131857690D02*
X177218095Y-131905309D01*
X177218095Y-131905309D02*
X177122857Y-131952928D01*
X177122857Y-131952928D02*
X176741905Y-131952928D01*
X177646667Y-131429119D02*
X178313333Y-131429119D01*
X178313333Y-131429119D02*
X177884762Y-132429119D01*
X50134819Y-38433333D02*
X50849104Y-38433333D01*
X50849104Y-38433333D02*
X50991961Y-38480952D01*
X50991961Y-38480952D02*
X51087200Y-38576190D01*
X51087200Y-38576190D02*
X51134819Y-38719047D01*
X51134819Y-38719047D02*
X51134819Y-38814285D01*
X51134819Y-37433333D02*
X51134819Y-38004761D01*
X51134819Y-37719047D02*
X50134819Y-37719047D01*
X50134819Y-37719047D02*
X50277676Y-37814285D01*
X50277676Y-37814285D02*
X50372914Y-37909523D01*
X50372914Y-37909523D02*
X50420533Y-38004761D01*
X177313333Y-141863419D02*
X176980000Y-141387228D01*
X176741905Y-141863419D02*
X176741905Y-140863419D01*
X176741905Y-140863419D02*
X177122857Y-140863419D01*
X177122857Y-140863419D02*
X177218095Y-140911038D01*
X177218095Y-140911038D02*
X177265714Y-140958657D01*
X177265714Y-140958657D02*
X177313333Y-141053895D01*
X177313333Y-141053895D02*
X177313333Y-141196752D01*
X177313333Y-141196752D02*
X177265714Y-141291990D01*
X177265714Y-141291990D02*
X177218095Y-141339609D01*
X177218095Y-141339609D02*
X177122857Y-141387228D01*
X177122857Y-141387228D02*
X176741905Y-141387228D01*
X178218095Y-140863419D02*
X177741905Y-140863419D01*
X177741905Y-140863419D02*
X177694286Y-141339609D01*
X177694286Y-141339609D02*
X177741905Y-141291990D01*
X177741905Y-141291990D02*
X177837143Y-141244371D01*
X177837143Y-141244371D02*
X178075238Y-141244371D01*
X178075238Y-141244371D02*
X178170476Y-141291990D01*
X178170476Y-141291990D02*
X178218095Y-141339609D01*
X178218095Y-141339609D02*
X178265714Y-141434847D01*
X178265714Y-141434847D02*
X178265714Y-141672942D01*
X178265714Y-141672942D02*
X178218095Y-141768180D01*
X178218095Y-141768180D02*
X178170476Y-141815800D01*
X178170476Y-141815800D02*
X178075238Y-141863419D01*
X178075238Y-141863419D02*
X177837143Y-141863419D01*
X177837143Y-141863419D02*
X177741905Y-141815800D01*
X177741905Y-141815800D02*
X177694286Y-141768180D01*
X168846667Y-55557200D02*
X168989524Y-55604819D01*
X168989524Y-55604819D02*
X169227619Y-55604819D01*
X169227619Y-55604819D02*
X169322857Y-55557200D01*
X169322857Y-55557200D02*
X169370476Y-55509580D01*
X169370476Y-55509580D02*
X169418095Y-55414342D01*
X169418095Y-55414342D02*
X169418095Y-55319104D01*
X169418095Y-55319104D02*
X169370476Y-55223866D01*
X169370476Y-55223866D02*
X169322857Y-55176247D01*
X169322857Y-55176247D02*
X169227619Y-55128628D01*
X169227619Y-55128628D02*
X169037143Y-55081009D01*
X169037143Y-55081009D02*
X168941905Y-55033390D01*
X168941905Y-55033390D02*
X168894286Y-54985771D01*
X168894286Y-54985771D02*
X168846667Y-54890533D01*
X168846667Y-54890533D02*
X168846667Y-54795295D01*
X168846667Y-54795295D02*
X168894286Y-54700057D01*
X168894286Y-54700057D02*
X168941905Y-54652438D01*
X168941905Y-54652438D02*
X169037143Y-54604819D01*
X169037143Y-54604819D02*
X169275238Y-54604819D01*
X169275238Y-54604819D02*
X169418095Y-54652438D01*
X169751429Y-54604819D02*
X169989524Y-55604819D01*
X169989524Y-55604819D02*
X170180000Y-54890533D01*
X170180000Y-54890533D02*
X170370476Y-55604819D01*
X170370476Y-55604819D02*
X170608572Y-54604819D01*
X171513333Y-55604819D02*
X170941905Y-55604819D01*
X171227619Y-55604819D02*
X171227619Y-54604819D01*
X171227619Y-54604819D02*
X171132381Y-54747676D01*
X171132381Y-54747676D02*
X171037143Y-54842914D01*
X171037143Y-54842914D02*
X170941905Y-54890533D01*
X67770476Y-84714819D02*
X68437142Y-85714819D01*
X68437142Y-84714819D02*
X67770476Y-85714819D01*
X69341904Y-85714819D02*
X68770476Y-85714819D01*
X69056190Y-85714819D02*
X69056190Y-84714819D01*
X69056190Y-84714819D02*
X68960952Y-84857676D01*
X68960952Y-84857676D02*
X68865714Y-84952914D01*
X68865714Y-84952914D02*
X68770476Y-85000533D01*
X67463333Y-39174819D02*
X67130000Y-38698628D01*
X66891905Y-39174819D02*
X66891905Y-38174819D01*
X66891905Y-38174819D02*
X67272857Y-38174819D01*
X67272857Y-38174819D02*
X67368095Y-38222438D01*
X67368095Y-38222438D02*
X67415714Y-38270057D01*
X67415714Y-38270057D02*
X67463333Y-38365295D01*
X67463333Y-38365295D02*
X67463333Y-38508152D01*
X67463333Y-38508152D02*
X67415714Y-38603390D01*
X67415714Y-38603390D02*
X67368095Y-38651009D01*
X67368095Y-38651009D02*
X67272857Y-38698628D01*
X67272857Y-38698628D02*
X66891905Y-38698628D01*
X68415714Y-39174819D02*
X67844286Y-39174819D01*
X68130000Y-39174819D02*
X68130000Y-38174819D01*
X68130000Y-38174819D02*
X68034762Y-38317676D01*
X68034762Y-38317676D02*
X67939524Y-38412914D01*
X67939524Y-38412914D02*
X67844286Y-38460533D01*
X177313333Y-137146219D02*
X176980000Y-136670028D01*
X176741905Y-137146219D02*
X176741905Y-136146219D01*
X176741905Y-136146219D02*
X177122857Y-136146219D01*
X177122857Y-136146219D02*
X177218095Y-136193838D01*
X177218095Y-136193838D02*
X177265714Y-136241457D01*
X177265714Y-136241457D02*
X177313333Y-136336695D01*
X177313333Y-136336695D02*
X177313333Y-136479552D01*
X177313333Y-136479552D02*
X177265714Y-136574790D01*
X177265714Y-136574790D02*
X177218095Y-136622409D01*
X177218095Y-136622409D02*
X177122857Y-136670028D01*
X177122857Y-136670028D02*
X176741905Y-136670028D01*
X178170476Y-136146219D02*
X177980000Y-136146219D01*
X177980000Y-136146219D02*
X177884762Y-136193838D01*
X177884762Y-136193838D02*
X177837143Y-136241457D01*
X177837143Y-136241457D02*
X177741905Y-136384314D01*
X177741905Y-136384314D02*
X177694286Y-136574790D01*
X177694286Y-136574790D02*
X177694286Y-136955742D01*
X177694286Y-136955742D02*
X177741905Y-137050980D01*
X177741905Y-137050980D02*
X177789524Y-137098600D01*
X177789524Y-137098600D02*
X177884762Y-137146219D01*
X177884762Y-137146219D02*
X178075238Y-137146219D01*
X178075238Y-137146219D02*
X178170476Y-137098600D01*
X178170476Y-137098600D02*
X178218095Y-137050980D01*
X178218095Y-137050980D02*
X178265714Y-136955742D01*
X178265714Y-136955742D02*
X178265714Y-136717647D01*
X178265714Y-136717647D02*
X178218095Y-136622409D01*
X178218095Y-136622409D02*
X178170476Y-136574790D01*
X178170476Y-136574790D02*
X178075238Y-136527171D01*
X178075238Y-136527171D02*
X177884762Y-136527171D01*
X177884762Y-136527171D02*
X177789524Y-136574790D01*
X177789524Y-136574790D02*
X177741905Y-136622409D01*
X177741905Y-136622409D02*
X177694286Y-136717647D01*
X179601905Y-79614819D02*
X179601905Y-78614819D01*
X179601905Y-78614819D02*
X179840000Y-78614819D01*
X179840000Y-78614819D02*
X179982857Y-78662438D01*
X179982857Y-78662438D02*
X180078095Y-78757676D01*
X180078095Y-78757676D02*
X180125714Y-78852914D01*
X180125714Y-78852914D02*
X180173333Y-79043390D01*
X180173333Y-79043390D02*
X180173333Y-79186247D01*
X180173333Y-79186247D02*
X180125714Y-79376723D01*
X180125714Y-79376723D02*
X180078095Y-79471961D01*
X180078095Y-79471961D02*
X179982857Y-79567200D01*
X179982857Y-79567200D02*
X179840000Y-79614819D01*
X179840000Y-79614819D02*
X179601905Y-79614819D01*
X181125714Y-79614819D02*
X180554286Y-79614819D01*
X180840000Y-79614819D02*
X180840000Y-78614819D01*
X180840000Y-78614819D02*
X180744762Y-78757676D01*
X180744762Y-78757676D02*
X180649524Y-78852914D01*
X180649524Y-78852914D02*
X180554286Y-78900533D01*
X176268095Y-79934819D02*
X176268095Y-78934819D01*
X176839523Y-79934819D02*
X176410952Y-79363390D01*
X176839523Y-78934819D02*
X176268095Y-79506247D01*
X189694819Y-100563333D02*
X190409104Y-100563333D01*
X190409104Y-100563333D02*
X190551961Y-100610952D01*
X190551961Y-100610952D02*
X190647200Y-100706190D01*
X190647200Y-100706190D02*
X190694819Y-100849047D01*
X190694819Y-100849047D02*
X190694819Y-100944285D01*
X189694819Y-100182380D02*
X189694819Y-99563333D01*
X189694819Y-99563333D02*
X190075771Y-99896666D01*
X190075771Y-99896666D02*
X190075771Y-99753809D01*
X190075771Y-99753809D02*
X190123390Y-99658571D01*
X190123390Y-99658571D02*
X190171009Y-99610952D01*
X190171009Y-99610952D02*
X190266247Y-99563333D01*
X190266247Y-99563333D02*
X190504342Y-99563333D01*
X190504342Y-99563333D02*
X190599580Y-99610952D01*
X190599580Y-99610952D02*
X190647200Y-99658571D01*
X190647200Y-99658571D02*
X190694819Y-99753809D01*
X190694819Y-99753809D02*
X190694819Y-100039523D01*
X190694819Y-100039523D02*
X190647200Y-100134761D01*
X190647200Y-100134761D02*
X190599580Y-100182380D01*
X94488095Y-96164819D02*
X94488095Y-96974342D01*
X94488095Y-96974342D02*
X94535714Y-97069580D01*
X94535714Y-97069580D02*
X94583333Y-97117200D01*
X94583333Y-97117200D02*
X94678571Y-97164819D01*
X94678571Y-97164819D02*
X94869047Y-97164819D01*
X94869047Y-97164819D02*
X94964285Y-97117200D01*
X94964285Y-97117200D02*
X95011904Y-97069580D01*
X95011904Y-97069580D02*
X95059523Y-96974342D01*
X95059523Y-96974342D02*
X95059523Y-96164819D01*
X95488095Y-96260057D02*
X95535714Y-96212438D01*
X95535714Y-96212438D02*
X95630952Y-96164819D01*
X95630952Y-96164819D02*
X95869047Y-96164819D01*
X95869047Y-96164819D02*
X95964285Y-96212438D01*
X95964285Y-96212438D02*
X96011904Y-96260057D01*
X96011904Y-96260057D02*
X96059523Y-96355295D01*
X96059523Y-96355295D02*
X96059523Y-96450533D01*
X96059523Y-96450533D02*
X96011904Y-96593390D01*
X96011904Y-96593390D02*
X95440476Y-97164819D01*
X95440476Y-97164819D02*
X96059523Y-97164819D01*
X178903333Y-127091919D02*
X178570000Y-126615728D01*
X178331905Y-127091919D02*
X178331905Y-126091919D01*
X178331905Y-126091919D02*
X178712857Y-126091919D01*
X178712857Y-126091919D02*
X178808095Y-126139538D01*
X178808095Y-126139538D02*
X178855714Y-126187157D01*
X178855714Y-126187157D02*
X178903333Y-126282395D01*
X178903333Y-126282395D02*
X178903333Y-126425252D01*
X178903333Y-126425252D02*
X178855714Y-126520490D01*
X178855714Y-126520490D02*
X178808095Y-126568109D01*
X178808095Y-126568109D02*
X178712857Y-126615728D01*
X178712857Y-126615728D02*
X178331905Y-126615728D01*
X179474762Y-126520490D02*
X179379524Y-126472871D01*
X179379524Y-126472871D02*
X179331905Y-126425252D01*
X179331905Y-126425252D02*
X179284286Y-126330014D01*
X179284286Y-126330014D02*
X179284286Y-126282395D01*
X179284286Y-126282395D02*
X179331905Y-126187157D01*
X179331905Y-126187157D02*
X179379524Y-126139538D01*
X179379524Y-126139538D02*
X179474762Y-126091919D01*
X179474762Y-126091919D02*
X179665238Y-126091919D01*
X179665238Y-126091919D02*
X179760476Y-126139538D01*
X179760476Y-126139538D02*
X179808095Y-126187157D01*
X179808095Y-126187157D02*
X179855714Y-126282395D01*
X179855714Y-126282395D02*
X179855714Y-126330014D01*
X179855714Y-126330014D02*
X179808095Y-126425252D01*
X179808095Y-126425252D02*
X179760476Y-126472871D01*
X179760476Y-126472871D02*
X179665238Y-126520490D01*
X179665238Y-126520490D02*
X179474762Y-126520490D01*
X179474762Y-126520490D02*
X179379524Y-126568109D01*
X179379524Y-126568109D02*
X179331905Y-126615728D01*
X179331905Y-126615728D02*
X179284286Y-126710966D01*
X179284286Y-126710966D02*
X179284286Y-126901442D01*
X179284286Y-126901442D02*
X179331905Y-126996680D01*
X179331905Y-126996680D02*
X179379524Y-127044300D01*
X179379524Y-127044300D02*
X179474762Y-127091919D01*
X179474762Y-127091919D02*
X179665238Y-127091919D01*
X179665238Y-127091919D02*
X179760476Y-127044300D01*
X179760476Y-127044300D02*
X179808095Y-126996680D01*
X179808095Y-126996680D02*
X179855714Y-126901442D01*
X179855714Y-126901442D02*
X179855714Y-126710966D01*
X179855714Y-126710966D02*
X179808095Y-126615728D01*
X179808095Y-126615728D02*
X179760476Y-126568109D01*
X179760476Y-126568109D02*
X179665238Y-126520490D01*
X177313333Y-146580519D02*
X176980000Y-146104328D01*
X176741905Y-146580519D02*
X176741905Y-145580519D01*
X176741905Y-145580519D02*
X177122857Y-145580519D01*
X177122857Y-145580519D02*
X177218095Y-145628138D01*
X177218095Y-145628138D02*
X177265714Y-145675757D01*
X177265714Y-145675757D02*
X177313333Y-145770995D01*
X177313333Y-145770995D02*
X177313333Y-145913852D01*
X177313333Y-145913852D02*
X177265714Y-146009090D01*
X177265714Y-146009090D02*
X177218095Y-146056709D01*
X177218095Y-146056709D02*
X177122857Y-146104328D01*
X177122857Y-146104328D02*
X176741905Y-146104328D01*
X177646667Y-145580519D02*
X178265714Y-145580519D01*
X178265714Y-145580519D02*
X177932381Y-145961471D01*
X177932381Y-145961471D02*
X178075238Y-145961471D01*
X178075238Y-145961471D02*
X178170476Y-146009090D01*
X178170476Y-146009090D02*
X178218095Y-146056709D01*
X178218095Y-146056709D02*
X178265714Y-146151947D01*
X178265714Y-146151947D02*
X178265714Y-146390042D01*
X178265714Y-146390042D02*
X178218095Y-146485280D01*
X178218095Y-146485280D02*
X178170476Y-146532900D01*
X178170476Y-146532900D02*
X178075238Y-146580519D01*
X178075238Y-146580519D02*
X177789524Y-146580519D01*
X177789524Y-146580519D02*
X177694286Y-146532900D01*
X177694286Y-146532900D02*
X177646667Y-146485280D01*
X179601905Y-109254819D02*
X179601905Y-108254819D01*
X179601905Y-108254819D02*
X179840000Y-108254819D01*
X179840000Y-108254819D02*
X179982857Y-108302438D01*
X179982857Y-108302438D02*
X180078095Y-108397676D01*
X180078095Y-108397676D02*
X180125714Y-108492914D01*
X180125714Y-108492914D02*
X180173333Y-108683390D01*
X180173333Y-108683390D02*
X180173333Y-108826247D01*
X180173333Y-108826247D02*
X180125714Y-109016723D01*
X180125714Y-109016723D02*
X180078095Y-109111961D01*
X180078095Y-109111961D02*
X179982857Y-109207200D01*
X179982857Y-109207200D02*
X179840000Y-109254819D01*
X179840000Y-109254819D02*
X179601905Y-109254819D01*
X181030476Y-108254819D02*
X180840000Y-108254819D01*
X180840000Y-108254819D02*
X180744762Y-108302438D01*
X180744762Y-108302438D02*
X180697143Y-108350057D01*
X180697143Y-108350057D02*
X180601905Y-108492914D01*
X180601905Y-108492914D02*
X180554286Y-108683390D01*
X180554286Y-108683390D02*
X180554286Y-109064342D01*
X180554286Y-109064342D02*
X180601905Y-109159580D01*
X180601905Y-109159580D02*
X180649524Y-109207200D01*
X180649524Y-109207200D02*
X180744762Y-109254819D01*
X180744762Y-109254819D02*
X180935238Y-109254819D01*
X180935238Y-109254819D02*
X181030476Y-109207200D01*
X181030476Y-109207200D02*
X181078095Y-109159580D01*
X181078095Y-109159580D02*
X181125714Y-109064342D01*
X181125714Y-109064342D02*
X181125714Y-108826247D01*
X181125714Y-108826247D02*
X181078095Y-108731009D01*
X181078095Y-108731009D02*
X181030476Y-108683390D01*
X181030476Y-108683390D02*
X180935238Y-108635771D01*
X180935238Y-108635771D02*
X180744762Y-108635771D01*
X180744762Y-108635771D02*
X180649524Y-108683390D01*
X180649524Y-108683390D02*
X180601905Y-108731009D01*
X180601905Y-108731009D02*
X180554286Y-108826247D01*
X183888095Y-108934819D02*
X183888095Y-107934819D01*
X184459523Y-108934819D02*
X184030952Y-108363390D01*
X184459523Y-107934819D02*
X183888095Y-108506247D01*
X144018095Y-96164819D02*
X144018095Y-96974342D01*
X144018095Y-96974342D02*
X144065714Y-97069580D01*
X144065714Y-97069580D02*
X144113333Y-97117200D01*
X144113333Y-97117200D02*
X144208571Y-97164819D01*
X144208571Y-97164819D02*
X144399047Y-97164819D01*
X144399047Y-97164819D02*
X144494285Y-97117200D01*
X144494285Y-97117200D02*
X144541904Y-97069580D01*
X144541904Y-97069580D02*
X144589523Y-96974342D01*
X144589523Y-96974342D02*
X144589523Y-96164819D01*
X145541904Y-96164819D02*
X145065714Y-96164819D01*
X145065714Y-96164819D02*
X145018095Y-96641009D01*
X145018095Y-96641009D02*
X145065714Y-96593390D01*
X145065714Y-96593390D02*
X145160952Y-96545771D01*
X145160952Y-96545771D02*
X145399047Y-96545771D01*
X145399047Y-96545771D02*
X145494285Y-96593390D01*
X145494285Y-96593390D02*
X145541904Y-96641009D01*
X145541904Y-96641009D02*
X145589523Y-96736247D01*
X145589523Y-96736247D02*
X145589523Y-96974342D01*
X145589523Y-96974342D02*
X145541904Y-97069580D01*
X145541904Y-97069580D02*
X145494285Y-97117200D01*
X145494285Y-97117200D02*
X145399047Y-97164819D01*
X145399047Y-97164819D02*
X145160952Y-97164819D01*
X145160952Y-97164819D02*
X145065714Y-97117200D01*
X145065714Y-97117200D02*
X145018095Y-97069580D01*
X177313333Y-151297719D02*
X176980000Y-150821528D01*
X176741905Y-151297719D02*
X176741905Y-150297719D01*
X176741905Y-150297719D02*
X177122857Y-150297719D01*
X177122857Y-150297719D02*
X177218095Y-150345338D01*
X177218095Y-150345338D02*
X177265714Y-150392957D01*
X177265714Y-150392957D02*
X177313333Y-150488195D01*
X177313333Y-150488195D02*
X177313333Y-150631052D01*
X177313333Y-150631052D02*
X177265714Y-150726290D01*
X177265714Y-150726290D02*
X177218095Y-150773909D01*
X177218095Y-150773909D02*
X177122857Y-150821528D01*
X177122857Y-150821528D02*
X176741905Y-150821528D01*
X178170476Y-150631052D02*
X178170476Y-151297719D01*
X177932381Y-150250100D02*
X177694286Y-150964385D01*
X177694286Y-150964385D02*
X178313333Y-150964385D01*
X177313333Y-122994819D02*
X176980000Y-122518628D01*
X176741905Y-122994819D02*
X176741905Y-121994819D01*
X176741905Y-121994819D02*
X177122857Y-121994819D01*
X177122857Y-121994819D02*
X177218095Y-122042438D01*
X177218095Y-122042438D02*
X177265714Y-122090057D01*
X177265714Y-122090057D02*
X177313333Y-122185295D01*
X177313333Y-122185295D02*
X177313333Y-122328152D01*
X177313333Y-122328152D02*
X177265714Y-122423390D01*
X177265714Y-122423390D02*
X177218095Y-122471009D01*
X177218095Y-122471009D02*
X177122857Y-122518628D01*
X177122857Y-122518628D02*
X176741905Y-122518628D01*
X177789524Y-122994819D02*
X177980000Y-122994819D01*
X177980000Y-122994819D02*
X178075238Y-122947200D01*
X178075238Y-122947200D02*
X178122857Y-122899580D01*
X178122857Y-122899580D02*
X178218095Y-122756723D01*
X178218095Y-122756723D02*
X178265714Y-122566247D01*
X178265714Y-122566247D02*
X178265714Y-122185295D01*
X178265714Y-122185295D02*
X178218095Y-122090057D01*
X178218095Y-122090057D02*
X178170476Y-122042438D01*
X178170476Y-122042438D02*
X178075238Y-121994819D01*
X178075238Y-121994819D02*
X177884762Y-121994819D01*
X177884762Y-121994819D02*
X177789524Y-122042438D01*
X177789524Y-122042438D02*
X177741905Y-122090057D01*
X177741905Y-122090057D02*
X177694286Y-122185295D01*
X177694286Y-122185295D02*
X177694286Y-122423390D01*
X177694286Y-122423390D02*
X177741905Y-122518628D01*
X177741905Y-122518628D02*
X177789524Y-122566247D01*
X177789524Y-122566247D02*
X177884762Y-122613866D01*
X177884762Y-122613866D02*
X178075238Y-122613866D01*
X178075238Y-122613866D02*
X178170476Y-122566247D01*
X178170476Y-122566247D02*
X178218095Y-122518628D01*
X178218095Y-122518628D02*
X178265714Y-122423390D01*
X99643333Y-75849580D02*
X99595714Y-75897200D01*
X99595714Y-75897200D02*
X99452857Y-75944819D01*
X99452857Y-75944819D02*
X99357619Y-75944819D01*
X99357619Y-75944819D02*
X99214762Y-75897200D01*
X99214762Y-75897200D02*
X99119524Y-75801961D01*
X99119524Y-75801961D02*
X99071905Y-75706723D01*
X99071905Y-75706723D02*
X99024286Y-75516247D01*
X99024286Y-75516247D02*
X99024286Y-75373390D01*
X99024286Y-75373390D02*
X99071905Y-75182914D01*
X99071905Y-75182914D02*
X99119524Y-75087676D01*
X99119524Y-75087676D02*
X99214762Y-74992438D01*
X99214762Y-74992438D02*
X99357619Y-74944819D01*
X99357619Y-74944819D02*
X99452857Y-74944819D01*
X99452857Y-74944819D02*
X99595714Y-74992438D01*
X99595714Y-74992438D02*
X99643333Y-75040057D01*
X100024286Y-75040057D02*
X100071905Y-74992438D01*
X100071905Y-74992438D02*
X100167143Y-74944819D01*
X100167143Y-74944819D02*
X100405238Y-74944819D01*
X100405238Y-74944819D02*
X100500476Y-74992438D01*
X100500476Y-74992438D02*
X100548095Y-75040057D01*
X100548095Y-75040057D02*
X100595714Y-75135295D01*
X100595714Y-75135295D02*
X100595714Y-75230533D01*
X100595714Y-75230533D02*
X100548095Y-75373390D01*
X100548095Y-75373390D02*
X99976667Y-75944819D01*
X99976667Y-75944819D02*
X100595714Y-75944819D01*
X179601905Y-99094819D02*
X179601905Y-98094819D01*
X179601905Y-98094819D02*
X179840000Y-98094819D01*
X179840000Y-98094819D02*
X179982857Y-98142438D01*
X179982857Y-98142438D02*
X180078095Y-98237676D01*
X180078095Y-98237676D02*
X180125714Y-98332914D01*
X180125714Y-98332914D02*
X180173333Y-98523390D01*
X180173333Y-98523390D02*
X180173333Y-98666247D01*
X180173333Y-98666247D02*
X180125714Y-98856723D01*
X180125714Y-98856723D02*
X180078095Y-98951961D01*
X180078095Y-98951961D02*
X179982857Y-99047200D01*
X179982857Y-99047200D02*
X179840000Y-99094819D01*
X179840000Y-99094819D02*
X179601905Y-99094819D01*
X181030476Y-98428152D02*
X181030476Y-99094819D01*
X180792381Y-98047200D02*
X180554286Y-98761485D01*
X180554286Y-98761485D02*
X181173333Y-98761485D01*
X183888095Y-98774819D02*
X183888095Y-97774819D01*
X184459523Y-98774819D02*
X184030952Y-98203390D01*
X184459523Y-97774819D02*
X183888095Y-98346247D01*
X61907142Y-49334819D02*
X61573809Y-48858628D01*
X61335714Y-49334819D02*
X61335714Y-48334819D01*
X61335714Y-48334819D02*
X61716666Y-48334819D01*
X61716666Y-48334819D02*
X61811904Y-48382438D01*
X61811904Y-48382438D02*
X61859523Y-48430057D01*
X61859523Y-48430057D02*
X61907142Y-48525295D01*
X61907142Y-48525295D02*
X61907142Y-48668152D01*
X61907142Y-48668152D02*
X61859523Y-48763390D01*
X61859523Y-48763390D02*
X61811904Y-48811009D01*
X61811904Y-48811009D02*
X61716666Y-48858628D01*
X61716666Y-48858628D02*
X61335714Y-48858628D01*
X62859523Y-49334819D02*
X62288095Y-49334819D01*
X62573809Y-49334819D02*
X62573809Y-48334819D01*
X62573809Y-48334819D02*
X62478571Y-48477676D01*
X62478571Y-48477676D02*
X62383333Y-48572914D01*
X62383333Y-48572914D02*
X62288095Y-48620533D01*
X63478571Y-48334819D02*
X63573809Y-48334819D01*
X63573809Y-48334819D02*
X63669047Y-48382438D01*
X63669047Y-48382438D02*
X63716666Y-48430057D01*
X63716666Y-48430057D02*
X63764285Y-48525295D01*
X63764285Y-48525295D02*
X63811904Y-48715771D01*
X63811904Y-48715771D02*
X63811904Y-48953866D01*
X63811904Y-48953866D02*
X63764285Y-49144342D01*
X63764285Y-49144342D02*
X63716666Y-49239580D01*
X63716666Y-49239580D02*
X63669047Y-49287200D01*
X63669047Y-49287200D02*
X63573809Y-49334819D01*
X63573809Y-49334819D02*
X63478571Y-49334819D01*
X63478571Y-49334819D02*
X63383333Y-49287200D01*
X63383333Y-49287200D02*
X63335714Y-49239580D01*
X63335714Y-49239580D02*
X63288095Y-49144342D01*
X63288095Y-49144342D02*
X63240476Y-48953866D01*
X63240476Y-48953866D02*
X63240476Y-48715771D01*
X63240476Y-48715771D02*
X63288095Y-48525295D01*
X63288095Y-48525295D02*
X63335714Y-48430057D01*
X63335714Y-48430057D02*
X63383333Y-48382438D01*
X63383333Y-48382438D02*
X63478571Y-48334819D01*
X53871905Y-55214819D02*
X53871905Y-54214819D01*
X53871905Y-54214819D02*
X54110000Y-54214819D01*
X54110000Y-54214819D02*
X54252857Y-54262438D01*
X54252857Y-54262438D02*
X54348095Y-54357676D01*
X54348095Y-54357676D02*
X54395714Y-54452914D01*
X54395714Y-54452914D02*
X54443333Y-54643390D01*
X54443333Y-54643390D02*
X54443333Y-54786247D01*
X54443333Y-54786247D02*
X54395714Y-54976723D01*
X54395714Y-54976723D02*
X54348095Y-55071961D01*
X54348095Y-55071961D02*
X54252857Y-55167200D01*
X54252857Y-55167200D02*
X54110000Y-55214819D01*
X54110000Y-55214819D02*
X53871905Y-55214819D01*
X54919524Y-55214819D02*
X55110000Y-55214819D01*
X55110000Y-55214819D02*
X55205238Y-55167200D01*
X55205238Y-55167200D02*
X55252857Y-55119580D01*
X55252857Y-55119580D02*
X55348095Y-54976723D01*
X55348095Y-54976723D02*
X55395714Y-54786247D01*
X55395714Y-54786247D02*
X55395714Y-54405295D01*
X55395714Y-54405295D02*
X55348095Y-54310057D01*
X55348095Y-54310057D02*
X55300476Y-54262438D01*
X55300476Y-54262438D02*
X55205238Y-54214819D01*
X55205238Y-54214819D02*
X55014762Y-54214819D01*
X55014762Y-54214819D02*
X54919524Y-54262438D01*
X54919524Y-54262438D02*
X54871905Y-54310057D01*
X54871905Y-54310057D02*
X54824286Y-54405295D01*
X54824286Y-54405295D02*
X54824286Y-54643390D01*
X54824286Y-54643390D02*
X54871905Y-54738628D01*
X54871905Y-54738628D02*
X54919524Y-54786247D01*
X54919524Y-54786247D02*
X55014762Y-54833866D01*
X55014762Y-54833866D02*
X55205238Y-54833866D01*
X55205238Y-54833866D02*
X55300476Y-54786247D01*
X55300476Y-54786247D02*
X55348095Y-54738628D01*
X55348095Y-54738628D02*
X55395714Y-54643390D01*
X179601905Y-104174819D02*
X179601905Y-103174819D01*
X179601905Y-103174819D02*
X179840000Y-103174819D01*
X179840000Y-103174819D02*
X179982857Y-103222438D01*
X179982857Y-103222438D02*
X180078095Y-103317676D01*
X180078095Y-103317676D02*
X180125714Y-103412914D01*
X180125714Y-103412914D02*
X180173333Y-103603390D01*
X180173333Y-103603390D02*
X180173333Y-103746247D01*
X180173333Y-103746247D02*
X180125714Y-103936723D01*
X180125714Y-103936723D02*
X180078095Y-104031961D01*
X180078095Y-104031961D02*
X179982857Y-104127200D01*
X179982857Y-104127200D02*
X179840000Y-104174819D01*
X179840000Y-104174819D02*
X179601905Y-104174819D01*
X181078095Y-103174819D02*
X180601905Y-103174819D01*
X180601905Y-103174819D02*
X180554286Y-103651009D01*
X180554286Y-103651009D02*
X180601905Y-103603390D01*
X180601905Y-103603390D02*
X180697143Y-103555771D01*
X180697143Y-103555771D02*
X180935238Y-103555771D01*
X180935238Y-103555771D02*
X181030476Y-103603390D01*
X181030476Y-103603390D02*
X181078095Y-103651009D01*
X181078095Y-103651009D02*
X181125714Y-103746247D01*
X181125714Y-103746247D02*
X181125714Y-103984342D01*
X181125714Y-103984342D02*
X181078095Y-104079580D01*
X181078095Y-104079580D02*
X181030476Y-104127200D01*
X181030476Y-104127200D02*
X180935238Y-104174819D01*
X180935238Y-104174819D02*
X180697143Y-104174819D01*
X180697143Y-104174819D02*
X180601905Y-104127200D01*
X180601905Y-104127200D02*
X180554286Y-104079580D01*
X183888095Y-103854819D02*
X183888095Y-102854819D01*
X184459523Y-103854819D02*
X184030952Y-103283390D01*
X184459523Y-102854819D02*
X183888095Y-103426247D01*
X125730476Y-123869819D02*
X125730476Y-122869819D01*
X126778094Y-123774580D02*
X126730475Y-123822200D01*
X126730475Y-123822200D02*
X126587618Y-123869819D01*
X126587618Y-123869819D02*
X126492380Y-123869819D01*
X126492380Y-123869819D02*
X126349523Y-123822200D01*
X126349523Y-123822200D02*
X126254285Y-123726961D01*
X126254285Y-123726961D02*
X126206666Y-123631723D01*
X126206666Y-123631723D02*
X126159047Y-123441247D01*
X126159047Y-123441247D02*
X126159047Y-123298390D01*
X126159047Y-123298390D02*
X126206666Y-123107914D01*
X126206666Y-123107914D02*
X126254285Y-123012676D01*
X126254285Y-123012676D02*
X126349523Y-122917438D01*
X126349523Y-122917438D02*
X126492380Y-122869819D01*
X126492380Y-122869819D02*
X126587618Y-122869819D01*
X126587618Y-122869819D02*
X126730475Y-122917438D01*
X126730475Y-122917438D02*
X126778094Y-122965057D01*
X127635237Y-122869819D02*
X127444761Y-122869819D01*
X127444761Y-122869819D02*
X127349523Y-122917438D01*
X127349523Y-122917438D02*
X127301904Y-122965057D01*
X127301904Y-122965057D02*
X127206666Y-123107914D01*
X127206666Y-123107914D02*
X127159047Y-123298390D01*
X127159047Y-123298390D02*
X127159047Y-123679342D01*
X127159047Y-123679342D02*
X127206666Y-123774580D01*
X127206666Y-123774580D02*
X127254285Y-123822200D01*
X127254285Y-123822200D02*
X127349523Y-123869819D01*
X127349523Y-123869819D02*
X127539999Y-123869819D01*
X127539999Y-123869819D02*
X127635237Y-123822200D01*
X127635237Y-123822200D02*
X127682856Y-123774580D01*
X127682856Y-123774580D02*
X127730475Y-123679342D01*
X127730475Y-123679342D02*
X127730475Y-123441247D01*
X127730475Y-123441247D02*
X127682856Y-123346009D01*
X127682856Y-123346009D02*
X127635237Y-123298390D01*
X127635237Y-123298390D02*
X127539999Y-123250771D01*
X127539999Y-123250771D02*
X127349523Y-123250771D01*
X127349523Y-123250771D02*
X127254285Y-123298390D01*
X127254285Y-123298390D02*
X127206666Y-123346009D01*
X127206666Y-123346009D02*
X127159047Y-123441247D01*
X127920952Y-123965057D02*
X128682856Y-123965057D01*
X128873333Y-123822200D02*
X129016190Y-123869819D01*
X129016190Y-123869819D02*
X129254285Y-123869819D01*
X129254285Y-123869819D02*
X129349523Y-123822200D01*
X129349523Y-123822200D02*
X129397142Y-123774580D01*
X129397142Y-123774580D02*
X129444761Y-123679342D01*
X129444761Y-123679342D02*
X129444761Y-123584104D01*
X129444761Y-123584104D02*
X129397142Y-123488866D01*
X129397142Y-123488866D02*
X129349523Y-123441247D01*
X129349523Y-123441247D02*
X129254285Y-123393628D01*
X129254285Y-123393628D02*
X129063809Y-123346009D01*
X129063809Y-123346009D02*
X128968571Y-123298390D01*
X128968571Y-123298390D02*
X128920952Y-123250771D01*
X128920952Y-123250771D02*
X128873333Y-123155533D01*
X128873333Y-123155533D02*
X128873333Y-123060295D01*
X128873333Y-123060295D02*
X128920952Y-122965057D01*
X128920952Y-122965057D02*
X128968571Y-122917438D01*
X128968571Y-122917438D02*
X129063809Y-122869819D01*
X129063809Y-122869819D02*
X129301904Y-122869819D01*
X129301904Y-122869819D02*
X129444761Y-122917438D01*
X130444761Y-123869819D02*
X130111428Y-123393628D01*
X129873333Y-123869819D02*
X129873333Y-122869819D01*
X129873333Y-122869819D02*
X130254285Y-122869819D01*
X130254285Y-122869819D02*
X130349523Y-122917438D01*
X130349523Y-122917438D02*
X130397142Y-122965057D01*
X130397142Y-122965057D02*
X130444761Y-123060295D01*
X130444761Y-123060295D02*
X130444761Y-123203152D01*
X130444761Y-123203152D02*
X130397142Y-123298390D01*
X130397142Y-123298390D02*
X130349523Y-123346009D01*
X130349523Y-123346009D02*
X130254285Y-123393628D01*
X130254285Y-123393628D02*
X129873333Y-123393628D01*
X130825714Y-123584104D02*
X131301904Y-123584104D01*
X130730476Y-123869819D02*
X131063809Y-122869819D01*
X131063809Y-122869819D02*
X131397142Y-123869819D01*
X131730476Y-123869819D02*
X131730476Y-122869819D01*
X131730476Y-122869819D02*
X132063809Y-123584104D01*
X132063809Y-123584104D02*
X132397142Y-122869819D01*
X132397142Y-122869819D02*
X132397142Y-123869819D01*
X133397142Y-123869819D02*
X132825714Y-123869819D01*
X133111428Y-123869819D02*
X133111428Y-122869819D01*
X133111428Y-122869819D02*
X133016190Y-123012676D01*
X133016190Y-123012676D02*
X132920952Y-123107914D01*
X132920952Y-123107914D02*
X132825714Y-123155533D01*
X127508095Y-88564819D02*
X127508095Y-89374342D01*
X127508095Y-89374342D02*
X127555714Y-89469580D01*
X127555714Y-89469580D02*
X127603333Y-89517200D01*
X127603333Y-89517200D02*
X127698571Y-89564819D01*
X127698571Y-89564819D02*
X127889047Y-89564819D01*
X127889047Y-89564819D02*
X127984285Y-89517200D01*
X127984285Y-89517200D02*
X128031904Y-89469580D01*
X128031904Y-89469580D02*
X128079523Y-89374342D01*
X128079523Y-89374342D02*
X128079523Y-88564819D01*
X129079523Y-89564819D02*
X128508095Y-89564819D01*
X128793809Y-89564819D02*
X128793809Y-88564819D01*
X128793809Y-88564819D02*
X128698571Y-88707676D01*
X128698571Y-88707676D02*
X128603333Y-88802914D01*
X128603333Y-88802914D02*
X128508095Y-88850533D01*
X179601905Y-94014819D02*
X179601905Y-93014819D01*
X179601905Y-93014819D02*
X179840000Y-93014819D01*
X179840000Y-93014819D02*
X179982857Y-93062438D01*
X179982857Y-93062438D02*
X180078095Y-93157676D01*
X180078095Y-93157676D02*
X180125714Y-93252914D01*
X180125714Y-93252914D02*
X180173333Y-93443390D01*
X180173333Y-93443390D02*
X180173333Y-93586247D01*
X180173333Y-93586247D02*
X180125714Y-93776723D01*
X180125714Y-93776723D02*
X180078095Y-93871961D01*
X180078095Y-93871961D02*
X179982857Y-93967200D01*
X179982857Y-93967200D02*
X179840000Y-94014819D01*
X179840000Y-94014819D02*
X179601905Y-94014819D01*
X180506667Y-93014819D02*
X181125714Y-93014819D01*
X181125714Y-93014819D02*
X180792381Y-93395771D01*
X180792381Y-93395771D02*
X180935238Y-93395771D01*
X180935238Y-93395771D02*
X181030476Y-93443390D01*
X181030476Y-93443390D02*
X181078095Y-93491009D01*
X181078095Y-93491009D02*
X181125714Y-93586247D01*
X181125714Y-93586247D02*
X181125714Y-93824342D01*
X181125714Y-93824342D02*
X181078095Y-93919580D01*
X181078095Y-93919580D02*
X181030476Y-93967200D01*
X181030476Y-93967200D02*
X180935238Y-94014819D01*
X180935238Y-94014819D02*
X180649524Y-94014819D01*
X180649524Y-94014819D02*
X180554286Y-93967200D01*
X180554286Y-93967200D02*
X180506667Y-93919580D01*
X183888095Y-93694819D02*
X183888095Y-92694819D01*
X184459523Y-93694819D02*
X184030952Y-93123390D01*
X184459523Y-92694819D02*
X183888095Y-93266247D01*
X90983333Y-75849580D02*
X90935714Y-75897200D01*
X90935714Y-75897200D02*
X90792857Y-75944819D01*
X90792857Y-75944819D02*
X90697619Y-75944819D01*
X90697619Y-75944819D02*
X90554762Y-75897200D01*
X90554762Y-75897200D02*
X90459524Y-75801961D01*
X90459524Y-75801961D02*
X90411905Y-75706723D01*
X90411905Y-75706723D02*
X90364286Y-75516247D01*
X90364286Y-75516247D02*
X90364286Y-75373390D01*
X90364286Y-75373390D02*
X90411905Y-75182914D01*
X90411905Y-75182914D02*
X90459524Y-75087676D01*
X90459524Y-75087676D02*
X90554762Y-74992438D01*
X90554762Y-74992438D02*
X90697619Y-74944819D01*
X90697619Y-74944819D02*
X90792857Y-74944819D01*
X90792857Y-74944819D02*
X90935714Y-74992438D01*
X90935714Y-74992438D02*
X90983333Y-75040057D01*
X91935714Y-75944819D02*
X91364286Y-75944819D01*
X91650000Y-75944819D02*
X91650000Y-74944819D01*
X91650000Y-74944819D02*
X91554762Y-75087676D01*
X91554762Y-75087676D02*
X91459524Y-75182914D01*
X91459524Y-75182914D02*
X91364286Y-75230533D01*
X195894819Y-141163333D02*
X196609104Y-141163333D01*
X196609104Y-141163333D02*
X196751961Y-141210952D01*
X196751961Y-141210952D02*
X196847200Y-141306190D01*
X196847200Y-141306190D02*
X196894819Y-141449047D01*
X196894819Y-141449047D02*
X196894819Y-141544285D01*
X195990057Y-140734761D02*
X195942438Y-140687142D01*
X195942438Y-140687142D02*
X195894819Y-140591904D01*
X195894819Y-140591904D02*
X195894819Y-140353809D01*
X195894819Y-140353809D02*
X195942438Y-140258571D01*
X195942438Y-140258571D02*
X195990057Y-140210952D01*
X195990057Y-140210952D02*
X196085295Y-140163333D01*
X196085295Y-140163333D02*
X196180533Y-140163333D01*
X196180533Y-140163333D02*
X196323390Y-140210952D01*
X196323390Y-140210952D02*
X196894819Y-140782380D01*
X196894819Y-140782380D02*
X196894819Y-140163333D01*
X160528095Y-126664819D02*
X160528095Y-127474342D01*
X160528095Y-127474342D02*
X160575714Y-127569580D01*
X160575714Y-127569580D02*
X160623333Y-127617200D01*
X160623333Y-127617200D02*
X160718571Y-127664819D01*
X160718571Y-127664819D02*
X160909047Y-127664819D01*
X160909047Y-127664819D02*
X161004285Y-127617200D01*
X161004285Y-127617200D02*
X161051904Y-127569580D01*
X161051904Y-127569580D02*
X161099523Y-127474342D01*
X161099523Y-127474342D02*
X161099523Y-126664819D01*
X162004285Y-126664819D02*
X161813809Y-126664819D01*
X161813809Y-126664819D02*
X161718571Y-126712438D01*
X161718571Y-126712438D02*
X161670952Y-126760057D01*
X161670952Y-126760057D02*
X161575714Y-126902914D01*
X161575714Y-126902914D02*
X161528095Y-127093390D01*
X161528095Y-127093390D02*
X161528095Y-127474342D01*
X161528095Y-127474342D02*
X161575714Y-127569580D01*
X161575714Y-127569580D02*
X161623333Y-127617200D01*
X161623333Y-127617200D02*
X161718571Y-127664819D01*
X161718571Y-127664819D02*
X161909047Y-127664819D01*
X161909047Y-127664819D02*
X162004285Y-127617200D01*
X162004285Y-127617200D02*
X162051904Y-127569580D01*
X162051904Y-127569580D02*
X162099523Y-127474342D01*
X162099523Y-127474342D02*
X162099523Y-127236247D01*
X162099523Y-127236247D02*
X162051904Y-127141009D01*
X162051904Y-127141009D02*
X162004285Y-127093390D01*
X162004285Y-127093390D02*
X161909047Y-127045771D01*
X161909047Y-127045771D02*
X161718571Y-127045771D01*
X161718571Y-127045771D02*
X161623333Y-127093390D01*
X161623333Y-127093390D02*
X161575714Y-127141009D01*
X161575714Y-127141009D02*
X161528095Y-127236247D01*
X67628810Y-108619819D02*
X67628810Y-107619819D01*
X68676428Y-108524580D02*
X68628809Y-108572200D01*
X68628809Y-108572200D02*
X68485952Y-108619819D01*
X68485952Y-108619819D02*
X68390714Y-108619819D01*
X68390714Y-108619819D02*
X68247857Y-108572200D01*
X68247857Y-108572200D02*
X68152619Y-108476961D01*
X68152619Y-108476961D02*
X68105000Y-108381723D01*
X68105000Y-108381723D02*
X68057381Y-108191247D01*
X68057381Y-108191247D02*
X68057381Y-108048390D01*
X68057381Y-108048390D02*
X68105000Y-107857914D01*
X68105000Y-107857914D02*
X68152619Y-107762676D01*
X68152619Y-107762676D02*
X68247857Y-107667438D01*
X68247857Y-107667438D02*
X68390714Y-107619819D01*
X68390714Y-107619819D02*
X68485952Y-107619819D01*
X68485952Y-107619819D02*
X68628809Y-107667438D01*
X68628809Y-107667438D02*
X68676428Y-107715057D01*
X69628809Y-108619819D02*
X69057381Y-108619819D01*
X69343095Y-108619819D02*
X69343095Y-107619819D01*
X69343095Y-107619819D02*
X69247857Y-107762676D01*
X69247857Y-107762676D02*
X69152619Y-107857914D01*
X69152619Y-107857914D02*
X69057381Y-107905533D01*
X110998095Y-93664819D02*
X110998095Y-94474342D01*
X110998095Y-94474342D02*
X111045714Y-94569580D01*
X111045714Y-94569580D02*
X111093333Y-94617200D01*
X111093333Y-94617200D02*
X111188571Y-94664819D01*
X111188571Y-94664819D02*
X111379047Y-94664819D01*
X111379047Y-94664819D02*
X111474285Y-94617200D01*
X111474285Y-94617200D02*
X111521904Y-94569580D01*
X111521904Y-94569580D02*
X111569523Y-94474342D01*
X111569523Y-94474342D02*
X111569523Y-93664819D01*
X112474285Y-93998152D02*
X112474285Y-94664819D01*
X112236190Y-93617200D02*
X111998095Y-94331485D01*
X111998095Y-94331485D02*
X112617142Y-94331485D01*
X179601905Y-119414819D02*
X179601905Y-118414819D01*
X179601905Y-118414819D02*
X179840000Y-118414819D01*
X179840000Y-118414819D02*
X179982857Y-118462438D01*
X179982857Y-118462438D02*
X180078095Y-118557676D01*
X180078095Y-118557676D02*
X180125714Y-118652914D01*
X180125714Y-118652914D02*
X180173333Y-118843390D01*
X180173333Y-118843390D02*
X180173333Y-118986247D01*
X180173333Y-118986247D02*
X180125714Y-119176723D01*
X180125714Y-119176723D02*
X180078095Y-119271961D01*
X180078095Y-119271961D02*
X179982857Y-119367200D01*
X179982857Y-119367200D02*
X179840000Y-119414819D01*
X179840000Y-119414819D02*
X179601905Y-119414819D01*
X180744762Y-118843390D02*
X180649524Y-118795771D01*
X180649524Y-118795771D02*
X180601905Y-118748152D01*
X180601905Y-118748152D02*
X180554286Y-118652914D01*
X180554286Y-118652914D02*
X180554286Y-118605295D01*
X180554286Y-118605295D02*
X180601905Y-118510057D01*
X180601905Y-118510057D02*
X180649524Y-118462438D01*
X180649524Y-118462438D02*
X180744762Y-118414819D01*
X180744762Y-118414819D02*
X180935238Y-118414819D01*
X180935238Y-118414819D02*
X181030476Y-118462438D01*
X181030476Y-118462438D02*
X181078095Y-118510057D01*
X181078095Y-118510057D02*
X181125714Y-118605295D01*
X181125714Y-118605295D02*
X181125714Y-118652914D01*
X181125714Y-118652914D02*
X181078095Y-118748152D01*
X181078095Y-118748152D02*
X181030476Y-118795771D01*
X181030476Y-118795771D02*
X180935238Y-118843390D01*
X180935238Y-118843390D02*
X180744762Y-118843390D01*
X180744762Y-118843390D02*
X180649524Y-118891009D01*
X180649524Y-118891009D02*
X180601905Y-118938628D01*
X180601905Y-118938628D02*
X180554286Y-119033866D01*
X180554286Y-119033866D02*
X180554286Y-119224342D01*
X180554286Y-119224342D02*
X180601905Y-119319580D01*
X180601905Y-119319580D02*
X180649524Y-119367200D01*
X180649524Y-119367200D02*
X180744762Y-119414819D01*
X180744762Y-119414819D02*
X180935238Y-119414819D01*
X180935238Y-119414819D02*
X181030476Y-119367200D01*
X181030476Y-119367200D02*
X181078095Y-119319580D01*
X181078095Y-119319580D02*
X181125714Y-119224342D01*
X181125714Y-119224342D02*
X181125714Y-119033866D01*
X181125714Y-119033866D02*
X181078095Y-118938628D01*
X181078095Y-118938628D02*
X181030476Y-118891009D01*
X181030476Y-118891009D02*
X180935238Y-118843390D01*
X183888095Y-119094819D02*
X183888095Y-118094819D01*
X184459523Y-119094819D02*
X184030952Y-118523390D01*
X184459523Y-118094819D02*
X183888095Y-118666247D01*
X179601905Y-88934819D02*
X179601905Y-87934819D01*
X179601905Y-87934819D02*
X179840000Y-87934819D01*
X179840000Y-87934819D02*
X179982857Y-87982438D01*
X179982857Y-87982438D02*
X180078095Y-88077676D01*
X180078095Y-88077676D02*
X180125714Y-88172914D01*
X180125714Y-88172914D02*
X180173333Y-88363390D01*
X180173333Y-88363390D02*
X180173333Y-88506247D01*
X180173333Y-88506247D02*
X180125714Y-88696723D01*
X180125714Y-88696723D02*
X180078095Y-88791961D01*
X180078095Y-88791961D02*
X179982857Y-88887200D01*
X179982857Y-88887200D02*
X179840000Y-88934819D01*
X179840000Y-88934819D02*
X179601905Y-88934819D01*
X180554286Y-88030057D02*
X180601905Y-87982438D01*
X180601905Y-87982438D02*
X180697143Y-87934819D01*
X180697143Y-87934819D02*
X180935238Y-87934819D01*
X180935238Y-87934819D02*
X181030476Y-87982438D01*
X181030476Y-87982438D02*
X181078095Y-88030057D01*
X181078095Y-88030057D02*
X181125714Y-88125295D01*
X181125714Y-88125295D02*
X181125714Y-88220533D01*
X181125714Y-88220533D02*
X181078095Y-88363390D01*
X181078095Y-88363390D02*
X180506667Y-88934819D01*
X180506667Y-88934819D02*
X181125714Y-88934819D01*
X183888095Y-88614819D02*
X183888095Y-87614819D01*
X184459523Y-88614819D02*
X184030952Y-88043390D01*
X184459523Y-87614819D02*
X183888095Y-88186247D01*
X179601905Y-114334819D02*
X179601905Y-113334819D01*
X179601905Y-113334819D02*
X179840000Y-113334819D01*
X179840000Y-113334819D02*
X179982857Y-113382438D01*
X179982857Y-113382438D02*
X180078095Y-113477676D01*
X180078095Y-113477676D02*
X180125714Y-113572914D01*
X180125714Y-113572914D02*
X180173333Y-113763390D01*
X180173333Y-113763390D02*
X180173333Y-113906247D01*
X180173333Y-113906247D02*
X180125714Y-114096723D01*
X180125714Y-114096723D02*
X180078095Y-114191961D01*
X180078095Y-114191961D02*
X179982857Y-114287200D01*
X179982857Y-114287200D02*
X179840000Y-114334819D01*
X179840000Y-114334819D02*
X179601905Y-114334819D01*
X180506667Y-113334819D02*
X181173333Y-113334819D01*
X181173333Y-113334819D02*
X180744762Y-114334819D01*
X183888095Y-114014819D02*
X183888095Y-113014819D01*
X184459523Y-114014819D02*
X184030952Y-113443390D01*
X184459523Y-113014819D02*
X183888095Y-113586247D01*
D11*
%TO.C,U7*%
X158640000Y-97710000D02*
X158640000Y-115610000D01*
X158640000Y-115610000D02*
X163940000Y-115610000D01*
X160290000Y-97710000D02*
X158640000Y-97710000D01*
X163940000Y-97710000D02*
X162290000Y-97710000D01*
X163940000Y-115610000D02*
X163940000Y-97710000D01*
X160290000Y-97710000D02*
G75*
G03*
X162290000Y-97710000I1000000J0D01*
G01*
%TO.C,IC2_EEPROM1*%
X95140000Y-124415000D02*
X95140000Y-160095000D01*
X95140000Y-160095000D02*
X108060000Y-160095000D01*
X100600000Y-124415000D02*
X95140000Y-124415000D01*
X108060000Y-124415000D02*
X102600000Y-124415000D01*
X108060000Y-160095000D02*
X108060000Y-124415000D01*
X100600000Y-124415000D02*
G75*
G03*
X102600000Y-124415000I1000000J0D01*
G01*
%TO.C,RV1*%
X152279000Y-79806000D02*
X152279000Y-82675000D01*
X152279000Y-80120000D02*
X152279000Y-82360000D01*
X152279000Y-80120000D02*
X156020000Y-80120000D01*
X152279000Y-82360000D02*
X156020000Y-82360000D01*
X153325000Y-77970000D02*
X156020000Y-77970000D01*
X153325000Y-84510000D02*
X156020000Y-84510000D01*
X156020000Y-77970000D02*
X156020000Y-84510000D01*
X156020000Y-80120000D02*
X156020000Y-82360000D01*
%TO.C,R2*%
X176947133Y-156780001D02*
G75*
G03*
X176850095Y-158229358I-417133J-699999D01*
G01*
%TO.C,U3*%
X110430000Y-82660000D02*
X135950000Y-82660000D01*
X135950000Y-82660000D02*
X135950000Y-77360000D01*
X110430000Y-81010000D02*
X110430000Y-82660000D01*
X110430000Y-77360000D02*
X110430000Y-79010000D01*
X135950000Y-77360000D02*
X110430000Y-77360000D01*
X110430000Y-81010000D02*
G75*
G03*
X110430000Y-79010000I0J1000000D01*
G01*
D12*
%TO.C,DIS1*%
X157860000Y-70880000D02*
X157860000Y-34880000D01*
X157860000Y-70880000D02*
X77860000Y-70880000D01*
X157860000Y-34880000D02*
X77860000Y-34880000D01*
X77860000Y-34880000D02*
X77860000Y-70880000D01*
D11*
%TO.C,R7*%
X176947133Y-133194301D02*
G75*
G03*
X176850095Y-134643658I-417133J-699999D01*
G01*
%TO.C,J1*%
X51780000Y-34000000D02*
X51780000Y-42200000D01*
X51780000Y-34000000D02*
X59980000Y-34000000D01*
X51780000Y-38600000D02*
X52280000Y-38100000D01*
X51780000Y-42200000D02*
X59980000Y-42200000D01*
X52280000Y-38100000D02*
X51780000Y-37600000D01*
X59980000Y-34000000D02*
X59980000Y-42200000D01*
%TO.C,R5*%
X176947133Y-142628601D02*
G75*
G03*
X176850095Y-144077958I-417133J-699999D01*
G01*
%TO.C,SW1*%
X166370000Y-55880000D02*
X166370000Y-66040000D01*
X166370000Y-55880000D02*
X173990000Y-55880000D01*
X166370000Y-66040000D02*
X173990000Y-66040000D01*
X173990000Y-66040000D02*
X173990000Y-55880000D01*
X172180000Y-60960000D02*
G75*
G03*
X172180000Y-60960000I-2000000J0D01*
G01*
%TO.C,X1*%
X58130000Y-87010000D02*
X58130000Y-99160000D01*
X58130000Y-99160000D02*
X78280000Y-99160000D01*
X78280000Y-86260000D02*
X58880000Y-86260000D01*
X79030000Y-98410000D02*
X79030000Y-87010000D01*
X58880000Y-86260000D02*
G75*
G03*
X58130000Y-87010000I0J-750000D01*
G01*
X79030000Y-87010000D02*
G75*
G03*
X78280000Y-86260000I-750000J0D01*
G01*
X78280000Y-99160000D02*
G75*
G03*
X79030000Y-98410000I0J750000D01*
G01*
%TO.C,R1*%
X67097133Y-39940001D02*
G75*
G03*
X67000095Y-41389358I-417133J-699999D01*
G01*
%TO.C,R6*%
X176947133Y-137911401D02*
G75*
G03*
X176850095Y-139360758I-417133J-699999D01*
G01*
%TO.C,D1*%
X177570000Y-81280000D02*
X178220000Y-81280000D01*
X178220000Y-80160000D02*
X178220000Y-82400000D01*
X178220000Y-82400000D02*
X182460000Y-82400000D01*
X178820000Y-80160000D02*
X178820000Y-82400000D01*
X178940000Y-80160000D02*
X178940000Y-82400000D01*
X179060000Y-80160000D02*
X179060000Y-82400000D01*
X182460000Y-80160000D02*
X178220000Y-80160000D01*
X182460000Y-82400000D02*
X182460000Y-80160000D01*
X183110000Y-81280000D02*
X182460000Y-81280000D01*
%TO.C,J3*%
X193150000Y-111890000D02*
X195650000Y-111890000D01*
X195650000Y-111890000D02*
X195650000Y-109390000D01*
X191330000Y-111590000D02*
X195350000Y-111590000D01*
X193040000Y-111590000D02*
X193040000Y-111090000D01*
X193850000Y-111590000D02*
X193850000Y-110590000D01*
X195350000Y-111590000D02*
X195350000Y-88870000D01*
X191830000Y-111090000D02*
X191830000Y-89370000D01*
X193040000Y-111090000D02*
X191830000Y-111090000D01*
X193850000Y-110590000D02*
X195350000Y-110590000D01*
X193850000Y-89870000D02*
X195350000Y-89870000D01*
X191830000Y-89370000D02*
X193040000Y-89370000D01*
X193040000Y-89370000D02*
X193040000Y-88870000D01*
X191330000Y-88870000D02*
X191330000Y-111590000D01*
X193850000Y-88870000D02*
X193850000Y-89870000D01*
X195350000Y-88870000D02*
X191330000Y-88870000D01*
%TO.C,U2*%
X92600000Y-97710000D02*
X92600000Y-115610000D01*
X92600000Y-115610000D02*
X97900000Y-115610000D01*
X94250000Y-97710000D02*
X92600000Y-97710000D01*
X97900000Y-97710000D02*
X96250000Y-97710000D01*
X97900000Y-115610000D02*
X97900000Y-97710000D01*
X94250000Y-97710000D02*
G75*
G03*
X96250000Y-97710000I1000000J0D01*
G01*
%TO.C,R8*%
X176947133Y-128477101D02*
G75*
G03*
X176850095Y-129926458I-417133J-699999D01*
G01*
%TO.C,R3*%
X176947133Y-147345701D02*
G75*
G03*
X176850095Y-148795058I-417133J-699999D01*
G01*
%TO.C,D6*%
X183110000Y-106680000D02*
X182460000Y-106680000D01*
X182460000Y-107800000D02*
X182460000Y-105560000D01*
X182460000Y-105560000D02*
X178220000Y-105560000D01*
X181860000Y-107800000D02*
X181860000Y-105560000D01*
X181740000Y-107800000D02*
X181740000Y-105560000D01*
X181620000Y-107800000D02*
X181620000Y-105560000D01*
X178220000Y-107800000D02*
X182460000Y-107800000D01*
X178220000Y-105560000D02*
X178220000Y-107800000D01*
X177570000Y-106680000D02*
X178220000Y-106680000D01*
%TO.C,U5*%
X142130000Y-97710000D02*
X142130000Y-115610000D01*
X142130000Y-115610000D02*
X147430000Y-115610000D01*
X143780000Y-97710000D02*
X142130000Y-97710000D01*
X147430000Y-97710000D02*
X145780000Y-97710000D01*
X147430000Y-115610000D02*
X147430000Y-97710000D01*
X143780000Y-97710000D02*
G75*
G03*
X145780000Y-97710000I1000000J0D01*
G01*
%TO.C,R4*%
X176947133Y-152062901D02*
G75*
G03*
X176850095Y-153512258I-417133J-699999D01*
G01*
%TO.C,R9*%
X176947133Y-123760001D02*
G75*
G03*
X176850095Y-125209358I-417133J-699999D01*
G01*
%TO.C,C2*%
X97540199Y-77545000D02*
X97940199Y-77545000D01*
X97740199Y-77345000D02*
X97740199Y-77745000D01*
X99810000Y-76660000D02*
X99810000Y-77900000D01*
X99810000Y-79580000D02*
X99810000Y-80820000D01*
X99850000Y-76660000D02*
X99850000Y-77900000D01*
X99850000Y-79580000D02*
X99850000Y-80820000D01*
X99890000Y-76661000D02*
X99890000Y-77900000D01*
X99890000Y-79580000D02*
X99890000Y-80819000D01*
X99930000Y-76663000D02*
X99930000Y-77900000D01*
X99930000Y-79580000D02*
X99930000Y-80817000D01*
X99970000Y-76666000D02*
X99970000Y-77900000D01*
X99970000Y-79580000D02*
X99970000Y-80814000D01*
X100010000Y-76669000D02*
X100010000Y-77900000D01*
X100010000Y-79580000D02*
X100010000Y-80811000D01*
X100050000Y-76673000D02*
X100050000Y-77900000D01*
X100050000Y-79580000D02*
X100050000Y-80807000D01*
X100090000Y-76678000D02*
X100090000Y-77900000D01*
X100090000Y-79580000D02*
X100090000Y-80802000D01*
X100130000Y-76684000D02*
X100130000Y-77900000D01*
X100130000Y-79580000D02*
X100130000Y-80796000D01*
X100170000Y-76690000D02*
X100170000Y-77900000D01*
X100170000Y-79580000D02*
X100170000Y-80790000D01*
X100210000Y-76698000D02*
X100210000Y-77900000D01*
X100210000Y-79580000D02*
X100210000Y-80782000D01*
X100250000Y-76706000D02*
X100250000Y-77900000D01*
X100250000Y-79580000D02*
X100250000Y-80774000D01*
X100290000Y-76715000D02*
X100290000Y-77900000D01*
X100290000Y-79580000D02*
X100290000Y-80765000D01*
X100330000Y-76724000D02*
X100330000Y-77900000D01*
X100330000Y-79580000D02*
X100330000Y-80756000D01*
X100370000Y-76735000D02*
X100370000Y-77900000D01*
X100370000Y-79580000D02*
X100370000Y-80745000D01*
X100410000Y-76746000D02*
X100410000Y-77900000D01*
X100410000Y-79580000D02*
X100410000Y-80734000D01*
X100450000Y-76758000D02*
X100450000Y-77900000D01*
X100450000Y-79580000D02*
X100450000Y-80722000D01*
X100490000Y-76772000D02*
X100490000Y-77900000D01*
X100490000Y-79580000D02*
X100490000Y-80708000D01*
X100531000Y-76786000D02*
X100531000Y-77900000D01*
X100531000Y-79580000D02*
X100531000Y-80694000D01*
X100571000Y-76800000D02*
X100571000Y-77900000D01*
X100571000Y-79580000D02*
X100571000Y-80680000D01*
X100611000Y-76816000D02*
X100611000Y-77900000D01*
X100611000Y-79580000D02*
X100611000Y-80664000D01*
X100651000Y-76833000D02*
X100651000Y-77900000D01*
X100651000Y-79580000D02*
X100651000Y-80647000D01*
X100691000Y-76851000D02*
X100691000Y-77900000D01*
X100691000Y-79580000D02*
X100691000Y-80629000D01*
X100731000Y-76870000D02*
X100731000Y-77900000D01*
X100731000Y-79580000D02*
X100731000Y-80610000D01*
X100771000Y-76889000D02*
X100771000Y-77900000D01*
X100771000Y-79580000D02*
X100771000Y-80591000D01*
X100811000Y-76910000D02*
X100811000Y-77900000D01*
X100811000Y-79580000D02*
X100811000Y-80570000D01*
X100851000Y-76932000D02*
X100851000Y-77900000D01*
X100851000Y-79580000D02*
X100851000Y-80548000D01*
X100891000Y-76955000D02*
X100891000Y-77900000D01*
X100891000Y-79580000D02*
X100891000Y-80525000D01*
X100931000Y-76980000D02*
X100931000Y-77900000D01*
X100931000Y-79580000D02*
X100931000Y-80500000D01*
X100971000Y-77005000D02*
X100971000Y-77900000D01*
X100971000Y-79580000D02*
X100971000Y-80475000D01*
X101011000Y-77032000D02*
X101011000Y-77900000D01*
X101011000Y-79580000D02*
X101011000Y-80448000D01*
X101051000Y-77060000D02*
X101051000Y-77900000D01*
X101051000Y-79580000D02*
X101051000Y-80420000D01*
X101091000Y-77090000D02*
X101091000Y-77900000D01*
X101091000Y-79580000D02*
X101091000Y-80390000D01*
X101131000Y-77121000D02*
X101131000Y-77900000D01*
X101131000Y-79580000D02*
X101131000Y-80359000D01*
X101171000Y-77153000D02*
X101171000Y-77900000D01*
X101171000Y-79580000D02*
X101171000Y-80327000D01*
X101211000Y-77188000D02*
X101211000Y-77900000D01*
X101211000Y-79580000D02*
X101211000Y-80292000D01*
X101251000Y-77224000D02*
X101251000Y-77900000D01*
X101251000Y-79580000D02*
X101251000Y-80256000D01*
X101291000Y-77262000D02*
X101291000Y-77900000D01*
X101291000Y-79580000D02*
X101291000Y-80218000D01*
X101331000Y-77302000D02*
X101331000Y-77900000D01*
X101331000Y-79580000D02*
X101331000Y-80178000D01*
X101371000Y-77344000D02*
X101371000Y-77900000D01*
X101371000Y-79580000D02*
X101371000Y-80136000D01*
X101411000Y-77389000D02*
X101411000Y-80091000D01*
X101451000Y-77436000D02*
X101451000Y-80044000D01*
X101491000Y-77486000D02*
X101491000Y-79994000D01*
X101531000Y-77540000D02*
X101531000Y-79940000D01*
X101571000Y-77598000D02*
X101571000Y-79882000D01*
X101611000Y-77660000D02*
X101611000Y-79820000D01*
X101651000Y-77727000D02*
X101651000Y-79753000D01*
X101691000Y-77800000D02*
X101691000Y-79680000D01*
X101731000Y-77881000D02*
X101731000Y-79599000D01*
X101771000Y-77972000D02*
X101771000Y-79508000D01*
X101811000Y-78076000D02*
X101811000Y-79404000D01*
X101851000Y-78203000D02*
X101851000Y-79277000D01*
X101891000Y-78370000D02*
X101891000Y-79110000D01*
X101930000Y-78740000D02*
G75*
G03*
X101930000Y-78740000I-2120000J0D01*
G01*
%TO.C,D4*%
X183110000Y-96520000D02*
X182460000Y-96520000D01*
X182460000Y-97640000D02*
X182460000Y-95400000D01*
X182460000Y-95400000D02*
X178220000Y-95400000D01*
X181860000Y-97640000D02*
X181860000Y-95400000D01*
X181740000Y-97640000D02*
X181740000Y-95400000D01*
X181620000Y-97640000D02*
X181620000Y-95400000D01*
X178220000Y-97640000D02*
X182460000Y-97640000D01*
X178220000Y-95400000D02*
X178220000Y-97640000D01*
X177570000Y-96520000D02*
X178220000Y-96520000D01*
%TO.C,R10*%
X62017133Y-50100001D02*
G75*
G03*
X61920095Y-51549358I-417133J-699999D01*
G01*
%TO.C,D9*%
X57170000Y-52345000D02*
X57170000Y-49255000D01*
X51620001Y-50799538D02*
G75*
G03*
X57169999Y-52344830I2989999J-462D01*
G01*
X57170000Y-49255170D02*
G75*
G03*
X51620000Y-50800462I-2560000J-1544830D01*
G01*
X57110000Y-50800000D02*
G75*
G03*
X57110000Y-50800000I-2500000J0D01*
G01*
%TO.C,D5*%
X183110000Y-101600000D02*
X182460000Y-101600000D01*
X182460000Y-102720000D02*
X182460000Y-100480000D01*
X182460000Y-100480000D02*
X178220000Y-100480000D01*
X181860000Y-102720000D02*
X181860000Y-100480000D01*
X181740000Y-102720000D02*
X181740000Y-100480000D01*
X181620000Y-102720000D02*
X181620000Y-100480000D01*
X178220000Y-102720000D02*
X182460000Y-102720000D01*
X178220000Y-100480000D02*
X178220000Y-102720000D01*
X177570000Y-101600000D02*
X178220000Y-101600000D01*
%TO.C,IC6_SRAM1*%
X123080000Y-124415000D02*
X123080000Y-160095000D01*
X123080000Y-160095000D02*
X136000000Y-160095000D01*
X128540000Y-124415000D02*
X123080000Y-124415000D01*
X136000000Y-124415000D02*
X130540000Y-124415000D01*
X136000000Y-160095000D02*
X136000000Y-124415000D01*
X128540000Y-124415000D02*
G75*
G03*
X130540000Y-124415000I1000000J0D01*
G01*
%TO.C,U1*%
X125620000Y-90110000D02*
X125620000Y-115630000D01*
X125620000Y-115630000D02*
X130920000Y-115630000D01*
X127270000Y-90110000D02*
X125620000Y-90110000D01*
X130920000Y-90110000D02*
X129270000Y-90110000D01*
X130920000Y-115630000D02*
X130920000Y-90110000D01*
X127270000Y-90110000D02*
G75*
G03*
X129270000Y-90110000I1000000J0D01*
G01*
%TO.C,D3*%
X183110000Y-91440000D02*
X182460000Y-91440000D01*
X182460000Y-92560000D02*
X182460000Y-90320000D01*
X182460000Y-90320000D02*
X178220000Y-90320000D01*
X181860000Y-92560000D02*
X181860000Y-90320000D01*
X181740000Y-92560000D02*
X181740000Y-90320000D01*
X181620000Y-92560000D02*
X181620000Y-90320000D01*
X178220000Y-92560000D02*
X182460000Y-92560000D01*
X178220000Y-90320000D02*
X178220000Y-92560000D01*
X177570000Y-91440000D02*
X178220000Y-91440000D01*
%TO.C,C1*%
X88880199Y-77545000D02*
X89280199Y-77545000D01*
X89080199Y-77345000D02*
X89080199Y-77745000D01*
X91150000Y-76660000D02*
X91150000Y-77900000D01*
X91150000Y-79580000D02*
X91150000Y-80820000D01*
X91190000Y-76660000D02*
X91190000Y-77900000D01*
X91190000Y-79580000D02*
X91190000Y-80820000D01*
X91230000Y-76661000D02*
X91230000Y-77900000D01*
X91230000Y-79580000D02*
X91230000Y-80819000D01*
X91270000Y-76663000D02*
X91270000Y-77900000D01*
X91270000Y-79580000D02*
X91270000Y-80817000D01*
X91310000Y-76666000D02*
X91310000Y-77900000D01*
X91310000Y-79580000D02*
X91310000Y-80814000D01*
X91350000Y-76669000D02*
X91350000Y-77900000D01*
X91350000Y-79580000D02*
X91350000Y-80811000D01*
X91390000Y-76673000D02*
X91390000Y-77900000D01*
X91390000Y-79580000D02*
X91390000Y-80807000D01*
X91430000Y-76678000D02*
X91430000Y-77900000D01*
X91430000Y-79580000D02*
X91430000Y-80802000D01*
X91470000Y-76684000D02*
X91470000Y-77900000D01*
X91470000Y-79580000D02*
X91470000Y-80796000D01*
X91510000Y-76690000D02*
X91510000Y-77900000D01*
X91510000Y-79580000D02*
X91510000Y-80790000D01*
X91550000Y-76698000D02*
X91550000Y-77900000D01*
X91550000Y-79580000D02*
X91550000Y-80782000D01*
X91590000Y-76706000D02*
X91590000Y-77900000D01*
X91590000Y-79580000D02*
X91590000Y-80774000D01*
X91630000Y-76715000D02*
X91630000Y-77900000D01*
X91630000Y-79580000D02*
X91630000Y-80765000D01*
X91670000Y-76724000D02*
X91670000Y-77900000D01*
X91670000Y-79580000D02*
X91670000Y-80756000D01*
X91710000Y-76735000D02*
X91710000Y-77900000D01*
X91710000Y-79580000D02*
X91710000Y-80745000D01*
X91750000Y-76746000D02*
X91750000Y-77900000D01*
X91750000Y-79580000D02*
X91750000Y-80734000D01*
X91790000Y-76758000D02*
X91790000Y-77900000D01*
X91790000Y-79580000D02*
X91790000Y-80722000D01*
X91830000Y-76772000D02*
X91830000Y-77900000D01*
X91830000Y-79580000D02*
X91830000Y-80708000D01*
X91871000Y-76786000D02*
X91871000Y-77900000D01*
X91871000Y-79580000D02*
X91871000Y-80694000D01*
X91911000Y-76800000D02*
X91911000Y-77900000D01*
X91911000Y-79580000D02*
X91911000Y-80680000D01*
X91951000Y-76816000D02*
X91951000Y-77900000D01*
X91951000Y-79580000D02*
X91951000Y-80664000D01*
X91991000Y-76833000D02*
X91991000Y-77900000D01*
X91991000Y-79580000D02*
X91991000Y-80647000D01*
X92031000Y-76851000D02*
X92031000Y-77900000D01*
X92031000Y-79580000D02*
X92031000Y-80629000D01*
X92071000Y-76870000D02*
X92071000Y-77900000D01*
X92071000Y-79580000D02*
X92071000Y-80610000D01*
X92111000Y-76889000D02*
X92111000Y-77900000D01*
X92111000Y-79580000D02*
X92111000Y-80591000D01*
X92151000Y-76910000D02*
X92151000Y-77900000D01*
X92151000Y-79580000D02*
X92151000Y-80570000D01*
X92191000Y-76932000D02*
X92191000Y-77900000D01*
X92191000Y-79580000D02*
X92191000Y-80548000D01*
X92231000Y-76955000D02*
X92231000Y-77900000D01*
X92231000Y-79580000D02*
X92231000Y-80525000D01*
X92271000Y-76980000D02*
X92271000Y-77900000D01*
X92271000Y-79580000D02*
X92271000Y-80500000D01*
X92311000Y-77005000D02*
X92311000Y-77900000D01*
X92311000Y-79580000D02*
X92311000Y-80475000D01*
X92351000Y-77032000D02*
X92351000Y-77900000D01*
X92351000Y-79580000D02*
X92351000Y-80448000D01*
X92391000Y-77060000D02*
X92391000Y-77900000D01*
X92391000Y-79580000D02*
X92391000Y-80420000D01*
X92431000Y-77090000D02*
X92431000Y-77900000D01*
X92431000Y-79580000D02*
X92431000Y-80390000D01*
X92471000Y-77121000D02*
X92471000Y-77900000D01*
X92471000Y-79580000D02*
X92471000Y-80359000D01*
X92511000Y-77153000D02*
X92511000Y-77900000D01*
X92511000Y-79580000D02*
X92511000Y-80327000D01*
X92551000Y-77188000D02*
X92551000Y-77900000D01*
X92551000Y-79580000D02*
X92551000Y-80292000D01*
X92591000Y-77224000D02*
X92591000Y-77900000D01*
X92591000Y-79580000D02*
X92591000Y-80256000D01*
X92631000Y-77262000D02*
X92631000Y-77900000D01*
X92631000Y-79580000D02*
X92631000Y-80218000D01*
X92671000Y-77302000D02*
X92671000Y-77900000D01*
X92671000Y-79580000D02*
X92671000Y-80178000D01*
X92711000Y-77344000D02*
X92711000Y-77900000D01*
X92711000Y-79580000D02*
X92711000Y-80136000D01*
X92751000Y-77389000D02*
X92751000Y-80091000D01*
X92791000Y-77436000D02*
X92791000Y-80044000D01*
X92831000Y-77486000D02*
X92831000Y-79994000D01*
X92871000Y-77540000D02*
X92871000Y-79940000D01*
X92911000Y-77598000D02*
X92911000Y-79882000D01*
X92951000Y-77660000D02*
X92951000Y-79820000D01*
X92991000Y-77727000D02*
X92991000Y-79753000D01*
X93031000Y-77800000D02*
X93031000Y-79680000D01*
X93071000Y-77881000D02*
X93071000Y-79599000D01*
X93111000Y-77972000D02*
X93111000Y-79508000D01*
X93151000Y-78076000D02*
X93151000Y-79404000D01*
X93191000Y-78203000D02*
X93191000Y-79277000D01*
X93231000Y-78370000D02*
X93231000Y-79110000D01*
X93270000Y-78740000D02*
G75*
G03*
X93270000Y-78740000I-2120000J0D01*
G01*
%TO.C,J2*%
X193530000Y-129170000D02*
X191030000Y-129170000D01*
X191030000Y-129170000D02*
X191030000Y-131670000D01*
X195350000Y-129470000D02*
X191330000Y-129470000D01*
X193640000Y-129470000D02*
X193640000Y-129970000D01*
X192830000Y-129470000D02*
X192830000Y-130470000D01*
X191330000Y-129470000D02*
X191330000Y-152190000D01*
X194850000Y-129970000D02*
X194850000Y-151690000D01*
X193640000Y-129970000D02*
X194850000Y-129970000D01*
X192830000Y-130470000D02*
X191330000Y-130470000D01*
X192830000Y-151190000D02*
X191330000Y-151190000D01*
X194850000Y-151690000D02*
X193640000Y-151690000D01*
X193640000Y-151690000D02*
X193640000Y-152190000D01*
X195350000Y-152190000D02*
X195350000Y-129470000D01*
X192830000Y-152190000D02*
X192830000Y-151190000D01*
X191330000Y-152190000D02*
X195350000Y-152190000D01*
%TO.C,U6*%
X158640000Y-128210000D02*
X158640000Y-153730000D01*
X158640000Y-153730000D02*
X163940000Y-153730000D01*
X160290000Y-128210000D02*
X158640000Y-128210000D01*
X163940000Y-128210000D02*
X162290000Y-128210000D01*
X163940000Y-153730000D02*
X163940000Y-128210000D01*
X160290000Y-128210000D02*
G75*
G03*
X162290000Y-128210000I1000000J0D01*
G01*
%TO.C,IC1*%
X57065000Y-109165000D02*
X57065000Y-160085000D01*
X57065000Y-160085000D02*
X80145000Y-160085000D01*
X67605000Y-109165000D02*
X57065000Y-109165000D01*
X80145000Y-109165000D02*
X69605000Y-109165000D01*
X80145000Y-160085000D02*
X80145000Y-109165000D01*
X67605000Y-109165000D02*
G75*
G03*
X69605000Y-109165000I1000000J0D01*
G01*
%TO.C,U4*%
X109110000Y-95210000D02*
X109110000Y-115650000D01*
X109110000Y-115650000D02*
X114410000Y-115650000D01*
X110760000Y-95210000D02*
X109110000Y-95210000D01*
X114410000Y-95210000D02*
X112760000Y-95210000D01*
X114410000Y-115650000D02*
X114410000Y-95210000D01*
X110760000Y-95210000D02*
G75*
G03*
X112760000Y-95210000I1000000J0D01*
G01*
%TO.C,D8*%
X183110000Y-116840000D02*
X182460000Y-116840000D01*
X182460000Y-117960000D02*
X182460000Y-115720000D01*
X182460000Y-115720000D02*
X178220000Y-115720000D01*
X181860000Y-117960000D02*
X181860000Y-115720000D01*
X181740000Y-117960000D02*
X181740000Y-115720000D01*
X181620000Y-117960000D02*
X181620000Y-115720000D01*
X178220000Y-117960000D02*
X182460000Y-117960000D01*
X178220000Y-115720000D02*
X178220000Y-117960000D01*
X177570000Y-116840000D02*
X178220000Y-116840000D01*
%TO.C,D2*%
X183110000Y-86360000D02*
X182460000Y-86360000D01*
X182460000Y-87480000D02*
X182460000Y-85240000D01*
X182460000Y-85240000D02*
X178220000Y-85240000D01*
X181860000Y-87480000D02*
X181860000Y-85240000D01*
X181740000Y-87480000D02*
X181740000Y-85240000D01*
X181620000Y-87480000D02*
X181620000Y-85240000D01*
X178220000Y-87480000D02*
X182460000Y-87480000D01*
X178220000Y-85240000D02*
X178220000Y-87480000D01*
X177570000Y-86360000D02*
X178220000Y-86360000D01*
%TO.C,D7*%
X183110000Y-111760000D02*
X182460000Y-111760000D01*
X182460000Y-112880000D02*
X182460000Y-110640000D01*
X182460000Y-110640000D02*
X178220000Y-110640000D01*
X181860000Y-112880000D02*
X181860000Y-110640000D01*
X181740000Y-112880000D02*
X181740000Y-110640000D01*
X181620000Y-112880000D02*
X181620000Y-110640000D01*
X178220000Y-112880000D02*
X182460000Y-112880000D01*
X178220000Y-110640000D02*
X178220000Y-112880000D01*
X177570000Y-111760000D02*
X178220000Y-111760000D01*
%TD*%
M02*
