%TF.GenerationSoftware,KiCad,Pcbnew,7.0.8*%
%TF.CreationDate,2023-11-04T10:41:21+00:00*%
%TF.ProjectId,Z80Computer,5a383043-6f6d-4707-9574-65722e6b6963,rev?*%
%TF.SameCoordinates,Original*%
%TF.FileFunction,Drillmap*%
%TF.FilePolarity,Positive*%
%FSLAX45Y45*%
G04 Gerber Fmt 4.5, Leading zero omitted, Abs format (unit mm)*
G04 Created by KiCad (PCBNEW 7.0.8) date 2023-11-04 10:41:21*
%MOMM*%
%LPD*%
G01*
G04 APERTURE LIST*
%ADD10C,0.100000*%
%ADD11C,0.200000*%
G04 APERTURE END LIST*
D10*
X20066000Y-3302000D02*
X4826000Y-3302000D01*
X4826000Y-3302000D02*
X4826000Y-16256000D01*
X20066000Y-16256000D02*
X4826000Y-16256000D01*
X4826000Y-16256000D02*
X5588000Y-16256000D01*
X20066000Y-16256000D02*
X20066000Y-3302000D01*
X5588000Y-16256000D02*
X5842000Y-16256000D01*
D11*
X5081777Y-16572484D02*
X5081777Y-16372484D01*
X5081777Y-16372484D02*
X5129396Y-16372484D01*
X5129396Y-16372484D02*
X5157967Y-16382008D01*
X5157967Y-16382008D02*
X5177015Y-16401055D01*
X5177015Y-16401055D02*
X5186539Y-16420103D01*
X5186539Y-16420103D02*
X5196063Y-16458198D01*
X5196063Y-16458198D02*
X5196063Y-16486769D01*
X5196063Y-16486769D02*
X5186539Y-16524865D01*
X5186539Y-16524865D02*
X5177015Y-16543912D01*
X5177015Y-16543912D02*
X5157967Y-16562960D01*
X5157967Y-16562960D02*
X5129396Y-16572484D01*
X5129396Y-16572484D02*
X5081777Y-16572484D01*
X5281777Y-16572484D02*
X5281777Y-16439150D01*
X5281777Y-16477246D02*
X5291301Y-16458198D01*
X5291301Y-16458198D02*
X5300824Y-16448674D01*
X5300824Y-16448674D02*
X5319872Y-16439150D01*
X5319872Y-16439150D02*
X5338920Y-16439150D01*
X5405586Y-16572484D02*
X5405586Y-16439150D01*
X5405586Y-16372484D02*
X5396063Y-16382008D01*
X5396063Y-16382008D02*
X5405586Y-16391531D01*
X5405586Y-16391531D02*
X5415110Y-16382008D01*
X5415110Y-16382008D02*
X5405586Y-16372484D01*
X5405586Y-16372484D02*
X5405586Y-16391531D01*
X5529396Y-16572484D02*
X5510348Y-16562960D01*
X5510348Y-16562960D02*
X5500824Y-16543912D01*
X5500824Y-16543912D02*
X5500824Y-16372484D01*
X5634158Y-16572484D02*
X5615110Y-16562960D01*
X5615110Y-16562960D02*
X5605586Y-16543912D01*
X5605586Y-16543912D02*
X5605586Y-16372484D01*
X5862729Y-16572484D02*
X5862729Y-16372484D01*
X5862729Y-16372484D02*
X5929396Y-16515341D01*
X5929396Y-16515341D02*
X5996062Y-16372484D01*
X5996062Y-16372484D02*
X5996062Y-16572484D01*
X6177015Y-16572484D02*
X6177015Y-16467722D01*
X6177015Y-16467722D02*
X6167491Y-16448674D01*
X6167491Y-16448674D02*
X6148443Y-16439150D01*
X6148443Y-16439150D02*
X6110348Y-16439150D01*
X6110348Y-16439150D02*
X6091301Y-16448674D01*
X6177015Y-16562960D02*
X6157967Y-16572484D01*
X6157967Y-16572484D02*
X6110348Y-16572484D01*
X6110348Y-16572484D02*
X6091301Y-16562960D01*
X6091301Y-16562960D02*
X6081777Y-16543912D01*
X6081777Y-16543912D02*
X6081777Y-16524865D01*
X6081777Y-16524865D02*
X6091301Y-16505817D01*
X6091301Y-16505817D02*
X6110348Y-16496293D01*
X6110348Y-16496293D02*
X6157967Y-16496293D01*
X6157967Y-16496293D02*
X6177015Y-16486769D01*
X6272253Y-16439150D02*
X6272253Y-16639150D01*
X6272253Y-16448674D02*
X6291301Y-16439150D01*
X6291301Y-16439150D02*
X6329396Y-16439150D01*
X6329396Y-16439150D02*
X6348443Y-16448674D01*
X6348443Y-16448674D02*
X6357967Y-16458198D01*
X6357967Y-16458198D02*
X6367491Y-16477246D01*
X6367491Y-16477246D02*
X6367491Y-16534388D01*
X6367491Y-16534388D02*
X6357967Y-16553436D01*
X6357967Y-16553436D02*
X6348443Y-16562960D01*
X6348443Y-16562960D02*
X6329396Y-16572484D01*
X6329396Y-16572484D02*
X6291301Y-16572484D01*
X6291301Y-16572484D02*
X6272253Y-16562960D01*
X6453205Y-16553436D02*
X6462729Y-16562960D01*
X6462729Y-16562960D02*
X6453205Y-16572484D01*
X6453205Y-16572484D02*
X6443682Y-16562960D01*
X6443682Y-16562960D02*
X6453205Y-16553436D01*
X6453205Y-16553436D02*
X6453205Y-16572484D01*
X6453205Y-16448674D02*
X6462729Y-16458198D01*
X6462729Y-16458198D02*
X6453205Y-16467722D01*
X6453205Y-16467722D02*
X6443682Y-16458198D01*
X6443682Y-16458198D02*
X6453205Y-16448674D01*
X6453205Y-16448674D02*
X6453205Y-16467722D01*
M02*
