%TF.GenerationSoftware,KiCad,Pcbnew,7.0.8*%
%TF.CreationDate,2023-11-04T10:41:29+00:00*%
%TF.ProjectId,Z80Computer,5a383043-6f6d-4707-9574-65722e6b6963,rev?*%
%TF.SameCoordinates,Original*%
%TF.FileFunction,Copper,L1,Top*%
%TF.FilePolarity,Positive*%
%FSLAX46Y46*%
G04 Gerber Fmt 4.6, Leading zero omitted, Abs format (unit mm)*
G04 Created by KiCad (PCBNEW 7.0.8) date 2023-11-04 10:41:29*
%MOMM*%
%LPD*%
G01*
G04 APERTURE LIST*
G04 Aperture macros list*
%AMRoundRect*
0 Rectangle with rounded corners*
0 $1 Rounding radius*
0 $2 $3 $4 $5 $6 $7 $8 $9 X,Y pos of 4 corners*
0 Add a 4 corners polygon primitive as box body*
4,1,4,$2,$3,$4,$5,$6,$7,$8,$9,$2,$3,0*
0 Add four circle primitives for the rounded corners*
1,1,$1+$1,$2,$3*
1,1,$1+$1,$4,$5*
1,1,$1+$1,$6,$7*
1,1,$1+$1,$8,$9*
0 Add four rect primitives between the rounded corners*
20,1,$1+$1,$2,$3,$4,$5,0*
20,1,$1+$1,$4,$5,$6,$7,0*
20,1,$1+$1,$6,$7,$8,$9,0*
20,1,$1+$1,$8,$9,$2,$3,0*%
G04 Aperture macros list end*
%TA.AperFunction,ComponentPad*%
%ADD10R,1.600000X1.600000*%
%TD*%
%TA.AperFunction,ComponentPad*%
%ADD11O,1.600000X1.600000*%
%TD*%
%TA.AperFunction,ComponentPad*%
%ADD12C,1.620000*%
%TD*%
%TA.AperFunction,ComponentPad*%
%ADD13C,1.400000*%
%TD*%
%TA.AperFunction,ComponentPad*%
%ADD14O,1.400000X1.400000*%
%TD*%
%TA.AperFunction,ComponentPad*%
%ADD15C,6.000000*%
%TD*%
%TA.AperFunction,ComponentPad*%
%ADD16O,1.508000X3.016000*%
%TD*%
%TA.AperFunction,ComponentPad*%
%ADD17RoundRect,0.200100X-0.949900X-0.949900X0.949900X-0.949900X0.949900X0.949900X-0.949900X0.949900X0*%
%TD*%
%TA.AperFunction,ComponentPad*%
%ADD18C,2.500000*%
%TD*%
%TA.AperFunction,ComponentPad*%
%ADD19C,1.778000*%
%TD*%
%TA.AperFunction,ComponentPad*%
%ADD20C,1.600000*%
%TD*%
%TA.AperFunction,ComponentPad*%
%ADD21RoundRect,0.250000X0.725000X-0.600000X0.725000X0.600000X-0.725000X0.600000X-0.725000X-0.600000X0*%
%TD*%
%TA.AperFunction,ComponentPad*%
%ADD22O,1.950000X1.700000*%
%TD*%
%TA.AperFunction,ComponentPad*%
%ADD23R,1.200000X1.200000*%
%TD*%
%TA.AperFunction,ComponentPad*%
%ADD24C,1.200000*%
%TD*%
%TA.AperFunction,ComponentPad*%
%ADD25R,1.800000X1.800000*%
%TD*%
%TA.AperFunction,ComponentPad*%
%ADD26C,1.800000*%
%TD*%
%TA.AperFunction,ComponentPad*%
%ADD27RoundRect,0.250000X-0.725000X0.600000X-0.725000X-0.600000X0.725000X-0.600000X0.725000X0.600000X0*%
%TD*%
%TA.AperFunction,ViaPad*%
%ADD28C,0.800000*%
%TD*%
%TA.AperFunction,Conductor*%
%ADD29C,0.250000*%
%TD*%
G04 APERTURE END LIST*
D10*
%TO.P,U7,1*%
%TO.N,/A15*%
X157480000Y-99040000D03*
D11*
%TO.P,U7,2*%
%TO.N,~{MREQ}*%
X157480000Y-101580000D03*
%TO.P,U7,3*%
%TO.N,Net-(IC2_EEPROM1-~{CS})*%
X157480000Y-104120000D03*
%TO.P,U7,4*%
%TO.N,/A15*%
X157480000Y-106660000D03*
%TO.P,U7,5*%
X157480000Y-109200000D03*
%TO.P,U7,6*%
%TO.N,Net-(U5-Pad9)*%
X157480000Y-111740000D03*
%TO.P,U7,7,GND*%
%TO.N,Z80_PWRCAP*%
X157480000Y-114280000D03*
%TO.P,U7,8*%
%TO.N,unconnected-(U7-Pad8)*%
X165100000Y-114280000D03*
%TO.P,U7,9*%
%TO.N,unconnected-(U7-Pad9)*%
X165100000Y-111740000D03*
%TO.P,U7,10*%
%TO.N,unconnected-(U7-Pad10)*%
X165100000Y-109200000D03*
%TO.P,U7,11*%
%TO.N,unconnected-(U7-Pad11)*%
X165100000Y-106660000D03*
%TO.P,U7,12*%
%TO.N,unconnected-(U7-Pad12)*%
X165100000Y-104120000D03*
%TO.P,U7,13*%
%TO.N,unconnected-(U7-Pad13)*%
X165100000Y-101580000D03*
%TO.P,U7,14,VCC*%
%TO.N,+5V*%
X165100000Y-99040000D03*
%TD*%
D10*
%TO.P,IC2_EEPROM1,1,A14*%
%TO.N,/A14*%
X93980000Y-125745000D03*
D11*
%TO.P,IC2_EEPROM1,2,A12*%
%TO.N,/A12*%
X93980000Y-128285000D03*
%TO.P,IC2_EEPROM1,3,A7*%
%TO.N,/A7*%
X93980000Y-130825000D03*
%TO.P,IC2_EEPROM1,4,A6*%
%TO.N,/A6*%
X93980000Y-133365000D03*
%TO.P,IC2_EEPROM1,5,A5*%
%TO.N,/A5*%
X93980000Y-135905000D03*
%TO.P,IC2_EEPROM1,6,A4*%
%TO.N,/A4*%
X93980000Y-138445000D03*
%TO.P,IC2_EEPROM1,7,A3*%
%TO.N,/A3*%
X93980000Y-140985000D03*
%TO.P,IC2_EEPROM1,8,A2*%
%TO.N,/A2*%
X93980000Y-143525000D03*
%TO.P,IC2_EEPROM1,9,A1*%
%TO.N,/A1*%
X93980000Y-146065000D03*
%TO.P,IC2_EEPROM1,10,A0*%
%TO.N,/A0*%
X93980000Y-148605000D03*
%TO.P,IC2_EEPROM1,11,D0*%
%TO.N,/D0*%
X93980000Y-151145000D03*
%TO.P,IC2_EEPROM1,12,D1*%
%TO.N,/D1*%
X93980000Y-153685000D03*
%TO.P,IC2_EEPROM1,13,D2*%
%TO.N,/D2*%
X93980000Y-156225000D03*
%TO.P,IC2_EEPROM1,14,GND*%
%TO.N,Z80_PWRCAP*%
X93980000Y-158765000D03*
%TO.P,IC2_EEPROM1,15,D3*%
%TO.N,/D3*%
X109220000Y-158765000D03*
%TO.P,IC2_EEPROM1,16,D4*%
%TO.N,/D4*%
X109220000Y-156225000D03*
%TO.P,IC2_EEPROM1,17,D5*%
%TO.N,/D5*%
X109220000Y-153685000D03*
%TO.P,IC2_EEPROM1,18,D6*%
%TO.N,/D6*%
X109220000Y-151145000D03*
%TO.P,IC2_EEPROM1,19,D7*%
%TO.N,/D7*%
X109220000Y-148605000D03*
%TO.P,IC2_EEPROM1,20,~{CS}*%
%TO.N,Net-(IC2_EEPROM1-~{CS})*%
X109220000Y-146065000D03*
%TO.P,IC2_EEPROM1,21,A10*%
%TO.N,/A10*%
X109220000Y-143525000D03*
%TO.P,IC2_EEPROM1,22,~{OE}*%
%TO.N,~{RD}*%
X109220000Y-140985000D03*
%TO.P,IC2_EEPROM1,23,A11*%
%TO.N,/A11*%
X109220000Y-138445000D03*
%TO.P,IC2_EEPROM1,24,A9*%
%TO.N,/A9*%
X109220000Y-135905000D03*
%TO.P,IC2_EEPROM1,25,A8*%
%TO.N,/A8*%
X109220000Y-133365000D03*
%TO.P,IC2_EEPROM1,26,A13*%
%TO.N,/A13*%
X109220000Y-130825000D03*
%TO.P,IC2_EEPROM1,27,~{WE}*%
%TO.N,+5V*%
X109220000Y-128285000D03*
%TO.P,IC2_EEPROM1,28,VCC*%
X109220000Y-125745000D03*
%TD*%
D12*
%TO.P,RV1,1,1*%
%TO.N,+5V*%
X152400000Y-78740000D03*
%TO.P,RV1,2,2*%
%TO.N,Net-(DIS1-PadP$3)*%
X154900000Y-81240000D03*
%TO.P,RV1,3,3*%
%TO.N,Z80_PWRCAP*%
X152400000Y-83740000D03*
%TD*%
D13*
%TO.P,R2,1*%
%TO.N,Net-(J2-Pin_8)*%
X176530000Y-157480000D03*
D14*
%TO.P,R2,2*%
%TO.N,Z80_PWRCAP*%
X178430000Y-157480000D03*
%TD*%
D10*
%TO.P,U3,1,~{Mr}*%
%TO.N,+5V*%
X111760000Y-83820000D03*
D11*
%TO.P,U3,2,Q0*%
%TO.N,Net-(D1-A)*%
X114300000Y-83820000D03*
%TO.P,U3,3,D0*%
%TO.N,/D0*%
X116840000Y-83820000D03*
%TO.P,U3,4,D1*%
%TO.N,/D1*%
X119380000Y-83820000D03*
%TO.P,U3,5,Q1*%
%TO.N,Net-(D8-A)*%
X121920000Y-83820000D03*
%TO.P,U3,6,Q2*%
%TO.N,Net-(D3-A)*%
X124460000Y-83820000D03*
%TO.P,U3,7,D2*%
%TO.N,/D2*%
X127000000Y-83820000D03*
%TO.P,U3,8,D3*%
%TO.N,/D3*%
X129540000Y-83820000D03*
%TO.P,U3,9,Q3*%
%TO.N,Net-(D2-A)*%
X132080000Y-83820000D03*
%TO.P,U3,10,GND*%
%TO.N,Z80_PWRCAP*%
X134620000Y-83820000D03*
%TO.P,U3,11,Cp*%
%TO.N,Net-(U3-Cp)*%
X134620000Y-76200000D03*
%TO.P,U3,12,Q4*%
%TO.N,Net-(D4-A)*%
X132080000Y-76200000D03*
%TO.P,U3,13,D4*%
%TO.N,/D4*%
X129540000Y-76200000D03*
%TO.P,U3,14,D5*%
%TO.N,/D5*%
X127000000Y-76200000D03*
%TO.P,U3,15,Q5*%
%TO.N,Net-(D6-A)*%
X124460000Y-76200000D03*
%TO.P,U3,16,Q6*%
%TO.N,Net-(D5-A)*%
X121920000Y-76200000D03*
%TO.P,U3,17,D6*%
%TO.N,/D6*%
X119380000Y-76200000D03*
%TO.P,U3,18,D7*%
%TO.N,/D7*%
X116840000Y-76200000D03*
%TO.P,U3,19,Q7*%
%TO.N,Net-(D7-A)*%
X114300000Y-76200000D03*
%TO.P,U3,20,VCC*%
%TO.N,+5V*%
X111760000Y-76200000D03*
%TD*%
D15*
%TO.P,DIS1,MNT1*%
%TO.N,N/C*%
X155360000Y-68380000D03*
%TO.P,DIS1,MNT2*%
X80360000Y-68480000D03*
%TO.P,DIS1,MNT3*%
X155360000Y-37380000D03*
%TO.P,DIS1,MNT4*%
X80360000Y-37380000D03*
D16*
%TO.P,DIS1,P$1*%
%TO.N,Z80_PWRCAP*%
X149860000Y-68580000D03*
%TO.P,DIS1,P$2*%
%TO.N,+5V*%
X147320000Y-68580000D03*
%TO.P,DIS1,P$3*%
%TO.N,Net-(DIS1-PadP$3)*%
X144780000Y-68580000D03*
%TO.P,DIS1,P$4*%
%TO.N,/A0*%
X142240000Y-68580000D03*
%TO.P,DIS1,P$5*%
%TO.N,Net-(DIS1-PadP$5)*%
X139700000Y-68580000D03*
%TO.P,DIS1,P$6*%
%TO.N,Net-(DIS1-PadP$6)*%
X137160000Y-68580000D03*
%TO.P,DIS1,P$7*%
%TO.N,/D0*%
X134620000Y-68580000D03*
%TO.P,DIS1,P$8*%
%TO.N,/D1*%
X132080000Y-68580000D03*
%TO.P,DIS1,P$9*%
%TO.N,/D2*%
X129540000Y-68580000D03*
%TO.P,DIS1,P$10*%
%TO.N,/D3*%
X127000000Y-68580000D03*
%TO.P,DIS1,P$11*%
%TO.N,/D4*%
X124460000Y-68580000D03*
%TO.P,DIS1,P$12*%
%TO.N,/D5*%
X121920000Y-68580000D03*
%TO.P,DIS1,P$13*%
%TO.N,/D6*%
X119380000Y-68580000D03*
%TO.P,DIS1,P$14*%
%TO.N,/D7*%
X116840000Y-68580000D03*
%TO.P,DIS1,P$15*%
%TO.N,+5V*%
X114300000Y-68580000D03*
%TO.P,DIS1,P$16*%
%TO.N,Z80_PWRCAP*%
X111760000Y-68580000D03*
%TD*%
D13*
%TO.P,R7,1*%
%TO.N,Net-(J2-Pin_3)*%
X176530000Y-133894300D03*
D14*
%TO.P,R7,2*%
%TO.N,Z80_PWRCAP*%
X178430000Y-133894300D03*
%TD*%
D17*
%TO.P,J1,1,In*%
%TO.N,+5V*%
X55880000Y-38100000D03*
D18*
%TO.P,J1,2,Ext*%
%TO.N,Z80_PWRCAP*%
X53340000Y-35560000D03*
X53340000Y-40640000D03*
X58420000Y-35560000D03*
X58420000Y-40640000D03*
%TD*%
D13*
%TO.P,R5,1*%
%TO.N,Net-(J2-Pin_5)*%
X176530000Y-143328600D03*
D14*
%TO.P,R5,2*%
%TO.N,Z80_PWRCAP*%
X178430000Y-143328600D03*
%TD*%
D19*
%TO.P,SW1,1,1*%
%TO.N,Z80_PWRCAP*%
X167640000Y-57150000D03*
%TO.P,SW1,2,2*%
%TO.N,Net-(IC1-~{RESET})*%
X172720000Y-57150000D03*
%TO.P,SW1,3*%
%TO.N,N/C*%
X172720000Y-64770000D03*
%TO.P,SW1,4*%
X170180000Y-64770000D03*
%TO.P,SW1,5*%
X167640000Y-64770000D03*
%TD*%
D10*
%TO.P,X1,1,EN*%
%TO.N,unconnected-(X1-EN-Pad1)*%
X60960000Y-96520000D03*
D20*
%TO.P,X1,7,GND*%
%TO.N,Z80_PWRCAP*%
X76200000Y-96520000D03*
%TO.P,X1,8,OUT*%
%TO.N,Net-(IC1-~{CLK})*%
X76200000Y-88900000D03*
%TO.P,X1,14,Vcc*%
%TO.N,+5V*%
X60960000Y-88900000D03*
%TD*%
D13*
%TO.P,R1,1*%
%TO.N,+5V*%
X66680000Y-40640000D03*
D14*
%TO.P,R1,2*%
%TO.N,Net-(IC1-~{RESET})*%
X68580000Y-40640000D03*
%TD*%
D13*
%TO.P,R6,1*%
%TO.N,Net-(J2-Pin_4)*%
X176530000Y-138611400D03*
D14*
%TO.P,R6,2*%
%TO.N,Z80_PWRCAP*%
X178430000Y-138611400D03*
%TD*%
D10*
%TO.P,D1,1,K*%
%TO.N,Net-(D1-K)*%
X176530000Y-81280000D03*
D11*
%TO.P,D1,2,A*%
%TO.N,Net-(D1-A)*%
X184150000Y-81280000D03*
%TD*%
D21*
%TO.P,J3,1,Pin_1*%
%TO.N,Net-(D1-K)*%
X193040000Y-108980000D03*
D22*
%TO.P,J3,2,Pin_2*%
%TO.N,Net-(D8-K)*%
X193040000Y-106480000D03*
%TO.P,J3,3,Pin_3*%
%TO.N,Net-(D3-K)*%
X193040000Y-103980000D03*
%TO.P,J3,4,Pin_4*%
%TO.N,Net-(D2-K)*%
X193040000Y-101480000D03*
%TO.P,J3,5,Pin_5*%
%TO.N,Net-(D4-K)*%
X193040000Y-98980000D03*
%TO.P,J3,6,Pin_6*%
%TO.N,Net-(D6-K)*%
X193040000Y-96480000D03*
%TO.P,J3,7,Pin_7*%
%TO.N,Net-(D5-K)*%
X193040000Y-93980000D03*
%TO.P,J3,8,Pin_8*%
%TO.N,Net-(D7-K)*%
X193040000Y-91480000D03*
%TD*%
D10*
%TO.P,U2,1*%
%TO.N,~{KEYPAD_PORT}*%
X91440000Y-99040000D03*
D11*
%TO.P,U2,2*%
%TO.N,~{RD}*%
X91440000Y-101580000D03*
%TO.P,U2,3*%
%TO.N,Net-(U1-OEa)*%
X91440000Y-104120000D03*
%TO.P,U2,4*%
%TO.N,~{WR}*%
X91440000Y-106660000D03*
%TO.P,U2,5*%
%TO.N,~{KEYPAD_PORT}*%
X91440000Y-109200000D03*
%TO.P,U2,6*%
%TO.N,Net-(U3-Cp)*%
X91440000Y-111740000D03*
%TO.P,U2,7,GND*%
%TO.N,Z80_PWRCAP*%
X91440000Y-114280000D03*
%TO.P,U2,8*%
%TO.N,unconnected-(U2-Pad8)*%
X99060000Y-114280000D03*
%TO.P,U2,9*%
%TO.N,unconnected-(U2-Pad9)*%
X99060000Y-111740000D03*
%TO.P,U2,10*%
%TO.N,unconnected-(U2-Pad10)*%
X99060000Y-109200000D03*
%TO.P,U2,11*%
%TO.N,unconnected-(U2-Pad11)*%
X99060000Y-106660000D03*
%TO.P,U2,12*%
%TO.N,unconnected-(U2-Pad12)*%
X99060000Y-104120000D03*
%TO.P,U2,13*%
%TO.N,unconnected-(U2-Pad13)*%
X99060000Y-101580000D03*
%TO.P,U2,14,VCC*%
%TO.N,+5V*%
X99060000Y-99040000D03*
%TD*%
D13*
%TO.P,R8,1*%
%TO.N,Net-(J2-Pin_2)*%
X176530000Y-129177100D03*
D14*
%TO.P,R8,2*%
%TO.N,Z80_PWRCAP*%
X178430000Y-129177100D03*
%TD*%
D13*
%TO.P,R3,1*%
%TO.N,Net-(J2-Pin_6)*%
X176530000Y-148045700D03*
D14*
%TO.P,R3,2*%
%TO.N,Z80_PWRCAP*%
X178430000Y-148045700D03*
%TD*%
D10*
%TO.P,D6,1,K*%
%TO.N,Net-(D6-K)*%
X184150000Y-106680000D03*
D11*
%TO.P,D6,2,A*%
%TO.N,Net-(D6-A)*%
X176530000Y-106680000D03*
%TD*%
D10*
%TO.P,U5,1*%
%TO.N,~{RD}*%
X140970000Y-99040000D03*
D11*
%TO.P,U5,2*%
X140970000Y-101580000D03*
%TO.P,U5,3*%
%TO.N,Net-(DIS1-PadP$5)*%
X140970000Y-104120000D03*
%TO.P,U5,4*%
%TO.N,~{LCD_OUT_PORT}*%
X140970000Y-106660000D03*
%TO.P,U5,5*%
X140970000Y-109200000D03*
%TO.P,U5,6*%
%TO.N,Net-(DIS1-PadP$6)*%
X140970000Y-111740000D03*
%TO.P,U5,7,GND*%
%TO.N,Z80_PWRCAP*%
X140970000Y-114280000D03*
%TO.P,U5,8*%
%TO.N,Net-(IC6_SRAM1-~{CS})*%
X148590000Y-114280000D03*
%TO.P,U5,9*%
%TO.N,Net-(U5-Pad9)*%
X148590000Y-111740000D03*
%TO.P,U5,10*%
%TO.N,~{MREQ}*%
X148590000Y-109200000D03*
%TO.P,U5,11*%
%TO.N,unconnected-(U5-Pad11)*%
X148590000Y-106660000D03*
%TO.P,U5,12*%
%TO.N,unconnected-(U5-Pad12)*%
X148590000Y-104120000D03*
%TO.P,U5,13*%
%TO.N,unconnected-(U5-Pad13)*%
X148590000Y-101580000D03*
%TO.P,U5,14,VCC*%
%TO.N,+5V*%
X148590000Y-99040000D03*
%TD*%
D13*
%TO.P,R4,1*%
%TO.N,Net-(J2-Pin_7)*%
X176530000Y-152762900D03*
D14*
%TO.P,R4,2*%
%TO.N,Z80_PWRCAP*%
X178430000Y-152762900D03*
%TD*%
D13*
%TO.P,R9,1*%
%TO.N,Net-(J2-Pin_1)*%
X176530000Y-124460000D03*
D14*
%TO.P,R9,2*%
%TO.N,Z80_PWRCAP*%
X178430000Y-124460000D03*
%TD*%
D23*
%TO.P,C2,1*%
%TO.N,Z80_PWRCAP*%
X99060000Y-78740000D03*
D24*
%TO.P,C2,2*%
%TO.N,+5V*%
X100560000Y-78740000D03*
%TD*%
D10*
%TO.P,D4,1,K*%
%TO.N,Net-(D4-K)*%
X184150000Y-96520000D03*
D11*
%TO.P,D4,2,A*%
%TO.N,Net-(D4-A)*%
X176530000Y-96520000D03*
%TD*%
D13*
%TO.P,R10,1*%
%TO.N,Net-(D9-A)*%
X61600000Y-50800000D03*
D14*
%TO.P,R10,2*%
%TO.N,Z80_PWRCAP*%
X63500000Y-50800000D03*
%TD*%
D25*
%TO.P,D9,1,K*%
%TO.N,+5V*%
X55880000Y-50800000D03*
D26*
%TO.P,D9,2,A*%
%TO.N,Net-(D9-A)*%
X53340000Y-50800000D03*
%TD*%
D10*
%TO.P,D5,1,K*%
%TO.N,Net-(D5-K)*%
X184150000Y-101600000D03*
D11*
%TO.P,D5,2,A*%
%TO.N,Net-(D5-A)*%
X176530000Y-101600000D03*
%TD*%
D10*
%TO.P,IC6_SRAM1,1,A14*%
%TO.N,/A14*%
X121920000Y-125745000D03*
D11*
%TO.P,IC6_SRAM1,2,A12*%
%TO.N,/A12*%
X121920000Y-128285000D03*
%TO.P,IC6_SRAM1,3,A7*%
%TO.N,/A7*%
X121920000Y-130825000D03*
%TO.P,IC6_SRAM1,4,A6*%
%TO.N,/A6*%
X121920000Y-133365000D03*
%TO.P,IC6_SRAM1,5,A5*%
%TO.N,/A5*%
X121920000Y-135905000D03*
%TO.P,IC6_SRAM1,6,A4*%
%TO.N,/A4*%
X121920000Y-138445000D03*
%TO.P,IC6_SRAM1,7,A3*%
%TO.N,/A3*%
X121920000Y-140985000D03*
%TO.P,IC6_SRAM1,8,A2*%
%TO.N,/A2*%
X121920000Y-143525000D03*
%TO.P,IC6_SRAM1,9,A1*%
%TO.N,/A1*%
X121920000Y-146065000D03*
%TO.P,IC6_SRAM1,10,A0*%
%TO.N,/A0*%
X121920000Y-148605000D03*
%TO.P,IC6_SRAM1,11,Q0*%
%TO.N,/D0*%
X121920000Y-151145000D03*
%TO.P,IC6_SRAM1,12,Q1*%
%TO.N,/D1*%
X121920000Y-153685000D03*
%TO.P,IC6_SRAM1,13,Q2*%
%TO.N,/D2*%
X121920000Y-156225000D03*
%TO.P,IC6_SRAM1,14,GND*%
%TO.N,Z80_PWRCAP*%
X121920000Y-158765000D03*
%TO.P,IC6_SRAM1,15,Q3*%
%TO.N,/D3*%
X137160000Y-158765000D03*
%TO.P,IC6_SRAM1,16,Q4*%
%TO.N,/D4*%
X137160000Y-156225000D03*
%TO.P,IC6_SRAM1,17,Q5*%
%TO.N,/D5*%
X137160000Y-153685000D03*
%TO.P,IC6_SRAM1,18,Q6*%
%TO.N,/D6*%
X137160000Y-151145000D03*
%TO.P,IC6_SRAM1,19,Q7*%
%TO.N,/D7*%
X137160000Y-148605000D03*
%TO.P,IC6_SRAM1,20,~{CS}*%
%TO.N,Net-(IC6_SRAM1-~{CS})*%
X137160000Y-146065000D03*
%TO.P,IC6_SRAM1,21,A10*%
%TO.N,/A10*%
X137160000Y-143525000D03*
%TO.P,IC6_SRAM1,22,~{OE}*%
%TO.N,~{RD}*%
X137160000Y-140985000D03*
%TO.P,IC6_SRAM1,23,A11*%
%TO.N,/A11*%
X137160000Y-138445000D03*
%TO.P,IC6_SRAM1,24,A9*%
%TO.N,/A9*%
X137160000Y-135905000D03*
%TO.P,IC6_SRAM1,25,A8*%
%TO.N,/A8*%
X137160000Y-133365000D03*
%TO.P,IC6_SRAM1,26,A13*%
%TO.N,/A13*%
X137160000Y-130825000D03*
%TO.P,IC6_SRAM1,27,~{WE}*%
%TO.N,~{WR}*%
X137160000Y-128285000D03*
%TO.P,IC6_SRAM1,28,VCC*%
%TO.N,+5V*%
X137160000Y-125745000D03*
%TD*%
D10*
%TO.P,U1,1,OEa*%
%TO.N,Net-(U1-OEa)*%
X124460000Y-91440000D03*
D11*
%TO.P,U1,2,I0a*%
%TO.N,/D0*%
X124460000Y-93980000D03*
%TO.P,U1,3,O3b*%
%TO.N,Net-(J2-Pin_8)*%
X124460000Y-96520000D03*
%TO.P,U1,4,I1a*%
%TO.N,/D1*%
X124460000Y-99060000D03*
%TO.P,U1,5,O2b*%
%TO.N,Net-(J2-Pin_7)*%
X124460000Y-101600000D03*
%TO.P,U1,6,I2a*%
%TO.N,/D2*%
X124460000Y-104140000D03*
%TO.P,U1,7,O1b*%
%TO.N,Net-(J2-Pin_6)*%
X124460000Y-106680000D03*
%TO.P,U1,8,I3a*%
%TO.N,/D3*%
X124460000Y-109220000D03*
%TO.P,U1,9,O0b*%
%TO.N,Net-(J2-Pin_5)*%
X124460000Y-111760000D03*
%TO.P,U1,10,GND*%
%TO.N,Z80_PWRCAP*%
X124460000Y-114300000D03*
%TO.P,U1,11,I0b*%
%TO.N,/D4*%
X132080000Y-114300000D03*
%TO.P,U1,12,O3a*%
%TO.N,Net-(J2-Pin_4)*%
X132080000Y-111760000D03*
%TO.P,U1,13,I1b*%
%TO.N,/D5*%
X132080000Y-109220000D03*
%TO.P,U1,14,O2a*%
%TO.N,Net-(J2-Pin_3)*%
X132080000Y-106680000D03*
%TO.P,U1,15,I2b*%
%TO.N,/D6*%
X132080000Y-104140000D03*
%TO.P,U1,16,O1a*%
%TO.N,Net-(J2-Pin_2)*%
X132080000Y-101600000D03*
%TO.P,U1,17,I3b*%
%TO.N,/D7*%
X132080000Y-99060000D03*
%TO.P,U1,18,O0a*%
%TO.N,Net-(J2-Pin_1)*%
X132080000Y-96520000D03*
%TO.P,U1,19,OEb*%
%TO.N,Net-(U1-OEa)*%
X132080000Y-93980000D03*
%TO.P,U1,20,VCC*%
%TO.N,+5V*%
X132080000Y-91440000D03*
%TD*%
D10*
%TO.P,D3,1,K*%
%TO.N,Net-(D3-K)*%
X184150000Y-91440000D03*
D11*
%TO.P,D3,2,A*%
%TO.N,Net-(D3-A)*%
X176530000Y-91440000D03*
%TD*%
D23*
%TO.P,C1,1*%
%TO.N,+5V*%
X90400000Y-78740000D03*
D24*
%TO.P,C1,2*%
%TO.N,Z80_PWRCAP*%
X91900000Y-78740000D03*
%TD*%
D27*
%TO.P,J2,1,Pin_1*%
%TO.N,Net-(J2-Pin_1)*%
X193640000Y-132080000D03*
D22*
%TO.P,J2,2,Pin_2*%
%TO.N,Net-(J2-Pin_2)*%
X193640000Y-134580000D03*
%TO.P,J2,3,Pin_3*%
%TO.N,Net-(J2-Pin_3)*%
X193640000Y-137080000D03*
%TO.P,J2,4,Pin_4*%
%TO.N,Net-(J2-Pin_4)*%
X193640000Y-139580000D03*
%TO.P,J2,5,Pin_5*%
%TO.N,Net-(J2-Pin_5)*%
X193640000Y-142080000D03*
%TO.P,J2,6,Pin_6*%
%TO.N,Net-(J2-Pin_6)*%
X193640000Y-144580000D03*
%TO.P,J2,7,Pin_7*%
%TO.N,Net-(J2-Pin_7)*%
X193640000Y-147080000D03*
%TO.P,J2,8,Pin_8*%
%TO.N,Net-(J2-Pin_8)*%
X193640000Y-149580000D03*
%TD*%
D10*
%TO.P,U6,1,OEa*%
%TO.N,Net-(U1-OEa)*%
X157480000Y-129540000D03*
D11*
%TO.P,U6,2,I0a*%
%TO.N,/D0*%
X157480000Y-132080000D03*
%TO.P,U6,3,O3b*%
%TO.N,Net-(J2-Pin_8)*%
X157480000Y-134620000D03*
%TO.P,U6,4,I1a*%
%TO.N,/D1*%
X157480000Y-137160000D03*
%TO.P,U6,5,O2b*%
%TO.N,Net-(J2-Pin_7)*%
X157480000Y-139700000D03*
%TO.P,U6,6,I2a*%
%TO.N,/D2*%
X157480000Y-142240000D03*
%TO.P,U6,7,O1b*%
%TO.N,Net-(J2-Pin_6)*%
X157480000Y-144780000D03*
%TO.P,U6,8,I3a*%
%TO.N,/D3*%
X157480000Y-147320000D03*
%TO.P,U6,9,O0b*%
%TO.N,Net-(J2-Pin_5)*%
X157480000Y-149860000D03*
%TO.P,U6,10,GND*%
%TO.N,Z80_PWRCAP*%
X157480000Y-152400000D03*
%TO.P,U6,11,I0b*%
%TO.N,/D4*%
X165100000Y-152400000D03*
%TO.P,U6,12,O3a*%
%TO.N,Net-(J2-Pin_4)*%
X165100000Y-149860000D03*
%TO.P,U6,13,I1b*%
%TO.N,/D5*%
X165100000Y-147320000D03*
%TO.P,U6,14,O2a*%
%TO.N,Net-(J2-Pin_3)*%
X165100000Y-144780000D03*
%TO.P,U6,15,I2b*%
%TO.N,/D6*%
X165100000Y-142240000D03*
%TO.P,U6,16,O1a*%
%TO.N,Net-(J2-Pin_2)*%
X165100000Y-139700000D03*
%TO.P,U6,17,I3b*%
%TO.N,/D7*%
X165100000Y-137160000D03*
%TO.P,U6,18,O0a*%
%TO.N,Net-(J2-Pin_1)*%
X165100000Y-134620000D03*
%TO.P,U6,19,OEb*%
%TO.N,Net-(U1-OEa)*%
X165100000Y-132080000D03*
%TO.P,U6,20,VCC*%
%TO.N,+5V*%
X165100000Y-129540000D03*
%TD*%
D10*
%TO.P,IC1,1,A11*%
%TO.N,/A11*%
X55905000Y-110495000D03*
D11*
%TO.P,IC1,2,A12*%
%TO.N,/A12*%
X55905000Y-113035000D03*
%TO.P,IC1,3,A13*%
%TO.N,/A13*%
X55905000Y-115575000D03*
%TO.P,IC1,4,A14*%
%TO.N,/A14*%
X55905000Y-118115000D03*
%TO.P,IC1,5,A15*%
%TO.N,/A15*%
X55905000Y-120655000D03*
%TO.P,IC1,6,~{CLK}*%
%TO.N,Net-(IC1-~{CLK})*%
X55905000Y-123195000D03*
%TO.P,IC1,7,D4*%
%TO.N,/D4*%
X55905000Y-125735000D03*
%TO.P,IC1,8,D3*%
%TO.N,/D3*%
X55905000Y-128275000D03*
%TO.P,IC1,9,D5*%
%TO.N,/D5*%
X55905000Y-130815000D03*
%TO.P,IC1,10,D6*%
%TO.N,/D6*%
X55905000Y-133355000D03*
%TO.P,IC1,11,VCC*%
%TO.N,+5V*%
X55905000Y-135895000D03*
%TO.P,IC1,12,D2*%
%TO.N,/D2*%
X55905000Y-138435000D03*
%TO.P,IC1,13,D7*%
%TO.N,/D7*%
X55905000Y-140975000D03*
%TO.P,IC1,14,D0*%
%TO.N,/D0*%
X55905000Y-143515000D03*
%TO.P,IC1,15,D1*%
%TO.N,/D1*%
X55905000Y-146055000D03*
%TO.P,IC1,16,~{INT}*%
%TO.N,+5V*%
X55905000Y-148595000D03*
%TO.P,IC1,17,~{NMI}*%
X55905000Y-151135000D03*
%TO.P,IC1,18,~{HALT}*%
%TO.N,unconnected-(IC1-~{HALT}-Pad18)*%
X55905000Y-153675000D03*
%TO.P,IC1,19,~{MREQ}*%
%TO.N,~{MREQ}*%
X55905000Y-156215000D03*
%TO.P,IC1,20,~{IORQ}*%
%TO.N,~{IORQ}*%
X55905000Y-158755000D03*
%TO.P,IC1,21,~{RD}*%
%TO.N,~{RD}*%
X81305000Y-158755000D03*
%TO.P,IC1,22,~{WR}*%
%TO.N,~{WR}*%
X81305000Y-156215000D03*
%TO.P,IC1,23,~{BUSACK}*%
%TO.N,unconnected-(IC1-~{BUSACK}-Pad23)*%
X81305000Y-153675000D03*
%TO.P,IC1,24,~{WAIT}*%
%TO.N,+5V*%
X81305000Y-151135000D03*
%TO.P,IC1,25,~{BUSRQ}*%
X81305000Y-148595000D03*
%TO.P,IC1,26,~{RESET}*%
%TO.N,Net-(IC1-~{RESET})*%
X81305000Y-146055000D03*
%TO.P,IC1,27,~{M1}*%
%TO.N,~{M1}*%
X81305000Y-143515000D03*
%TO.P,IC1,28,~{RFSH}*%
%TO.N,unconnected-(IC1-~{RFSH}-Pad28)*%
X81305000Y-140975000D03*
%TO.P,IC1,29,GND*%
%TO.N,Z80_PWRCAP*%
X81305000Y-138435000D03*
%TO.P,IC1,30,A0*%
%TO.N,/A0*%
X81305000Y-135895000D03*
%TO.P,IC1,31,A1*%
%TO.N,/A1*%
X81305000Y-133355000D03*
%TO.P,IC1,32,A2*%
%TO.N,/A2*%
X81305000Y-130815000D03*
%TO.P,IC1,33,A3*%
%TO.N,/A3*%
X81305000Y-128275000D03*
%TO.P,IC1,34,A4*%
%TO.N,/A4*%
X81305000Y-125735000D03*
%TO.P,IC1,35,A5*%
%TO.N,/A5*%
X81305000Y-123195000D03*
%TO.P,IC1,36,A6*%
%TO.N,/A6*%
X81305000Y-120655000D03*
%TO.P,IC1,37,A7*%
%TO.N,/A7*%
X81305000Y-118115000D03*
%TO.P,IC1,38,A8*%
%TO.N,/A8*%
X81305000Y-115575000D03*
%TO.P,IC1,39,A9*%
%TO.N,/A9*%
X81305000Y-113035000D03*
%TO.P,IC1,40,A10*%
%TO.N,/A10*%
X81305000Y-110495000D03*
%TD*%
D10*
%TO.P,U4,1,A0*%
%TO.N,/A5*%
X107950000Y-96540000D03*
D11*
%TO.P,U4,2,A1*%
%TO.N,/A6*%
X107950000Y-99080000D03*
%TO.P,U4,3,A2*%
%TO.N,/A7*%
X107950000Y-101620000D03*
%TO.P,U4,4,E1*%
%TO.N,/A4*%
X107950000Y-104160000D03*
%TO.P,U4,5,E2*%
%TO.N,~{IORQ}*%
X107950000Y-106700000D03*
%TO.P,U4,6,E3*%
%TO.N,~{M1}*%
X107950000Y-109240000D03*
%TO.P,U4,7,O7*%
%TO.N,unconnected-(U4-O7-Pad7)*%
X107950000Y-111780000D03*
%TO.P,U4,8,GND*%
%TO.N,Z80_PWRCAP*%
X107950000Y-114320000D03*
%TO.P,U4,9,O6*%
%TO.N,unconnected-(U4-O6-Pad9)*%
X115570000Y-114320000D03*
%TO.P,U4,10,O5*%
%TO.N,unconnected-(U4-O5-Pad10)*%
X115570000Y-111780000D03*
%TO.P,U4,11,O4*%
%TO.N,unconnected-(U4-O4-Pad11)*%
X115570000Y-109240000D03*
%TO.P,U4,12,O3*%
%TO.N,unconnected-(U4-O3-Pad12)*%
X115570000Y-106700000D03*
%TO.P,U4,13,O2*%
%TO.N,unconnected-(U4-O2-Pad13)*%
X115570000Y-104160000D03*
%TO.P,U4,14,O1*%
%TO.N,~{KEYPAD_PORT}*%
X115570000Y-101620000D03*
%TO.P,U4,15,O0*%
%TO.N,~{LCD_OUT_PORT}*%
X115570000Y-99080000D03*
%TO.P,U4,16,VCC*%
%TO.N,+5V*%
X115570000Y-96540000D03*
%TD*%
D10*
%TO.P,D8,1,K*%
%TO.N,Net-(D8-K)*%
X184150000Y-116840000D03*
D11*
%TO.P,D8,2,A*%
%TO.N,Net-(D8-A)*%
X176530000Y-116840000D03*
%TD*%
D10*
%TO.P,D2,1,K*%
%TO.N,Net-(D2-K)*%
X184150000Y-86360000D03*
D11*
%TO.P,D2,2,A*%
%TO.N,Net-(D2-A)*%
X176530000Y-86360000D03*
%TD*%
D10*
%TO.P,D7,1,K*%
%TO.N,Net-(D7-K)*%
X184150000Y-111760000D03*
D11*
%TO.P,D7,2,A*%
%TO.N,Net-(D7-A)*%
X176530000Y-111760000D03*
%TD*%
D28*
%TO.N,Net-(U3-Cp)*%
X127686700Y-120451200D03*
%TO.N,Net-(D4-A)*%
X149462100Y-82660100D03*
%TO.N,Net-(U1-OEa)*%
X158834100Y-110303100D03*
%TO.N,Net-(J2-Pin_8)*%
X144005000Y-103355100D03*
%TO.N,Net-(J2-Pin_6)*%
X148653500Y-125459900D03*
X161867900Y-147857300D03*
%TO.N,Net-(IC2_EEPROM1-~{CS})*%
X148755500Y-133686400D03*
%TO.N,/A10*%
X98271700Y-123411800D03*
%TO.N,/A9*%
X102010500Y-126081500D03*
%TO.N,/A8*%
X106307800Y-131470700D03*
%TO.N,~{MREQ}*%
X139609800Y-158007100D03*
%TO.N,/A12*%
X100773300Y-117878300D03*
%TO.N,/A11*%
X100904300Y-124505400D03*
%TO.N,/D7*%
X123069700Y-97802300D03*
%TO.N,/D6*%
X133374900Y-80109200D03*
%TO.N,/D5*%
X136177200Y-107605500D03*
%TO.N,/D4*%
X127883300Y-110393200D03*
%TO.N,/D2*%
X127050300Y-105036000D03*
X130597600Y-82545700D03*
%TO.N,/D0*%
X123789500Y-131202400D03*
%TO.N,/A0*%
X128270000Y-75229800D03*
%TO.N,+5V*%
X113279500Y-122595700D03*
%TO.N,Z80_PWRCAP*%
X151636000Y-114485400D03*
%TD*%
D29*
%TO.N,Net-(D9-A)*%
X60345500Y-52054500D02*
X61600000Y-50800000D01*
X54594500Y-52054500D02*
X60345500Y-52054500D01*
X53340000Y-50800000D02*
X54594500Y-52054500D01*
%TO.N,Net-(U3-Cp)*%
X91440000Y-111740000D02*
X92566900Y-111740000D01*
X97346500Y-116519600D02*
X92566900Y-111740000D01*
X123755100Y-116519600D02*
X97346500Y-116519600D01*
X127686700Y-120451200D02*
X123755100Y-116519600D01*
%TO.N,Net-(D8-A)*%
X176530000Y-116840000D02*
X176530000Y-115713100D01*
X121920000Y-83820000D02*
X123046900Y-83820000D01*
X177679100Y-114564000D02*
X176530000Y-115713100D01*
X177679100Y-106190700D02*
X177679100Y-114564000D01*
X159207000Y-87718600D02*
X177679100Y-106190700D01*
X126714100Y-87718600D02*
X159207000Y-87718600D01*
X123046900Y-84051400D02*
X126714100Y-87718600D01*
X123046900Y-83820000D02*
X123046900Y-84051400D01*
%TO.N,Net-(D7-A)*%
X114300000Y-76200000D02*
X114300000Y-77326900D01*
X118183900Y-81210800D02*
X114300000Y-77326900D01*
X118183900Y-84222700D02*
X118183900Y-81210800D01*
X122964700Y-89003500D02*
X118183900Y-84222700D01*
X156658000Y-89003500D02*
X122964700Y-89003500D01*
X176530000Y-108875500D02*
X156658000Y-89003500D01*
X176530000Y-111760000D02*
X176530000Y-108875500D01*
%TO.N,Net-(D6-A)*%
X176530000Y-106680000D02*
X175403100Y-106680000D01*
X124460000Y-76200000D02*
X123333100Y-76200000D01*
X123333100Y-75918200D02*
X123333100Y-76200000D01*
X122488000Y-75073100D02*
X123333100Y-75918200D01*
X121426700Y-75073100D02*
X122488000Y-75073100D01*
X120755700Y-75744100D02*
X121426700Y-75073100D01*
X120755700Y-84252400D02*
X120755700Y-75744100D01*
X125054800Y-88551500D02*
X120755700Y-84252400D01*
X157274600Y-88551500D02*
X125054800Y-88551500D01*
X175403100Y-106680000D02*
X157274600Y-88551500D01*
%TO.N,Net-(D5-A)*%
X176530000Y-101600000D02*
X176530000Y-100473100D01*
X127357900Y-81637900D02*
X121920000Y-76200000D01*
X130790400Y-81637900D02*
X127357900Y-81637900D01*
X131326300Y-82173800D02*
X130790400Y-81637900D01*
X131326300Y-82890500D02*
X131326300Y-82173800D01*
X130905100Y-83311700D02*
X131326300Y-82890500D01*
X130905100Y-84253100D02*
X130905100Y-83311700D01*
X132560100Y-85908100D02*
X130905100Y-84253100D01*
X172638600Y-85908100D02*
X132560100Y-85908100D01*
X177693900Y-90963400D02*
X172638600Y-85908100D01*
X177693900Y-99309200D02*
X177693900Y-90963400D01*
X176530000Y-100473100D02*
X177693900Y-99309200D01*
%TO.N,Net-(D4-A)*%
X133206900Y-76433500D02*
X133206900Y-76200000D01*
X139433500Y-82660100D02*
X133206900Y-76433500D01*
X149462100Y-82660100D02*
X139433500Y-82660100D01*
X132080000Y-76200000D02*
X133206900Y-76200000D01*
%TO.N,Net-(D4-K)*%
X187736900Y-98980000D02*
X185276900Y-96520000D01*
X193040000Y-98980000D02*
X187736900Y-98980000D01*
X184150000Y-96520000D02*
X185276900Y-96520000D01*
%TO.N,Net-(D3-A)*%
X125586900Y-84053500D02*
X125586900Y-83820000D01*
X128800100Y-87266700D02*
X125586900Y-84053500D01*
X171229800Y-87266700D02*
X128800100Y-87266700D01*
X175403100Y-91440000D02*
X171229800Y-87266700D01*
X176530000Y-91440000D02*
X175403100Y-91440000D01*
X124460000Y-83820000D02*
X125586900Y-83820000D01*
%TO.N,Net-(D3-K)*%
X184150000Y-91440000D02*
X184150000Y-92566900D01*
X183023100Y-93693800D02*
X184150000Y-92566900D01*
X183023100Y-97466200D02*
X183023100Y-93693800D01*
X189536900Y-103980000D02*
X183023100Y-97466200D01*
X193040000Y-103980000D02*
X189536900Y-103980000D01*
%TO.N,Net-(D2-A)*%
X176530000Y-86360000D02*
X175403100Y-86360000D01*
X132080000Y-83820000D02*
X133206900Y-83820000D01*
X133206900Y-84053500D02*
X133206900Y-83820000D01*
X134609600Y-85456200D02*
X133206900Y-84053500D01*
X174499300Y-85456200D02*
X134609600Y-85456200D01*
X175403100Y-86360000D02*
X174499300Y-85456200D01*
%TO.N,Net-(D2-K)*%
X185276900Y-88613800D02*
X184150000Y-87486900D01*
X185276900Y-90572500D02*
X185276900Y-88613800D01*
X192434400Y-97730000D02*
X185276900Y-90572500D01*
X193592200Y-97730000D02*
X192434400Y-97730000D01*
X194371900Y-98509700D02*
X193592200Y-97730000D01*
X194371900Y-99486100D02*
X194371900Y-98509700D01*
X193554900Y-100303100D02*
X194371900Y-99486100D01*
X193040000Y-100303100D02*
X193554900Y-100303100D01*
X193040000Y-101480000D02*
X193040000Y-100303100D01*
X184150000Y-86360000D02*
X184150000Y-87486900D01*
%TO.N,Net-(D1-A)*%
X184150000Y-81280000D02*
X183023100Y-81280000D01*
X181896200Y-80153100D02*
X183023100Y-81280000D01*
X159128200Y-80153100D02*
X181896200Y-80153100D01*
X148590000Y-69614900D02*
X159128200Y-80153100D01*
X148590000Y-67552200D02*
X148590000Y-69614900D01*
X147782900Y-66745100D02*
X148590000Y-67552200D01*
X129048400Y-66745100D02*
X147782900Y-66745100D01*
X128270000Y-67523500D02*
X129048400Y-66745100D01*
X128270000Y-69638300D02*
X128270000Y-67523500D01*
X127493400Y-70414900D02*
X128270000Y-69638300D01*
X118477300Y-70414900D02*
X127493400Y-70414900D01*
X113109400Y-75782800D02*
X118477300Y-70414900D01*
X113109400Y-81502500D02*
X113109400Y-75782800D01*
X114300000Y-82693100D02*
X113109400Y-81502500D01*
X114300000Y-83820000D02*
X114300000Y-82693100D01*
%TO.N,Net-(D1-K)*%
X180255800Y-86132700D02*
X176530000Y-82406900D01*
X180255800Y-95631500D02*
X180255800Y-86132700D01*
X193040000Y-108415700D02*
X180255800Y-95631500D01*
X193040000Y-108980000D02*
X193040000Y-108415700D01*
X176530000Y-81280000D02*
X176530000Y-82406900D01*
%TO.N,Net-(U1-OEa)*%
X165100000Y-132080000D02*
X163973100Y-132080000D01*
X161433100Y-129540000D02*
X157480000Y-129540000D01*
X163973100Y-132080000D02*
X161433100Y-129540000D01*
X91440000Y-104120000D02*
X91440000Y-102993100D01*
X128126900Y-93980000D02*
X130953100Y-93980000D01*
X125586900Y-91440000D02*
X128126900Y-93980000D01*
X124460000Y-91440000D02*
X125586900Y-91440000D01*
X101106700Y-91440000D02*
X124460000Y-91440000D01*
X92309100Y-100237600D02*
X101106700Y-91440000D01*
X91187200Y-100237600D02*
X92309100Y-100237600D01*
X90302200Y-101122600D02*
X91187200Y-100237600D01*
X90302200Y-102088800D02*
X90302200Y-101122600D01*
X91206500Y-102993100D02*
X90302200Y-102088800D01*
X91440000Y-102993100D02*
X91206500Y-102993100D01*
X131516600Y-93980000D02*
X130953100Y-93980000D01*
X131516600Y-93980000D02*
X132080000Y-93980000D01*
X158750700Y-110386500D02*
X158834100Y-110303100D01*
X157042300Y-110386500D02*
X158750700Y-110386500D01*
X149505800Y-102850000D02*
X157042300Y-110386500D01*
X146861200Y-102850000D02*
X149505800Y-102850000D01*
X137991200Y-93980000D02*
X146861200Y-102850000D01*
X132080000Y-93980000D02*
X137991200Y-93980000D01*
%TO.N,~{KEYPAD_PORT}*%
X114443100Y-101853500D02*
X114443100Y-101620000D01*
X108223500Y-108073100D02*
X114443100Y-101853500D01*
X93693800Y-108073100D02*
X108223500Y-108073100D01*
X92566900Y-109200000D02*
X93693800Y-108073100D01*
X91440000Y-109200000D02*
X92566900Y-109200000D01*
X115570000Y-101620000D02*
X114443100Y-101620000D01*
%TO.N,Net-(J2-Pin_8)*%
X184430000Y-149580000D02*
X193640000Y-149580000D01*
X176530000Y-157480000D02*
X184430000Y-149580000D01*
X130122700Y-96520000D02*
X124460000Y-96520000D01*
X131392700Y-97790000D02*
X130122700Y-96520000D01*
X133031000Y-97790000D02*
X131392700Y-97790000D01*
X140532300Y-105291300D02*
X133031000Y-97790000D01*
X142068800Y-105291300D02*
X140532300Y-105291300D01*
X144005000Y-103355100D02*
X142068800Y-105291300D01*
%TO.N,Net-(J2-Pin_7)*%
X193640000Y-147080000D02*
X193640000Y-145903100D01*
X183389800Y-145903100D02*
X176530000Y-152762900D01*
X193640000Y-145903100D02*
X183389800Y-145903100D01*
X157480000Y-139700000D02*
X158606900Y-139700000D01*
X124460000Y-101600000D02*
X124460000Y-102726900D01*
X125769200Y-102726900D02*
X124460000Y-102726900D01*
X130243600Y-107201300D02*
X125769200Y-102726900D01*
X130243600Y-111539400D02*
X130243600Y-107201300D01*
X131872600Y-113168400D02*
X130243600Y-111539400D01*
X132542100Y-113168400D02*
X131872600Y-113168400D01*
X143690900Y-124317200D02*
X132542100Y-113168400D01*
X143690900Y-124317300D02*
X143690900Y-124317200D01*
X162242200Y-124317300D02*
X143690900Y-124317300D01*
X166775600Y-128850700D02*
X162242200Y-124317300D01*
X166775600Y-140826900D02*
X166775600Y-128850700D01*
X159733800Y-140826900D02*
X166775600Y-140826900D01*
X158606900Y-139700000D02*
X159733800Y-140826900D01*
X194126300Y-145903100D02*
X193640000Y-145903100D01*
X194979700Y-145049700D02*
X194126300Y-145903100D01*
X194979700Y-141582000D02*
X194979700Y-145049700D01*
X194224600Y-140826900D02*
X194979700Y-141582000D01*
X166775600Y-140826900D02*
X194224600Y-140826900D01*
%TO.N,Net-(J2-Pin_6)*%
X124460000Y-106680000D02*
X124460000Y-107806900D01*
X148653500Y-125459800D02*
X148653500Y-125459900D01*
X141461800Y-125459800D02*
X148653500Y-125459800D01*
X125874600Y-109872600D02*
X141461800Y-125459800D01*
X125874600Y-108988000D02*
X125874600Y-109872600D01*
X124693500Y-107806900D02*
X125874600Y-108988000D01*
X124460000Y-107806900D02*
X124693500Y-107806900D01*
X176121800Y-148453900D02*
X176530000Y-148045700D01*
X162464500Y-148453900D02*
X176121800Y-148453900D01*
X161867900Y-147857300D02*
X162464500Y-148453900D01*
%TO.N,Net-(J2-Pin_5)*%
X157480000Y-149860000D02*
X158606900Y-149860000D01*
X177778600Y-142080000D02*
X193640000Y-142080000D01*
X176530000Y-143328600D02*
X177778600Y-142080000D01*
X158606900Y-149451300D02*
X158606900Y-149860000D01*
X162151300Y-145906900D02*
X158606900Y-149451300D01*
X173951700Y-145906900D02*
X162151300Y-145906900D01*
X176530000Y-143328600D02*
X173951700Y-145906900D01*
%TO.N,Net-(J2-Pin_4)*%
X193640000Y-139580000D02*
X192338100Y-139580000D01*
X177582700Y-139664100D02*
X176530000Y-138611400D01*
X192254000Y-139664100D02*
X177582700Y-139664100D01*
X192338100Y-139580000D02*
X192254000Y-139664100D01*
X132080000Y-111760000D02*
X133206900Y-111760000D01*
X134333800Y-112886900D02*
X133206900Y-111760000D01*
X151489200Y-112886900D02*
X134333800Y-112886900D01*
X176530000Y-137927700D02*
X151489200Y-112886900D01*
X176530000Y-138611400D02*
X176530000Y-137927700D01*
%TO.N,Net-(J2-Pin_3)*%
X179715700Y-137080000D02*
X176530000Y-133894300D01*
X193640000Y-137080000D02*
X179715700Y-137080000D01*
X136309900Y-106680000D02*
X132080000Y-106680000D01*
X140099900Y-110470000D02*
X136309900Y-106680000D01*
X150243200Y-110470000D02*
X140099900Y-110470000D01*
X173667500Y-133894300D02*
X150243200Y-110470000D01*
X176530000Y-133894300D02*
X173667500Y-133894300D01*
%TO.N,Net-(J2-Pin_2)*%
X132080000Y-101600000D02*
X133206900Y-101600000D01*
X170773200Y-129177100D02*
X176530000Y-129177100D01*
X149612200Y-108016100D02*
X170773200Y-129177100D01*
X139623000Y-108016100D02*
X149612200Y-108016100D01*
X133206900Y-101600000D02*
X139623000Y-108016100D01*
X181932900Y-134580000D02*
X193640000Y-134580000D01*
X176530000Y-129177100D02*
X181932900Y-134580000D01*
%TO.N,~{LCD_OUT_PORT}*%
X133390000Y-100206900D02*
X139843100Y-106660000D01*
X117823800Y-100206900D02*
X133390000Y-100206900D01*
X116696900Y-99080000D02*
X117823800Y-100206900D01*
X115570000Y-99080000D02*
X116696900Y-99080000D01*
X140970000Y-106660000D02*
X139843100Y-106660000D01*
%TO.N,Net-(J2-Pin_1)*%
X132080000Y-96520000D02*
X133206900Y-96520000D01*
X186616100Y-132080000D02*
X193640000Y-132080000D01*
X179456900Y-124920800D02*
X186616100Y-132080000D01*
X177589500Y-125519500D02*
X176530000Y-124460000D01*
X178858200Y-125519500D02*
X177589500Y-125519500D01*
X179456900Y-124920800D02*
X178858200Y-125519500D01*
X139426000Y-102739100D02*
X133206900Y-96520000D01*
X143593100Y-102739100D02*
X139426000Y-102739100D01*
X143704000Y-102628200D02*
X143593100Y-102739100D01*
X144306100Y-102628200D02*
X143704000Y-102628200D01*
X147067900Y-105390000D02*
X144306100Y-102628200D01*
X148943700Y-105390000D02*
X147067900Y-105390000D01*
X156477600Y-112923900D02*
X148943700Y-105390000D01*
X168364300Y-112923900D02*
X156477600Y-112923900D01*
X179456900Y-124016500D02*
X168364300Y-112923900D01*
X179456900Y-124920800D02*
X179456900Y-124016500D01*
%TO.N,Net-(IC2_EEPROM1-~{CS})*%
X109220000Y-146065000D02*
X110346900Y-146065000D01*
X137646900Y-144795000D02*
X148755500Y-133686400D01*
X111616900Y-144795000D02*
X137646900Y-144795000D01*
X110346900Y-146065000D02*
X111616900Y-144795000D01*
%TO.N,/A10*%
X81305000Y-110495000D02*
X82431900Y-110495000D01*
X94800500Y-119940600D02*
X98271700Y-123411800D01*
X91877500Y-119940600D02*
X94800500Y-119940600D01*
X82431900Y-110495000D02*
X91877500Y-119940600D01*
X134865500Y-142357400D02*
X136033100Y-143525000D01*
X120232000Y-142357400D02*
X134865500Y-142357400D01*
X119514800Y-143074600D02*
X120232000Y-142357400D01*
X110797300Y-143074600D02*
X119514800Y-143074600D01*
X110346900Y-143525000D02*
X110797300Y-143074600D01*
X109220000Y-143525000D02*
X110346900Y-143525000D01*
X137160000Y-143525000D02*
X136033100Y-143525000D01*
%TO.N,/A9*%
X134842500Y-134714400D02*
X136033100Y-135905000D01*
X111537500Y-134714400D02*
X134842500Y-134714400D01*
X110346900Y-135905000D02*
X111537500Y-134714400D01*
X137160000Y-135905000D02*
X136033100Y-135905000D01*
X109220000Y-135905000D02*
X110346900Y-135905000D01*
X81305000Y-113035000D02*
X82431900Y-113035000D01*
X98018400Y-126081500D02*
X102010500Y-126081500D01*
X94047400Y-122110500D02*
X98018400Y-126081500D01*
X91507400Y-122110500D02*
X94047400Y-122110500D01*
X82431900Y-113035000D02*
X91507400Y-122110500D01*
%TO.N,/A8*%
X137160000Y-133365000D02*
X136033100Y-133365000D01*
X109220000Y-133365000D02*
X110346900Y-133365000D01*
X135447500Y-133365000D02*
X136033100Y-133365000D01*
X134313400Y-132230900D02*
X135447500Y-133365000D01*
X111481000Y-132230900D02*
X134313400Y-132230900D01*
X110346900Y-133365000D02*
X111481000Y-132230900D01*
X104734100Y-129897000D02*
X106307800Y-131470700D01*
X94815800Y-129897000D02*
X104734100Y-129897000D01*
X94473800Y-129555000D02*
X94815800Y-129897000D01*
X93606600Y-129555000D02*
X94473800Y-129555000D01*
X83160800Y-119109200D02*
X93606600Y-129555000D01*
X83160800Y-118309400D02*
X83160800Y-119109200D01*
X81553300Y-116701900D02*
X83160800Y-118309400D01*
X81305000Y-116701900D02*
X81553300Y-116701900D01*
X81305000Y-115575000D02*
X81305000Y-116701900D01*
%TO.N,/A7*%
X81578000Y-119241900D02*
X81305000Y-119241900D01*
X92853100Y-130517000D02*
X81578000Y-119241900D01*
X92853100Y-130825000D02*
X92853100Y-130517000D01*
X81305000Y-118115000D02*
X81305000Y-119241900D01*
X93980000Y-130825000D02*
X92853100Y-130825000D01*
X93980000Y-130825000D02*
X95106900Y-130825000D01*
X111756100Y-130825000D02*
X121920000Y-130825000D01*
X110383500Y-132197600D02*
X111756100Y-130825000D01*
X96479500Y-132197600D02*
X110383500Y-132197600D01*
X95106900Y-130825000D02*
X96479500Y-132197600D01*
%TO.N,/A6*%
X92853100Y-133114000D02*
X92853100Y-133365000D01*
X81521000Y-121781900D02*
X92853100Y-133114000D01*
X81305000Y-121781900D02*
X81521000Y-121781900D01*
X81305000Y-120655000D02*
X81305000Y-121781900D01*
X93416600Y-133365000D02*
X92853100Y-133365000D01*
X93416600Y-133365000D02*
X93980000Y-133365000D01*
X96297500Y-134555600D02*
X95106900Y-133365000D01*
X110565500Y-134555600D02*
X96297500Y-134555600D01*
X111756100Y-133365000D02*
X110565500Y-134555600D01*
X121920000Y-133365000D02*
X111756100Y-133365000D01*
X93980000Y-133365000D02*
X95106900Y-133365000D01*
%TO.N,/A5*%
X93980000Y-135905000D02*
X95106900Y-135905000D01*
X121920000Y-135905000D02*
X120793100Y-135905000D01*
X96287500Y-137085600D02*
X95106900Y-135905000D01*
X119612500Y-137085600D02*
X96287500Y-137085600D01*
X120793100Y-135905000D02*
X119612500Y-137085600D01*
X92853100Y-135654000D02*
X92853100Y-135905000D01*
X81521000Y-124321900D02*
X92853100Y-135654000D01*
X81305000Y-124321900D02*
X81521000Y-124321900D01*
X81305000Y-123195000D02*
X81305000Y-124321900D01*
X93980000Y-135905000D02*
X92853100Y-135905000D01*
%TO.N,/A4*%
X92853100Y-138194000D02*
X92853100Y-138445000D01*
X81521000Y-126861900D02*
X92853100Y-138194000D01*
X81305000Y-126861900D02*
X81521000Y-126861900D01*
X81305000Y-125735000D02*
X81305000Y-126861900D01*
X93416600Y-138445000D02*
X92853100Y-138445000D01*
X93416600Y-138445000D02*
X93980000Y-138445000D01*
X96274400Y-139612500D02*
X95106900Y-138445000D01*
X110588600Y-139612500D02*
X96274400Y-139612500D01*
X111305700Y-138895400D02*
X110588600Y-139612500D01*
X120342700Y-138895400D02*
X111305700Y-138895400D01*
X120793100Y-138445000D02*
X120342700Y-138895400D01*
X121920000Y-138445000D02*
X120793100Y-138445000D01*
X93980000Y-138445000D02*
X95106900Y-138445000D01*
%TO.N,/A3*%
X93980000Y-140985000D02*
X95106900Y-140985000D01*
X121920000Y-140985000D02*
X120793100Y-140985000D01*
X96287500Y-142165600D02*
X95106900Y-140985000D01*
X119612500Y-142165600D02*
X96287500Y-142165600D01*
X120793100Y-140985000D02*
X119612500Y-142165600D01*
X92853100Y-140734000D02*
X92853100Y-140985000D01*
X81521000Y-129401900D02*
X92853100Y-140734000D01*
X81305000Y-129401900D02*
X81521000Y-129401900D01*
X81305000Y-128275000D02*
X81305000Y-129401900D01*
X93980000Y-140985000D02*
X92853100Y-140985000D01*
%TO.N,/A2*%
X93980000Y-143525000D02*
X95106900Y-143525000D01*
X92853100Y-143274000D02*
X92853100Y-143525000D01*
X81521000Y-131941900D02*
X92853100Y-143274000D01*
X81305000Y-131941900D02*
X81521000Y-131941900D01*
X81305000Y-130815000D02*
X81305000Y-131941900D01*
X93980000Y-143525000D02*
X92853100Y-143525000D01*
X120791600Y-143526500D02*
X120793100Y-143525000D01*
X111306600Y-143526500D02*
X120791600Y-143526500D01*
X110174000Y-144659100D02*
X111306600Y-143526500D01*
X96241000Y-144659100D02*
X110174000Y-144659100D01*
X95106900Y-143525000D02*
X96241000Y-144659100D01*
X121920000Y-143525000D02*
X120793100Y-143525000D01*
%TO.N,/A1*%
X93980000Y-146065000D02*
X95106900Y-146065000D01*
X92853100Y-145814000D02*
X92853100Y-146065000D01*
X81521000Y-134481900D02*
X92853100Y-145814000D01*
X81305000Y-134481900D02*
X81521000Y-134481900D01*
X81305000Y-133355000D02*
X81305000Y-134481900D01*
X93980000Y-146065000D02*
X92853100Y-146065000D01*
X111756100Y-146065000D02*
X121920000Y-146065000D01*
X110565500Y-147255600D02*
X111756100Y-146065000D01*
X96297500Y-147255600D02*
X110565500Y-147255600D01*
X95106900Y-146065000D02*
X96297500Y-147255600D01*
%TO.N,~{WR}*%
X137160000Y-128285000D02*
X136033100Y-128285000D01*
X91440000Y-106660000D02*
X91440000Y-107786900D01*
X91206500Y-107786900D02*
X91440000Y-107786900D01*
X90298800Y-108694600D02*
X91206500Y-107786900D01*
X90298800Y-109722200D02*
X90298800Y-108694600D01*
X91119000Y-110542400D02*
X90298800Y-109722200D01*
X92681700Y-110542400D02*
X91119000Y-110542400D01*
X97896500Y-115757200D02*
X92681700Y-110542400D01*
X124020700Y-115757200D02*
X97896500Y-115757200D01*
X136033100Y-127769600D02*
X124020700Y-115757200D01*
X136033100Y-128285000D02*
X136033100Y-127769600D01*
%TO.N,~{RD}*%
X134852500Y-139804400D02*
X136033100Y-140985000D01*
X111527500Y-139804400D02*
X134852500Y-139804400D01*
X110346900Y-140985000D02*
X111527500Y-139804400D01*
X109220000Y-140985000D02*
X110346900Y-140985000D01*
X137160000Y-140985000D02*
X136033100Y-140985000D01*
X91440000Y-101580000D02*
X92566900Y-101580000D01*
X140970000Y-99040000D02*
X139843100Y-99040000D01*
X136185100Y-95382000D02*
X139843100Y-99040000D01*
X98764900Y-95382000D02*
X136185100Y-95382000D01*
X92566900Y-101580000D02*
X98764900Y-95382000D01*
%TO.N,~{MREQ}*%
X137202400Y-160414500D02*
X139609800Y-158007100D01*
X61231400Y-160414500D02*
X137202400Y-160414500D01*
X57031900Y-156215000D02*
X61231400Y-160414500D01*
X55905000Y-156215000D02*
X57031900Y-156215000D01*
%TO.N,/A15*%
X55905000Y-120655000D02*
X55905000Y-119528100D01*
X55660100Y-119528100D02*
X55905000Y-119528100D01*
X53855600Y-117723600D02*
X55660100Y-119528100D01*
X53855600Y-109191500D02*
X53855600Y-117723600D01*
X72765000Y-90282100D02*
X53855600Y-109191500D01*
X125774400Y-90282100D02*
X72765000Y-90282100D01*
X128202300Y-92710000D02*
X125774400Y-90282100D01*
X138647500Y-92710000D02*
X128202300Y-92710000D01*
X146171300Y-100233800D02*
X138647500Y-92710000D01*
X149476600Y-100233800D02*
X146171300Y-100233800D01*
X155902800Y-106660000D02*
X149476600Y-100233800D01*
X157480000Y-106660000D02*
X155902800Y-106660000D01*
%TO.N,/A14*%
X121920000Y-125745000D02*
X120793100Y-125745000D01*
X93980000Y-125745000D02*
X95106900Y-125745000D01*
X96233800Y-126871900D02*
X95106900Y-125745000D01*
X119666200Y-126871900D02*
X96233800Y-126871900D01*
X120793100Y-125745000D02*
X119666200Y-126871900D01*
X55905000Y-118115000D02*
X57031900Y-118115000D01*
X93980000Y-125745000D02*
X92853100Y-125745000D01*
X60711100Y-114435800D02*
X57031900Y-118115000D01*
X81774100Y-114435800D02*
X60711100Y-114435800D01*
X92853100Y-125514800D02*
X81774100Y-114435800D01*
X92853100Y-125745000D02*
X92853100Y-125514800D01*
%TO.N,/A13*%
X137160000Y-130825000D02*
X136033100Y-130825000D01*
X55905000Y-115575000D02*
X55905000Y-114448100D01*
X111616900Y-129555000D02*
X110346900Y-130825000D01*
X122934200Y-129555000D02*
X111616900Y-129555000D01*
X123079000Y-129410200D02*
X122934200Y-129555000D01*
X109220000Y-130825000D02*
X110346900Y-130825000D01*
X136030900Y-130825000D02*
X136033100Y-130825000D01*
X134809300Y-129603400D02*
X136030900Y-130825000D01*
X134807100Y-129603400D02*
X134809300Y-129603400D01*
X134613900Y-129410200D02*
X134807100Y-129603400D01*
X123079000Y-129410200D02*
X134613900Y-129410200D01*
X123079000Y-124819600D02*
X123079000Y-129410200D01*
X122131600Y-123872200D02*
X123079000Y-124819600D01*
X113528100Y-123872200D02*
X122131600Y-123872200D01*
X108263000Y-118607100D02*
X113528100Y-123872200D01*
X92219700Y-118607100D02*
X108263000Y-118607100D01*
X82960800Y-109348200D02*
X92219700Y-118607100D01*
X54988800Y-109348200D02*
X82960800Y-109348200D01*
X54777400Y-109559600D02*
X54988800Y-109348200D01*
X54777400Y-111429700D02*
X54777400Y-109559600D01*
X54969600Y-111621900D02*
X54777400Y-111429700D01*
X56124600Y-111621900D02*
X54969600Y-111621900D01*
X57048600Y-112545900D02*
X56124600Y-111621900D01*
X57048600Y-113586200D02*
X57048600Y-112545900D01*
X56186700Y-114448100D02*
X57048600Y-113586200D01*
X55905000Y-114448100D02*
X56186700Y-114448100D01*
%TO.N,/A12*%
X94449900Y-128285000D02*
X94919700Y-128285000D01*
X121920000Y-128285000D02*
X120980300Y-128285000D01*
X94449900Y-128285000D02*
X93980000Y-128285000D01*
X96079800Y-129445100D02*
X94919700Y-128285000D01*
X109960800Y-129445100D02*
X96079800Y-129445100D01*
X111120800Y-128285100D02*
X109960800Y-129445100D01*
X120980300Y-128285100D02*
X111120800Y-128285100D01*
X120980300Y-128285000D02*
X120980300Y-128285100D01*
X92205600Y-117878300D02*
X100773300Y-117878300D01*
X83222100Y-108894800D02*
X92205600Y-117878300D01*
X54791400Y-108894800D02*
X83222100Y-108894800D01*
X54307500Y-109378700D02*
X54791400Y-108894800D01*
X54307500Y-112564400D02*
X54307500Y-109378700D01*
X54778100Y-113035000D02*
X54307500Y-112564400D01*
X55905000Y-113035000D02*
X54778100Y-113035000D01*
%TO.N,/A11*%
X55905000Y-110495000D02*
X57031900Y-110495000D01*
X98337400Y-124505400D02*
X100904300Y-124505400D01*
X95424700Y-121592700D02*
X98337400Y-124505400D01*
X91981400Y-121592700D02*
X95424700Y-121592700D01*
X82010600Y-111621900D02*
X91981400Y-121592700D01*
X58158800Y-111621900D02*
X82010600Y-111621900D01*
X57031900Y-110495000D02*
X58158800Y-111621900D01*
X134865500Y-137277400D02*
X136033100Y-138445000D01*
X120232000Y-137277400D02*
X134865500Y-137277400D01*
X119514800Y-137994600D02*
X120232000Y-137277400D01*
X110797300Y-137994600D02*
X119514800Y-137994600D01*
X110346900Y-138445000D02*
X110797300Y-137994600D01*
X109220000Y-138445000D02*
X110346900Y-138445000D01*
X137160000Y-138445000D02*
X136033100Y-138445000D01*
%TO.N,Net-(IC1-~{CLK})*%
X55905000Y-123195000D02*
X55905000Y-122068100D01*
X55623300Y-122068100D02*
X55905000Y-122068100D01*
X53403700Y-119848500D02*
X55623300Y-122068100D01*
X53403700Y-109004300D02*
X53403700Y-119848500D01*
X73508000Y-88900000D02*
X53403700Y-109004300D01*
X76200000Y-88900000D02*
X73508000Y-88900000D01*
%TO.N,/D7*%
X111537500Y-147414400D02*
X110346900Y-148605000D01*
X134842500Y-147414400D02*
X111537500Y-147414400D01*
X136033100Y-148605000D02*
X134842500Y-147414400D01*
X109783500Y-148605000D02*
X110346900Y-148605000D01*
X109783500Y-148605000D02*
X109220000Y-148605000D01*
X132080000Y-99060000D02*
X130953100Y-99060000D01*
X129695400Y-97802300D02*
X130953100Y-99060000D01*
X123069700Y-97802300D02*
X129695400Y-97802300D01*
X136596600Y-148605000D02*
X136033100Y-148605000D01*
X136596600Y-148605000D02*
X137160000Y-148605000D01*
X162617000Y-138516100D02*
X163973100Y-137160000D01*
X148375800Y-138516100D02*
X162617000Y-138516100D01*
X138286900Y-148605000D02*
X148375800Y-138516100D01*
X137160000Y-148605000D02*
X138286900Y-148605000D01*
X165100000Y-137160000D02*
X163973100Y-137160000D01*
%TO.N,/D6*%
X109220000Y-151145000D02*
X110346900Y-151145000D01*
X107626200Y-150678100D02*
X108093100Y-151145000D01*
X95276900Y-150678100D02*
X107626200Y-150678100D01*
X94473700Y-149874900D02*
X95276900Y-150678100D01*
X92713800Y-149874900D02*
X94473700Y-149874900D01*
X87623900Y-144785000D02*
X92713800Y-149874900D01*
X68461900Y-144785000D02*
X87623900Y-144785000D01*
X57031900Y-133355000D02*
X68461900Y-144785000D01*
X55905000Y-133355000D02*
X57031900Y-133355000D01*
X109220000Y-151145000D02*
X108093100Y-151145000D01*
X129311400Y-80109200D02*
X133374900Y-80109200D01*
X125730000Y-76527800D02*
X129311400Y-80109200D01*
X125730000Y-75852200D02*
X125730000Y-76527800D01*
X124461800Y-74584000D02*
X125730000Y-75852200D01*
X120996000Y-74584000D02*
X124461800Y-74584000D01*
X119380000Y-76200000D02*
X120996000Y-74584000D01*
X134895800Y-150007700D02*
X136033100Y-151145000D01*
X119708700Y-150007700D02*
X134895800Y-150007700D01*
X119038300Y-150678100D02*
X119708700Y-150007700D01*
X110813800Y-150678100D02*
X119038300Y-150678100D01*
X110346900Y-151145000D02*
X110813800Y-150678100D01*
X137160000Y-151145000D02*
X136033100Y-151145000D01*
X165100000Y-142240000D02*
X163973100Y-142240000D01*
X137160000Y-151145000D02*
X138286900Y-151145000D01*
X162846200Y-143366900D02*
X163973100Y-142240000D01*
X146065000Y-143366900D02*
X162846200Y-143366900D01*
X138286900Y-151145000D02*
X146065000Y-143366900D01*
%TO.N,/D5*%
X137160000Y-153685000D02*
X138286900Y-153685000D01*
X134562700Y-109220000D02*
X136177200Y-107605500D01*
X132080000Y-109220000D02*
X134562700Y-109220000D01*
X134898200Y-152550100D02*
X136033100Y-153685000D01*
X111481800Y-152550100D02*
X134898200Y-152550100D01*
X110346900Y-153685000D02*
X111481800Y-152550100D01*
X109220000Y-153685000D02*
X110346900Y-153685000D01*
X137160000Y-153685000D02*
X136033100Y-153685000D01*
X140914300Y-151057600D02*
X138286900Y-153685000D01*
X158183300Y-151057600D02*
X140914300Y-151057600D01*
X161141000Y-148099900D02*
X158183300Y-151057600D01*
X161141000Y-147556300D02*
X161141000Y-148099900D01*
X161566900Y-147130400D02*
X161141000Y-147556300D01*
X163783500Y-147130400D02*
X161566900Y-147130400D01*
X163973100Y-147320000D02*
X163783500Y-147130400D01*
X165100000Y-147320000D02*
X163973100Y-147320000D01*
%TO.N,/D4*%
X109220000Y-156225000D02*
X110346900Y-156225000D01*
X130953100Y-113463000D02*
X130953100Y-114300000D01*
X127883300Y-110393200D02*
X130953100Y-113463000D01*
X132080000Y-114300000D02*
X130953100Y-114300000D01*
X134899600Y-155091500D02*
X136033100Y-156225000D01*
X111480400Y-155091500D02*
X134899600Y-155091500D01*
X110346900Y-156225000D02*
X111480400Y-155091500D01*
X160148100Y-156225000D02*
X163973100Y-152400000D01*
X137160000Y-156225000D02*
X160148100Y-156225000D01*
X165100000Y-152400000D02*
X163973100Y-152400000D01*
X137160000Y-156225000D02*
X136033100Y-156225000D01*
%TO.N,/D3*%
X111537500Y-157574400D02*
X110346900Y-158765000D01*
X134842500Y-157574400D02*
X111537500Y-157574400D01*
X136033100Y-158765000D02*
X134842500Y-157574400D01*
X137160000Y-158765000D02*
X136033100Y-158765000D01*
X109220000Y-158765000D02*
X110346900Y-158765000D01*
X107626200Y-158298100D02*
X108093100Y-158765000D01*
X95276900Y-158298100D02*
X107626200Y-158298100D01*
X94473700Y-157494900D02*
X95276900Y-158298100D01*
X76819300Y-157494900D02*
X94473700Y-157494900D01*
X74183300Y-154858900D02*
X76819300Y-157494900D01*
X55491800Y-154858900D02*
X74183300Y-154858900D01*
X54237300Y-153604400D02*
X55491800Y-154858900D01*
X54237300Y-130787900D02*
X54237300Y-153604400D01*
X55623300Y-129401900D02*
X54237300Y-130787900D01*
X55905000Y-129401900D02*
X55623300Y-129401900D01*
X55905000Y-128275000D02*
X55905000Y-129401900D01*
X109220000Y-158765000D02*
X108093100Y-158765000D01*
%TO.N,/D2*%
X55905000Y-138435000D02*
X55905000Y-139561900D01*
X93980000Y-156225000D02*
X92853100Y-156225000D01*
X93980000Y-156225000D02*
X95106900Y-156225000D01*
X55623300Y-139561900D02*
X55905000Y-139561900D01*
X54754100Y-140431100D02*
X55623300Y-139561900D01*
X54754100Y-151640800D02*
X54754100Y-140431100D01*
X55518300Y-152405000D02*
X54754100Y-151640800D01*
X89033100Y-152405000D02*
X55518300Y-152405000D01*
X92853100Y-156225000D02*
X89033100Y-152405000D01*
X96246600Y-157364700D02*
X95106900Y-156225000D01*
X110616400Y-157364700D02*
X96246600Y-157364700D01*
X111756100Y-156225000D02*
X110616400Y-157364700D01*
X121920000Y-156225000D02*
X111756100Y-156225000D01*
X126482900Y-105036000D02*
X127050300Y-105036000D01*
X125586900Y-104140000D02*
X126482900Y-105036000D01*
X124460000Y-104140000D02*
X125586900Y-104140000D01*
X129119500Y-82545700D02*
X130597600Y-82545700D01*
X128126900Y-83538300D02*
X129119500Y-82545700D01*
X128126900Y-83820000D02*
X128126900Y-83538300D01*
X127000000Y-83820000D02*
X128126900Y-83820000D01*
%TO.N,/D1*%
X93980000Y-153685000D02*
X95106900Y-153685000D01*
X89033100Y-149865000D02*
X92853100Y-153685000D01*
X60841900Y-149865000D02*
X89033100Y-149865000D01*
X57031900Y-146055000D02*
X60841900Y-149865000D01*
X55905000Y-146055000D02*
X57031900Y-146055000D01*
X93980000Y-153685000D02*
X92853100Y-153685000D01*
X111020200Y-153685000D02*
X121920000Y-153685000D01*
X109873800Y-154831400D02*
X111020200Y-153685000D01*
X96253300Y-154831400D02*
X109873800Y-154831400D01*
X95106900Y-153685000D02*
X96253300Y-154831400D01*
X157480000Y-137160000D02*
X158606900Y-137160000D01*
X162490800Y-133276100D02*
X158606900Y-137160000D01*
X165524500Y-133276100D02*
X162490800Y-133276100D01*
X166256000Y-132544600D02*
X165524500Y-133276100D01*
X166256000Y-129039300D02*
X166256000Y-132544600D01*
X163431300Y-126214600D02*
X166256000Y-129039300D01*
X140577500Y-126214600D02*
X163431300Y-126214600D01*
X124852900Y-110490000D02*
X140577500Y-126214600D01*
X124132500Y-110490000D02*
X124852900Y-110490000D01*
X116696900Y-103054400D02*
X124132500Y-110490000D01*
X116696900Y-101104400D02*
X116696900Y-103054400D01*
X115942500Y-100350000D02*
X116696900Y-101104400D01*
X115199900Y-100350000D02*
X115942500Y-100350000D01*
X114388100Y-99538200D02*
X115199900Y-100350000D01*
X114388100Y-98604500D02*
X114388100Y-99538200D01*
X115048200Y-97944400D02*
X114388100Y-98604500D01*
X118870100Y-97944400D02*
X115048200Y-97944400D01*
X119985700Y-99060000D02*
X118870100Y-97944400D01*
X124460000Y-99060000D02*
X119985700Y-99060000D01*
X128389800Y-74105100D02*
X132080000Y-70414900D01*
X119874600Y-74105100D02*
X128389800Y-74105100D01*
X118247900Y-75731800D02*
X119874600Y-74105100D01*
X118247900Y-78874000D02*
X118247900Y-75731800D01*
X119380000Y-80006100D02*
X118247900Y-78874000D01*
X119380000Y-83820000D02*
X119380000Y-80006100D01*
X132080000Y-68580000D02*
X132080000Y-70414900D01*
%TO.N,/D0*%
X157480000Y-132080000D02*
X156353100Y-132080000D01*
X55905000Y-143515000D02*
X57031900Y-143515000D01*
X93980000Y-151145000D02*
X95106900Y-151145000D01*
X88946400Y-147238300D02*
X92853100Y-151145000D01*
X60755200Y-147238300D02*
X88946400Y-147238300D01*
X57031900Y-143515000D02*
X60755200Y-147238300D01*
X93980000Y-151145000D02*
X92853100Y-151145000D01*
X111756100Y-151145000D02*
X120793100Y-151145000D01*
X110565500Y-152335600D02*
X111756100Y-151145000D01*
X96297500Y-152335600D02*
X110565500Y-152335600D01*
X95106900Y-151145000D02*
X96297500Y-152335600D01*
X121920000Y-151145000D02*
X120793100Y-151145000D01*
X123789500Y-131202500D02*
X123789500Y-131202400D01*
X134188900Y-131202500D02*
X123789500Y-131202500D01*
X135066400Y-132080000D02*
X134188900Y-131202500D01*
X156353100Y-132080000D02*
X135066400Y-132080000D01*
%TO.N,/A0*%
X121920000Y-148605000D02*
X120793100Y-148605000D01*
X93980000Y-148605000D02*
X94189700Y-148605000D01*
X94189700Y-148605000D02*
X95106900Y-148605000D01*
X81479700Y-135895000D02*
X94189700Y-148605000D01*
X81305000Y-135895000D02*
X81479700Y-135895000D01*
X96281500Y-149779600D02*
X95106900Y-148605000D01*
X118979500Y-149779600D02*
X96281500Y-149779600D01*
X120154100Y-148605000D02*
X118979500Y-149779600D01*
X120793100Y-148605000D02*
X120154100Y-148605000D01*
X133084900Y-70414900D02*
X142240000Y-70414900D01*
X128270000Y-75229800D02*
X133084900Y-70414900D01*
X142240000Y-68580000D02*
X142240000Y-70414900D01*
%TO.N,+5V*%
X81305000Y-151135000D02*
X55905000Y-151135000D01*
X64140000Y-38100000D02*
X66680000Y-40640000D01*
X55880000Y-38100000D02*
X64140000Y-38100000D01*
X162775400Y-100237700D02*
X163973100Y-99040000D01*
X150914600Y-100237700D02*
X162775400Y-100237700D01*
X149716900Y-99040000D02*
X150914600Y-100237700D01*
X165100000Y-99040000D02*
X163973100Y-99040000D01*
X148590000Y-99040000D02*
X147463100Y-99040000D01*
X148590000Y-99040000D02*
X149716900Y-99040000D01*
X91359900Y-79699900D02*
X90400000Y-78740000D01*
X99779400Y-79699900D02*
X91359900Y-79699900D01*
X100560000Y-78919300D02*
X99779400Y-79699900D01*
X100560000Y-78740000D02*
X100560000Y-78919300D01*
X71120000Y-78740000D02*
X90400000Y-78740000D01*
X60960000Y-88900000D02*
X71120000Y-78740000D01*
X165100000Y-129540000D02*
X163973100Y-129540000D01*
X137160000Y-125745000D02*
X138286900Y-125745000D01*
X137626000Y-129412900D02*
X139790400Y-127248500D01*
X136342700Y-129412900D02*
X137626000Y-129412900D01*
X129525500Y-122595700D02*
X136342700Y-129412900D01*
X113279500Y-122595700D02*
X129525500Y-122595700D01*
X161681600Y-127248500D02*
X139790400Y-127248500D01*
X163973100Y-129540000D02*
X161681600Y-127248500D01*
X139790400Y-127248500D02*
X138286900Y-125745000D01*
X147320000Y-73660000D02*
X147320000Y-68580000D01*
X152400000Y-78740000D02*
X147320000Y-73660000D01*
X139863100Y-91440000D02*
X147463100Y-99040000D01*
X132080000Y-91440000D02*
X139863100Y-91440000D01*
X111760000Y-83820000D02*
X112886900Y-83820000D01*
X132080000Y-91440000D02*
X130953100Y-91440000D01*
X112886900Y-84101700D02*
X112886900Y-83820000D01*
X118426500Y-89641300D02*
X112886900Y-84101700D01*
X129154400Y-89641300D02*
X118426500Y-89641300D01*
X130953100Y-91440000D02*
X129154400Y-89641300D01*
%TO.N,Z80_PWRCAP*%
X53340000Y-40640000D02*
X58420000Y-40640000D01*
X149860000Y-68580000D02*
X149860000Y-66745100D01*
X91206500Y-113153100D02*
X91440000Y-113153100D01*
X76200000Y-98146600D02*
X91206500Y-113153100D01*
X76200000Y-96520000D02*
X76200000Y-98146600D01*
X91440000Y-114280000D02*
X91440000Y-113153100D01*
X122206300Y-113173200D02*
X123333100Y-114300000D01*
X110223700Y-113173200D02*
X122206300Y-113173200D01*
X109076900Y-114320000D02*
X110223700Y-113173200D01*
X107950000Y-114320000D02*
X109076900Y-114320000D01*
X124460000Y-114300000D02*
X123333100Y-114300000D01*
X107385100Y-70414900D02*
X111760000Y-70414900D01*
X99060000Y-78740000D02*
X107385100Y-70414900D01*
X111760000Y-68580000D02*
X111760000Y-68869000D01*
X111760000Y-68869000D02*
X111760000Y-70414900D01*
X111760000Y-68789700D02*
X111760000Y-68869000D01*
X114289900Y-66259800D02*
X111760000Y-68789700D01*
X149860000Y-66259800D02*
X114289900Y-66259800D01*
X158969800Y-57150000D02*
X149860000Y-66259800D01*
X167640000Y-57150000D02*
X158969800Y-57150000D01*
X149860000Y-66259800D02*
X149860000Y-66745100D01*
X121920000Y-158765000D02*
X120793100Y-158765000D01*
X93980000Y-158765000D02*
X95106900Y-158765000D01*
X96262200Y-159920300D02*
X95106900Y-158765000D01*
X119637800Y-159920300D02*
X96262200Y-159920300D01*
X120793100Y-158765000D02*
X119637800Y-159920300D01*
X157480000Y-114280000D02*
X158606900Y-114280000D01*
X157480000Y-152400000D02*
X158606900Y-152400000D01*
X178430000Y-143328600D02*
X178430000Y-148045700D01*
X159877000Y-151129900D02*
X158606900Y-152400000D01*
X175345800Y-151129900D02*
X159877000Y-151129900D01*
X178430000Y-148045700D02*
X175345800Y-151129900D01*
X175460300Y-121490300D02*
X178430000Y-124460000D01*
X175458100Y-121490300D02*
X175460300Y-121490300D01*
X173960500Y-119992700D02*
X175458100Y-121490300D01*
X164319600Y-119992700D02*
X173960500Y-119992700D01*
X158606900Y-114280000D02*
X164319600Y-119992700D01*
X91900000Y-75314300D02*
X91900000Y-78740000D01*
X67385700Y-50800000D02*
X91900000Y-75314300D01*
X63500000Y-50800000D02*
X67385700Y-50800000D01*
X99060000Y-78740000D02*
X98133100Y-78740000D01*
X91900000Y-78740000D02*
X98133100Y-78740000D01*
X135826900Y-83740000D02*
X135746900Y-83820000D01*
X152400000Y-83740000D02*
X135826900Y-83740000D01*
X134620000Y-83820000D02*
X135746900Y-83820000D01*
X150668400Y-115453000D02*
X151636000Y-114485400D01*
X143269900Y-115453000D02*
X150668400Y-115453000D01*
X142096900Y-114280000D02*
X143269900Y-115453000D01*
X140970000Y-114280000D02*
X142096900Y-114280000D01*
%TD*%
M02*
