%TF.GenerationSoftware,KiCad,Pcbnew,7.0.8*%
%TF.CreationDate,2023-11-04T10:57:41+00:00*%
%TF.ProjectId,Z80Computer,5a383043-6f6d-4707-9574-65722e6b6963,rev?*%
%TF.SameCoordinates,Original*%
%TF.FileFunction,Profile,NP*%
%FSLAX46Y46*%
G04 Gerber Fmt 4.6, Leading zero omitted, Abs format (unit mm)*
G04 Created by KiCad (PCBNEW 7.0.8) date 2023-11-04 10:57:41*
%MOMM*%
%LPD*%
G01*
G04 APERTURE LIST*
%ADD10C,0.150000*%
%TA.AperFunction,Profile*%
%ADD11C,0.100000*%
%TD*%
G04 APERTURE END LIST*
D10*
X165436779Y-37289819D02*
X165436779Y-36289819D01*
X165770112Y-36623152D02*
X166151064Y-36623152D01*
X165912969Y-36289819D02*
X165912969Y-37146961D01*
X165912969Y-37146961D02*
X165960588Y-37242200D01*
X165960588Y-37242200D02*
X166055826Y-37289819D01*
X166055826Y-37289819D02*
X166151064Y-37289819D01*
X166912969Y-37242200D02*
X166817731Y-37289819D01*
X166817731Y-37289819D02*
X166627255Y-37289819D01*
X166627255Y-37289819D02*
X166532017Y-37242200D01*
X166532017Y-37242200D02*
X166484398Y-37194580D01*
X166484398Y-37194580D02*
X166436779Y-37099342D01*
X166436779Y-37099342D02*
X166436779Y-36813628D01*
X166436779Y-36813628D02*
X166484398Y-36718390D01*
X166484398Y-36718390D02*
X166532017Y-36670771D01*
X166532017Y-36670771D02*
X166627255Y-36623152D01*
X166627255Y-36623152D02*
X166817731Y-36623152D01*
X166817731Y-36623152D02*
X166912969Y-36670771D01*
X167341541Y-37289819D02*
X167341541Y-36289819D01*
X167770112Y-37289819D02*
X167770112Y-36766009D01*
X167770112Y-36766009D02*
X167722493Y-36670771D01*
X167722493Y-36670771D02*
X167627255Y-36623152D01*
X167627255Y-36623152D02*
X167484398Y-36623152D01*
X167484398Y-36623152D02*
X167389160Y-36670771D01*
X167389160Y-36670771D02*
X167341541Y-36718390D01*
X168246303Y-37194580D02*
X168293922Y-37242200D01*
X168293922Y-37242200D02*
X168246303Y-37289819D01*
X168246303Y-37289819D02*
X168198684Y-37242200D01*
X168198684Y-37242200D02*
X168246303Y-37194580D01*
X168246303Y-37194580D02*
X168246303Y-37289819D01*
X168722493Y-37289819D02*
X168722493Y-36623152D01*
X168722493Y-36289819D02*
X168674874Y-36337438D01*
X168674874Y-36337438D02*
X168722493Y-36385057D01*
X168722493Y-36385057D02*
X168770112Y-36337438D01*
X168770112Y-36337438D02*
X168722493Y-36289819D01*
X168722493Y-36289819D02*
X168722493Y-36385057D01*
X169341540Y-37289819D02*
X169246302Y-37242200D01*
X169246302Y-37242200D02*
X169198683Y-37194580D01*
X169198683Y-37194580D02*
X169151064Y-37099342D01*
X169151064Y-37099342D02*
X169151064Y-36813628D01*
X169151064Y-36813628D02*
X169198683Y-36718390D01*
X169198683Y-36718390D02*
X169246302Y-36670771D01*
X169246302Y-36670771D02*
X169341540Y-36623152D01*
X169341540Y-36623152D02*
X169484397Y-36623152D01*
X169484397Y-36623152D02*
X169579635Y-36670771D01*
X169579635Y-36670771D02*
X169627254Y-36718390D01*
X169627254Y-36718390D02*
X169674873Y-36813628D01*
X169674873Y-36813628D02*
X169674873Y-37099342D01*
X169674873Y-37099342D02*
X169627254Y-37194580D01*
X169627254Y-37194580D02*
X169579635Y-37242200D01*
X169579635Y-37242200D02*
X169484397Y-37289819D01*
X169484397Y-37289819D02*
X169341540Y-37289819D01*
X171627255Y-37289819D02*
X171627255Y-36289819D01*
X172055826Y-37289819D02*
X172055826Y-36766009D01*
X172055826Y-36766009D02*
X172008207Y-36670771D01*
X172008207Y-36670771D02*
X171912969Y-36623152D01*
X171912969Y-36623152D02*
X171770112Y-36623152D01*
X171770112Y-36623152D02*
X171674874Y-36670771D01*
X171674874Y-36670771D02*
X171627255Y-36718390D01*
X172389160Y-36623152D02*
X172770112Y-36623152D01*
X172532017Y-36289819D02*
X172532017Y-37146961D01*
X172532017Y-37146961D02*
X172579636Y-37242200D01*
X172579636Y-37242200D02*
X172674874Y-37289819D01*
X172674874Y-37289819D02*
X172770112Y-37289819D01*
X172960589Y-36623152D02*
X173341541Y-36623152D01*
X173103446Y-36289819D02*
X173103446Y-37146961D01*
X173103446Y-37146961D02*
X173151065Y-37242200D01*
X173151065Y-37242200D02*
X173246303Y-37289819D01*
X173246303Y-37289819D02*
X173341541Y-37289819D01*
X173674875Y-36623152D02*
X173674875Y-37623152D01*
X173674875Y-36670771D02*
X173770113Y-36623152D01*
X173770113Y-36623152D02*
X173960589Y-36623152D01*
X173960589Y-36623152D02*
X174055827Y-36670771D01*
X174055827Y-36670771D02*
X174103446Y-36718390D01*
X174103446Y-36718390D02*
X174151065Y-36813628D01*
X174151065Y-36813628D02*
X174151065Y-37099342D01*
X174151065Y-37099342D02*
X174103446Y-37194580D01*
X174103446Y-37194580D02*
X174055827Y-37242200D01*
X174055827Y-37242200D02*
X173960589Y-37289819D01*
X173960589Y-37289819D02*
X173770113Y-37289819D01*
X173770113Y-37289819D02*
X173674875Y-37242200D01*
X174532018Y-37242200D02*
X174627256Y-37289819D01*
X174627256Y-37289819D02*
X174817732Y-37289819D01*
X174817732Y-37289819D02*
X174912970Y-37242200D01*
X174912970Y-37242200D02*
X174960589Y-37146961D01*
X174960589Y-37146961D02*
X174960589Y-37099342D01*
X174960589Y-37099342D02*
X174912970Y-37004104D01*
X174912970Y-37004104D02*
X174817732Y-36956485D01*
X174817732Y-36956485D02*
X174674875Y-36956485D01*
X174674875Y-36956485D02*
X174579637Y-36908866D01*
X174579637Y-36908866D02*
X174532018Y-36813628D01*
X174532018Y-36813628D02*
X174532018Y-36766009D01*
X174532018Y-36766009D02*
X174579637Y-36670771D01*
X174579637Y-36670771D02*
X174674875Y-36623152D01*
X174674875Y-36623152D02*
X174817732Y-36623152D01*
X174817732Y-36623152D02*
X174912970Y-36670771D01*
X175389161Y-37194580D02*
X175436780Y-37242200D01*
X175436780Y-37242200D02*
X175389161Y-37289819D01*
X175389161Y-37289819D02*
X175341542Y-37242200D01*
X175341542Y-37242200D02*
X175389161Y-37194580D01*
X175389161Y-37194580D02*
X175389161Y-37289819D01*
X175389161Y-36670771D02*
X175436780Y-36718390D01*
X175436780Y-36718390D02*
X175389161Y-36766009D01*
X175389161Y-36766009D02*
X175341542Y-36718390D01*
X175341542Y-36718390D02*
X175389161Y-36670771D01*
X175389161Y-36670771D02*
X175389161Y-36766009D01*
X176579636Y-36242200D02*
X175722494Y-37527914D01*
X177627255Y-36242200D02*
X176770113Y-37527914D01*
X178389160Y-37289819D02*
X178389160Y-36766009D01*
X178389160Y-36766009D02*
X178341541Y-36670771D01*
X178341541Y-36670771D02*
X178246303Y-36623152D01*
X178246303Y-36623152D02*
X178055827Y-36623152D01*
X178055827Y-36623152D02*
X177960589Y-36670771D01*
X178389160Y-37242200D02*
X178293922Y-37289819D01*
X178293922Y-37289819D02*
X178055827Y-37289819D01*
X178055827Y-37289819D02*
X177960589Y-37242200D01*
X177960589Y-37242200D02*
X177912970Y-37146961D01*
X177912970Y-37146961D02*
X177912970Y-37051723D01*
X177912970Y-37051723D02*
X177960589Y-36956485D01*
X177960589Y-36956485D02*
X178055827Y-36908866D01*
X178055827Y-36908866D02*
X178293922Y-36908866D01*
X178293922Y-36908866D02*
X178389160Y-36861247D01*
X179293922Y-37289819D02*
X179293922Y-36289819D01*
X179293922Y-37242200D02*
X179198684Y-37289819D01*
X179198684Y-37289819D02*
X179008208Y-37289819D01*
X179008208Y-37289819D02*
X178912970Y-37242200D01*
X178912970Y-37242200D02*
X178865351Y-37194580D01*
X178865351Y-37194580D02*
X178817732Y-37099342D01*
X178817732Y-37099342D02*
X178817732Y-36813628D01*
X178817732Y-36813628D02*
X178865351Y-36718390D01*
X178865351Y-36718390D02*
X178912970Y-36670771D01*
X178912970Y-36670771D02*
X179008208Y-36623152D01*
X179008208Y-36623152D02*
X179198684Y-36623152D01*
X179198684Y-36623152D02*
X179293922Y-36670771D01*
X179770113Y-37289819D02*
X179770113Y-36623152D01*
X179770113Y-36813628D02*
X179817732Y-36718390D01*
X179817732Y-36718390D02*
X179865351Y-36670771D01*
X179865351Y-36670771D02*
X179960589Y-36623152D01*
X179960589Y-36623152D02*
X180055827Y-36623152D01*
X180389161Y-37289819D02*
X180389161Y-36623152D01*
X180389161Y-36289819D02*
X180341542Y-36337438D01*
X180341542Y-36337438D02*
X180389161Y-36385057D01*
X180389161Y-36385057D02*
X180436780Y-36337438D01*
X180436780Y-36337438D02*
X180389161Y-36289819D01*
X180389161Y-36289819D02*
X180389161Y-36385057D01*
X181293922Y-37289819D02*
X181293922Y-36766009D01*
X181293922Y-36766009D02*
X181246303Y-36670771D01*
X181246303Y-36670771D02*
X181151065Y-36623152D01*
X181151065Y-36623152D02*
X180960589Y-36623152D01*
X180960589Y-36623152D02*
X180865351Y-36670771D01*
X181293922Y-37242200D02*
X181198684Y-37289819D01*
X181198684Y-37289819D02*
X180960589Y-37289819D01*
X180960589Y-37289819D02*
X180865351Y-37242200D01*
X180865351Y-37242200D02*
X180817732Y-37146961D01*
X180817732Y-37146961D02*
X180817732Y-37051723D01*
X180817732Y-37051723D02*
X180865351Y-36956485D01*
X180865351Y-36956485D02*
X180960589Y-36908866D01*
X180960589Y-36908866D02*
X181198684Y-36908866D01*
X181198684Y-36908866D02*
X181293922Y-36861247D01*
X181770113Y-36623152D02*
X181770113Y-37289819D01*
X181770113Y-36718390D02*
X181817732Y-36670771D01*
X181817732Y-36670771D02*
X181912970Y-36623152D01*
X181912970Y-36623152D02*
X182055827Y-36623152D01*
X182055827Y-36623152D02*
X182151065Y-36670771D01*
X182151065Y-36670771D02*
X182198684Y-36766009D01*
X182198684Y-36766009D02*
X182198684Y-37289819D01*
X182674875Y-36623152D02*
X182674875Y-37623152D01*
X182674875Y-36670771D02*
X182770113Y-36623152D01*
X182770113Y-36623152D02*
X182960589Y-36623152D01*
X182960589Y-36623152D02*
X183055827Y-36670771D01*
X183055827Y-36670771D02*
X183103446Y-36718390D01*
X183103446Y-36718390D02*
X183151065Y-36813628D01*
X183151065Y-36813628D02*
X183151065Y-37099342D01*
X183151065Y-37099342D02*
X183103446Y-37194580D01*
X183103446Y-37194580D02*
X183055827Y-37242200D01*
X183055827Y-37242200D02*
X182960589Y-37289819D01*
X182960589Y-37289819D02*
X182770113Y-37289819D01*
X182770113Y-37289819D02*
X182674875Y-37242200D01*
X183579637Y-37289819D02*
X183579637Y-36623152D01*
X183579637Y-36289819D02*
X183532018Y-36337438D01*
X183532018Y-36337438D02*
X183579637Y-36385057D01*
X183579637Y-36385057D02*
X183627256Y-36337438D01*
X183627256Y-36337438D02*
X183579637Y-36289819D01*
X183579637Y-36289819D02*
X183579637Y-36385057D01*
X184198684Y-37289819D02*
X184103446Y-37242200D01*
X184103446Y-37242200D02*
X184055827Y-37146961D01*
X184055827Y-37146961D02*
X184055827Y-36289819D01*
X184579637Y-37289819D02*
X184579637Y-36289819D01*
X184674875Y-36908866D02*
X184960589Y-37289819D01*
X184960589Y-36623152D02*
X184579637Y-37004104D01*
X185532018Y-37289819D02*
X185436780Y-37242200D01*
X185436780Y-37242200D02*
X185389161Y-37194580D01*
X185389161Y-37194580D02*
X185341542Y-37099342D01*
X185341542Y-37099342D02*
X185341542Y-36813628D01*
X185341542Y-36813628D02*
X185389161Y-36718390D01*
X185389161Y-36718390D02*
X185436780Y-36670771D01*
X185436780Y-36670771D02*
X185532018Y-36623152D01*
X185532018Y-36623152D02*
X185674875Y-36623152D01*
X185674875Y-36623152D02*
X185770113Y-36670771D01*
X185770113Y-36670771D02*
X185817732Y-36718390D01*
X185817732Y-36718390D02*
X185865351Y-36813628D01*
X185865351Y-36813628D02*
X185865351Y-37099342D01*
X185865351Y-37099342D02*
X185817732Y-37194580D01*
X185817732Y-37194580D02*
X185770113Y-37242200D01*
X185770113Y-37242200D02*
X185674875Y-37289819D01*
X185674875Y-37289819D02*
X185532018Y-37289819D01*
X186293923Y-37194580D02*
X186341542Y-37242200D01*
X186341542Y-37242200D02*
X186293923Y-37289819D01*
X186293923Y-37289819D02*
X186246304Y-37242200D01*
X186246304Y-37242200D02*
X186293923Y-37194580D01*
X186293923Y-37194580D02*
X186293923Y-37289819D01*
X186770113Y-37289819D02*
X186770113Y-36623152D01*
X186770113Y-36289819D02*
X186722494Y-36337438D01*
X186722494Y-36337438D02*
X186770113Y-36385057D01*
X186770113Y-36385057D02*
X186817732Y-36337438D01*
X186817732Y-36337438D02*
X186770113Y-36289819D01*
X186770113Y-36289819D02*
X186770113Y-36385057D01*
X187103446Y-36623152D02*
X187484398Y-36623152D01*
X187246303Y-36289819D02*
X187246303Y-37146961D01*
X187246303Y-37146961D02*
X187293922Y-37242200D01*
X187293922Y-37242200D02*
X187389160Y-37289819D01*
X187389160Y-37289819D02*
X187484398Y-37289819D01*
X188246303Y-37242200D02*
X188151065Y-37289819D01*
X188151065Y-37289819D02*
X187960589Y-37289819D01*
X187960589Y-37289819D02*
X187865351Y-37242200D01*
X187865351Y-37242200D02*
X187817732Y-37194580D01*
X187817732Y-37194580D02*
X187770113Y-37099342D01*
X187770113Y-37099342D02*
X187770113Y-36813628D01*
X187770113Y-36813628D02*
X187817732Y-36718390D01*
X187817732Y-36718390D02*
X187865351Y-36670771D01*
X187865351Y-36670771D02*
X187960589Y-36623152D01*
X187960589Y-36623152D02*
X188151065Y-36623152D01*
X188151065Y-36623152D02*
X188246303Y-36670771D01*
X188674875Y-37289819D02*
X188674875Y-36289819D01*
X189103446Y-37289819D02*
X189103446Y-36766009D01*
X189103446Y-36766009D02*
X189055827Y-36670771D01*
X189055827Y-36670771D02*
X188960589Y-36623152D01*
X188960589Y-36623152D02*
X188817732Y-36623152D01*
X188817732Y-36623152D02*
X188722494Y-36670771D01*
X188722494Y-36670771D02*
X188674875Y-36718390D01*
X189579637Y-37194580D02*
X189627256Y-37242200D01*
X189627256Y-37242200D02*
X189579637Y-37289819D01*
X189579637Y-37289819D02*
X189532018Y-37242200D01*
X189532018Y-37242200D02*
X189579637Y-37194580D01*
X189579637Y-37194580D02*
X189579637Y-37289819D01*
X190055827Y-37289819D02*
X190055827Y-36623152D01*
X190055827Y-36289819D02*
X190008208Y-36337438D01*
X190008208Y-36337438D02*
X190055827Y-36385057D01*
X190055827Y-36385057D02*
X190103446Y-36337438D01*
X190103446Y-36337438D02*
X190055827Y-36289819D01*
X190055827Y-36289819D02*
X190055827Y-36385057D01*
X190674874Y-37289819D02*
X190579636Y-37242200D01*
X190579636Y-37242200D02*
X190532017Y-37194580D01*
X190532017Y-37194580D02*
X190484398Y-37099342D01*
X190484398Y-37099342D02*
X190484398Y-36813628D01*
X190484398Y-36813628D02*
X190532017Y-36718390D01*
X190532017Y-36718390D02*
X190579636Y-36670771D01*
X190579636Y-36670771D02*
X190674874Y-36623152D01*
X190674874Y-36623152D02*
X190817731Y-36623152D01*
X190817731Y-36623152D02*
X190912969Y-36670771D01*
X190912969Y-36670771D02*
X190960588Y-36718390D01*
X190960588Y-36718390D02*
X191008207Y-36813628D01*
X191008207Y-36813628D02*
X191008207Y-37099342D01*
X191008207Y-37099342D02*
X190960588Y-37194580D01*
X190960588Y-37194580D02*
X190912969Y-37242200D01*
X190912969Y-37242200D02*
X190817731Y-37289819D01*
X190817731Y-37289819D02*
X190674874Y-37289819D01*
X165960588Y-37947438D02*
X165865350Y-37899819D01*
X165865350Y-37899819D02*
X165722493Y-37899819D01*
X165722493Y-37899819D02*
X165579636Y-37947438D01*
X165579636Y-37947438D02*
X165484398Y-38042676D01*
X165484398Y-38042676D02*
X165436779Y-38137914D01*
X165436779Y-38137914D02*
X165389160Y-38328390D01*
X165389160Y-38328390D02*
X165389160Y-38471247D01*
X165389160Y-38471247D02*
X165436779Y-38661723D01*
X165436779Y-38661723D02*
X165484398Y-38756961D01*
X165484398Y-38756961D02*
X165579636Y-38852200D01*
X165579636Y-38852200D02*
X165722493Y-38899819D01*
X165722493Y-38899819D02*
X165817731Y-38899819D01*
X165817731Y-38899819D02*
X165960588Y-38852200D01*
X165960588Y-38852200D02*
X166008207Y-38804580D01*
X166008207Y-38804580D02*
X166008207Y-38471247D01*
X166008207Y-38471247D02*
X165817731Y-38471247D01*
X166436779Y-38899819D02*
X166436779Y-38233152D01*
X166436779Y-37899819D02*
X166389160Y-37947438D01*
X166389160Y-37947438D02*
X166436779Y-37995057D01*
X166436779Y-37995057D02*
X166484398Y-37947438D01*
X166484398Y-37947438D02*
X166436779Y-37899819D01*
X166436779Y-37899819D02*
X166436779Y-37995057D01*
X166770112Y-38233152D02*
X167151064Y-38233152D01*
X166912969Y-37899819D02*
X166912969Y-38756961D01*
X166912969Y-38756961D02*
X166960588Y-38852200D01*
X166960588Y-38852200D02*
X167055826Y-38899819D01*
X167055826Y-38899819D02*
X167151064Y-38899819D01*
X167484398Y-38899819D02*
X167484398Y-37899819D01*
X167912969Y-38899819D02*
X167912969Y-38376009D01*
X167912969Y-38376009D02*
X167865350Y-38280771D01*
X167865350Y-38280771D02*
X167770112Y-38233152D01*
X167770112Y-38233152D02*
X167627255Y-38233152D01*
X167627255Y-38233152D02*
X167532017Y-38280771D01*
X167532017Y-38280771D02*
X167484398Y-38328390D01*
X168817731Y-38233152D02*
X168817731Y-38899819D01*
X168389160Y-38233152D02*
X168389160Y-38756961D01*
X168389160Y-38756961D02*
X168436779Y-38852200D01*
X168436779Y-38852200D02*
X168532017Y-38899819D01*
X168532017Y-38899819D02*
X168674874Y-38899819D01*
X168674874Y-38899819D02*
X168770112Y-38852200D01*
X168770112Y-38852200D02*
X168817731Y-38804580D01*
X169293922Y-38899819D02*
X169293922Y-37899819D01*
X169293922Y-38280771D02*
X169389160Y-38233152D01*
X169389160Y-38233152D02*
X169579636Y-38233152D01*
X169579636Y-38233152D02*
X169674874Y-38280771D01*
X169674874Y-38280771D02*
X169722493Y-38328390D01*
X169722493Y-38328390D02*
X169770112Y-38423628D01*
X169770112Y-38423628D02*
X169770112Y-38709342D01*
X169770112Y-38709342D02*
X169722493Y-38804580D01*
X169722493Y-38804580D02*
X169674874Y-38852200D01*
X169674874Y-38852200D02*
X169579636Y-38899819D01*
X169579636Y-38899819D02*
X169389160Y-38899819D01*
X169389160Y-38899819D02*
X169293922Y-38852200D01*
X172484399Y-38899819D02*
X172484399Y-37899819D01*
X172912970Y-38899819D02*
X172912970Y-38376009D01*
X172912970Y-38376009D02*
X172865351Y-38280771D01*
X172865351Y-38280771D02*
X172770113Y-38233152D01*
X172770113Y-38233152D02*
X172627256Y-38233152D01*
X172627256Y-38233152D02*
X172532018Y-38280771D01*
X172532018Y-38280771D02*
X172484399Y-38328390D01*
X173246304Y-38233152D02*
X173627256Y-38233152D01*
X173389161Y-37899819D02*
X173389161Y-38756961D01*
X173389161Y-38756961D02*
X173436780Y-38852200D01*
X173436780Y-38852200D02*
X173532018Y-38899819D01*
X173532018Y-38899819D02*
X173627256Y-38899819D01*
X173817733Y-38233152D02*
X174198685Y-38233152D01*
X173960590Y-37899819D02*
X173960590Y-38756961D01*
X173960590Y-38756961D02*
X174008209Y-38852200D01*
X174008209Y-38852200D02*
X174103447Y-38899819D01*
X174103447Y-38899819D02*
X174198685Y-38899819D01*
X174532019Y-38233152D02*
X174532019Y-39233152D01*
X174532019Y-38280771D02*
X174627257Y-38233152D01*
X174627257Y-38233152D02*
X174817733Y-38233152D01*
X174817733Y-38233152D02*
X174912971Y-38280771D01*
X174912971Y-38280771D02*
X174960590Y-38328390D01*
X174960590Y-38328390D02*
X175008209Y-38423628D01*
X175008209Y-38423628D02*
X175008209Y-38709342D01*
X175008209Y-38709342D02*
X174960590Y-38804580D01*
X174960590Y-38804580D02*
X174912971Y-38852200D01*
X174912971Y-38852200D02*
X174817733Y-38899819D01*
X174817733Y-38899819D02*
X174627257Y-38899819D01*
X174627257Y-38899819D02*
X174532019Y-38852200D01*
X175389162Y-38852200D02*
X175484400Y-38899819D01*
X175484400Y-38899819D02*
X175674876Y-38899819D01*
X175674876Y-38899819D02*
X175770114Y-38852200D01*
X175770114Y-38852200D02*
X175817733Y-38756961D01*
X175817733Y-38756961D02*
X175817733Y-38709342D01*
X175817733Y-38709342D02*
X175770114Y-38614104D01*
X175770114Y-38614104D02*
X175674876Y-38566485D01*
X175674876Y-38566485D02*
X175532019Y-38566485D01*
X175532019Y-38566485D02*
X175436781Y-38518866D01*
X175436781Y-38518866D02*
X175389162Y-38423628D01*
X175389162Y-38423628D02*
X175389162Y-38376009D01*
X175389162Y-38376009D02*
X175436781Y-38280771D01*
X175436781Y-38280771D02*
X175532019Y-38233152D01*
X175532019Y-38233152D02*
X175674876Y-38233152D01*
X175674876Y-38233152D02*
X175770114Y-38280771D01*
X176246305Y-38804580D02*
X176293924Y-38852200D01*
X176293924Y-38852200D02*
X176246305Y-38899819D01*
X176246305Y-38899819D02*
X176198686Y-38852200D01*
X176198686Y-38852200D02*
X176246305Y-38804580D01*
X176246305Y-38804580D02*
X176246305Y-38899819D01*
X176246305Y-38280771D02*
X176293924Y-38328390D01*
X176293924Y-38328390D02*
X176246305Y-38376009D01*
X176246305Y-38376009D02*
X176198686Y-38328390D01*
X176198686Y-38328390D02*
X176246305Y-38280771D01*
X176246305Y-38280771D02*
X176246305Y-38376009D01*
X177436780Y-37852200D02*
X176579638Y-39137914D01*
X178484399Y-37852200D02*
X177627257Y-39137914D01*
X179246304Y-38233152D02*
X179246304Y-39042676D01*
X179246304Y-39042676D02*
X179198685Y-39137914D01*
X179198685Y-39137914D02*
X179151066Y-39185533D01*
X179151066Y-39185533D02*
X179055828Y-39233152D01*
X179055828Y-39233152D02*
X178912971Y-39233152D01*
X178912971Y-39233152D02*
X178817733Y-39185533D01*
X179246304Y-38852200D02*
X179151066Y-38899819D01*
X179151066Y-38899819D02*
X178960590Y-38899819D01*
X178960590Y-38899819D02*
X178865352Y-38852200D01*
X178865352Y-38852200D02*
X178817733Y-38804580D01*
X178817733Y-38804580D02*
X178770114Y-38709342D01*
X178770114Y-38709342D02*
X178770114Y-38423628D01*
X178770114Y-38423628D02*
X178817733Y-38328390D01*
X178817733Y-38328390D02*
X178865352Y-38280771D01*
X178865352Y-38280771D02*
X178960590Y-38233152D01*
X178960590Y-38233152D02*
X179151066Y-38233152D01*
X179151066Y-38233152D02*
X179246304Y-38280771D01*
X179722495Y-38899819D02*
X179722495Y-38233152D01*
X179722495Y-37899819D02*
X179674876Y-37947438D01*
X179674876Y-37947438D02*
X179722495Y-37995057D01*
X179722495Y-37995057D02*
X179770114Y-37947438D01*
X179770114Y-37947438D02*
X179722495Y-37899819D01*
X179722495Y-37899819D02*
X179722495Y-37995057D01*
X180055828Y-38233152D02*
X180436780Y-38233152D01*
X180198685Y-37899819D02*
X180198685Y-38756961D01*
X180198685Y-38756961D02*
X180246304Y-38852200D01*
X180246304Y-38852200D02*
X180341542Y-38899819D01*
X180341542Y-38899819D02*
X180436780Y-38899819D01*
X180770114Y-38899819D02*
X180770114Y-37899819D01*
X181198685Y-38899819D02*
X181198685Y-38376009D01*
X181198685Y-38376009D02*
X181151066Y-38280771D01*
X181151066Y-38280771D02*
X181055828Y-38233152D01*
X181055828Y-38233152D02*
X180912971Y-38233152D01*
X180912971Y-38233152D02*
X180817733Y-38280771D01*
X180817733Y-38280771D02*
X180770114Y-38328390D01*
X182103447Y-38233152D02*
X182103447Y-38899819D01*
X181674876Y-38233152D02*
X181674876Y-38756961D01*
X181674876Y-38756961D02*
X181722495Y-38852200D01*
X181722495Y-38852200D02*
X181817733Y-38899819D01*
X181817733Y-38899819D02*
X181960590Y-38899819D01*
X181960590Y-38899819D02*
X182055828Y-38852200D01*
X182055828Y-38852200D02*
X182103447Y-38804580D01*
X182579638Y-38899819D02*
X182579638Y-37899819D01*
X182579638Y-38280771D02*
X182674876Y-38233152D01*
X182674876Y-38233152D02*
X182865352Y-38233152D01*
X182865352Y-38233152D02*
X182960590Y-38280771D01*
X182960590Y-38280771D02*
X183008209Y-38328390D01*
X183008209Y-38328390D02*
X183055828Y-38423628D01*
X183055828Y-38423628D02*
X183055828Y-38709342D01*
X183055828Y-38709342D02*
X183008209Y-38804580D01*
X183008209Y-38804580D02*
X182960590Y-38852200D01*
X182960590Y-38852200D02*
X182865352Y-38899819D01*
X182865352Y-38899819D02*
X182674876Y-38899819D01*
X182674876Y-38899819D02*
X182579638Y-38852200D01*
X183484400Y-38804580D02*
X183532019Y-38852200D01*
X183532019Y-38852200D02*
X183484400Y-38899819D01*
X183484400Y-38899819D02*
X183436781Y-38852200D01*
X183436781Y-38852200D02*
X183484400Y-38804580D01*
X183484400Y-38804580D02*
X183484400Y-38899819D01*
X184389161Y-38852200D02*
X184293923Y-38899819D01*
X184293923Y-38899819D02*
X184103447Y-38899819D01*
X184103447Y-38899819D02*
X184008209Y-38852200D01*
X184008209Y-38852200D02*
X183960590Y-38804580D01*
X183960590Y-38804580D02*
X183912971Y-38709342D01*
X183912971Y-38709342D02*
X183912971Y-38423628D01*
X183912971Y-38423628D02*
X183960590Y-38328390D01*
X183960590Y-38328390D02*
X184008209Y-38280771D01*
X184008209Y-38280771D02*
X184103447Y-38233152D01*
X184103447Y-38233152D02*
X184293923Y-38233152D01*
X184293923Y-38233152D02*
X184389161Y-38280771D01*
X184960590Y-38899819D02*
X184865352Y-38852200D01*
X184865352Y-38852200D02*
X184817733Y-38804580D01*
X184817733Y-38804580D02*
X184770114Y-38709342D01*
X184770114Y-38709342D02*
X184770114Y-38423628D01*
X184770114Y-38423628D02*
X184817733Y-38328390D01*
X184817733Y-38328390D02*
X184865352Y-38280771D01*
X184865352Y-38280771D02*
X184960590Y-38233152D01*
X184960590Y-38233152D02*
X185103447Y-38233152D01*
X185103447Y-38233152D02*
X185198685Y-38280771D01*
X185198685Y-38280771D02*
X185246304Y-38328390D01*
X185246304Y-38328390D02*
X185293923Y-38423628D01*
X185293923Y-38423628D02*
X185293923Y-38709342D01*
X185293923Y-38709342D02*
X185246304Y-38804580D01*
X185246304Y-38804580D02*
X185198685Y-38852200D01*
X185198685Y-38852200D02*
X185103447Y-38899819D01*
X185103447Y-38899819D02*
X184960590Y-38899819D01*
X185722495Y-38899819D02*
X185722495Y-38233152D01*
X185722495Y-38328390D02*
X185770114Y-38280771D01*
X185770114Y-38280771D02*
X185865352Y-38233152D01*
X185865352Y-38233152D02*
X186008209Y-38233152D01*
X186008209Y-38233152D02*
X186103447Y-38280771D01*
X186103447Y-38280771D02*
X186151066Y-38376009D01*
X186151066Y-38376009D02*
X186151066Y-38899819D01*
X186151066Y-38376009D02*
X186198685Y-38280771D01*
X186198685Y-38280771D02*
X186293923Y-38233152D01*
X186293923Y-38233152D02*
X186436780Y-38233152D01*
X186436780Y-38233152D02*
X186532019Y-38280771D01*
X186532019Y-38280771D02*
X186579638Y-38376009D01*
X186579638Y-38376009D02*
X186579638Y-38899819D01*
X187770113Y-37852200D02*
X186912971Y-39137914D01*
X188055828Y-38614104D02*
X188532018Y-38614104D01*
X187960590Y-38899819D02*
X188293923Y-37899819D01*
X188293923Y-37899819D02*
X188627256Y-38899819D01*
X189389161Y-38899819D02*
X189389161Y-37899819D01*
X189389161Y-38852200D02*
X189293923Y-38899819D01*
X189293923Y-38899819D02*
X189103447Y-38899819D01*
X189103447Y-38899819D02*
X189008209Y-38852200D01*
X189008209Y-38852200D02*
X188960590Y-38804580D01*
X188960590Y-38804580D02*
X188912971Y-38709342D01*
X188912971Y-38709342D02*
X188912971Y-38423628D01*
X188912971Y-38423628D02*
X188960590Y-38328390D01*
X188960590Y-38328390D02*
X189008209Y-38280771D01*
X189008209Y-38280771D02*
X189103447Y-38233152D01*
X189103447Y-38233152D02*
X189293923Y-38233152D01*
X189293923Y-38233152D02*
X189389161Y-38280771D01*
X189865352Y-38899819D02*
X189865352Y-38233152D01*
X189865352Y-38423628D02*
X189912971Y-38328390D01*
X189912971Y-38328390D02*
X189960590Y-38280771D01*
X189960590Y-38280771D02*
X190055828Y-38233152D01*
X190055828Y-38233152D02*
X190151066Y-38233152D01*
X190484400Y-38899819D02*
X190484400Y-38233152D01*
X190484400Y-37899819D02*
X190436781Y-37947438D01*
X190436781Y-37947438D02*
X190484400Y-37995057D01*
X190484400Y-37995057D02*
X190532019Y-37947438D01*
X190532019Y-37947438D02*
X190484400Y-37899819D01*
X190484400Y-37899819D02*
X190484400Y-37995057D01*
X191389161Y-38899819D02*
X191389161Y-38376009D01*
X191389161Y-38376009D02*
X191341542Y-38280771D01*
X191341542Y-38280771D02*
X191246304Y-38233152D01*
X191246304Y-38233152D02*
X191055828Y-38233152D01*
X191055828Y-38233152D02*
X190960590Y-38280771D01*
X191389161Y-38852200D02*
X191293923Y-38899819D01*
X191293923Y-38899819D02*
X191055828Y-38899819D01*
X191055828Y-38899819D02*
X190960590Y-38852200D01*
X190960590Y-38852200D02*
X190912971Y-38756961D01*
X190912971Y-38756961D02*
X190912971Y-38661723D01*
X190912971Y-38661723D02*
X190960590Y-38566485D01*
X190960590Y-38566485D02*
X191055828Y-38518866D01*
X191055828Y-38518866D02*
X191293923Y-38518866D01*
X191293923Y-38518866D02*
X191389161Y-38471247D01*
X191865352Y-38233152D02*
X191865352Y-38899819D01*
X191865352Y-38328390D02*
X191912971Y-38280771D01*
X191912971Y-38280771D02*
X192008209Y-38233152D01*
X192008209Y-38233152D02*
X192151066Y-38233152D01*
X192151066Y-38233152D02*
X192246304Y-38280771D01*
X192246304Y-38280771D02*
X192293923Y-38376009D01*
X192293923Y-38376009D02*
X192293923Y-38899819D01*
X192770114Y-38899819D02*
X192770114Y-37899819D01*
X192770114Y-37899819D02*
X193151066Y-37899819D01*
X193151066Y-37899819D02*
X193246304Y-37947438D01*
X193246304Y-37947438D02*
X193293923Y-37995057D01*
X193293923Y-37995057D02*
X193341542Y-38090295D01*
X193341542Y-38090295D02*
X193341542Y-38233152D01*
X193341542Y-38233152D02*
X193293923Y-38328390D01*
X193293923Y-38328390D02*
X193246304Y-38376009D01*
X193246304Y-38376009D02*
X193151066Y-38423628D01*
X193151066Y-38423628D02*
X192770114Y-38423628D01*
X193770114Y-38899819D02*
X193770114Y-38233152D01*
X193770114Y-37899819D02*
X193722495Y-37947438D01*
X193722495Y-37947438D02*
X193770114Y-37995057D01*
X193770114Y-37995057D02*
X193817733Y-37947438D01*
X193817733Y-37947438D02*
X193770114Y-37899819D01*
X193770114Y-37899819D02*
X193770114Y-37995057D01*
X194389161Y-38899819D02*
X194293923Y-38852200D01*
X194293923Y-38852200D02*
X194246304Y-38756961D01*
X194246304Y-38756961D02*
X194246304Y-37899819D01*
X194770114Y-38899819D02*
X194770114Y-37899819D01*
X194865352Y-38518866D02*
X195151066Y-38899819D01*
X195151066Y-38233152D02*
X194770114Y-38614104D01*
X195722495Y-38899819D02*
X195627257Y-38852200D01*
X195627257Y-38852200D02*
X195579638Y-38804580D01*
X195579638Y-38804580D02*
X195532019Y-38709342D01*
X195532019Y-38709342D02*
X195532019Y-38423628D01*
X195532019Y-38423628D02*
X195579638Y-38328390D01*
X195579638Y-38328390D02*
X195627257Y-38280771D01*
X195627257Y-38280771D02*
X195722495Y-38233152D01*
X195722495Y-38233152D02*
X195865352Y-38233152D01*
X195865352Y-38233152D02*
X195960590Y-38280771D01*
X195960590Y-38280771D02*
X196008209Y-38328390D01*
X196008209Y-38328390D02*
X196055828Y-38423628D01*
X196055828Y-38423628D02*
X196055828Y-38709342D01*
X196055828Y-38709342D02*
X196008209Y-38804580D01*
X196008209Y-38804580D02*
X195960590Y-38852200D01*
X195960590Y-38852200D02*
X195865352Y-38899819D01*
X195865352Y-38899819D02*
X195722495Y-38899819D01*
X165627255Y-40033628D02*
X165627255Y-40509819D01*
X165293922Y-39509819D02*
X165627255Y-40033628D01*
X165627255Y-40033628D02*
X165960588Y-39509819D01*
X166436779Y-40509819D02*
X166341541Y-40462200D01*
X166341541Y-40462200D02*
X166293922Y-40414580D01*
X166293922Y-40414580D02*
X166246303Y-40319342D01*
X166246303Y-40319342D02*
X166246303Y-40033628D01*
X166246303Y-40033628D02*
X166293922Y-39938390D01*
X166293922Y-39938390D02*
X166341541Y-39890771D01*
X166341541Y-39890771D02*
X166436779Y-39843152D01*
X166436779Y-39843152D02*
X166579636Y-39843152D01*
X166579636Y-39843152D02*
X166674874Y-39890771D01*
X166674874Y-39890771D02*
X166722493Y-39938390D01*
X166722493Y-39938390D02*
X166770112Y-40033628D01*
X166770112Y-40033628D02*
X166770112Y-40319342D01*
X166770112Y-40319342D02*
X166722493Y-40414580D01*
X166722493Y-40414580D02*
X166674874Y-40462200D01*
X166674874Y-40462200D02*
X166579636Y-40509819D01*
X166579636Y-40509819D02*
X166436779Y-40509819D01*
X167627255Y-39843152D02*
X167627255Y-40509819D01*
X167198684Y-39843152D02*
X167198684Y-40366961D01*
X167198684Y-40366961D02*
X167246303Y-40462200D01*
X167246303Y-40462200D02*
X167341541Y-40509819D01*
X167341541Y-40509819D02*
X167484398Y-40509819D01*
X167484398Y-40509819D02*
X167579636Y-40462200D01*
X167579636Y-40462200D02*
X167627255Y-40414580D01*
X167960589Y-39843152D02*
X168341541Y-39843152D01*
X168103446Y-39509819D02*
X168103446Y-40366961D01*
X168103446Y-40366961D02*
X168151065Y-40462200D01*
X168151065Y-40462200D02*
X168246303Y-40509819D01*
X168246303Y-40509819D02*
X168341541Y-40509819D01*
X169103446Y-39843152D02*
X169103446Y-40509819D01*
X168674875Y-39843152D02*
X168674875Y-40366961D01*
X168674875Y-40366961D02*
X168722494Y-40462200D01*
X168722494Y-40462200D02*
X168817732Y-40509819D01*
X168817732Y-40509819D02*
X168960589Y-40509819D01*
X168960589Y-40509819D02*
X169055827Y-40462200D01*
X169055827Y-40462200D02*
X169103446Y-40414580D01*
X169579637Y-40509819D02*
X169579637Y-39509819D01*
X169579637Y-39890771D02*
X169674875Y-39843152D01*
X169674875Y-39843152D02*
X169865351Y-39843152D01*
X169865351Y-39843152D02*
X169960589Y-39890771D01*
X169960589Y-39890771D02*
X170008208Y-39938390D01*
X170008208Y-39938390D02*
X170055827Y-40033628D01*
X170055827Y-40033628D02*
X170055827Y-40319342D01*
X170055827Y-40319342D02*
X170008208Y-40414580D01*
X170008208Y-40414580D02*
X169960589Y-40462200D01*
X169960589Y-40462200D02*
X169865351Y-40509819D01*
X169865351Y-40509819D02*
X169674875Y-40509819D01*
X169674875Y-40509819D02*
X169579637Y-40462200D01*
X170865351Y-40462200D02*
X170770113Y-40509819D01*
X170770113Y-40509819D02*
X170579637Y-40509819D01*
X170579637Y-40509819D02*
X170484399Y-40462200D01*
X170484399Y-40462200D02*
X170436780Y-40366961D01*
X170436780Y-40366961D02*
X170436780Y-39986009D01*
X170436780Y-39986009D02*
X170484399Y-39890771D01*
X170484399Y-39890771D02*
X170579637Y-39843152D01*
X170579637Y-39843152D02*
X170770113Y-39843152D01*
X170770113Y-39843152D02*
X170865351Y-39890771D01*
X170865351Y-39890771D02*
X170912970Y-39986009D01*
X170912970Y-39986009D02*
X170912970Y-40081247D01*
X170912970Y-40081247D02*
X170436780Y-40176485D01*
X173484399Y-40033628D02*
X173436780Y-39986009D01*
X173436780Y-39986009D02*
X173341542Y-39938390D01*
X173341542Y-39938390D02*
X173246304Y-39938390D01*
X173246304Y-39938390D02*
X173151066Y-39986009D01*
X173151066Y-39986009D02*
X173103447Y-40033628D01*
X173103447Y-40033628D02*
X173055828Y-40128866D01*
X173055828Y-40128866D02*
X173055828Y-40224104D01*
X173055828Y-40224104D02*
X173103447Y-40319342D01*
X173103447Y-40319342D02*
X173151066Y-40366961D01*
X173151066Y-40366961D02*
X173246304Y-40414580D01*
X173246304Y-40414580D02*
X173341542Y-40414580D01*
X173341542Y-40414580D02*
X173436780Y-40366961D01*
X173436780Y-40366961D02*
X173484399Y-40319342D01*
X173484399Y-39938390D02*
X173484399Y-40319342D01*
X173484399Y-40319342D02*
X173532018Y-40366961D01*
X173532018Y-40366961D02*
X173579637Y-40366961D01*
X173579637Y-40366961D02*
X173674876Y-40319342D01*
X173674876Y-40319342D02*
X173722495Y-40224104D01*
X173722495Y-40224104D02*
X173722495Y-39986009D01*
X173722495Y-39986009D02*
X173627257Y-39843152D01*
X173627257Y-39843152D02*
X173484399Y-39747914D01*
X173484399Y-39747914D02*
X173293923Y-39700295D01*
X173293923Y-39700295D02*
X173103447Y-39747914D01*
X173103447Y-39747914D02*
X172960590Y-39843152D01*
X172960590Y-39843152D02*
X172865352Y-39986009D01*
X172865352Y-39986009D02*
X172817733Y-40176485D01*
X172817733Y-40176485D02*
X172865352Y-40366961D01*
X172865352Y-40366961D02*
X172960590Y-40509819D01*
X172960590Y-40509819D02*
X173103447Y-40605057D01*
X173103447Y-40605057D02*
X173293923Y-40652676D01*
X173293923Y-40652676D02*
X173484399Y-40605057D01*
X173484399Y-40605057D02*
X173627257Y-40509819D01*
X174151066Y-40509819D02*
X174151066Y-39509819D01*
X174151066Y-39890771D02*
X174246304Y-39843152D01*
X174246304Y-39843152D02*
X174436780Y-39843152D01*
X174436780Y-39843152D02*
X174532018Y-39890771D01*
X174532018Y-39890771D02*
X174579637Y-39938390D01*
X174579637Y-39938390D02*
X174627256Y-40033628D01*
X174627256Y-40033628D02*
X174627256Y-40319342D01*
X174627256Y-40319342D02*
X174579637Y-40414580D01*
X174579637Y-40414580D02*
X174532018Y-40462200D01*
X174532018Y-40462200D02*
X174436780Y-40509819D01*
X174436780Y-40509819D02*
X174246304Y-40509819D01*
X174246304Y-40509819D02*
X174151066Y-40462200D01*
X174960590Y-39843152D02*
X175198685Y-40509819D01*
X175436780Y-39843152D02*
X175198685Y-40509819D01*
X175198685Y-40509819D02*
X175103447Y-40747914D01*
X175103447Y-40747914D02*
X175055828Y-40795533D01*
X175055828Y-40795533D02*
X174960590Y-40843152D01*
X175674876Y-39843152D02*
X176055828Y-39843152D01*
X175817733Y-39509819D02*
X175817733Y-40366961D01*
X175817733Y-40366961D02*
X175865352Y-40462200D01*
X175865352Y-40462200D02*
X175960590Y-40509819D01*
X175960590Y-40509819D02*
X176055828Y-40509819D01*
X176770114Y-40462200D02*
X176674876Y-40509819D01*
X176674876Y-40509819D02*
X176484400Y-40509819D01*
X176484400Y-40509819D02*
X176389162Y-40462200D01*
X176389162Y-40462200D02*
X176341543Y-40366961D01*
X176341543Y-40366961D02*
X176341543Y-39986009D01*
X176341543Y-39986009D02*
X176389162Y-39890771D01*
X176389162Y-39890771D02*
X176484400Y-39843152D01*
X176484400Y-39843152D02*
X176674876Y-39843152D01*
X176674876Y-39843152D02*
X176770114Y-39890771D01*
X176770114Y-39890771D02*
X176817733Y-39986009D01*
X176817733Y-39986009D02*
X176817733Y-40081247D01*
X176817733Y-40081247D02*
X176341543Y-40176485D01*
X177103448Y-39843152D02*
X177484400Y-39843152D01*
X177246305Y-40509819D02*
X177246305Y-39652676D01*
X177246305Y-39652676D02*
X177293924Y-39557438D01*
X177293924Y-39557438D02*
X177389162Y-39509819D01*
X177389162Y-39509819D02*
X177484400Y-39509819D01*
X177960591Y-40509819D02*
X177865353Y-40462200D01*
X177865353Y-40462200D02*
X177817734Y-40414580D01*
X177817734Y-40414580D02*
X177770115Y-40319342D01*
X177770115Y-40319342D02*
X177770115Y-40033628D01*
X177770115Y-40033628D02*
X177817734Y-39938390D01*
X177817734Y-39938390D02*
X177865353Y-39890771D01*
X177865353Y-39890771D02*
X177960591Y-39843152D01*
X177960591Y-39843152D02*
X178103448Y-39843152D01*
X178103448Y-39843152D02*
X178198686Y-39890771D01*
X178198686Y-39890771D02*
X178246305Y-39938390D01*
X178246305Y-39938390D02*
X178293924Y-40033628D01*
X178293924Y-40033628D02*
X178293924Y-40319342D01*
X178293924Y-40319342D02*
X178246305Y-40414580D01*
X178246305Y-40414580D02*
X178198686Y-40462200D01*
X178198686Y-40462200D02*
X178103448Y-40509819D01*
X178103448Y-40509819D02*
X177960591Y-40509819D01*
X178722496Y-40509819D02*
X178722496Y-39843152D01*
X178722496Y-40033628D02*
X178770115Y-39938390D01*
X178770115Y-39938390D02*
X178817734Y-39890771D01*
X178817734Y-39890771D02*
X178912972Y-39843152D01*
X178912972Y-39843152D02*
X179008210Y-39843152D01*
X179722496Y-40462200D02*
X179627258Y-40509819D01*
X179627258Y-40509819D02*
X179436782Y-40509819D01*
X179436782Y-40509819D02*
X179341544Y-40462200D01*
X179341544Y-40462200D02*
X179293925Y-40366961D01*
X179293925Y-40366961D02*
X179293925Y-39986009D01*
X179293925Y-39986009D02*
X179341544Y-39890771D01*
X179341544Y-39890771D02*
X179436782Y-39843152D01*
X179436782Y-39843152D02*
X179627258Y-39843152D01*
X179627258Y-39843152D02*
X179722496Y-39890771D01*
X179722496Y-39890771D02*
X179770115Y-39986009D01*
X179770115Y-39986009D02*
X179770115Y-40081247D01*
X179770115Y-40081247D02*
X179293925Y-40176485D01*
X180103449Y-39843152D02*
X180341544Y-40509819D01*
X180341544Y-40509819D02*
X180579639Y-39843152D01*
X181341544Y-40462200D02*
X181246306Y-40509819D01*
X181246306Y-40509819D02*
X181055830Y-40509819D01*
X181055830Y-40509819D02*
X180960592Y-40462200D01*
X180960592Y-40462200D02*
X180912973Y-40366961D01*
X180912973Y-40366961D02*
X180912973Y-39986009D01*
X180912973Y-39986009D02*
X180960592Y-39890771D01*
X180960592Y-39890771D02*
X181055830Y-39843152D01*
X181055830Y-39843152D02*
X181246306Y-39843152D01*
X181246306Y-39843152D02*
X181341544Y-39890771D01*
X181341544Y-39890771D02*
X181389163Y-39986009D01*
X181389163Y-39986009D02*
X181389163Y-40081247D01*
X181389163Y-40081247D02*
X180912973Y-40176485D01*
X181817735Y-40509819D02*
X181817735Y-39843152D01*
X181817735Y-40033628D02*
X181865354Y-39938390D01*
X181865354Y-39938390D02*
X181912973Y-39890771D01*
X181912973Y-39890771D02*
X182008211Y-39843152D01*
X182008211Y-39843152D02*
X182103449Y-39843152D01*
X182341545Y-39509819D02*
X183008211Y-39509819D01*
X183008211Y-39509819D02*
X182579640Y-40509819D01*
X183532021Y-39938390D02*
X183436783Y-39890771D01*
X183436783Y-39890771D02*
X183389164Y-39843152D01*
X183389164Y-39843152D02*
X183341545Y-39747914D01*
X183341545Y-39747914D02*
X183341545Y-39700295D01*
X183341545Y-39700295D02*
X183389164Y-39605057D01*
X183389164Y-39605057D02*
X183436783Y-39557438D01*
X183436783Y-39557438D02*
X183532021Y-39509819D01*
X183532021Y-39509819D02*
X183722497Y-39509819D01*
X183722497Y-39509819D02*
X183817735Y-39557438D01*
X183817735Y-39557438D02*
X183865354Y-39605057D01*
X183865354Y-39605057D02*
X183912973Y-39700295D01*
X183912973Y-39700295D02*
X183912973Y-39747914D01*
X183912973Y-39747914D02*
X183865354Y-39843152D01*
X183865354Y-39843152D02*
X183817735Y-39890771D01*
X183817735Y-39890771D02*
X183722497Y-39938390D01*
X183722497Y-39938390D02*
X183532021Y-39938390D01*
X183532021Y-39938390D02*
X183436783Y-39986009D01*
X183436783Y-39986009D02*
X183389164Y-40033628D01*
X183389164Y-40033628D02*
X183341545Y-40128866D01*
X183341545Y-40128866D02*
X183341545Y-40319342D01*
X183341545Y-40319342D02*
X183389164Y-40414580D01*
X183389164Y-40414580D02*
X183436783Y-40462200D01*
X183436783Y-40462200D02*
X183532021Y-40509819D01*
X183532021Y-40509819D02*
X183722497Y-40509819D01*
X183722497Y-40509819D02*
X183817735Y-40462200D01*
X183817735Y-40462200D02*
X183865354Y-40414580D01*
X183865354Y-40414580D02*
X183912973Y-40319342D01*
X183912973Y-40319342D02*
X183912973Y-40128866D01*
X183912973Y-40128866D02*
X183865354Y-40033628D01*
X183865354Y-40033628D02*
X183817735Y-39986009D01*
X183817735Y-39986009D02*
X183722497Y-39938390D01*
X184293926Y-39605057D02*
X184341545Y-39557438D01*
X184341545Y-39557438D02*
X184436783Y-39509819D01*
X184436783Y-39509819D02*
X184674878Y-39509819D01*
X184674878Y-39509819D02*
X184770116Y-39557438D01*
X184770116Y-39557438D02*
X184817735Y-39605057D01*
X184817735Y-39605057D02*
X184865354Y-39700295D01*
X184865354Y-39700295D02*
X184865354Y-39795533D01*
X184865354Y-39795533D02*
X184817735Y-39938390D01*
X184817735Y-39938390D02*
X184246307Y-40509819D01*
X184246307Y-40509819D02*
X184865354Y-40509819D01*
X185341545Y-40509819D02*
X185532021Y-40509819D01*
X185532021Y-40509819D02*
X185627259Y-40462200D01*
X185627259Y-40462200D02*
X185674878Y-40414580D01*
X185674878Y-40414580D02*
X185770116Y-40271723D01*
X185770116Y-40271723D02*
X185817735Y-40081247D01*
X185817735Y-40081247D02*
X185817735Y-39700295D01*
X185817735Y-39700295D02*
X185770116Y-39605057D01*
X185770116Y-39605057D02*
X185722497Y-39557438D01*
X185722497Y-39557438D02*
X185627259Y-39509819D01*
X185627259Y-39509819D02*
X185436783Y-39509819D01*
X185436783Y-39509819D02*
X185341545Y-39557438D01*
X185341545Y-39557438D02*
X185293926Y-39605057D01*
X185293926Y-39605057D02*
X185246307Y-39700295D01*
X185246307Y-39700295D02*
X185246307Y-39938390D01*
X185246307Y-39938390D02*
X185293926Y-40033628D01*
X185293926Y-40033628D02*
X185341545Y-40081247D01*
X185341545Y-40081247D02*
X185436783Y-40128866D01*
X185436783Y-40128866D02*
X185627259Y-40128866D01*
X185627259Y-40128866D02*
X185722497Y-40081247D01*
X185722497Y-40081247D02*
X185770116Y-40033628D01*
X185770116Y-40033628D02*
X185817735Y-39938390D01*
D11*
X200660000Y-33020000D02*
X48260000Y-33020000D01*
X48260000Y-33020000D02*
X48260000Y-162560000D01*
X200660000Y-162560000D02*
X48260000Y-162560000D01*
X48260000Y-162560000D02*
X55880000Y-162560000D01*
X200660000Y-162560000D02*
X200660000Y-33020000D01*
X55880000Y-162560000D02*
X58420000Y-162560000D01*
%TO.C,J1*%
X60180000Y-33600000D02*
X51580000Y-33600000D01*
%TD*%
M02*
