M48
; DRILL file {KiCad 7.0.8} date Sat Nov  4 10:57:50 2023
; FORMAT={-:-/ absolute / inch / decimal}
; #@! TF.CreationDate,2023-11-04T10:57:50+00:00
; #@! TF.GenerationSoftware,Kicad,Pcbnew,7.0.8
; #@! TF.FileFunction,Plated,1,2,PTH
FMAT,2
INCH
; #@! TA.AperFunction,Plated,PTH,ViaDrill
T1C0.0157
; #@! TA.AperFunction,Plated,PTH,ComponentDrill
T2C0.0236
; #@! TA.AperFunction,Plated,PTH,ComponentDrill
T3C0.0276
; #@! TA.AperFunction,Plated,PTH,ComponentDrill
T4C0.0315
; #@! TA.AperFunction,Plated,PTH,ComponentDrill
T5C0.0354
; #@! TA.AperFunction,Plated,PTH,ComponentDrill
T6C0.0374
; #@! TA.AperFunction,Plated,PTH,ComponentDrill
T7C0.0394
; #@! TA.AperFunction,Plated,PTH,ComponentDrill
T8C0.0450
; #@! TA.AperFunction,Plated,PTH,ComponentDrill
T9C0.0591
; #@! TA.AperFunction,Plated,PTH,ComponentDrill
T10C0.0669
; #@! TA.AperFunction,Plated,PTH,ComponentDrill
T11C0.1181
%
G90
G05
T1
X2.2462Y-4.0049
X2.3721Y-6.1975
X2.7375Y-4.288
X3.4649Y-5.6034
X3.5127Y-5.7325
X3.5127Y-5.8279
X3.6155Y-5.1205
X3.7657Y-4.97
X3.7885Y-4.7366
X3.8175Y-4.646
X3.8483Y-4.6161
X3.8773Y-4.6746
X3.9584Y-5.5349
X4.0244Y-6.3605
X4.694Y-4.15
X4.8393Y-3.239
X4.852Y-4.7697
X4.8634Y-5.4394
X4.9003Y-5.555
X4.9334Y-4.7826
X4.9522Y-5.2006
X4.9682Y-5.9328
X5.0708Y-5.9725
X5.0941Y-4.1
X5.1046Y-5.2973
X5.1232Y-3.3856
X5.1249Y-4.3
X5.1398Y-4.1636
X5.1992Y-4.8222
X5.2655Y-3.1635
X5.2819Y-5.0083
X5.2975Y-6.2471
X5.38Y-3.1438
X5.4771Y-4.9836
X5.5301Y-5.0844
X5.5944Y-4.7366
X5.6129Y-5.4048
X5.6613Y-5.7004
X5.9089Y-3.207
X5.9243Y-4.7034
X6.0104Y-4.4841
X6.0108Y-5.2006
X6.0631Y-4.6361
X6.0992Y-4.183
X6.1057Y-5.3517
X6.2954Y-4.9836
T2
X3.5591Y-3.1
X3.6181Y-3.1
X3.9Y-3.1
X3.9591Y-3.1
T3
X2.4252Y-2.0
X2.5Y-2.0
X2.6252Y-1.6
X2.7Y-1.6
X6.95Y-4.9
X6.95Y-5.0857
X6.95Y-5.2714
X6.95Y-5.4571
X6.95Y-5.6429
X6.95Y-5.8286
X6.95Y-6.0143
X6.95Y-6.2
X7.0248Y-4.9
X7.0248Y-5.0857
X7.0248Y-5.2714
X7.0248Y-5.4571
X7.0248Y-5.6429
X7.0248Y-5.8286
X7.0248Y-6.0143
X7.0248Y-6.2
T4
X2.201Y-4.3502
X2.201Y-4.4502
X2.201Y-4.5502
X2.201Y-4.6502
X2.201Y-4.7502
X2.201Y-4.8502
X2.201Y-4.9502
X2.201Y-5.0502
X2.201Y-5.1502
X2.201Y-5.2502
X2.201Y-5.3502
X2.201Y-5.4502
X2.201Y-5.5502
X2.201Y-5.6502
X2.201Y-5.7502
X2.201Y-5.8502
X2.201Y-5.9502
X2.201Y-6.0502
X2.201Y-6.1502
X2.201Y-6.2502
X2.4Y-3.5
X2.4Y-3.8
X2.801Y-4.3502
X2.801Y-4.4502
X2.801Y-4.5502
X2.801Y-4.6502
X2.801Y-4.7502
X2.801Y-4.8502
X2.801Y-4.9502
X2.801Y-5.0502
X2.801Y-5.1502
X2.801Y-5.2502
X2.801Y-5.3502
X2.801Y-5.4502
X2.801Y-5.5502
X2.801Y-5.6502
X2.801Y-5.7502
X2.801Y-5.8502
X2.801Y-5.9502
X2.801Y-6.0502
X2.801Y-6.1502
X2.801Y-6.2502
X3.0Y-3.5
X3.0Y-3.8
X3.6Y-3.8992
X3.6Y-3.9992
X3.6Y-4.0992
X3.6Y-4.1992
X3.6Y-4.2992
X3.6Y-4.3992
X3.6Y-4.4992
X3.7Y-4.9506
X3.7Y-5.0506
X3.7Y-5.1506
X3.7Y-5.2506
X3.7Y-5.3506
X3.7Y-5.4506
X3.7Y-5.5506
X3.7Y-5.6506
X3.7Y-5.7506
X3.7Y-5.8506
X3.7Y-5.9506
X3.7Y-6.0506
X3.7Y-6.1506
X3.7Y-6.2506
X3.9Y-3.8992
X3.9Y-3.9992
X3.9Y-4.0992
X3.9Y-4.1992
X3.9Y-4.2992
X3.9Y-4.3992
X3.9Y-4.4992
X4.25Y-3.8008
X4.25Y-3.9008
X4.25Y-4.0008
X4.25Y-4.1008
X4.25Y-4.2008
X4.25Y-4.3008
X4.25Y-4.4008
X4.25Y-4.5008
X4.3Y-4.9506
X4.3Y-5.0506
X4.3Y-5.1506
X4.3Y-5.2506
X4.3Y-5.3506
X4.3Y-5.4506
X4.3Y-5.5506
X4.3Y-5.6506
X4.3Y-5.7506
X4.3Y-5.8506
X4.3Y-5.9506
X4.3Y-6.0506
X4.3Y-6.1506
X4.3Y-6.2506
X4.4Y-3.0
X4.4Y-3.3
X4.5Y-3.0
X4.5Y-3.3
X4.55Y-3.8008
X4.55Y-3.9008
X4.55Y-4.0008
X4.55Y-4.1008
X4.55Y-4.2008
X4.55Y-4.3008
X4.55Y-4.4008
X4.55Y-4.5008
X4.6Y-3.0
X4.6Y-3.3
X4.7Y-3.0
X4.7Y-3.3
X4.8Y-3.0
X4.8Y-3.3
X4.8Y-4.9506
X4.8Y-5.0506
X4.8Y-5.1506
X4.8Y-5.2506
X4.8Y-5.3506
X4.8Y-5.4506
X4.8Y-5.5506
X4.8Y-5.6506
X4.8Y-5.7506
X4.8Y-5.8506
X4.8Y-5.9506
X4.8Y-6.0506
X4.8Y-6.1506
X4.8Y-6.2506
X4.9Y-3.0
X4.9Y-3.3
X4.9Y-3.6
X4.9Y-3.7
X4.9Y-3.8
X4.9Y-3.9
X4.9Y-4.0
X4.9Y-4.1
X4.9Y-4.2
X4.9Y-4.3
X4.9Y-4.4
X4.9Y-4.5
X5.0Y-3.0
X5.0Y-3.3
X5.1Y-3.0
X5.1Y-3.3
X5.2Y-3.0
X5.2Y-3.3
X5.2Y-3.6
X5.2Y-3.7
X5.2Y-3.8
X5.2Y-3.9
X5.2Y-4.0
X5.2Y-4.1
X5.2Y-4.2
X5.2Y-4.3
X5.2Y-4.4
X5.2Y-4.5
X5.3Y-3.0
X5.3Y-3.3
X5.4Y-4.9506
X5.4Y-5.0506
X5.4Y-5.1506
X5.4Y-5.2506
X5.4Y-5.3506
X5.4Y-5.4506
X5.4Y-5.5506
X5.4Y-5.6506
X5.4Y-5.7506
X5.4Y-5.8506
X5.4Y-5.9506
X5.4Y-6.0506
X5.4Y-6.1506
X5.4Y-6.2506
X5.55Y-3.8992
X5.55Y-3.9992
X5.55Y-4.0992
X5.55Y-4.1992
X5.55Y-4.2992
X5.55Y-4.3992
X5.55Y-4.4992
X5.85Y-3.8992
X5.85Y-3.9992
X5.85Y-4.0992
X5.85Y-4.1992
X5.85Y-4.2992
X5.85Y-4.3992
X5.85Y-4.4992
X6.2Y-3.8992
X6.2Y-3.9992
X6.2Y-4.0992
X6.2Y-4.1992
X6.2Y-4.2992
X6.2Y-4.3992
X6.2Y-4.4992
X6.2Y-5.1
X6.2Y-5.2
X6.2Y-5.3
X6.2Y-5.4
X6.2Y-5.5
X6.2Y-5.6
X6.2Y-5.7
X6.2Y-5.8
X6.2Y-5.9
X6.2Y-6.0
X6.5Y-3.8992
X6.5Y-3.9992
X6.5Y-4.0992
X6.5Y-4.1992
X6.5Y-4.2992
X6.5Y-4.3992
X6.5Y-4.4992
X6.5Y-5.1
X6.5Y-5.2
X6.5Y-5.3
X6.5Y-5.4
X6.5Y-5.5
X6.5Y-5.6
X6.5Y-5.7
X6.5Y-5.8
X6.5Y-5.9
X6.5Y-6.0
X6.95Y-3.2
X6.95Y-3.4
X6.95Y-3.6
X6.95Y-3.8
X6.95Y-4.0
X6.95Y-4.2
X6.95Y-4.4
X6.95Y-4.6
X7.25Y-3.2
X7.25Y-3.4
X7.25Y-3.6
X7.25Y-3.8
X7.25Y-4.0
X7.25Y-4.2
X7.25Y-4.4
X7.25Y-4.6
T5
X2.1Y-2.0
X2.2Y-2.0
X6.0Y-3.1
X6.0Y-3.2969
X6.0984Y-3.1984
T6
X7.6Y-3.6016
X7.6Y-3.7
X7.6Y-3.7984
X7.6Y-3.8969
X7.6Y-3.9953
X7.6Y-4.0937
X7.6Y-4.1921
X7.6Y-4.2906
X7.6236Y-5.2
X7.6236Y-5.2984
X7.6236Y-5.3969
X7.6236Y-5.4953
X7.6236Y-5.5937
X7.6236Y-5.6921
X7.6236Y-5.7906
X7.6236Y-5.889
T7
X4.4Y-2.7
X4.5Y-2.7
X4.6Y-2.7
X4.7Y-2.7
X4.8Y-2.7
X4.9Y-2.7
X5.0Y-2.7
X5.1Y-2.7
X5.2Y-2.7
X5.3Y-2.7
X5.4Y-2.7
X5.5Y-2.7
X5.6Y-2.7
X5.7Y-2.7
X5.8Y-2.7
X5.9Y-2.7
T8
X2.5Y-2.55
X2.5Y-2.85
X2.6Y-2.85
X2.7Y-2.55
X2.7Y-2.85
T9
X2.2Y-1.5
T10
X2.1Y-1.4
X2.1Y-1.6
X2.3Y-1.4
X2.3Y-1.6
T11
X3.1638Y-1.4717
X3.1638Y-2.6961
X6.1165Y-1.4717
X6.1165Y-2.6921
T0
M30
