M48
; DRILL file {KiCad 7.0.8} date Sat Nov  4 10:41:18 2023
; FORMAT={-:-/ absolute / inch / decimal}
; #@! TF.CreationDate,2023-11-04T10:41:18+00:00
; #@! TF.GenerationSoftware,Kicad,Pcbnew,7.0.8
; #@! TF.FileFunction,Plated,1,2,PTH
FMAT,2
INCH
; #@! TA.AperFunction,Plated,PTH,ViaDrill
T1C0.0157
; #@! TA.AperFunction,Plated,PTH,ComponentDrill
T2C0.0236
; #@! TA.AperFunction,Plated,PTH,ComponentDrill
T3C0.0276
; #@! TA.AperFunction,Plated,PTH,ComponentDrill
T4C0.0315
; #@! TA.AperFunction,Plated,PTH,ComponentDrill
T5C0.0354
; #@! TA.AperFunction,Plated,PTH,ComponentDrill
T6C0.0374
; #@! TA.AperFunction,Plated,PTH,ComponentDrill
T7C0.0394
; #@! TA.AperFunction,Plated,PTH,ComponentDrill
T8C0.0450
; #@! TA.AperFunction,Plated,PTH,ComponentDrill
T9C0.0591
; #@! TA.AperFunction,Plated,PTH,ComponentDrill
T10C0.0669
; #@! TA.AperFunction,Plated,PTH,ComponentDrill
T11C0.1181
%
G90
G05
T1
X3.869Y-4.8587
X3.9675Y-4.6409
X3.9726Y-4.9018
X4.0162Y-4.9638
X4.1853Y-5.176
X4.4598Y-4.8266
X4.8453Y-3.8505
X4.8736Y-5.1654
X5.002Y-4.1353
X5.027Y-4.7422
X5.0348Y-4.3462
X5.05Y-2.9618
X5.1416Y-3.2498
X5.251Y-3.1539
X5.3613Y-4.2364
X5.4964Y-6.2208
X5.6695Y-4.0691
X5.8525Y-4.9394
X5.8565Y-5.2632
X5.8843Y-3.2543
X5.9699Y-4.5073
X6.2533Y-4.3426
X6.3728Y-5.8212
T2
X3.5591Y-3.1
X3.6181Y-3.1
X3.9Y-3.1
X3.9591Y-3.1
T3
X2.4252Y-2.0
X2.5Y-2.0
X2.6252Y-1.6
X2.7Y-1.6
X6.95Y-4.9
X6.95Y-5.0857
X6.95Y-5.2714
X6.95Y-5.4571
X6.95Y-5.6429
X6.95Y-5.8286
X6.95Y-6.0143
X6.95Y-6.2
X7.0248Y-4.9
X7.0248Y-5.0857
X7.0248Y-5.2714
X7.0248Y-5.4571
X7.0248Y-5.6429
X7.0248Y-5.8286
X7.0248Y-6.0143
X7.0248Y-6.2
T4
X2.201Y-4.3502
X2.201Y-4.4502
X2.201Y-4.5502
X2.201Y-4.6502
X2.201Y-4.7502
X2.201Y-4.8502
X2.201Y-4.9502
X2.201Y-5.0502
X2.201Y-5.1502
X2.201Y-5.2502
X2.201Y-5.3502
X2.201Y-5.4502
X2.201Y-5.5502
X2.201Y-5.6502
X2.201Y-5.7502
X2.201Y-5.8502
X2.201Y-5.9502
X2.201Y-6.0502
X2.201Y-6.1502
X2.201Y-6.2502
X2.4Y-3.5
X2.4Y-3.8
X3.0Y-3.5
X3.0Y-3.8
X3.201Y-4.3502
X3.201Y-4.4502
X3.201Y-4.5502
X3.201Y-4.6502
X3.201Y-4.7502
X3.201Y-4.8502
X3.201Y-4.9502
X3.201Y-5.0502
X3.201Y-5.1502
X3.201Y-5.2502
X3.201Y-5.3502
X3.201Y-5.4502
X3.201Y-5.5502
X3.201Y-5.6502
X3.201Y-5.7502
X3.201Y-5.8502
X3.201Y-5.9502
X3.201Y-6.0502
X3.201Y-6.1502
X3.201Y-6.2502
X3.6Y-3.8992
X3.6Y-3.9992
X3.6Y-4.0992
X3.6Y-4.1992
X3.6Y-4.2992
X3.6Y-4.3992
X3.6Y-4.4992
X3.7Y-4.9506
X3.7Y-5.0506
X3.7Y-5.1506
X3.7Y-5.2506
X3.7Y-5.3506
X3.7Y-5.4506
X3.7Y-5.5506
X3.7Y-5.6506
X3.7Y-5.7506
X3.7Y-5.8506
X3.7Y-5.9506
X3.7Y-6.0506
X3.7Y-6.1506
X3.7Y-6.2506
X3.9Y-3.8992
X3.9Y-3.9992
X3.9Y-4.0992
X3.9Y-4.1992
X3.9Y-4.2992
X3.9Y-4.3992
X3.9Y-4.4992
X4.25Y-3.8008
X4.25Y-3.9008
X4.25Y-4.0008
X4.25Y-4.1008
X4.25Y-4.2008
X4.25Y-4.3008
X4.25Y-4.4008
X4.25Y-4.5008
X4.3Y-4.9506
X4.3Y-5.0506
X4.3Y-5.1506
X4.3Y-5.2506
X4.3Y-5.3506
X4.3Y-5.4506
X4.3Y-5.5506
X4.3Y-5.6506
X4.3Y-5.7506
X4.3Y-5.8506
X4.3Y-5.9506
X4.3Y-6.0506
X4.3Y-6.1506
X4.3Y-6.2506
X4.4Y-3.0
X4.4Y-3.3
X4.5Y-3.0
X4.5Y-3.3
X4.55Y-3.8008
X4.55Y-3.9008
X4.55Y-4.0008
X4.55Y-4.1008
X4.55Y-4.2008
X4.55Y-4.3008
X4.55Y-4.4008
X4.55Y-4.5008
X4.6Y-3.0
X4.6Y-3.3
X4.7Y-3.0
X4.7Y-3.3
X4.8Y-3.0
X4.8Y-3.3
X4.8Y-4.9506
X4.8Y-5.0506
X4.8Y-5.1506
X4.8Y-5.2506
X4.8Y-5.3506
X4.8Y-5.4506
X4.8Y-5.5506
X4.8Y-5.6506
X4.8Y-5.7506
X4.8Y-5.8506
X4.8Y-5.9506
X4.8Y-6.0506
X4.8Y-6.1506
X4.8Y-6.2506
X4.9Y-3.0
X4.9Y-3.3
X4.9Y-3.6
X4.9Y-3.7
X4.9Y-3.8
X4.9Y-3.9
X4.9Y-4.0
X4.9Y-4.1
X4.9Y-4.2
X4.9Y-4.3
X4.9Y-4.4
X4.9Y-4.5
X5.0Y-3.0
X5.0Y-3.3
X5.1Y-3.0
X5.1Y-3.3
X5.2Y-3.0
X5.2Y-3.3
X5.2Y-3.6
X5.2Y-3.7
X5.2Y-3.8
X5.2Y-3.9
X5.2Y-4.0
X5.2Y-4.1
X5.2Y-4.2
X5.2Y-4.3
X5.2Y-4.4
X5.2Y-4.5
X5.3Y-3.0
X5.3Y-3.3
X5.4Y-4.9506
X5.4Y-5.0506
X5.4Y-5.1506
X5.4Y-5.2506
X5.4Y-5.3506
X5.4Y-5.4506
X5.4Y-5.5506
X5.4Y-5.6506
X5.4Y-5.7506
X5.4Y-5.8506
X5.4Y-5.9506
X5.4Y-6.0506
X5.4Y-6.1506
X5.4Y-6.2506
X5.55Y-3.8992
X5.55Y-3.9992
X5.55Y-4.0992
X5.55Y-4.1992
X5.55Y-4.2992
X5.55Y-4.3992
X5.55Y-4.4992
X5.85Y-3.8992
X5.85Y-3.9992
X5.85Y-4.0992
X5.85Y-4.1992
X5.85Y-4.2992
X5.85Y-4.3992
X5.85Y-4.4992
X6.2Y-3.8992
X6.2Y-3.9992
X6.2Y-4.0992
X6.2Y-4.1992
X6.2Y-4.2992
X6.2Y-4.3992
X6.2Y-4.4992
X6.2Y-5.1
X6.2Y-5.2
X6.2Y-5.3
X6.2Y-5.4
X6.2Y-5.5
X6.2Y-5.6
X6.2Y-5.7
X6.2Y-5.8
X6.2Y-5.9
X6.2Y-6.0
X6.5Y-3.8992
X6.5Y-3.9992
X6.5Y-4.0992
X6.5Y-4.1992
X6.5Y-4.2992
X6.5Y-4.3992
X6.5Y-4.4992
X6.5Y-5.1
X6.5Y-5.2
X6.5Y-5.3
X6.5Y-5.4
X6.5Y-5.5
X6.5Y-5.6
X6.5Y-5.7
X6.5Y-5.8
X6.5Y-5.9
X6.5Y-6.0
X6.95Y-3.2
X6.95Y-3.4
X6.95Y-3.6
X6.95Y-3.8
X6.95Y-4.0
X6.95Y-4.2
X6.95Y-4.4
X6.95Y-4.6
X7.25Y-3.2
X7.25Y-3.4
X7.25Y-3.6
X7.25Y-3.8
X7.25Y-4.0
X7.25Y-4.2
X7.25Y-4.4
X7.25Y-4.6
T5
X2.1Y-2.0
X2.2Y-2.0
X6.0Y-3.1
X6.0Y-3.2969
X6.0984Y-3.1984
T6
X7.6Y-3.6016
X7.6Y-3.7
X7.6Y-3.7984
X7.6Y-3.8969
X7.6Y-3.9953
X7.6Y-4.0937
X7.6Y-4.1921
X7.6Y-4.2906
X7.6236Y-5.2
X7.6236Y-5.2984
X7.6236Y-5.3969
X7.6236Y-5.4953
X7.6236Y-5.5937
X7.6236Y-5.6921
X7.6236Y-5.7906
X7.6236Y-5.889
T7
X4.4Y-2.7
X4.5Y-2.7
X4.6Y-2.7
X4.7Y-2.7
X4.8Y-2.7
X4.9Y-2.7
X5.0Y-2.7
X5.1Y-2.7
X5.2Y-2.7
X5.3Y-2.7
X5.4Y-2.7
X5.5Y-2.7
X5.6Y-2.7
X5.7Y-2.7
X5.8Y-2.7
X5.9Y-2.7
T8
X6.6Y-2.25
X6.6Y-2.55
X6.7Y-2.55
X6.8Y-2.25
X6.8Y-2.55
T9
X2.2Y-1.5
T10
X2.1Y-1.4
X2.1Y-1.6
X2.3Y-1.4
X2.3Y-1.6
T11
X3.1638Y-1.4717
X3.1638Y-2.6961
X6.1165Y-1.4717
X6.1165Y-2.6921
T0
M30
