%TF.GenerationSoftware,KiCad,Pcbnew,7.0.8*%
%TF.CreationDate,2023-11-04T10:57:41+00:00*%
%TF.ProjectId,Z80Computer,5a383043-6f6d-4707-9574-65722e6b6963,rev?*%
%TF.SameCoordinates,Original*%
%TF.FileFunction,Copper,L2,Bot*%
%TF.FilePolarity,Positive*%
%FSLAX46Y46*%
G04 Gerber Fmt 4.6, Leading zero omitted, Abs format (unit mm)*
G04 Created by KiCad (PCBNEW 7.0.8) date 2023-11-04 10:57:41*
%MOMM*%
%LPD*%
G01*
G04 APERTURE LIST*
G04 Aperture macros list*
%AMRoundRect*
0 Rectangle with rounded corners*
0 $1 Rounding radius*
0 $2 $3 $4 $5 $6 $7 $8 $9 X,Y pos of 4 corners*
0 Add a 4 corners polygon primitive as box body*
4,1,4,$2,$3,$4,$5,$6,$7,$8,$9,$2,$3,0*
0 Add four circle primitives for the rounded corners*
1,1,$1+$1,$2,$3*
1,1,$1+$1,$4,$5*
1,1,$1+$1,$6,$7*
1,1,$1+$1,$8,$9*
0 Add four rect primitives between the rounded corners*
20,1,$1+$1,$2,$3,$4,$5,0*
20,1,$1+$1,$4,$5,$6,$7,0*
20,1,$1+$1,$6,$7,$8,$9,0*
20,1,$1+$1,$8,$9,$2,$3,0*%
G04 Aperture macros list end*
%TA.AperFunction,ComponentPad*%
%ADD10R,1.600000X1.600000*%
%TD*%
%TA.AperFunction,ComponentPad*%
%ADD11O,1.600000X1.600000*%
%TD*%
%TA.AperFunction,ComponentPad*%
%ADD12C,1.620000*%
%TD*%
%TA.AperFunction,ComponentPad*%
%ADD13C,1.400000*%
%TD*%
%TA.AperFunction,ComponentPad*%
%ADD14O,1.400000X1.400000*%
%TD*%
%TA.AperFunction,ComponentPad*%
%ADD15C,6.000000*%
%TD*%
%TA.AperFunction,ComponentPad*%
%ADD16O,1.508000X3.016000*%
%TD*%
%TA.AperFunction,ComponentPad*%
%ADD17RoundRect,0.200100X-0.949900X-0.949900X0.949900X-0.949900X0.949900X0.949900X-0.949900X0.949900X0*%
%TD*%
%TA.AperFunction,ComponentPad*%
%ADD18C,2.500000*%
%TD*%
%TA.AperFunction,ComponentPad*%
%ADD19C,1.778000*%
%TD*%
%TA.AperFunction,ComponentPad*%
%ADD20C,1.600000*%
%TD*%
%TA.AperFunction,ComponentPad*%
%ADD21RoundRect,0.250000X0.725000X-0.600000X0.725000X0.600000X-0.725000X0.600000X-0.725000X-0.600000X0*%
%TD*%
%TA.AperFunction,ComponentPad*%
%ADD22O,1.950000X1.700000*%
%TD*%
%TA.AperFunction,ComponentPad*%
%ADD23R,1.200000X1.200000*%
%TD*%
%TA.AperFunction,ComponentPad*%
%ADD24C,1.200000*%
%TD*%
%TA.AperFunction,ComponentPad*%
%ADD25R,1.800000X1.800000*%
%TD*%
%TA.AperFunction,ComponentPad*%
%ADD26C,1.800000*%
%TD*%
%TA.AperFunction,ComponentPad*%
%ADD27RoundRect,0.250000X-0.725000X0.600000X-0.725000X-0.600000X0.725000X-0.600000X0.725000X0.600000X0*%
%TD*%
%TA.AperFunction,ViaPad*%
%ADD28C,0.800000*%
%TD*%
%TA.AperFunction,Conductor*%
%ADD29C,0.250000*%
%TD*%
G04 APERTURE END LIST*
D10*
%TO.P,IC1,1,A11*%
%TO.N,/A11*%
X55905000Y-110495000D03*
D11*
%TO.P,IC1,2,A12*%
%TO.N,/A12*%
X55905000Y-113035000D03*
%TO.P,IC1,3,A13*%
%TO.N,/A13*%
X55905000Y-115575000D03*
%TO.P,IC1,4,A14*%
%TO.N,/A14*%
X55905000Y-118115000D03*
%TO.P,IC1,5,A15*%
%TO.N,/A15*%
X55905000Y-120655000D03*
%TO.P,IC1,6,~{CLK}*%
%TO.N,Net-(IC1-~{CLK})*%
X55905000Y-123195000D03*
%TO.P,IC1,7,D4*%
%TO.N,/D4*%
X55905000Y-125735000D03*
%TO.P,IC1,8,D3*%
%TO.N,/D3*%
X55905000Y-128275000D03*
%TO.P,IC1,9,D5*%
%TO.N,/D5*%
X55905000Y-130815000D03*
%TO.P,IC1,10,D6*%
%TO.N,/D6*%
X55905000Y-133355000D03*
%TO.P,IC1,11,VCC*%
%TO.N,+5V*%
X55905000Y-135895000D03*
%TO.P,IC1,12,D2*%
%TO.N,/D2*%
X55905000Y-138435000D03*
%TO.P,IC1,13,D7*%
%TO.N,/D7*%
X55905000Y-140975000D03*
%TO.P,IC1,14,D0*%
%TO.N,/D0*%
X55905000Y-143515000D03*
%TO.P,IC1,15,D1*%
%TO.N,/D1*%
X55905000Y-146055000D03*
%TO.P,IC1,16,~{INT}*%
%TO.N,+5V*%
X55905000Y-148595000D03*
%TO.P,IC1,17,~{NMI}*%
X55905000Y-151135000D03*
%TO.P,IC1,18,~{HALT}*%
%TO.N,unconnected-(IC1-~{HALT}-Pad18)*%
X55905000Y-153675000D03*
%TO.P,IC1,19,~{MREQ}*%
%TO.N,~{MREQ}*%
X55905000Y-156215000D03*
%TO.P,IC1,20,~{IORQ}*%
%TO.N,~{IORQ}*%
X55905000Y-158755000D03*
%TO.P,IC1,21,~{RD}*%
%TO.N,~{RD}*%
X71145000Y-158755000D03*
%TO.P,IC1,22,~{WR}*%
%TO.N,~{WR}*%
X71145000Y-156215000D03*
%TO.P,IC1,23,~{BUSACK}*%
%TO.N,unconnected-(IC1-~{BUSACK}-Pad23)*%
X71145000Y-153675000D03*
%TO.P,IC1,24,~{WAIT}*%
%TO.N,+5V*%
X71145000Y-151135000D03*
%TO.P,IC1,25,~{BUSRQ}*%
X71145000Y-148595000D03*
%TO.P,IC1,26,~{RESET}*%
%TO.N,Net-(IC1-~{RESET})*%
X71145000Y-146055000D03*
%TO.P,IC1,27,~{M1}*%
%TO.N,~{M1}*%
X71145000Y-143515000D03*
%TO.P,IC1,28,~{RFSH}*%
%TO.N,unconnected-(IC1-~{RFSH}-Pad28)*%
X71145000Y-140975000D03*
%TO.P,IC1,29,GND*%
%TO.N,Z80_PWRCAP*%
X71145000Y-138435000D03*
%TO.P,IC1,30,A0*%
%TO.N,/A0*%
X71145000Y-135895000D03*
%TO.P,IC1,31,A1*%
%TO.N,/A1*%
X71145000Y-133355000D03*
%TO.P,IC1,32,A2*%
%TO.N,/A2*%
X71145000Y-130815000D03*
%TO.P,IC1,33,A3*%
%TO.N,/A3*%
X71145000Y-128275000D03*
%TO.P,IC1,34,A4*%
%TO.N,/A4*%
X71145000Y-125735000D03*
%TO.P,IC1,35,A5*%
%TO.N,/A5*%
X71145000Y-123195000D03*
%TO.P,IC1,36,A6*%
%TO.N,/A6*%
X71145000Y-120655000D03*
%TO.P,IC1,37,A7*%
%TO.N,/A7*%
X71145000Y-118115000D03*
%TO.P,IC1,38,A8*%
%TO.N,/A8*%
X71145000Y-115575000D03*
%TO.P,IC1,39,A9*%
%TO.N,/A9*%
X71145000Y-113035000D03*
%TO.P,IC1,40,A10*%
%TO.N,/A10*%
X71145000Y-110495000D03*
%TD*%
D10*
%TO.P,U7,1*%
%TO.N,/A15*%
X157480000Y-99040000D03*
D11*
%TO.P,U7,2*%
%TO.N,~{MREQ}*%
X157480000Y-101580000D03*
%TO.P,U7,3*%
%TO.N,Net-(IC2_EEPROM1-~{CS})*%
X157480000Y-104120000D03*
%TO.P,U7,4*%
%TO.N,/A15*%
X157480000Y-106660000D03*
%TO.P,U7,5*%
X157480000Y-109200000D03*
%TO.P,U7,6*%
%TO.N,Net-(U5-Pad9)*%
X157480000Y-111740000D03*
%TO.P,U7,7,GND*%
%TO.N,Z80_PWRCAP*%
X157480000Y-114280000D03*
%TO.P,U7,8*%
%TO.N,unconnected-(U7-Pad8)*%
X165100000Y-114280000D03*
%TO.P,U7,9*%
%TO.N,unconnected-(U7-Pad9)*%
X165100000Y-111740000D03*
%TO.P,U7,10*%
%TO.N,unconnected-(U7-Pad10)*%
X165100000Y-109200000D03*
%TO.P,U7,11*%
%TO.N,unconnected-(U7-Pad11)*%
X165100000Y-106660000D03*
%TO.P,U7,12*%
%TO.N,unconnected-(U7-Pad12)*%
X165100000Y-104120000D03*
%TO.P,U7,13*%
%TO.N,unconnected-(U7-Pad13)*%
X165100000Y-101580000D03*
%TO.P,U7,14,VCC*%
%TO.N,+5V*%
X165100000Y-99040000D03*
%TD*%
D10*
%TO.P,IC2_EEPROM1,1,A14*%
%TO.N,/A14*%
X93980000Y-125745000D03*
D11*
%TO.P,IC2_EEPROM1,2,A12*%
%TO.N,/A12*%
X93980000Y-128285000D03*
%TO.P,IC2_EEPROM1,3,A7*%
%TO.N,/A7*%
X93980000Y-130825000D03*
%TO.P,IC2_EEPROM1,4,A6*%
%TO.N,/A6*%
X93980000Y-133365000D03*
%TO.P,IC2_EEPROM1,5,A5*%
%TO.N,/A5*%
X93980000Y-135905000D03*
%TO.P,IC2_EEPROM1,6,A4*%
%TO.N,/A4*%
X93980000Y-138445000D03*
%TO.P,IC2_EEPROM1,7,A3*%
%TO.N,/A3*%
X93980000Y-140985000D03*
%TO.P,IC2_EEPROM1,8,A2*%
%TO.N,/A2*%
X93980000Y-143525000D03*
%TO.P,IC2_EEPROM1,9,A1*%
%TO.N,/A1*%
X93980000Y-146065000D03*
%TO.P,IC2_EEPROM1,10,A0*%
%TO.N,/A0*%
X93980000Y-148605000D03*
%TO.P,IC2_EEPROM1,11,D0*%
%TO.N,/D0*%
X93980000Y-151145000D03*
%TO.P,IC2_EEPROM1,12,D1*%
%TO.N,/D1*%
X93980000Y-153685000D03*
%TO.P,IC2_EEPROM1,13,D2*%
%TO.N,/D2*%
X93980000Y-156225000D03*
%TO.P,IC2_EEPROM1,14,GND*%
%TO.N,Z80_PWRCAP*%
X93980000Y-158765000D03*
%TO.P,IC2_EEPROM1,15,D3*%
%TO.N,/D3*%
X109220000Y-158765000D03*
%TO.P,IC2_EEPROM1,16,D4*%
%TO.N,/D4*%
X109220000Y-156225000D03*
%TO.P,IC2_EEPROM1,17,D5*%
%TO.N,/D5*%
X109220000Y-153685000D03*
%TO.P,IC2_EEPROM1,18,D6*%
%TO.N,/D6*%
X109220000Y-151145000D03*
%TO.P,IC2_EEPROM1,19,D7*%
%TO.N,/D7*%
X109220000Y-148605000D03*
%TO.P,IC2_EEPROM1,20,~{CS}*%
%TO.N,Net-(IC2_EEPROM1-~{CS})*%
X109220000Y-146065000D03*
%TO.P,IC2_EEPROM1,21,A10*%
%TO.N,/A10*%
X109220000Y-143525000D03*
%TO.P,IC2_EEPROM1,22,~{OE}*%
%TO.N,~{RD}*%
X109220000Y-140985000D03*
%TO.P,IC2_EEPROM1,23,A11*%
%TO.N,/A11*%
X109220000Y-138445000D03*
%TO.P,IC2_EEPROM1,24,A9*%
%TO.N,/A9*%
X109220000Y-135905000D03*
%TO.P,IC2_EEPROM1,25,A8*%
%TO.N,/A8*%
X109220000Y-133365000D03*
%TO.P,IC2_EEPROM1,26,A13*%
%TO.N,/A13*%
X109220000Y-130825000D03*
%TO.P,IC2_EEPROM1,27,~{WE}*%
%TO.N,+5V*%
X109220000Y-128285000D03*
%TO.P,IC2_EEPROM1,28,VCC*%
X109220000Y-125745000D03*
%TD*%
D12*
%TO.P,RV1,1,1*%
%TO.N,+5V*%
X152400000Y-78740000D03*
%TO.P,RV1,2,2*%
%TO.N,Net-(DIS1-PadP$3)*%
X154900000Y-81240000D03*
%TO.P,RV1,3,3*%
%TO.N,Z80_PWRCAP*%
X152400000Y-83740000D03*
%TD*%
D13*
%TO.P,R2,1*%
%TO.N,Net-(J2-Pin_8)*%
X176530000Y-157480000D03*
D14*
%TO.P,R2,2*%
%TO.N,Z80_PWRCAP*%
X178430000Y-157480000D03*
%TD*%
D10*
%TO.P,U3,1,~{Mr}*%
%TO.N,+5V*%
X111760000Y-83820000D03*
D11*
%TO.P,U3,2,Q0*%
%TO.N,Net-(D1-A)*%
X114300000Y-83820000D03*
%TO.P,U3,3,D0*%
%TO.N,/D0*%
X116840000Y-83820000D03*
%TO.P,U3,4,D1*%
%TO.N,/D1*%
X119380000Y-83820000D03*
%TO.P,U3,5,Q1*%
%TO.N,Net-(D8-A)*%
X121920000Y-83820000D03*
%TO.P,U3,6,Q2*%
%TO.N,Net-(D3-A)*%
X124460000Y-83820000D03*
%TO.P,U3,7,D2*%
%TO.N,/D2*%
X127000000Y-83820000D03*
%TO.P,U3,8,D3*%
%TO.N,/D3*%
X129540000Y-83820000D03*
%TO.P,U3,9,Q3*%
%TO.N,Net-(D2-A)*%
X132080000Y-83820000D03*
%TO.P,U3,10,GND*%
%TO.N,Z80_PWRCAP*%
X134620000Y-83820000D03*
%TO.P,U3,11,Cp*%
%TO.N,Net-(U3-Cp)*%
X134620000Y-76200000D03*
%TO.P,U3,12,Q4*%
%TO.N,Net-(D4-A)*%
X132080000Y-76200000D03*
%TO.P,U3,13,D4*%
%TO.N,/D4*%
X129540000Y-76200000D03*
%TO.P,U3,14,D5*%
%TO.N,/D5*%
X127000000Y-76200000D03*
%TO.P,U3,15,Q5*%
%TO.N,Net-(D6-A)*%
X124460000Y-76200000D03*
%TO.P,U3,16,Q6*%
%TO.N,Net-(D5-A)*%
X121920000Y-76200000D03*
%TO.P,U3,17,D6*%
%TO.N,/D6*%
X119380000Y-76200000D03*
%TO.P,U3,18,D7*%
%TO.N,/D7*%
X116840000Y-76200000D03*
%TO.P,U3,19,Q7*%
%TO.N,Net-(D7-A)*%
X114300000Y-76200000D03*
%TO.P,U3,20,VCC*%
%TO.N,+5V*%
X111760000Y-76200000D03*
%TD*%
D15*
%TO.P,DIS1,MNT1*%
%TO.N,N/C*%
X155360000Y-68380000D03*
%TO.P,DIS1,MNT2*%
X80360000Y-68480000D03*
%TO.P,DIS1,MNT3*%
X155360000Y-37380000D03*
%TO.P,DIS1,MNT4*%
X80360000Y-37380000D03*
D16*
%TO.P,DIS1,P$1*%
%TO.N,Z80_PWRCAP*%
X149860000Y-68580000D03*
%TO.P,DIS1,P$2*%
%TO.N,+5V*%
X147320000Y-68580000D03*
%TO.P,DIS1,P$3*%
%TO.N,Net-(DIS1-PadP$3)*%
X144780000Y-68580000D03*
%TO.P,DIS1,P$4*%
%TO.N,/A0*%
X142240000Y-68580000D03*
%TO.P,DIS1,P$5*%
%TO.N,Net-(DIS1-PadP$5)*%
X139700000Y-68580000D03*
%TO.P,DIS1,P$6*%
%TO.N,Net-(DIS1-PadP$6)*%
X137160000Y-68580000D03*
%TO.P,DIS1,P$7*%
%TO.N,/D0*%
X134620000Y-68580000D03*
%TO.P,DIS1,P$8*%
%TO.N,/D1*%
X132080000Y-68580000D03*
%TO.P,DIS1,P$9*%
%TO.N,/D2*%
X129540000Y-68580000D03*
%TO.P,DIS1,P$10*%
%TO.N,/D3*%
X127000000Y-68580000D03*
%TO.P,DIS1,P$11*%
%TO.N,/D4*%
X124460000Y-68580000D03*
%TO.P,DIS1,P$12*%
%TO.N,/D5*%
X121920000Y-68580000D03*
%TO.P,DIS1,P$13*%
%TO.N,/D6*%
X119380000Y-68580000D03*
%TO.P,DIS1,P$14*%
%TO.N,/D7*%
X116840000Y-68580000D03*
%TO.P,DIS1,P$15*%
%TO.N,+5V*%
X114300000Y-68580000D03*
%TO.P,DIS1,P$16*%
%TO.N,Z80_PWRCAP*%
X111760000Y-68580000D03*
%TD*%
D13*
%TO.P,R7,1*%
%TO.N,Net-(J2-Pin_3)*%
X176530000Y-133894300D03*
D14*
%TO.P,R7,2*%
%TO.N,Z80_PWRCAP*%
X178430000Y-133894300D03*
%TD*%
D17*
%TO.P,J1,1,In*%
%TO.N,+5V*%
X55880000Y-38100000D03*
D18*
%TO.P,J1,2,Ext*%
%TO.N,Z80_PWRCAP*%
X53340000Y-35560000D03*
X53340000Y-40640000D03*
X58420000Y-35560000D03*
X58420000Y-40640000D03*
%TD*%
D13*
%TO.P,R5,1*%
%TO.N,Net-(J2-Pin_5)*%
X176530000Y-143328600D03*
D14*
%TO.P,R5,2*%
%TO.N,Z80_PWRCAP*%
X178430000Y-143328600D03*
%TD*%
D19*
%TO.P,SW1,1,1*%
%TO.N,Z80_PWRCAP*%
X63500000Y-64770000D03*
%TO.P,SW1,2,2*%
%TO.N,Net-(IC1-~{RESET})*%
X68580000Y-64770000D03*
%TO.P,SW1,3*%
%TO.N,N/C*%
X68580000Y-72390000D03*
%TO.P,SW1,4*%
X66040000Y-72390000D03*
%TO.P,SW1,5*%
X63500000Y-72390000D03*
%TD*%
D10*
%TO.P,X1,1,EN*%
%TO.N,unconnected-(X1-EN-Pad1)*%
X60960000Y-96520000D03*
D20*
%TO.P,X1,7,GND*%
%TO.N,Z80_PWRCAP*%
X76200000Y-96520000D03*
%TO.P,X1,8,OUT*%
%TO.N,Net-(IC1-~{CLK})*%
X76200000Y-88900000D03*
%TO.P,X1,14,Vcc*%
%TO.N,+5V*%
X60960000Y-88900000D03*
%TD*%
D13*
%TO.P,R1,1*%
%TO.N,+5V*%
X66680000Y-40640000D03*
D14*
%TO.P,R1,2*%
%TO.N,Net-(IC1-~{RESET})*%
X68580000Y-40640000D03*
%TD*%
D13*
%TO.P,R6,1*%
%TO.N,Net-(J2-Pin_4)*%
X176530000Y-138611400D03*
D14*
%TO.P,R6,2*%
%TO.N,Z80_PWRCAP*%
X178430000Y-138611400D03*
%TD*%
D10*
%TO.P,D1,1,K*%
%TO.N,Net-(D1-K)*%
X176530000Y-81280000D03*
D11*
%TO.P,D1,2,A*%
%TO.N,Net-(D1-A)*%
X184150000Y-81280000D03*
%TD*%
D21*
%TO.P,J3,1,Pin_1*%
%TO.N,Net-(D1-K)*%
X193040000Y-108980000D03*
D22*
%TO.P,J3,2,Pin_2*%
%TO.N,Net-(D8-K)*%
X193040000Y-106480000D03*
%TO.P,J3,3,Pin_3*%
%TO.N,Net-(D3-K)*%
X193040000Y-103980000D03*
%TO.P,J3,4,Pin_4*%
%TO.N,Net-(D2-K)*%
X193040000Y-101480000D03*
%TO.P,J3,5,Pin_5*%
%TO.N,Net-(D4-K)*%
X193040000Y-98980000D03*
%TO.P,J3,6,Pin_6*%
%TO.N,Net-(D6-K)*%
X193040000Y-96480000D03*
%TO.P,J3,7,Pin_7*%
%TO.N,Net-(D5-K)*%
X193040000Y-93980000D03*
%TO.P,J3,8,Pin_8*%
%TO.N,Net-(D7-K)*%
X193040000Y-91480000D03*
%TD*%
D10*
%TO.P,U2,1*%
%TO.N,~{KEYPAD_PORT}*%
X91440000Y-99040000D03*
D11*
%TO.P,U2,2*%
%TO.N,~{RD}*%
X91440000Y-101580000D03*
%TO.P,U2,3*%
%TO.N,Net-(U1-OEa)*%
X91440000Y-104120000D03*
%TO.P,U2,4*%
%TO.N,~{WR}*%
X91440000Y-106660000D03*
%TO.P,U2,5*%
%TO.N,~{KEYPAD_PORT}*%
X91440000Y-109200000D03*
%TO.P,U2,6*%
%TO.N,Net-(U3-Cp)*%
X91440000Y-111740000D03*
%TO.P,U2,7,GND*%
%TO.N,Z80_PWRCAP*%
X91440000Y-114280000D03*
%TO.P,U2,8*%
%TO.N,unconnected-(U2-Pad8)*%
X99060000Y-114280000D03*
%TO.P,U2,9*%
%TO.N,unconnected-(U2-Pad9)*%
X99060000Y-111740000D03*
%TO.P,U2,10*%
%TO.N,unconnected-(U2-Pad10)*%
X99060000Y-109200000D03*
%TO.P,U2,11*%
%TO.N,unconnected-(U2-Pad11)*%
X99060000Y-106660000D03*
%TO.P,U2,12*%
%TO.N,unconnected-(U2-Pad12)*%
X99060000Y-104120000D03*
%TO.P,U2,13*%
%TO.N,unconnected-(U2-Pad13)*%
X99060000Y-101580000D03*
%TO.P,U2,14,VCC*%
%TO.N,+5V*%
X99060000Y-99040000D03*
%TD*%
D13*
%TO.P,R8,1*%
%TO.N,Net-(J2-Pin_2)*%
X176530000Y-129177100D03*
D14*
%TO.P,R8,2*%
%TO.N,Z80_PWRCAP*%
X178430000Y-129177100D03*
%TD*%
D13*
%TO.P,R3,1*%
%TO.N,Net-(J2-Pin_6)*%
X176530000Y-148045700D03*
D14*
%TO.P,R3,2*%
%TO.N,Z80_PWRCAP*%
X178430000Y-148045700D03*
%TD*%
D10*
%TO.P,D6,1,K*%
%TO.N,Net-(D6-K)*%
X184150000Y-106680000D03*
D11*
%TO.P,D6,2,A*%
%TO.N,Net-(D6-A)*%
X176530000Y-106680000D03*
%TD*%
D10*
%TO.P,U5,1*%
%TO.N,~{RD}*%
X140970000Y-99040000D03*
D11*
%TO.P,U5,2*%
X140970000Y-101580000D03*
%TO.P,U5,3*%
%TO.N,Net-(DIS1-PadP$5)*%
X140970000Y-104120000D03*
%TO.P,U5,4*%
%TO.N,~{LCD_OUT_PORT}*%
X140970000Y-106660000D03*
%TO.P,U5,5*%
X140970000Y-109200000D03*
%TO.P,U5,6*%
%TO.N,Net-(DIS1-PadP$6)*%
X140970000Y-111740000D03*
%TO.P,U5,7,GND*%
%TO.N,Z80_PWRCAP*%
X140970000Y-114280000D03*
%TO.P,U5,8*%
%TO.N,Net-(IC6_SRAM1-~{CS})*%
X148590000Y-114280000D03*
%TO.P,U5,9*%
%TO.N,Net-(U5-Pad9)*%
X148590000Y-111740000D03*
%TO.P,U5,10*%
%TO.N,~{MREQ}*%
X148590000Y-109200000D03*
%TO.P,U5,11*%
%TO.N,unconnected-(U5-Pad11)*%
X148590000Y-106660000D03*
%TO.P,U5,12*%
%TO.N,unconnected-(U5-Pad12)*%
X148590000Y-104120000D03*
%TO.P,U5,13*%
%TO.N,unconnected-(U5-Pad13)*%
X148590000Y-101580000D03*
%TO.P,U5,14,VCC*%
%TO.N,+5V*%
X148590000Y-99040000D03*
%TD*%
D13*
%TO.P,R4,1*%
%TO.N,Net-(J2-Pin_7)*%
X176530000Y-152762900D03*
D14*
%TO.P,R4,2*%
%TO.N,Z80_PWRCAP*%
X178430000Y-152762900D03*
%TD*%
D13*
%TO.P,R9,1*%
%TO.N,Net-(J2-Pin_1)*%
X176530000Y-124460000D03*
D14*
%TO.P,R9,2*%
%TO.N,Z80_PWRCAP*%
X178430000Y-124460000D03*
%TD*%
D23*
%TO.P,C2,1*%
%TO.N,Z80_PWRCAP*%
X99060000Y-78740000D03*
D24*
%TO.P,C2,2*%
%TO.N,+5V*%
X100560000Y-78740000D03*
%TD*%
D10*
%TO.P,D4,1,K*%
%TO.N,Net-(D4-K)*%
X184150000Y-96520000D03*
D11*
%TO.P,D4,2,A*%
%TO.N,Net-(D4-A)*%
X176530000Y-96520000D03*
%TD*%
D13*
%TO.P,R10,1*%
%TO.N,Net-(D9-A)*%
X61600000Y-50800000D03*
D14*
%TO.P,R10,2*%
%TO.N,Z80_PWRCAP*%
X63500000Y-50800000D03*
%TD*%
D25*
%TO.P,D9,1,K*%
%TO.N,+5V*%
X55880000Y-50800000D03*
D26*
%TO.P,D9,2,A*%
%TO.N,Net-(D9-A)*%
X53340000Y-50800000D03*
%TD*%
D10*
%TO.P,D5,1,K*%
%TO.N,Net-(D5-K)*%
X184150000Y-101600000D03*
D11*
%TO.P,D5,2,A*%
%TO.N,Net-(D5-A)*%
X176530000Y-101600000D03*
%TD*%
D10*
%TO.P,IC6_SRAM1,1,A14*%
%TO.N,/A14*%
X121920000Y-125745000D03*
D11*
%TO.P,IC6_SRAM1,2,A12*%
%TO.N,/A12*%
X121920000Y-128285000D03*
%TO.P,IC6_SRAM1,3,A7*%
%TO.N,/A7*%
X121920000Y-130825000D03*
%TO.P,IC6_SRAM1,4,A6*%
%TO.N,/A6*%
X121920000Y-133365000D03*
%TO.P,IC6_SRAM1,5,A5*%
%TO.N,/A5*%
X121920000Y-135905000D03*
%TO.P,IC6_SRAM1,6,A4*%
%TO.N,/A4*%
X121920000Y-138445000D03*
%TO.P,IC6_SRAM1,7,A3*%
%TO.N,/A3*%
X121920000Y-140985000D03*
%TO.P,IC6_SRAM1,8,A2*%
%TO.N,/A2*%
X121920000Y-143525000D03*
%TO.P,IC6_SRAM1,9,A1*%
%TO.N,/A1*%
X121920000Y-146065000D03*
%TO.P,IC6_SRAM1,10,A0*%
%TO.N,/A0*%
X121920000Y-148605000D03*
%TO.P,IC6_SRAM1,11,Q0*%
%TO.N,/D0*%
X121920000Y-151145000D03*
%TO.P,IC6_SRAM1,12,Q1*%
%TO.N,/D1*%
X121920000Y-153685000D03*
%TO.P,IC6_SRAM1,13,Q2*%
%TO.N,/D2*%
X121920000Y-156225000D03*
%TO.P,IC6_SRAM1,14,GND*%
%TO.N,Z80_PWRCAP*%
X121920000Y-158765000D03*
%TO.P,IC6_SRAM1,15,Q3*%
%TO.N,/D3*%
X137160000Y-158765000D03*
%TO.P,IC6_SRAM1,16,Q4*%
%TO.N,/D4*%
X137160000Y-156225000D03*
%TO.P,IC6_SRAM1,17,Q5*%
%TO.N,/D5*%
X137160000Y-153685000D03*
%TO.P,IC6_SRAM1,18,Q6*%
%TO.N,/D6*%
X137160000Y-151145000D03*
%TO.P,IC6_SRAM1,19,Q7*%
%TO.N,/D7*%
X137160000Y-148605000D03*
%TO.P,IC6_SRAM1,20,~{CS}*%
%TO.N,Net-(IC6_SRAM1-~{CS})*%
X137160000Y-146065000D03*
%TO.P,IC6_SRAM1,21,A10*%
%TO.N,/A10*%
X137160000Y-143525000D03*
%TO.P,IC6_SRAM1,22,~{OE}*%
%TO.N,~{RD}*%
X137160000Y-140985000D03*
%TO.P,IC6_SRAM1,23,A11*%
%TO.N,/A11*%
X137160000Y-138445000D03*
%TO.P,IC6_SRAM1,24,A9*%
%TO.N,/A9*%
X137160000Y-135905000D03*
%TO.P,IC6_SRAM1,25,A8*%
%TO.N,/A8*%
X137160000Y-133365000D03*
%TO.P,IC6_SRAM1,26,A13*%
%TO.N,/A13*%
X137160000Y-130825000D03*
%TO.P,IC6_SRAM1,27,~{WE}*%
%TO.N,~{WR}*%
X137160000Y-128285000D03*
%TO.P,IC6_SRAM1,28,VCC*%
%TO.N,+5V*%
X137160000Y-125745000D03*
%TD*%
D10*
%TO.P,U1,1,OEa*%
%TO.N,Net-(U1-OEa)*%
X124460000Y-91440000D03*
D11*
%TO.P,U1,2,I0a*%
%TO.N,/D0*%
X124460000Y-93980000D03*
%TO.P,U1,3,O3b*%
%TO.N,Net-(J2-Pin_8)*%
X124460000Y-96520000D03*
%TO.P,U1,4,I1a*%
%TO.N,/D1*%
X124460000Y-99060000D03*
%TO.P,U1,5,O2b*%
%TO.N,Net-(J2-Pin_7)*%
X124460000Y-101600000D03*
%TO.P,U1,6,I2a*%
%TO.N,/D2*%
X124460000Y-104140000D03*
%TO.P,U1,7,O1b*%
%TO.N,Net-(J2-Pin_6)*%
X124460000Y-106680000D03*
%TO.P,U1,8,I3a*%
%TO.N,/D3*%
X124460000Y-109220000D03*
%TO.P,U1,9,O0b*%
%TO.N,Net-(J2-Pin_5)*%
X124460000Y-111760000D03*
%TO.P,U1,10,GND*%
%TO.N,Z80_PWRCAP*%
X124460000Y-114300000D03*
%TO.P,U1,11,I0b*%
%TO.N,/D4*%
X132080000Y-114300000D03*
%TO.P,U1,12,O3a*%
%TO.N,Net-(J2-Pin_4)*%
X132080000Y-111760000D03*
%TO.P,U1,13,I1b*%
%TO.N,/D5*%
X132080000Y-109220000D03*
%TO.P,U1,14,O2a*%
%TO.N,Net-(J2-Pin_3)*%
X132080000Y-106680000D03*
%TO.P,U1,15,I2b*%
%TO.N,/D6*%
X132080000Y-104140000D03*
%TO.P,U1,16,O1a*%
%TO.N,Net-(J2-Pin_2)*%
X132080000Y-101600000D03*
%TO.P,U1,17,I3b*%
%TO.N,/D7*%
X132080000Y-99060000D03*
%TO.P,U1,18,O0a*%
%TO.N,Net-(J2-Pin_1)*%
X132080000Y-96520000D03*
%TO.P,U1,19,OEb*%
%TO.N,Net-(U1-OEa)*%
X132080000Y-93980000D03*
%TO.P,U1,20,VCC*%
%TO.N,+5V*%
X132080000Y-91440000D03*
%TD*%
D10*
%TO.P,D3,1,K*%
%TO.N,Net-(D3-K)*%
X184150000Y-91440000D03*
D11*
%TO.P,D3,2,A*%
%TO.N,Net-(D3-A)*%
X176530000Y-91440000D03*
%TD*%
D23*
%TO.P,C1,1*%
%TO.N,+5V*%
X90400000Y-78740000D03*
D24*
%TO.P,C1,2*%
%TO.N,Z80_PWRCAP*%
X91900000Y-78740000D03*
%TD*%
D27*
%TO.P,J2,1,Pin_1*%
%TO.N,Net-(J2-Pin_1)*%
X193640000Y-132080000D03*
D22*
%TO.P,J2,2,Pin_2*%
%TO.N,Net-(J2-Pin_2)*%
X193640000Y-134580000D03*
%TO.P,J2,3,Pin_3*%
%TO.N,Net-(J2-Pin_3)*%
X193640000Y-137080000D03*
%TO.P,J2,4,Pin_4*%
%TO.N,Net-(J2-Pin_4)*%
X193640000Y-139580000D03*
%TO.P,J2,5,Pin_5*%
%TO.N,Net-(J2-Pin_5)*%
X193640000Y-142080000D03*
%TO.P,J2,6,Pin_6*%
%TO.N,Net-(J2-Pin_6)*%
X193640000Y-144580000D03*
%TO.P,J2,7,Pin_7*%
%TO.N,Net-(J2-Pin_7)*%
X193640000Y-147080000D03*
%TO.P,J2,8,Pin_8*%
%TO.N,Net-(J2-Pin_8)*%
X193640000Y-149580000D03*
%TD*%
D10*
%TO.P,U6,1,OEa*%
%TO.N,Net-(U1-OEa)*%
X157480000Y-129540000D03*
D11*
%TO.P,U6,2,I0a*%
%TO.N,/D0*%
X157480000Y-132080000D03*
%TO.P,U6,3,O3b*%
%TO.N,Net-(J2-Pin_8)*%
X157480000Y-134620000D03*
%TO.P,U6,4,I1a*%
%TO.N,/D1*%
X157480000Y-137160000D03*
%TO.P,U6,5,O2b*%
%TO.N,Net-(J2-Pin_7)*%
X157480000Y-139700000D03*
%TO.P,U6,6,I2a*%
%TO.N,/D2*%
X157480000Y-142240000D03*
%TO.P,U6,7,O1b*%
%TO.N,Net-(J2-Pin_6)*%
X157480000Y-144780000D03*
%TO.P,U6,8,I3a*%
%TO.N,/D3*%
X157480000Y-147320000D03*
%TO.P,U6,9,O0b*%
%TO.N,Net-(J2-Pin_5)*%
X157480000Y-149860000D03*
%TO.P,U6,10,GND*%
%TO.N,Z80_PWRCAP*%
X157480000Y-152400000D03*
%TO.P,U6,11,I0b*%
%TO.N,/D4*%
X165100000Y-152400000D03*
%TO.P,U6,12,O3a*%
%TO.N,Net-(J2-Pin_4)*%
X165100000Y-149860000D03*
%TO.P,U6,13,I1b*%
%TO.N,/D5*%
X165100000Y-147320000D03*
%TO.P,U6,14,O2a*%
%TO.N,Net-(J2-Pin_3)*%
X165100000Y-144780000D03*
%TO.P,U6,15,I2b*%
%TO.N,/D6*%
X165100000Y-142240000D03*
%TO.P,U6,16,O1a*%
%TO.N,Net-(J2-Pin_2)*%
X165100000Y-139700000D03*
%TO.P,U6,17,I3b*%
%TO.N,/D7*%
X165100000Y-137160000D03*
%TO.P,U6,18,O0a*%
%TO.N,Net-(J2-Pin_1)*%
X165100000Y-134620000D03*
%TO.P,U6,19,OEb*%
%TO.N,Net-(U1-OEa)*%
X165100000Y-132080000D03*
%TO.P,U6,20,VCC*%
%TO.N,+5V*%
X165100000Y-129540000D03*
%TD*%
D10*
%TO.P,U4,1,A0*%
%TO.N,/A5*%
X107950000Y-96540000D03*
D11*
%TO.P,U4,2,A1*%
%TO.N,/A6*%
X107950000Y-99080000D03*
%TO.P,U4,3,A2*%
%TO.N,/A7*%
X107950000Y-101620000D03*
%TO.P,U4,4,E1*%
%TO.N,/A4*%
X107950000Y-104160000D03*
%TO.P,U4,5,E2*%
%TO.N,~{IORQ}*%
X107950000Y-106700000D03*
%TO.P,U4,6,E3*%
%TO.N,~{M1}*%
X107950000Y-109240000D03*
%TO.P,U4,7,O7*%
%TO.N,unconnected-(U4-O7-Pad7)*%
X107950000Y-111780000D03*
%TO.P,U4,8,GND*%
%TO.N,Z80_PWRCAP*%
X107950000Y-114320000D03*
%TO.P,U4,9,O6*%
%TO.N,unconnected-(U4-O6-Pad9)*%
X115570000Y-114320000D03*
%TO.P,U4,10,O5*%
%TO.N,unconnected-(U4-O5-Pad10)*%
X115570000Y-111780000D03*
%TO.P,U4,11,O4*%
%TO.N,unconnected-(U4-O4-Pad11)*%
X115570000Y-109240000D03*
%TO.P,U4,12,O3*%
%TO.N,unconnected-(U4-O3-Pad12)*%
X115570000Y-106700000D03*
%TO.P,U4,13,O2*%
%TO.N,unconnected-(U4-O2-Pad13)*%
X115570000Y-104160000D03*
%TO.P,U4,14,O1*%
%TO.N,~{KEYPAD_PORT}*%
X115570000Y-101620000D03*
%TO.P,U4,15,O0*%
%TO.N,~{LCD_OUT_PORT}*%
X115570000Y-99080000D03*
%TO.P,U4,16,VCC*%
%TO.N,+5V*%
X115570000Y-96540000D03*
%TD*%
D10*
%TO.P,D8,1,K*%
%TO.N,Net-(D8-K)*%
X184150000Y-116840000D03*
D11*
%TO.P,D8,2,A*%
%TO.N,Net-(D8-A)*%
X176530000Y-116840000D03*
%TD*%
D10*
%TO.P,D2,1,K*%
%TO.N,Net-(D2-K)*%
X184150000Y-86360000D03*
D11*
%TO.P,D2,2,A*%
%TO.N,Net-(D2-A)*%
X176530000Y-86360000D03*
%TD*%
D10*
%TO.P,D7,1,K*%
%TO.N,Net-(D7-K)*%
X184150000Y-111760000D03*
D11*
%TO.P,D7,2,A*%
%TO.N,Net-(D7-A)*%
X176530000Y-111760000D03*
%TD*%
D28*
%TO.N,Net-(D5-A)*%
X122919100Y-82269500D03*
%TO.N,Net-(D1-A)*%
X150086400Y-81456800D03*
%TO.N,Net-(U1-OEa)*%
X140463300Y-129144600D03*
%TO.N,Net-(J2-Pin_8)*%
X154919900Y-106248300D03*
%TO.N,Net-(J2-Pin_7)*%
X152674300Y-132095000D03*
X125785400Y-132095000D03*
%TO.N,Net-(J2-Pin_6)*%
X126192500Y-150693500D03*
%TO.N,Net-(J2-Pin_5)*%
X155085900Y-135934400D03*
X125309600Y-121478000D03*
%TO.N,Net-(J2-Pin_2)*%
X159902000Y-126584300D03*
X139119000Y-126584300D03*
%TO.N,Net-(U5-Pad9)*%
X152663300Y-113895000D03*
%TO.N,Net-(IC2_EEPROM1-~{CS})*%
X143796800Y-144791200D03*
%TO.N,/A10*%
X88008600Y-142327400D03*
%TO.N,/A9*%
X97747600Y-117248800D03*
%TO.N,/A8*%
X91834900Y-130060800D03*
%TO.N,/A6*%
X123240600Y-121150100D03*
%TO.N,~{M1}*%
X69532000Y-108914600D03*
%TO.N,~{WR}*%
X134160700Y-127210400D03*
X95647600Y-126238600D03*
%TO.N,~{RD}*%
X142096500Y-120308500D03*
X96226900Y-120308500D03*
%TO.N,~{IORQ}*%
X102220200Y-161556000D03*
%TO.N,~{MREQ}*%
X134557100Y-158675800D03*
%TO.N,/A15*%
X150476800Y-119467000D03*
%TO.N,/A13*%
X98482600Y-118735300D03*
%TO.N,/A11*%
X96965500Y-118008400D03*
%TO.N,Net-(IC1-~{CLK})*%
X57053400Y-101723700D03*
%TO.N,/D6*%
X89221700Y-148029300D03*
X89221700Y-145605900D03*
X119226600Y-105410000D03*
%TO.N,/D5*%
X100543100Y-140587000D03*
X130171800Y-109220000D03*
%TO.N,/D4*%
X132059700Y-122483500D03*
%TO.N,/D3*%
X60252500Y-157415400D03*
X130551900Y-105755400D03*
X130130000Y-85994300D03*
%TO.N,/D2*%
X129390500Y-104140000D03*
%TO.N,/D1*%
X133744500Y-80352600D03*
X124467200Y-141097000D03*
%TO.N,/D0*%
X136653100Y-79852300D03*
X128799100Y-151701200D03*
X129657900Y-134552000D03*
%TO.N,/A0*%
X142566400Y-137281400D03*
X123531100Y-138161500D03*
%TO.N,Z80_PWRCAP*%
X154003300Y-117756700D03*
%TD*%
D29*
%TO.N,Net-(D8-K)*%
X184150000Y-115664200D02*
X184150000Y-116840000D01*
X192157300Y-107656900D02*
X184150000Y-115664200D01*
X193040000Y-107656900D02*
X192157300Y-107656900D01*
X193040000Y-106480000D02*
X193040000Y-107656900D01*
%TO.N,Net-(D7-K)*%
X185276900Y-109506200D02*
X184150000Y-110633100D01*
X185276900Y-107453700D02*
X185276900Y-109506200D01*
X192427500Y-100303100D02*
X185276900Y-107453700D01*
X193555600Y-100303100D02*
X192427500Y-100303100D01*
X194375200Y-99483500D02*
X193555600Y-100303100D01*
X194375200Y-93477200D02*
X194375200Y-99483500D01*
X193554900Y-92656900D02*
X194375200Y-93477200D01*
X193040000Y-92656900D02*
X193554900Y-92656900D01*
X193040000Y-91480000D02*
X193040000Y-92656900D01*
X184150000Y-111760000D02*
X184150000Y-110633100D01*
%TO.N,Net-(D6-K)*%
X192046200Y-97656900D02*
X184150000Y-105553100D01*
X193040000Y-97656900D02*
X192046200Y-97656900D01*
X193040000Y-96480000D02*
X193040000Y-97656900D01*
X184150000Y-106680000D02*
X184150000Y-105553100D01*
%TO.N,Net-(D5-A)*%
X121920000Y-81270400D02*
X122919100Y-82269500D01*
X121920000Y-76200000D02*
X121920000Y-81270400D01*
%TO.N,Net-(D5-K)*%
X191738100Y-95138800D02*
X191738100Y-93980000D01*
X185276900Y-101600000D02*
X191738100Y-95138800D01*
X184150000Y-101600000D02*
X185276900Y-101600000D01*
X193040000Y-93980000D02*
X191738100Y-93980000D01*
%TO.N,Net-(D2-K)*%
X194866700Y-99653300D02*
X193040000Y-101480000D01*
X194866700Y-91438700D02*
X194866700Y-99653300D01*
X189788000Y-86360000D02*
X194866700Y-91438700D01*
X184150000Y-86360000D02*
X189788000Y-86360000D01*
%TO.N,Net-(D1-A)*%
X150086400Y-83046600D02*
X150086400Y-81456800D01*
X151953900Y-84914100D02*
X150086400Y-83046600D01*
X159930400Y-84914100D02*
X151953900Y-84914100D01*
X164696300Y-80148200D02*
X159930400Y-84914100D01*
X181891300Y-80148200D02*
X164696300Y-80148200D01*
X183023100Y-81280000D02*
X181891300Y-80148200D01*
X184150000Y-81280000D02*
X183023100Y-81280000D01*
%TO.N,Net-(D1-K)*%
X178783800Y-82406900D02*
X177656900Y-81280000D01*
X186482100Y-82406900D02*
X178783800Y-82406900D01*
X195332400Y-91257200D02*
X186482100Y-82406900D01*
X195332400Y-106687600D02*
X195332400Y-91257200D01*
X193040000Y-108980000D02*
X195332400Y-106687600D01*
X176530000Y-81280000D02*
X177656900Y-81280000D01*
%TO.N,Net-(U1-OEa)*%
X132080000Y-93980000D02*
X132080000Y-95106900D01*
X140463300Y-115664600D02*
X140463300Y-129144600D01*
X136711100Y-111912400D02*
X140463300Y-115664600D01*
X136711100Y-99456300D02*
X136711100Y-111912400D01*
X132361700Y-95106900D02*
X136711100Y-99456300D01*
X132080000Y-95106900D02*
X132361700Y-95106900D01*
%TO.N,~{KEYPAD_PORT}*%
X91158200Y-100166900D02*
X91440000Y-100166900D01*
X90313100Y-101012000D02*
X91158200Y-100166900D01*
X90313100Y-107227900D02*
X90313100Y-101012000D01*
X91158300Y-108073100D02*
X90313100Y-107227900D01*
X91440000Y-108073100D02*
X91158300Y-108073100D01*
X91440000Y-109200000D02*
X91440000Y-108073100D01*
X91440000Y-99040000D02*
X91440000Y-100166900D01*
%TO.N,Net-(J2-Pin_8)*%
X157480000Y-134620000D02*
X157480000Y-135746900D01*
X157761800Y-135746900D02*
X157480000Y-135746900D01*
X159510700Y-137495800D02*
X157761800Y-135746900D01*
X159510700Y-148444000D02*
X159510700Y-137495800D01*
X168546700Y-157480000D02*
X159510700Y-148444000D01*
X176530000Y-157480000D02*
X168546700Y-157480000D01*
X157480000Y-134620000D02*
X157480000Y-133493100D01*
X154725400Y-106053700D02*
X154919900Y-106248300D01*
X154621600Y-106157500D02*
X154725400Y-106053700D01*
X154621600Y-107992300D02*
X154621600Y-106157500D01*
X157099300Y-110470000D02*
X154621600Y-107992300D01*
X157851200Y-110470000D02*
X157099300Y-110470000D01*
X158633700Y-111252500D02*
X157851200Y-110470000D01*
X158633700Y-132621100D02*
X158633700Y-111252500D01*
X157761700Y-133493100D02*
X158633700Y-132621100D01*
X157480000Y-133493100D02*
X157761700Y-133493100D01*
%TO.N,Net-(J2-Pin_7)*%
X157480000Y-139700000D02*
X156353100Y-139700000D01*
X152674300Y-136021200D02*
X152674300Y-132095000D01*
X156353100Y-139700000D02*
X152674300Y-136021200D01*
X126065200Y-131815200D02*
X125785400Y-132095000D01*
X126065200Y-111769200D02*
X126065200Y-131815200D01*
X124786000Y-110490000D02*
X126065200Y-111769200D01*
X124060300Y-110490000D02*
X124786000Y-110490000D01*
X122834200Y-109263900D02*
X124060300Y-110490000D01*
X122834200Y-103225800D02*
X122834200Y-109263900D01*
X124460000Y-101600000D02*
X122834200Y-103225800D01*
%TO.N,Net-(J2-Pin_6)*%
X179995700Y-144580000D02*
X176530000Y-148045700D01*
X193640000Y-144580000D02*
X179995700Y-144580000D01*
X126517100Y-150368900D02*
X126192500Y-150693500D01*
X126517100Y-108737100D02*
X126517100Y-150368900D01*
X124460000Y-106680000D02*
X126517100Y-108737100D01*
%TO.N,Net-(J2-Pin_5)*%
X155085900Y-136434400D02*
X155085900Y-135934400D01*
X157081500Y-138430000D02*
X155085900Y-136434400D01*
X157843400Y-138430000D02*
X157081500Y-138430000D01*
X159058800Y-139645400D02*
X157843400Y-138430000D01*
X159058800Y-148281200D02*
X159058800Y-139645400D01*
X157480000Y-149860000D02*
X159058800Y-148281200D01*
X125600100Y-121187500D02*
X125309600Y-121478000D01*
X125600100Y-113745300D02*
X125600100Y-121187500D01*
X124741700Y-112886900D02*
X125600100Y-113745300D01*
X124460000Y-112886900D02*
X124741700Y-112886900D01*
X124460000Y-111760000D02*
X124460000Y-112886900D01*
%TO.N,Net-(J2-Pin_4)*%
X166226900Y-148914500D02*
X176530000Y-138611400D01*
X166226900Y-149860000D02*
X166226900Y-148914500D01*
X165100000Y-149860000D02*
X166226900Y-149860000D01*
%TO.N,Net-(J2-Pin_3)*%
X166226900Y-144197400D02*
X176530000Y-133894300D01*
X166226900Y-144780000D02*
X166226900Y-144197400D01*
X165663500Y-144780000D02*
X166226900Y-144780000D01*
X165663500Y-144780000D02*
X165100000Y-144780000D01*
%TO.N,Net-(J2-Pin_2)*%
X165100000Y-139700000D02*
X165100000Y-138573100D01*
X159902000Y-131208500D02*
X159902000Y-126584300D01*
X164669600Y-135976100D02*
X159902000Y-131208500D01*
X163963600Y-136682100D02*
X164669600Y-135976100D01*
X163963600Y-137718400D02*
X163963600Y-136682100D01*
X164818300Y-138573100D02*
X163963600Y-137718400D01*
X165100000Y-138573100D02*
X164818300Y-138573100D01*
X169731000Y-135976100D02*
X176530000Y-129177100D01*
X164669600Y-135976100D02*
X169731000Y-135976100D01*
X132080000Y-101600000D02*
X132080000Y-102726900D01*
X132361700Y-102726900D02*
X132080000Y-102726900D01*
X134148200Y-104513400D02*
X132361700Y-102726900D01*
X134148200Y-119599700D02*
X134148200Y-104513400D01*
X139119000Y-124570500D02*
X134148200Y-119599700D01*
X139119000Y-126584300D02*
X139119000Y-124570500D01*
%TO.N,Net-(U5-Pad9)*%
X154818300Y-111740000D02*
X152663300Y-113895000D01*
X157480000Y-111740000D02*
X154818300Y-111740000D01*
%TO.N,~{LCD_OUT_PORT}*%
X140970000Y-109200000D02*
X140970000Y-106660000D01*
%TO.N,Net-(IC6_SRAM1-~{CS})*%
X137160000Y-146065000D02*
X137160000Y-144938100D01*
X137393500Y-144938100D02*
X137160000Y-144938100D01*
X148590000Y-133741600D02*
X137393500Y-144938100D01*
X148590000Y-114280000D02*
X148590000Y-133741600D01*
%TO.N,Net-(J2-Pin_1)*%
X176386900Y-124460000D02*
X176530000Y-124460000D01*
X166226900Y-134620000D02*
X176386900Y-124460000D01*
X165100000Y-134620000D02*
X166226900Y-134620000D01*
%TO.N,Net-(IC2_EEPROM1-~{CS})*%
X157480000Y-104120000D02*
X156353100Y-104120000D01*
X156353100Y-104307200D02*
X156353100Y-104120000D01*
X156088400Y-104571900D02*
X156353100Y-104307200D01*
X155568100Y-104571900D02*
X156088400Y-104571900D01*
X151983100Y-108156900D02*
X155568100Y-104571900D01*
X151928000Y-108156900D02*
X151983100Y-108156900D01*
X151928000Y-136660000D02*
X151928000Y-108156900D01*
X143796800Y-144791200D02*
X151928000Y-136660000D01*
%TO.N,/A10*%
X71145000Y-110495000D02*
X71145000Y-111621900D01*
X70863300Y-111621900D02*
X71145000Y-111621900D01*
X70014400Y-112470800D02*
X70863300Y-111621900D01*
X70014400Y-126229500D02*
X70014400Y-112470800D01*
X70789900Y-127005000D02*
X70014400Y-126229500D01*
X72686200Y-127005000D02*
X70789900Y-127005000D01*
X88008600Y-142327400D02*
X72686200Y-127005000D01*
%TO.N,/A9*%
X109220000Y-135905000D02*
X109220000Y-134778100D01*
X97747600Y-123587400D02*
X97747600Y-117248800D01*
X108938300Y-134778100D02*
X97747600Y-123587400D01*
X109220000Y-134778100D02*
X108938300Y-134778100D01*
%TO.N,/A8*%
X77349100Y-115575000D02*
X91834900Y-130060800D01*
X71145000Y-115575000D02*
X77349100Y-115575000D01*
%TO.N,/A7*%
X107950000Y-101620000D02*
X107950000Y-102746900D01*
X121920000Y-130825000D02*
X121920000Y-129698100D01*
X122153500Y-129698100D02*
X121920000Y-129698100D01*
X123057400Y-128794200D02*
X122153500Y-129698100D01*
X123057400Y-123439800D02*
X123057400Y-128794200D01*
X113480700Y-113863100D02*
X123057400Y-123439800D01*
X113480700Y-107995900D02*
X113480700Y-113863100D01*
X108231700Y-102746900D02*
X113480700Y-107995900D01*
X107950000Y-102746900D02*
X108231700Y-102746900D01*
X84981900Y-130825000D02*
X72271900Y-118115000D01*
X93980000Y-130825000D02*
X84981900Y-130825000D01*
X71145000Y-118115000D02*
X72271900Y-118115000D01*
%TO.N,/A6*%
X107950000Y-99080000D02*
X107950000Y-100206900D01*
X121920000Y-133365000D02*
X121920000Y-132238100D01*
X93980000Y-133365000D02*
X92853100Y-133365000D01*
X123513200Y-121422700D02*
X123240600Y-121150100D01*
X123513200Y-130878400D02*
X123513200Y-121422700D01*
X122153500Y-132238100D02*
X123513200Y-130878400D01*
X121920000Y-132238100D02*
X122153500Y-132238100D01*
X108132300Y-100206900D02*
X107950000Y-100206900D01*
X113984700Y-106059300D02*
X108132300Y-100206900D01*
X113984700Y-109252200D02*
X113984700Y-106059300D01*
X115242500Y-110510000D02*
X113984700Y-109252200D01*
X115895400Y-110510000D02*
X115242500Y-110510000D01*
X123240600Y-117855200D02*
X115895400Y-110510000D01*
X123240600Y-121150100D02*
X123240600Y-117855200D01*
X84981900Y-133365000D02*
X92853100Y-133365000D01*
X72271900Y-120655000D02*
X84981900Y-133365000D01*
X71145000Y-120655000D02*
X72271900Y-120655000D01*
%TO.N,/A5*%
X122153500Y-134778100D02*
X121920000Y-134778100D01*
X123991000Y-132940600D02*
X122153500Y-134778100D01*
X123991000Y-117118800D02*
X123991000Y-132940600D01*
X117563300Y-110691100D02*
X123991000Y-117118800D01*
X117563300Y-109626300D02*
X117563300Y-110691100D01*
X115907000Y-107970000D02*
X117563300Y-109626300D01*
X115197300Y-107970000D02*
X115907000Y-107970000D01*
X114436600Y-107209300D02*
X115197300Y-107970000D01*
X114436600Y-103871800D02*
X114436600Y-107209300D01*
X108231700Y-97666900D02*
X114436600Y-103871800D01*
X107950000Y-97666900D02*
X108231700Y-97666900D01*
X107950000Y-96540000D02*
X107950000Y-97666900D01*
X121920000Y-135905000D02*
X121920000Y-134778100D01*
X84981900Y-135905000D02*
X72271900Y-123195000D01*
X93980000Y-135905000D02*
X84981900Y-135905000D01*
X71145000Y-123195000D02*
X72271900Y-123195000D01*
%TO.N,/A4*%
X107950000Y-104160000D02*
X107950000Y-105286900D01*
X121920000Y-138445000D02*
X121920000Y-137318100D01*
X71145000Y-125735000D02*
X72271900Y-125735000D01*
X108231800Y-105286900D02*
X107950000Y-105286900D01*
X109986400Y-107041500D02*
X108231800Y-105286900D01*
X109986400Y-115615200D02*
X109986400Y-107041500D01*
X116760800Y-122389600D02*
X109986400Y-115615200D01*
X116760800Y-132392400D02*
X116760800Y-122389600D01*
X121686500Y-137318100D02*
X116760800Y-132392400D01*
X121920000Y-137318100D02*
X121686500Y-137318100D01*
X84981900Y-138445000D02*
X72271900Y-125735000D01*
X93980000Y-138445000D02*
X84981900Y-138445000D01*
%TO.N,/A3*%
X87059000Y-143062100D02*
X72271900Y-128275000D01*
X90776000Y-143062100D02*
X87059000Y-143062100D01*
X92853100Y-140985000D02*
X90776000Y-143062100D01*
X93980000Y-140985000D02*
X92853100Y-140985000D01*
X71145000Y-128275000D02*
X72271900Y-128275000D01*
%TO.N,~{M1}*%
X71145000Y-143515000D02*
X71145000Y-142388100D01*
X70911500Y-142388100D02*
X71145000Y-142388100D01*
X69072400Y-140549000D02*
X70911500Y-142388100D01*
X69072400Y-109374200D02*
X69072400Y-140549000D01*
X69532000Y-108914600D02*
X69072400Y-109374200D01*
%TO.N,Net-(IC1-~{RESET})*%
X68580000Y-40640000D02*
X68580000Y-64770000D01*
X71145000Y-146055000D02*
X71145000Y-144928100D01*
X70911500Y-144928100D02*
X71145000Y-144928100D01*
X68577500Y-142594100D02*
X70911500Y-144928100D01*
X68577500Y-75744800D02*
X68577500Y-142594100D01*
X69849400Y-74472900D02*
X68577500Y-75744800D01*
X69849400Y-66039400D02*
X69849400Y-74472900D01*
X68580000Y-64770000D02*
X69849400Y-66039400D01*
%TO.N,~{WR}*%
X135235300Y-128285000D02*
X134160700Y-127210400D01*
X137160000Y-128285000D02*
X135235300Y-128285000D01*
X95647600Y-124765600D02*
X95647600Y-126238600D01*
X93195800Y-122313800D02*
X95647600Y-124765600D01*
X93195800Y-108415800D02*
X93195800Y-122313800D01*
X91440000Y-106660000D02*
X93195800Y-108415800D01*
X95647600Y-158702300D02*
X95647600Y-126238600D01*
X94455300Y-159894600D02*
X95647600Y-158702300D01*
X75951500Y-159894600D02*
X94455300Y-159894600D01*
X72271900Y-156215000D02*
X75951500Y-159894600D01*
X71145000Y-156215000D02*
X72271900Y-156215000D01*
%TO.N,~{RD}*%
X137160000Y-140985000D02*
X137160000Y-139858100D01*
X140970000Y-101580000D02*
X140970000Y-99040000D01*
X91440000Y-101580000D02*
X91440000Y-102706900D01*
X109220000Y-140985000D02*
X109220000Y-139858100D01*
X98159900Y-139858100D02*
X109220000Y-139858100D01*
X71145000Y-158755000D02*
X72271900Y-158755000D01*
X142114500Y-102724500D02*
X140970000Y-101580000D01*
X142114500Y-120290500D02*
X142114500Y-102724500D01*
X142096500Y-120308500D02*
X142114500Y-120290500D01*
X142096500Y-135155100D02*
X142096500Y-120308500D01*
X137393500Y-139858100D02*
X142096500Y-135155100D01*
X137160000Y-139858100D02*
X137393500Y-139858100D01*
X96374500Y-120456100D02*
X96226900Y-120308500D01*
X96374500Y-138072700D02*
X96374500Y-120456100D01*
X98159900Y-139858100D02*
X96374500Y-138072700D01*
X98159900Y-156842400D02*
X98159900Y-139858100D01*
X94638200Y-160364100D02*
X98159900Y-156842400D01*
X73881000Y-160364100D02*
X94638200Y-160364100D01*
X72271900Y-158755000D02*
X73881000Y-160364100D01*
X96226900Y-107212100D02*
X96226900Y-120308500D01*
X91721700Y-102706900D02*
X96226900Y-107212100D01*
X91440000Y-102706900D02*
X91721700Y-102706900D01*
%TO.N,~{IORQ}*%
X108821200Y-154955000D02*
X102220200Y-161556000D01*
X109547500Y-154955000D02*
X108821200Y-154955000D01*
X110372500Y-154130000D02*
X109547500Y-154955000D01*
X110372500Y-119012500D02*
X110372500Y-154130000D01*
X109076900Y-117716900D02*
X110372500Y-119012500D01*
X109076900Y-108672000D02*
X109076900Y-117716900D01*
X108231800Y-107826900D02*
X109076900Y-108672000D01*
X107950000Y-107826900D02*
X108231800Y-107826900D01*
X107950000Y-106700000D02*
X107950000Y-107826900D01*
%TO.N,~{MREQ}*%
X148590000Y-109200000D02*
X149716900Y-109200000D01*
X157480000Y-101580000D02*
X156353100Y-101580000D01*
X149716900Y-108216200D02*
X149716900Y-109200000D01*
X156353100Y-101580000D02*
X149716900Y-108216200D01*
X135609800Y-157623100D02*
X134557100Y-158675800D01*
X137389200Y-157623100D02*
X135609800Y-157623100D01*
X138306300Y-156706000D02*
X137389200Y-157623100D01*
X138306300Y-148936500D02*
X138306300Y-156706000D01*
X149716900Y-137525900D02*
X138306300Y-148936500D01*
X149716900Y-109200000D02*
X149716900Y-137525900D01*
%TO.N,/A15*%
X157480000Y-99040000D02*
X157480000Y-100166900D01*
X157480000Y-109200000D02*
X157480000Y-106660000D01*
X157480000Y-106660000D02*
X157480000Y-105533100D01*
X150476800Y-108950100D02*
X150476800Y-119467000D01*
X155306900Y-104120000D02*
X150476800Y-108950100D01*
X155714100Y-104120000D02*
X155306900Y-104120000D01*
X155714100Y-104119900D02*
X155714100Y-104120000D01*
X156904600Y-102929400D02*
X155714100Y-104119900D01*
X158606900Y-102929400D02*
X156904600Y-102929400D01*
X158606900Y-104688000D02*
X158606900Y-102929400D01*
X157761800Y-105533100D02*
X158606900Y-104688000D01*
X157480000Y-105533100D02*
X157761800Y-105533100D01*
X157761800Y-100166900D02*
X157480000Y-100166900D01*
X158606900Y-101012000D02*
X157761800Y-100166900D01*
X158606900Y-102929400D02*
X158606900Y-101012000D01*
%TO.N,/A13*%
X109220000Y-130825000D02*
X109220000Y-129698100D01*
X98482600Y-119242400D02*
X98482600Y-118735300D01*
X108938300Y-129698100D02*
X98482600Y-119242400D01*
X109220000Y-129698100D02*
X108938300Y-129698100D01*
%TO.N,/A11*%
X96965500Y-125345300D02*
X96965500Y-118008400D01*
X108938300Y-137318100D02*
X96965500Y-125345300D01*
X109220000Y-137318100D02*
X108938300Y-137318100D01*
X109220000Y-138445000D02*
X109220000Y-137318100D01*
%TO.N,Net-(IC1-~{CLK})*%
X55905000Y-123195000D02*
X55905000Y-122068100D01*
X57053400Y-121103400D02*
X57053400Y-101723700D01*
X56088700Y-122068100D02*
X57053400Y-121103400D01*
X55905000Y-122068100D02*
X56088700Y-122068100D01*
%TO.N,/D7*%
X116840000Y-76200000D02*
X116840000Y-68580000D01*
X116840000Y-68580000D02*
X116840000Y-66745100D01*
X132080000Y-99060000D02*
X132080000Y-98496500D01*
X132080000Y-98496500D02*
X132080000Y-97933100D01*
X137160000Y-148605000D02*
X137160000Y-147478100D01*
X134600100Y-101016600D02*
X132080000Y-98496500D01*
X134600100Y-111770500D02*
X134600100Y-101016600D01*
X139861100Y-117031500D02*
X134600100Y-111770500D01*
X139861100Y-127197000D02*
X139861100Y-117031500D01*
X137503100Y-129555000D02*
X139861100Y-127197000D01*
X136768800Y-129555000D02*
X137503100Y-129555000D01*
X135989500Y-130334300D02*
X136768800Y-129555000D01*
X135989500Y-146541100D02*
X135989500Y-130334300D01*
X136926500Y-147478100D02*
X135989500Y-146541100D01*
X137160000Y-147478100D02*
X136926500Y-147478100D01*
X132583800Y-66745100D02*
X116840000Y-66745100D01*
X133469800Y-67631100D02*
X132583800Y-66745100D01*
X133469800Y-72467200D02*
X133469800Y-67631100D01*
X136201200Y-75198600D02*
X133469800Y-72467200D01*
X136201200Y-78923900D02*
X136201200Y-75198600D01*
X133350000Y-81775100D02*
X136201200Y-78923900D01*
X133350000Y-84181700D02*
X133350000Y-81775100D01*
X130932100Y-86599600D02*
X133350000Y-84181700D01*
X130932100Y-97018700D02*
X130932100Y-86599600D01*
X131846500Y-97933100D02*
X130932100Y-97018700D01*
X132080000Y-97933100D02*
X131846500Y-97933100D01*
%TO.N,/D6*%
X119380000Y-68580000D02*
X119380000Y-76200000D01*
X132313500Y-105266900D02*
X132080000Y-105266900D01*
X133688600Y-106642000D02*
X132313500Y-105266900D01*
X133688600Y-126634600D02*
X133688600Y-106642000D01*
X133416700Y-126906500D02*
X133688600Y-126634600D01*
X133416700Y-146556500D02*
X133416700Y-126906500D01*
X136878300Y-150018100D02*
X133416700Y-146556500D01*
X137160000Y-150018100D02*
X136878300Y-150018100D01*
X137160000Y-151145000D02*
X137160000Y-150018100D01*
X132080000Y-104140000D02*
X132080000Y-105266900D01*
X89221700Y-148029300D02*
X89221700Y-145605900D01*
X119226600Y-93340800D02*
X119226600Y-105410000D01*
X115678500Y-89792700D02*
X119226600Y-93340800D01*
X115678500Y-81028400D02*
X115678500Y-89792700D01*
X119380000Y-77326900D02*
X115678500Y-81028400D01*
X119380000Y-76200000D02*
X119380000Y-77326900D01*
%TO.N,/D5*%
X127000000Y-75636500D02*
X127000000Y-75073100D01*
X127000000Y-75636500D02*
X127000000Y-76200000D01*
X121920000Y-68580000D02*
X121920000Y-69497400D01*
X109220000Y-153685000D02*
X109220000Y-152558100D01*
X137160000Y-153685000D02*
X137160000Y-152558100D01*
X132080000Y-109220000D02*
X132080000Y-110346900D01*
X109007100Y-152558100D02*
X109220000Y-152558100D01*
X100543100Y-144094100D02*
X109007100Y-152558100D01*
X100543100Y-140587000D02*
X100543100Y-144094100D01*
X136878300Y-152558100D02*
X137160000Y-152558100D01*
X132959900Y-148639700D02*
X136878300Y-152558100D01*
X132959900Y-126724100D02*
X132959900Y-148639700D01*
X133228900Y-126455100D02*
X132959900Y-126724100D01*
X133228900Y-111262300D02*
X133228900Y-126455100D01*
X132313500Y-110346900D02*
X133228900Y-111262300D01*
X132080000Y-110346900D02*
X132313500Y-110346900D01*
X121920000Y-69993100D02*
X125462100Y-73535100D01*
X121920000Y-69497400D02*
X121920000Y-69993100D01*
X125462100Y-73535100D02*
X127000000Y-75073100D01*
X123294000Y-75703200D02*
X125462100Y-73535100D01*
X123294000Y-80463300D02*
X123294000Y-75703200D01*
X123371000Y-80540300D02*
X123294000Y-80463300D01*
X123371000Y-81693400D02*
X123371000Y-80540300D01*
X123646000Y-81968400D02*
X123371000Y-81693400D01*
X123646000Y-82570600D02*
X123646000Y-81968400D01*
X123294000Y-82922600D02*
X123646000Y-82570600D01*
X123294000Y-88179500D02*
X123294000Y-82922600D01*
X125619700Y-90505200D02*
X123294000Y-88179500D01*
X125619700Y-94443700D02*
X125619700Y-90505200D01*
X126071600Y-94895600D02*
X125619700Y-94443700D01*
X126071600Y-102787800D02*
X126071600Y-94895600D01*
X129373000Y-106089200D02*
X126071600Y-102787800D01*
X129373000Y-106258600D02*
X129373000Y-106089200D01*
X129773300Y-106658900D02*
X129373000Y-106258600D01*
X129773300Y-107298000D02*
X129773300Y-106658900D01*
X130171800Y-107696500D02*
X129773300Y-107298000D01*
X130171800Y-109220000D02*
X130171800Y-107696500D01*
%TO.N,/D4*%
X137160000Y-156225000D02*
X137160000Y-155098100D01*
X124881800Y-70414900D02*
X129540000Y-75073100D01*
X124460000Y-70414900D02*
X124881800Y-70414900D01*
X124460000Y-68580000D02*
X124460000Y-70414900D01*
X129540000Y-75652600D02*
X129540000Y-75073100D01*
X132080000Y-114300000D02*
X132080000Y-113173100D01*
X129540000Y-75652600D02*
X129540000Y-76200000D01*
X129540000Y-76200000D02*
X129540000Y-77326900D01*
X132080000Y-114300000D02*
X132080000Y-115426900D01*
X132059700Y-115447200D02*
X132059700Y-122483500D01*
X132080000Y-115426900D02*
X132059700Y-115447200D01*
X136926500Y-155098100D02*
X137160000Y-155098100D01*
X132059700Y-150231300D02*
X136926500Y-155098100D01*
X132059700Y-122483500D02*
X132059700Y-150231300D01*
X125873100Y-80993800D02*
X129540000Y-77326900D01*
X125873100Y-89830800D02*
X125873100Y-80993800D01*
X128651900Y-92609600D02*
X125873100Y-89830800D01*
X128651900Y-104729000D02*
X128651900Y-92609600D01*
X129824900Y-105902000D02*
X128651900Y-104729000D01*
X129824900Y-106071400D02*
X129824900Y-105902000D01*
X130898700Y-107145200D02*
X129824900Y-106071400D01*
X130898700Y-112212300D02*
X130898700Y-107145200D01*
X131859500Y-113173100D02*
X130898700Y-112212300D01*
X132080000Y-113173100D02*
X131859500Y-113173100D01*
%TO.N,/D3*%
X127000000Y-68580000D02*
X127000000Y-70414900D01*
X129540000Y-83820000D02*
X129540000Y-82693100D01*
X130730600Y-81502500D02*
X129540000Y-82693100D01*
X130730600Y-74145500D02*
X130730600Y-81502500D01*
X127000000Y-70414900D02*
X130730600Y-74145500D01*
X124460000Y-109220000D02*
X124460000Y-108093100D01*
X149731900Y-147320000D02*
X157480000Y-147320000D01*
X138286900Y-158765000D02*
X149731900Y-147320000D01*
X55905000Y-128275000D02*
X55905000Y-129401900D01*
X60252500Y-156375100D02*
X60252500Y-157415400D01*
X56282400Y-152405000D02*
X60252500Y-156375100D01*
X55547200Y-152405000D02*
X56282400Y-152405000D01*
X54744300Y-151602100D02*
X55547200Y-152405000D01*
X54744300Y-130280900D02*
X54744300Y-151602100D01*
X55623300Y-129401900D02*
X54744300Y-130280900D01*
X55905000Y-129401900D02*
X55623300Y-129401900D01*
X137723500Y-158765000D02*
X137266600Y-158765000D01*
X137160000Y-158765000D02*
X137266600Y-158765000D01*
X137723500Y-158765000D02*
X138286900Y-158765000D01*
X136614400Y-159417200D02*
X137266600Y-158765000D01*
X134247900Y-159417200D02*
X136614400Y-159417200D01*
X128068600Y-153237900D02*
X134247900Y-159417200D01*
X128068600Y-106147200D02*
X128068600Y-153237900D01*
X124892700Y-102971300D02*
X128068600Y-106147200D01*
X123995100Y-102971300D02*
X124892700Y-102971300D01*
X123286100Y-103680300D02*
X123995100Y-102971300D01*
X123286100Y-107137100D02*
X123286100Y-103680300D01*
X124242100Y-108093100D02*
X123286100Y-107137100D01*
X124460000Y-108093100D02*
X124242100Y-108093100D01*
X130130000Y-105333500D02*
X130130000Y-85994300D01*
X130551900Y-105755400D02*
X130130000Y-105333500D01*
%TO.N,/D2*%
X129540000Y-68580000D02*
X129540000Y-70414900D01*
X127000000Y-83820000D02*
X128126900Y-83820000D01*
X121920000Y-156225000D02*
X121920000Y-155098100D01*
X157480000Y-142240000D02*
X157480000Y-143366900D01*
X124460000Y-104703400D02*
X124460000Y-105266900D01*
X124460000Y-104703400D02*
X124460000Y-104140000D01*
X122840700Y-155098100D02*
X126065200Y-151873600D01*
X121920000Y-155098100D02*
X122840700Y-155098100D01*
X157744500Y-143366900D02*
X157480000Y-143366900D01*
X158606900Y-144229300D02*
X157744500Y-143366900D01*
X158606900Y-147857900D02*
X158606900Y-144229300D01*
X157874800Y-148590000D02*
X158606900Y-147857900D01*
X149851200Y-148590000D02*
X157874800Y-148590000D01*
X138522700Y-159918500D02*
X149851200Y-148590000D01*
X134110100Y-159918500D02*
X138522700Y-159918500D01*
X126065200Y-151873600D02*
X134110100Y-159918500D01*
X128126900Y-84053500D02*
X128126900Y-83820000D01*
X129040900Y-84967500D02*
X128126900Y-84053500D01*
X129390500Y-84967500D02*
X129040900Y-84967500D01*
X124710200Y-105266900D02*
X124460000Y-105266900D01*
X126969000Y-107525700D02*
X124710200Y-105266900D01*
X126969000Y-150969800D02*
X126969000Y-107525700D01*
X126065200Y-151873600D02*
X126969000Y-150969800D01*
X130045600Y-84967500D02*
X129390500Y-84967500D01*
X130810000Y-84203100D02*
X130045600Y-84967500D01*
X130810000Y-82259200D02*
X130810000Y-84203100D01*
X133244700Y-79824500D02*
X130810000Y-82259200D01*
X133244700Y-74119600D02*
X133244700Y-79824500D01*
X129540000Y-70414900D02*
X133244700Y-74119600D01*
X129390500Y-84967500D02*
X129390500Y-104140000D01*
%TO.N,/D1*%
X124460000Y-99060000D02*
X124460000Y-97933100D01*
X121920000Y-153685000D02*
X121920000Y-152558100D01*
X124460000Y-99060000D02*
X124460000Y-100186900D01*
X135749300Y-78347800D02*
X133744500Y-80352600D01*
X135749300Y-75610700D02*
X135749300Y-78347800D01*
X132080000Y-71941400D02*
X135749300Y-75610700D01*
X132080000Y-68580000D02*
X132080000Y-71941400D01*
X124467200Y-115974500D02*
X124467200Y-141097000D01*
X122382300Y-113889600D02*
X124467200Y-115974500D01*
X122382300Y-102031100D02*
X122382300Y-113889600D01*
X124226500Y-100186900D02*
X122382300Y-102031100D01*
X124460000Y-100186900D02*
X124226500Y-100186900D01*
X122201700Y-152558100D02*
X121920000Y-152558100D01*
X124467200Y-150292600D02*
X122201700Y-152558100D01*
X124467200Y-141097000D02*
X124467200Y-150292600D01*
X119380000Y-83820000D02*
X119380000Y-84946900D01*
X119678500Y-85245400D02*
X119380000Y-84946900D01*
X119678500Y-93355500D02*
X119678500Y-85245400D01*
X124256100Y-97933100D02*
X119678500Y-93355500D01*
X124460000Y-97933100D02*
X124256100Y-97933100D01*
%TO.N,/D0*%
X117896800Y-83656600D02*
X117896800Y-83820000D01*
X118878900Y-82674500D02*
X117896800Y-83656600D01*
X119866200Y-82674500D02*
X118878900Y-82674500D01*
X120650000Y-83458300D02*
X119866200Y-82674500D01*
X120650000Y-89747400D02*
X120650000Y-83458300D01*
X123755700Y-92853100D02*
X120650000Y-89747400D01*
X124460000Y-92853100D02*
X123755700Y-92853100D01*
X116840000Y-83820000D02*
X117896800Y-83820000D01*
X134620000Y-68580000D02*
X134620000Y-70414900D01*
X136653100Y-72448000D02*
X136653100Y-79852300D01*
X134620000Y-70414900D02*
X136653100Y-72448000D01*
X124460000Y-93416500D02*
X124460000Y-92853100D01*
X124460000Y-93416500D02*
X124460000Y-93980000D01*
X124460000Y-93980000D02*
X124460000Y-95106900D01*
X128799100Y-106154400D02*
X128799100Y-134552000D01*
X125619700Y-102975000D02*
X128799100Y-106154400D01*
X125619700Y-96026900D02*
X125619700Y-102975000D01*
X124699700Y-95106900D02*
X125619700Y-96026900D01*
X124460000Y-95106900D02*
X124699700Y-95106900D01*
X128799100Y-134552000D02*
X128799100Y-151701200D01*
X128799100Y-134552000D02*
X129657900Y-134552000D01*
%TO.N,Net-(DIS1-PadP$6)*%
X140970000Y-111740000D02*
X140970000Y-110613100D01*
X137160000Y-68580000D02*
X137160000Y-70414900D01*
X137614900Y-70869800D02*
X137160000Y-70414900D01*
X137614900Y-107539700D02*
X137614900Y-70869800D01*
X140688300Y-110613100D02*
X137614900Y-107539700D01*
X140970000Y-110613100D02*
X140688300Y-110613100D01*
%TO.N,Net-(DIS1-PadP$5)*%
X140736500Y-102993100D02*
X140970000Y-102993100D01*
X139700000Y-101956600D02*
X140736500Y-102993100D01*
X139700000Y-68580000D02*
X139700000Y-101956600D01*
X140970000Y-104120000D02*
X140970000Y-102993100D01*
%TO.N,/A0*%
X93980000Y-148605000D02*
X92853100Y-148605000D01*
X71145000Y-135895000D02*
X72271900Y-135895000D01*
X122153500Y-147478100D02*
X121920000Y-147478100D01*
X123531100Y-146100500D02*
X122153500Y-147478100D01*
X123531100Y-138161500D02*
X123531100Y-146100500D01*
X142240000Y-68580000D02*
X142240000Y-70414900D01*
X121920000Y-148605000D02*
X121920000Y-147478100D01*
X92701900Y-148756200D02*
X92853100Y-148605000D01*
X85133100Y-148756200D02*
X92701900Y-148756200D01*
X72271900Y-135895000D02*
X85133100Y-148756200D01*
X142829500Y-71004400D02*
X142240000Y-70414900D01*
X142829500Y-137018300D02*
X142829500Y-71004400D01*
X142566400Y-137281400D02*
X142829500Y-137018300D01*
%TO.N,Net-(DIS1-PadP$3)*%
X154900000Y-79570700D02*
X154900000Y-81240000D01*
X145744200Y-70414900D02*
X154900000Y-79570700D01*
X144780000Y-70414900D02*
X145744200Y-70414900D01*
X144780000Y-68580000D02*
X144780000Y-70414900D01*
%TO.N,+5V*%
X111760000Y-91603100D02*
X111760000Y-83820000D01*
X115570000Y-95413100D02*
X111760000Y-91603100D01*
X115570000Y-96540000D02*
X115570000Y-95413100D01*
X55880000Y-50800000D02*
X55880000Y-38100000D01*
X55880000Y-50800000D02*
X55880000Y-52026900D01*
X109220000Y-125745000D02*
X109220000Y-128285000D01*
X166270800Y-127242300D02*
X165100000Y-128413100D01*
X166270800Y-101056000D02*
X166270800Y-127242300D01*
X165381700Y-100166900D02*
X166270800Y-101056000D01*
X165100000Y-100166900D02*
X165381700Y-100166900D01*
X165100000Y-99040000D02*
X165100000Y-100166900D01*
X165100000Y-129540000D02*
X165100000Y-128413100D01*
X71145000Y-148595000D02*
X71145000Y-151135000D01*
X148590000Y-81917800D02*
X148590000Y-99040000D01*
X151767800Y-78740000D02*
X148590000Y-81917800D01*
X152400000Y-78740000D02*
X151767800Y-78740000D01*
X55905000Y-135895000D02*
X55905000Y-134768100D01*
X60960000Y-88900000D02*
X57806500Y-88900000D01*
X57806500Y-53953400D02*
X57806500Y-88900000D01*
X55880000Y-52026900D02*
X57806500Y-53953400D01*
X56138500Y-134768100D02*
X55905000Y-134768100D01*
X57806500Y-133100100D02*
X56138500Y-134768100D01*
X57806500Y-88900000D02*
X57806500Y-133100100D01*
X55905000Y-135895000D02*
X55905000Y-137021900D01*
X55905000Y-151135000D02*
X55905000Y-148595000D01*
X56138500Y-137021900D02*
X55905000Y-137021900D01*
X57054400Y-137937800D02*
X56138500Y-137021900D01*
X57054400Y-146600400D02*
X57054400Y-137937800D01*
X56186700Y-147468100D02*
X57054400Y-146600400D01*
X55905000Y-147468100D02*
X56186700Y-147468100D01*
X55905000Y-148595000D02*
X55905000Y-147468100D01*
X100186900Y-115585000D02*
X109220000Y-124618100D01*
X100186900Y-101012000D02*
X100186900Y-115585000D01*
X99341800Y-100166900D02*
X100186900Y-101012000D01*
X99060000Y-100166900D02*
X99341800Y-100166900D01*
X99060000Y-99040000D02*
X99060000Y-100166900D01*
X109220000Y-125745000D02*
X109220000Y-124618100D01*
X111760000Y-83820000D02*
X111760000Y-76200000D01*
X111760000Y-72954900D02*
X114300000Y-70414900D01*
X111760000Y-76200000D02*
X111760000Y-72954900D01*
X114300000Y-68580000D02*
X114300000Y-70414900D01*
%TO.N,Z80_PWRCAP*%
X63500000Y-64770000D02*
X63500000Y-50800000D01*
X53340000Y-40640000D02*
X53340000Y-35560000D01*
X58420000Y-40640000D02*
X58420000Y-35560000D01*
X63500000Y-45720000D02*
X63500000Y-50800000D01*
X58420000Y-40640000D02*
X63500000Y-45720000D01*
X149860000Y-68580000D02*
X149860000Y-70414900D01*
X178430000Y-152762900D02*
X178430000Y-157480000D01*
X178430000Y-124460000D02*
X178430000Y-129177100D01*
X178430000Y-129177100D02*
X178430000Y-133894300D01*
X178430000Y-138611400D02*
X178430000Y-133894300D01*
X154014000Y-83740000D02*
X152400000Y-83740000D01*
X156043400Y-81710600D02*
X154014000Y-83740000D01*
X156043400Y-76598300D02*
X156043400Y-81710600D01*
X149860000Y-70414900D02*
X156043400Y-76598300D01*
X93980000Y-158765000D02*
X92853100Y-158765000D01*
X72523100Y-138435000D02*
X71145000Y-138435000D01*
X92853100Y-158765000D02*
X72523100Y-138435000D01*
X140970000Y-114280000D02*
X140970000Y-113153100D01*
X134620000Y-83820000D02*
X134620000Y-84946900D01*
X156353100Y-115406900D02*
X156353100Y-114280000D01*
X154003300Y-117756700D02*
X156353100Y-115406900D01*
X157480000Y-114280000D02*
X156353100Y-114280000D01*
X178430000Y-138611400D02*
X178430000Y-143328600D01*
X178430000Y-143328600D02*
X178430000Y-144355500D01*
X176129400Y-149106500D02*
X178430000Y-149106500D01*
X175473500Y-148450600D02*
X176129400Y-149106500D01*
X175473500Y-147312000D02*
X175473500Y-148450600D01*
X178430000Y-144355500D02*
X175473500Y-147312000D01*
X178430000Y-148045700D02*
X178430000Y-149106500D01*
X178430000Y-149106500D02*
X178430000Y-152762900D01*
X137163000Y-87489900D02*
X134620000Y-84946900D01*
X137163000Y-109579600D02*
X137163000Y-87489900D01*
X140736500Y-113153100D02*
X137163000Y-109579600D01*
X140970000Y-113153100D02*
X140736500Y-113153100D01*
X91440000Y-114280000D02*
X91440000Y-113153100D01*
X71145000Y-138435000D02*
X71145000Y-137308100D01*
X85547900Y-113153100D02*
X76200000Y-103805200D01*
X91440000Y-113153100D02*
X85547900Y-113153100D01*
X70911500Y-137308100D02*
X71145000Y-137308100D01*
X69532600Y-135929200D02*
X70911500Y-137308100D01*
X69532600Y-110472600D02*
X69532600Y-135929200D01*
X76200000Y-103805200D02*
X69532600Y-110472600D01*
X76200000Y-96520000D02*
X76200000Y-103805200D01*
X91900000Y-80820000D02*
X91900000Y-78740000D01*
X76200000Y-96520000D02*
X91900000Y-80820000D01*
%TD*%
M02*
