%TF.GenerationSoftware,KiCad,Pcbnew,7.0.8*%
%TF.CreationDate,2023-11-04T10:41:29+00:00*%
%TF.ProjectId,Z80Computer,5a383043-6f6d-4707-9574-65722e6b6963,rev?*%
%TF.SameCoordinates,Original*%
%TF.FileFunction,Copper,L2,Bot*%
%TF.FilePolarity,Positive*%
%FSLAX46Y46*%
G04 Gerber Fmt 4.6, Leading zero omitted, Abs format (unit mm)*
G04 Created by KiCad (PCBNEW 7.0.8) date 2023-11-04 10:41:29*
%MOMM*%
%LPD*%
G01*
G04 APERTURE LIST*
G04 Aperture macros list*
%AMRoundRect*
0 Rectangle with rounded corners*
0 $1 Rounding radius*
0 $2 $3 $4 $5 $6 $7 $8 $9 X,Y pos of 4 corners*
0 Add a 4 corners polygon primitive as box body*
4,1,4,$2,$3,$4,$5,$6,$7,$8,$9,$2,$3,0*
0 Add four circle primitives for the rounded corners*
1,1,$1+$1,$2,$3*
1,1,$1+$1,$4,$5*
1,1,$1+$1,$6,$7*
1,1,$1+$1,$8,$9*
0 Add four rect primitives between the rounded corners*
20,1,$1+$1,$2,$3,$4,$5,0*
20,1,$1+$1,$4,$5,$6,$7,0*
20,1,$1+$1,$6,$7,$8,$9,0*
20,1,$1+$1,$8,$9,$2,$3,0*%
G04 Aperture macros list end*
%TA.AperFunction,ComponentPad*%
%ADD10R,1.600000X1.600000*%
%TD*%
%TA.AperFunction,ComponentPad*%
%ADD11O,1.600000X1.600000*%
%TD*%
%TA.AperFunction,ComponentPad*%
%ADD12C,1.620000*%
%TD*%
%TA.AperFunction,ComponentPad*%
%ADD13C,1.400000*%
%TD*%
%TA.AperFunction,ComponentPad*%
%ADD14O,1.400000X1.400000*%
%TD*%
%TA.AperFunction,ComponentPad*%
%ADD15C,6.000000*%
%TD*%
%TA.AperFunction,ComponentPad*%
%ADD16O,1.508000X3.016000*%
%TD*%
%TA.AperFunction,ComponentPad*%
%ADD17RoundRect,0.200100X-0.949900X-0.949900X0.949900X-0.949900X0.949900X0.949900X-0.949900X0.949900X0*%
%TD*%
%TA.AperFunction,ComponentPad*%
%ADD18C,2.500000*%
%TD*%
%TA.AperFunction,ComponentPad*%
%ADD19C,1.778000*%
%TD*%
%TA.AperFunction,ComponentPad*%
%ADD20C,1.600000*%
%TD*%
%TA.AperFunction,ComponentPad*%
%ADD21RoundRect,0.250000X0.725000X-0.600000X0.725000X0.600000X-0.725000X0.600000X-0.725000X-0.600000X0*%
%TD*%
%TA.AperFunction,ComponentPad*%
%ADD22O,1.950000X1.700000*%
%TD*%
%TA.AperFunction,ComponentPad*%
%ADD23R,1.200000X1.200000*%
%TD*%
%TA.AperFunction,ComponentPad*%
%ADD24C,1.200000*%
%TD*%
%TA.AperFunction,ComponentPad*%
%ADD25R,1.800000X1.800000*%
%TD*%
%TA.AperFunction,ComponentPad*%
%ADD26C,1.800000*%
%TD*%
%TA.AperFunction,ComponentPad*%
%ADD27RoundRect,0.250000X-0.725000X0.600000X-0.725000X-0.600000X0.725000X-0.600000X0.725000X0.600000X0*%
%TD*%
%TA.AperFunction,ViaPad*%
%ADD28C,0.800000*%
%TD*%
%TA.AperFunction,Conductor*%
%ADD29C,0.250000*%
%TD*%
G04 APERTURE END LIST*
D10*
%TO.P,U7,1*%
%TO.N,/A15*%
X157480000Y-99040000D03*
D11*
%TO.P,U7,2*%
%TO.N,~{MREQ}*%
X157480000Y-101580000D03*
%TO.P,U7,3*%
%TO.N,Net-(IC2_EEPROM1-~{CS})*%
X157480000Y-104120000D03*
%TO.P,U7,4*%
%TO.N,/A15*%
X157480000Y-106660000D03*
%TO.P,U7,5*%
X157480000Y-109200000D03*
%TO.P,U7,6*%
%TO.N,Net-(U5-Pad9)*%
X157480000Y-111740000D03*
%TO.P,U7,7,GND*%
%TO.N,Z80_PWRCAP*%
X157480000Y-114280000D03*
%TO.P,U7,8*%
%TO.N,unconnected-(U7-Pad8)*%
X165100000Y-114280000D03*
%TO.P,U7,9*%
%TO.N,unconnected-(U7-Pad9)*%
X165100000Y-111740000D03*
%TO.P,U7,10*%
%TO.N,unconnected-(U7-Pad10)*%
X165100000Y-109200000D03*
%TO.P,U7,11*%
%TO.N,unconnected-(U7-Pad11)*%
X165100000Y-106660000D03*
%TO.P,U7,12*%
%TO.N,unconnected-(U7-Pad12)*%
X165100000Y-104120000D03*
%TO.P,U7,13*%
%TO.N,unconnected-(U7-Pad13)*%
X165100000Y-101580000D03*
%TO.P,U7,14,VCC*%
%TO.N,+5V*%
X165100000Y-99040000D03*
%TD*%
D10*
%TO.P,IC2_EEPROM1,1,A14*%
%TO.N,/A14*%
X93980000Y-125745000D03*
D11*
%TO.P,IC2_EEPROM1,2,A12*%
%TO.N,/A12*%
X93980000Y-128285000D03*
%TO.P,IC2_EEPROM1,3,A7*%
%TO.N,/A7*%
X93980000Y-130825000D03*
%TO.P,IC2_EEPROM1,4,A6*%
%TO.N,/A6*%
X93980000Y-133365000D03*
%TO.P,IC2_EEPROM1,5,A5*%
%TO.N,/A5*%
X93980000Y-135905000D03*
%TO.P,IC2_EEPROM1,6,A4*%
%TO.N,/A4*%
X93980000Y-138445000D03*
%TO.P,IC2_EEPROM1,7,A3*%
%TO.N,/A3*%
X93980000Y-140985000D03*
%TO.P,IC2_EEPROM1,8,A2*%
%TO.N,/A2*%
X93980000Y-143525000D03*
%TO.P,IC2_EEPROM1,9,A1*%
%TO.N,/A1*%
X93980000Y-146065000D03*
%TO.P,IC2_EEPROM1,10,A0*%
%TO.N,/A0*%
X93980000Y-148605000D03*
%TO.P,IC2_EEPROM1,11,D0*%
%TO.N,/D0*%
X93980000Y-151145000D03*
%TO.P,IC2_EEPROM1,12,D1*%
%TO.N,/D1*%
X93980000Y-153685000D03*
%TO.P,IC2_EEPROM1,13,D2*%
%TO.N,/D2*%
X93980000Y-156225000D03*
%TO.P,IC2_EEPROM1,14,GND*%
%TO.N,Z80_PWRCAP*%
X93980000Y-158765000D03*
%TO.P,IC2_EEPROM1,15,D3*%
%TO.N,/D3*%
X109220000Y-158765000D03*
%TO.P,IC2_EEPROM1,16,D4*%
%TO.N,/D4*%
X109220000Y-156225000D03*
%TO.P,IC2_EEPROM1,17,D5*%
%TO.N,/D5*%
X109220000Y-153685000D03*
%TO.P,IC2_EEPROM1,18,D6*%
%TO.N,/D6*%
X109220000Y-151145000D03*
%TO.P,IC2_EEPROM1,19,D7*%
%TO.N,/D7*%
X109220000Y-148605000D03*
%TO.P,IC2_EEPROM1,20,~{CS}*%
%TO.N,Net-(IC2_EEPROM1-~{CS})*%
X109220000Y-146065000D03*
%TO.P,IC2_EEPROM1,21,A10*%
%TO.N,/A10*%
X109220000Y-143525000D03*
%TO.P,IC2_EEPROM1,22,~{OE}*%
%TO.N,~{RD}*%
X109220000Y-140985000D03*
%TO.P,IC2_EEPROM1,23,A11*%
%TO.N,/A11*%
X109220000Y-138445000D03*
%TO.P,IC2_EEPROM1,24,A9*%
%TO.N,/A9*%
X109220000Y-135905000D03*
%TO.P,IC2_EEPROM1,25,A8*%
%TO.N,/A8*%
X109220000Y-133365000D03*
%TO.P,IC2_EEPROM1,26,A13*%
%TO.N,/A13*%
X109220000Y-130825000D03*
%TO.P,IC2_EEPROM1,27,~{WE}*%
%TO.N,+5V*%
X109220000Y-128285000D03*
%TO.P,IC2_EEPROM1,28,VCC*%
X109220000Y-125745000D03*
%TD*%
D12*
%TO.P,RV1,1,1*%
%TO.N,+5V*%
X152400000Y-78740000D03*
%TO.P,RV1,2,2*%
%TO.N,Net-(DIS1-PadP$3)*%
X154900000Y-81240000D03*
%TO.P,RV1,3,3*%
%TO.N,Z80_PWRCAP*%
X152400000Y-83740000D03*
%TD*%
D13*
%TO.P,R2,1*%
%TO.N,Net-(J2-Pin_8)*%
X176530000Y-157480000D03*
D14*
%TO.P,R2,2*%
%TO.N,Z80_PWRCAP*%
X178430000Y-157480000D03*
%TD*%
D10*
%TO.P,U3,1,~{Mr}*%
%TO.N,+5V*%
X111760000Y-83820000D03*
D11*
%TO.P,U3,2,Q0*%
%TO.N,Net-(D1-A)*%
X114300000Y-83820000D03*
%TO.P,U3,3,D0*%
%TO.N,/D0*%
X116840000Y-83820000D03*
%TO.P,U3,4,D1*%
%TO.N,/D1*%
X119380000Y-83820000D03*
%TO.P,U3,5,Q1*%
%TO.N,Net-(D8-A)*%
X121920000Y-83820000D03*
%TO.P,U3,6,Q2*%
%TO.N,Net-(D3-A)*%
X124460000Y-83820000D03*
%TO.P,U3,7,D2*%
%TO.N,/D2*%
X127000000Y-83820000D03*
%TO.P,U3,8,D3*%
%TO.N,/D3*%
X129540000Y-83820000D03*
%TO.P,U3,9,Q3*%
%TO.N,Net-(D2-A)*%
X132080000Y-83820000D03*
%TO.P,U3,10,GND*%
%TO.N,Z80_PWRCAP*%
X134620000Y-83820000D03*
%TO.P,U3,11,Cp*%
%TO.N,Net-(U3-Cp)*%
X134620000Y-76200000D03*
%TO.P,U3,12,Q4*%
%TO.N,Net-(D4-A)*%
X132080000Y-76200000D03*
%TO.P,U3,13,D4*%
%TO.N,/D4*%
X129540000Y-76200000D03*
%TO.P,U3,14,D5*%
%TO.N,/D5*%
X127000000Y-76200000D03*
%TO.P,U3,15,Q5*%
%TO.N,Net-(D6-A)*%
X124460000Y-76200000D03*
%TO.P,U3,16,Q6*%
%TO.N,Net-(D5-A)*%
X121920000Y-76200000D03*
%TO.P,U3,17,D6*%
%TO.N,/D6*%
X119380000Y-76200000D03*
%TO.P,U3,18,D7*%
%TO.N,/D7*%
X116840000Y-76200000D03*
%TO.P,U3,19,Q7*%
%TO.N,Net-(D7-A)*%
X114300000Y-76200000D03*
%TO.P,U3,20,VCC*%
%TO.N,+5V*%
X111760000Y-76200000D03*
%TD*%
D15*
%TO.P,DIS1,MNT1*%
%TO.N,N/C*%
X155360000Y-68380000D03*
%TO.P,DIS1,MNT2*%
X80360000Y-68480000D03*
%TO.P,DIS1,MNT3*%
X155360000Y-37380000D03*
%TO.P,DIS1,MNT4*%
X80360000Y-37380000D03*
D16*
%TO.P,DIS1,P$1*%
%TO.N,Z80_PWRCAP*%
X149860000Y-68580000D03*
%TO.P,DIS1,P$2*%
%TO.N,+5V*%
X147320000Y-68580000D03*
%TO.P,DIS1,P$3*%
%TO.N,Net-(DIS1-PadP$3)*%
X144780000Y-68580000D03*
%TO.P,DIS1,P$4*%
%TO.N,/A0*%
X142240000Y-68580000D03*
%TO.P,DIS1,P$5*%
%TO.N,Net-(DIS1-PadP$5)*%
X139700000Y-68580000D03*
%TO.P,DIS1,P$6*%
%TO.N,Net-(DIS1-PadP$6)*%
X137160000Y-68580000D03*
%TO.P,DIS1,P$7*%
%TO.N,/D0*%
X134620000Y-68580000D03*
%TO.P,DIS1,P$8*%
%TO.N,/D1*%
X132080000Y-68580000D03*
%TO.P,DIS1,P$9*%
%TO.N,/D2*%
X129540000Y-68580000D03*
%TO.P,DIS1,P$10*%
%TO.N,/D3*%
X127000000Y-68580000D03*
%TO.P,DIS1,P$11*%
%TO.N,/D4*%
X124460000Y-68580000D03*
%TO.P,DIS1,P$12*%
%TO.N,/D5*%
X121920000Y-68580000D03*
%TO.P,DIS1,P$13*%
%TO.N,/D6*%
X119380000Y-68580000D03*
%TO.P,DIS1,P$14*%
%TO.N,/D7*%
X116840000Y-68580000D03*
%TO.P,DIS1,P$15*%
%TO.N,+5V*%
X114300000Y-68580000D03*
%TO.P,DIS1,P$16*%
%TO.N,Z80_PWRCAP*%
X111760000Y-68580000D03*
%TD*%
D13*
%TO.P,R7,1*%
%TO.N,Net-(J2-Pin_3)*%
X176530000Y-133894300D03*
D14*
%TO.P,R7,2*%
%TO.N,Z80_PWRCAP*%
X178430000Y-133894300D03*
%TD*%
D17*
%TO.P,J1,1,In*%
%TO.N,+5V*%
X55880000Y-38100000D03*
D18*
%TO.P,J1,2,Ext*%
%TO.N,Z80_PWRCAP*%
X53340000Y-35560000D03*
X53340000Y-40640000D03*
X58420000Y-35560000D03*
X58420000Y-40640000D03*
%TD*%
D13*
%TO.P,R5,1*%
%TO.N,Net-(J2-Pin_5)*%
X176530000Y-143328600D03*
D14*
%TO.P,R5,2*%
%TO.N,Z80_PWRCAP*%
X178430000Y-143328600D03*
%TD*%
D19*
%TO.P,SW1,1,1*%
%TO.N,Z80_PWRCAP*%
X167640000Y-57150000D03*
%TO.P,SW1,2,2*%
%TO.N,Net-(IC1-~{RESET})*%
X172720000Y-57150000D03*
%TO.P,SW1,3*%
%TO.N,N/C*%
X172720000Y-64770000D03*
%TO.P,SW1,4*%
X170180000Y-64770000D03*
%TO.P,SW1,5*%
X167640000Y-64770000D03*
%TD*%
D10*
%TO.P,X1,1,EN*%
%TO.N,unconnected-(X1-EN-Pad1)*%
X60960000Y-96520000D03*
D20*
%TO.P,X1,7,GND*%
%TO.N,Z80_PWRCAP*%
X76200000Y-96520000D03*
%TO.P,X1,8,OUT*%
%TO.N,Net-(IC1-~{CLK})*%
X76200000Y-88900000D03*
%TO.P,X1,14,Vcc*%
%TO.N,+5V*%
X60960000Y-88900000D03*
%TD*%
D13*
%TO.P,R1,1*%
%TO.N,+5V*%
X66680000Y-40640000D03*
D14*
%TO.P,R1,2*%
%TO.N,Net-(IC1-~{RESET})*%
X68580000Y-40640000D03*
%TD*%
D13*
%TO.P,R6,1*%
%TO.N,Net-(J2-Pin_4)*%
X176530000Y-138611400D03*
D14*
%TO.P,R6,2*%
%TO.N,Z80_PWRCAP*%
X178430000Y-138611400D03*
%TD*%
D10*
%TO.P,D1,1,K*%
%TO.N,Net-(D1-K)*%
X176530000Y-81280000D03*
D11*
%TO.P,D1,2,A*%
%TO.N,Net-(D1-A)*%
X184150000Y-81280000D03*
%TD*%
D21*
%TO.P,J3,1,Pin_1*%
%TO.N,Net-(D1-K)*%
X193040000Y-108980000D03*
D22*
%TO.P,J3,2,Pin_2*%
%TO.N,Net-(D8-K)*%
X193040000Y-106480000D03*
%TO.P,J3,3,Pin_3*%
%TO.N,Net-(D3-K)*%
X193040000Y-103980000D03*
%TO.P,J3,4,Pin_4*%
%TO.N,Net-(D2-K)*%
X193040000Y-101480000D03*
%TO.P,J3,5,Pin_5*%
%TO.N,Net-(D4-K)*%
X193040000Y-98980000D03*
%TO.P,J3,6,Pin_6*%
%TO.N,Net-(D6-K)*%
X193040000Y-96480000D03*
%TO.P,J3,7,Pin_7*%
%TO.N,Net-(D5-K)*%
X193040000Y-93980000D03*
%TO.P,J3,8,Pin_8*%
%TO.N,Net-(D7-K)*%
X193040000Y-91480000D03*
%TD*%
D10*
%TO.P,U2,1*%
%TO.N,~{KEYPAD_PORT}*%
X91440000Y-99040000D03*
D11*
%TO.P,U2,2*%
%TO.N,~{RD}*%
X91440000Y-101580000D03*
%TO.P,U2,3*%
%TO.N,Net-(U1-OEa)*%
X91440000Y-104120000D03*
%TO.P,U2,4*%
%TO.N,~{WR}*%
X91440000Y-106660000D03*
%TO.P,U2,5*%
%TO.N,~{KEYPAD_PORT}*%
X91440000Y-109200000D03*
%TO.P,U2,6*%
%TO.N,Net-(U3-Cp)*%
X91440000Y-111740000D03*
%TO.P,U2,7,GND*%
%TO.N,Z80_PWRCAP*%
X91440000Y-114280000D03*
%TO.P,U2,8*%
%TO.N,unconnected-(U2-Pad8)*%
X99060000Y-114280000D03*
%TO.P,U2,9*%
%TO.N,unconnected-(U2-Pad9)*%
X99060000Y-111740000D03*
%TO.P,U2,10*%
%TO.N,unconnected-(U2-Pad10)*%
X99060000Y-109200000D03*
%TO.P,U2,11*%
%TO.N,unconnected-(U2-Pad11)*%
X99060000Y-106660000D03*
%TO.P,U2,12*%
%TO.N,unconnected-(U2-Pad12)*%
X99060000Y-104120000D03*
%TO.P,U2,13*%
%TO.N,unconnected-(U2-Pad13)*%
X99060000Y-101580000D03*
%TO.P,U2,14,VCC*%
%TO.N,+5V*%
X99060000Y-99040000D03*
%TD*%
D13*
%TO.P,R8,1*%
%TO.N,Net-(J2-Pin_2)*%
X176530000Y-129177100D03*
D14*
%TO.P,R8,2*%
%TO.N,Z80_PWRCAP*%
X178430000Y-129177100D03*
%TD*%
D13*
%TO.P,R3,1*%
%TO.N,Net-(J2-Pin_6)*%
X176530000Y-148045700D03*
D14*
%TO.P,R3,2*%
%TO.N,Z80_PWRCAP*%
X178430000Y-148045700D03*
%TD*%
D10*
%TO.P,D6,1,K*%
%TO.N,Net-(D6-K)*%
X184150000Y-106680000D03*
D11*
%TO.P,D6,2,A*%
%TO.N,Net-(D6-A)*%
X176530000Y-106680000D03*
%TD*%
D10*
%TO.P,U5,1*%
%TO.N,~{RD}*%
X140970000Y-99040000D03*
D11*
%TO.P,U5,2*%
X140970000Y-101580000D03*
%TO.P,U5,3*%
%TO.N,Net-(DIS1-PadP$5)*%
X140970000Y-104120000D03*
%TO.P,U5,4*%
%TO.N,~{LCD_OUT_PORT}*%
X140970000Y-106660000D03*
%TO.P,U5,5*%
X140970000Y-109200000D03*
%TO.P,U5,6*%
%TO.N,Net-(DIS1-PadP$6)*%
X140970000Y-111740000D03*
%TO.P,U5,7,GND*%
%TO.N,Z80_PWRCAP*%
X140970000Y-114280000D03*
%TO.P,U5,8*%
%TO.N,Net-(IC6_SRAM1-~{CS})*%
X148590000Y-114280000D03*
%TO.P,U5,9*%
%TO.N,Net-(U5-Pad9)*%
X148590000Y-111740000D03*
%TO.P,U5,10*%
%TO.N,~{MREQ}*%
X148590000Y-109200000D03*
%TO.P,U5,11*%
%TO.N,unconnected-(U5-Pad11)*%
X148590000Y-106660000D03*
%TO.P,U5,12*%
%TO.N,unconnected-(U5-Pad12)*%
X148590000Y-104120000D03*
%TO.P,U5,13*%
%TO.N,unconnected-(U5-Pad13)*%
X148590000Y-101580000D03*
%TO.P,U5,14,VCC*%
%TO.N,+5V*%
X148590000Y-99040000D03*
%TD*%
D13*
%TO.P,R4,1*%
%TO.N,Net-(J2-Pin_7)*%
X176530000Y-152762900D03*
D14*
%TO.P,R4,2*%
%TO.N,Z80_PWRCAP*%
X178430000Y-152762900D03*
%TD*%
D13*
%TO.P,R9,1*%
%TO.N,Net-(J2-Pin_1)*%
X176530000Y-124460000D03*
D14*
%TO.P,R9,2*%
%TO.N,Z80_PWRCAP*%
X178430000Y-124460000D03*
%TD*%
D23*
%TO.P,C2,1*%
%TO.N,Z80_PWRCAP*%
X99060000Y-78740000D03*
D24*
%TO.P,C2,2*%
%TO.N,+5V*%
X100560000Y-78740000D03*
%TD*%
D10*
%TO.P,D4,1,K*%
%TO.N,Net-(D4-K)*%
X184150000Y-96520000D03*
D11*
%TO.P,D4,2,A*%
%TO.N,Net-(D4-A)*%
X176530000Y-96520000D03*
%TD*%
D13*
%TO.P,R10,1*%
%TO.N,Net-(D9-A)*%
X61600000Y-50800000D03*
D14*
%TO.P,R10,2*%
%TO.N,Z80_PWRCAP*%
X63500000Y-50800000D03*
%TD*%
D25*
%TO.P,D9,1,K*%
%TO.N,+5V*%
X55880000Y-50800000D03*
D26*
%TO.P,D9,2,A*%
%TO.N,Net-(D9-A)*%
X53340000Y-50800000D03*
%TD*%
D10*
%TO.P,D5,1,K*%
%TO.N,Net-(D5-K)*%
X184150000Y-101600000D03*
D11*
%TO.P,D5,2,A*%
%TO.N,Net-(D5-A)*%
X176530000Y-101600000D03*
%TD*%
D10*
%TO.P,IC6_SRAM1,1,A14*%
%TO.N,/A14*%
X121920000Y-125745000D03*
D11*
%TO.P,IC6_SRAM1,2,A12*%
%TO.N,/A12*%
X121920000Y-128285000D03*
%TO.P,IC6_SRAM1,3,A7*%
%TO.N,/A7*%
X121920000Y-130825000D03*
%TO.P,IC6_SRAM1,4,A6*%
%TO.N,/A6*%
X121920000Y-133365000D03*
%TO.P,IC6_SRAM1,5,A5*%
%TO.N,/A5*%
X121920000Y-135905000D03*
%TO.P,IC6_SRAM1,6,A4*%
%TO.N,/A4*%
X121920000Y-138445000D03*
%TO.P,IC6_SRAM1,7,A3*%
%TO.N,/A3*%
X121920000Y-140985000D03*
%TO.P,IC6_SRAM1,8,A2*%
%TO.N,/A2*%
X121920000Y-143525000D03*
%TO.P,IC6_SRAM1,9,A1*%
%TO.N,/A1*%
X121920000Y-146065000D03*
%TO.P,IC6_SRAM1,10,A0*%
%TO.N,/A0*%
X121920000Y-148605000D03*
%TO.P,IC6_SRAM1,11,Q0*%
%TO.N,/D0*%
X121920000Y-151145000D03*
%TO.P,IC6_SRAM1,12,Q1*%
%TO.N,/D1*%
X121920000Y-153685000D03*
%TO.P,IC6_SRAM1,13,Q2*%
%TO.N,/D2*%
X121920000Y-156225000D03*
%TO.P,IC6_SRAM1,14,GND*%
%TO.N,Z80_PWRCAP*%
X121920000Y-158765000D03*
%TO.P,IC6_SRAM1,15,Q3*%
%TO.N,/D3*%
X137160000Y-158765000D03*
%TO.P,IC6_SRAM1,16,Q4*%
%TO.N,/D4*%
X137160000Y-156225000D03*
%TO.P,IC6_SRAM1,17,Q5*%
%TO.N,/D5*%
X137160000Y-153685000D03*
%TO.P,IC6_SRAM1,18,Q6*%
%TO.N,/D6*%
X137160000Y-151145000D03*
%TO.P,IC6_SRAM1,19,Q7*%
%TO.N,/D7*%
X137160000Y-148605000D03*
%TO.P,IC6_SRAM1,20,~{CS}*%
%TO.N,Net-(IC6_SRAM1-~{CS})*%
X137160000Y-146065000D03*
%TO.P,IC6_SRAM1,21,A10*%
%TO.N,/A10*%
X137160000Y-143525000D03*
%TO.P,IC6_SRAM1,22,~{OE}*%
%TO.N,~{RD}*%
X137160000Y-140985000D03*
%TO.P,IC6_SRAM1,23,A11*%
%TO.N,/A11*%
X137160000Y-138445000D03*
%TO.P,IC6_SRAM1,24,A9*%
%TO.N,/A9*%
X137160000Y-135905000D03*
%TO.P,IC6_SRAM1,25,A8*%
%TO.N,/A8*%
X137160000Y-133365000D03*
%TO.P,IC6_SRAM1,26,A13*%
%TO.N,/A13*%
X137160000Y-130825000D03*
%TO.P,IC6_SRAM1,27,~{WE}*%
%TO.N,~{WR}*%
X137160000Y-128285000D03*
%TO.P,IC6_SRAM1,28,VCC*%
%TO.N,+5V*%
X137160000Y-125745000D03*
%TD*%
D10*
%TO.P,U1,1,OEa*%
%TO.N,Net-(U1-OEa)*%
X124460000Y-91440000D03*
D11*
%TO.P,U1,2,I0a*%
%TO.N,/D0*%
X124460000Y-93980000D03*
%TO.P,U1,3,O3b*%
%TO.N,Net-(J2-Pin_8)*%
X124460000Y-96520000D03*
%TO.P,U1,4,I1a*%
%TO.N,/D1*%
X124460000Y-99060000D03*
%TO.P,U1,5,O2b*%
%TO.N,Net-(J2-Pin_7)*%
X124460000Y-101600000D03*
%TO.P,U1,6,I2a*%
%TO.N,/D2*%
X124460000Y-104140000D03*
%TO.P,U1,7,O1b*%
%TO.N,Net-(J2-Pin_6)*%
X124460000Y-106680000D03*
%TO.P,U1,8,I3a*%
%TO.N,/D3*%
X124460000Y-109220000D03*
%TO.P,U1,9,O0b*%
%TO.N,Net-(J2-Pin_5)*%
X124460000Y-111760000D03*
%TO.P,U1,10,GND*%
%TO.N,Z80_PWRCAP*%
X124460000Y-114300000D03*
%TO.P,U1,11,I0b*%
%TO.N,/D4*%
X132080000Y-114300000D03*
%TO.P,U1,12,O3a*%
%TO.N,Net-(J2-Pin_4)*%
X132080000Y-111760000D03*
%TO.P,U1,13,I1b*%
%TO.N,/D5*%
X132080000Y-109220000D03*
%TO.P,U1,14,O2a*%
%TO.N,Net-(J2-Pin_3)*%
X132080000Y-106680000D03*
%TO.P,U1,15,I2b*%
%TO.N,/D6*%
X132080000Y-104140000D03*
%TO.P,U1,16,O1a*%
%TO.N,Net-(J2-Pin_2)*%
X132080000Y-101600000D03*
%TO.P,U1,17,I3b*%
%TO.N,/D7*%
X132080000Y-99060000D03*
%TO.P,U1,18,O0a*%
%TO.N,Net-(J2-Pin_1)*%
X132080000Y-96520000D03*
%TO.P,U1,19,OEb*%
%TO.N,Net-(U1-OEa)*%
X132080000Y-93980000D03*
%TO.P,U1,20,VCC*%
%TO.N,+5V*%
X132080000Y-91440000D03*
%TD*%
D10*
%TO.P,D3,1,K*%
%TO.N,Net-(D3-K)*%
X184150000Y-91440000D03*
D11*
%TO.P,D3,2,A*%
%TO.N,Net-(D3-A)*%
X176530000Y-91440000D03*
%TD*%
D23*
%TO.P,C1,1*%
%TO.N,+5V*%
X90400000Y-78740000D03*
D24*
%TO.P,C1,2*%
%TO.N,Z80_PWRCAP*%
X91900000Y-78740000D03*
%TD*%
D27*
%TO.P,J2,1,Pin_1*%
%TO.N,Net-(J2-Pin_1)*%
X193640000Y-132080000D03*
D22*
%TO.P,J2,2,Pin_2*%
%TO.N,Net-(J2-Pin_2)*%
X193640000Y-134580000D03*
%TO.P,J2,3,Pin_3*%
%TO.N,Net-(J2-Pin_3)*%
X193640000Y-137080000D03*
%TO.P,J2,4,Pin_4*%
%TO.N,Net-(J2-Pin_4)*%
X193640000Y-139580000D03*
%TO.P,J2,5,Pin_5*%
%TO.N,Net-(J2-Pin_5)*%
X193640000Y-142080000D03*
%TO.P,J2,6,Pin_6*%
%TO.N,Net-(J2-Pin_6)*%
X193640000Y-144580000D03*
%TO.P,J2,7,Pin_7*%
%TO.N,Net-(J2-Pin_7)*%
X193640000Y-147080000D03*
%TO.P,J2,8,Pin_8*%
%TO.N,Net-(J2-Pin_8)*%
X193640000Y-149580000D03*
%TD*%
D10*
%TO.P,U6,1,OEa*%
%TO.N,Net-(U1-OEa)*%
X157480000Y-129540000D03*
D11*
%TO.P,U6,2,I0a*%
%TO.N,/D0*%
X157480000Y-132080000D03*
%TO.P,U6,3,O3b*%
%TO.N,Net-(J2-Pin_8)*%
X157480000Y-134620000D03*
%TO.P,U6,4,I1a*%
%TO.N,/D1*%
X157480000Y-137160000D03*
%TO.P,U6,5,O2b*%
%TO.N,Net-(J2-Pin_7)*%
X157480000Y-139700000D03*
%TO.P,U6,6,I2a*%
%TO.N,/D2*%
X157480000Y-142240000D03*
%TO.P,U6,7,O1b*%
%TO.N,Net-(J2-Pin_6)*%
X157480000Y-144780000D03*
%TO.P,U6,8,I3a*%
%TO.N,/D3*%
X157480000Y-147320000D03*
%TO.P,U6,9,O0b*%
%TO.N,Net-(J2-Pin_5)*%
X157480000Y-149860000D03*
%TO.P,U6,10,GND*%
%TO.N,Z80_PWRCAP*%
X157480000Y-152400000D03*
%TO.P,U6,11,I0b*%
%TO.N,/D4*%
X165100000Y-152400000D03*
%TO.P,U6,12,O3a*%
%TO.N,Net-(J2-Pin_4)*%
X165100000Y-149860000D03*
%TO.P,U6,13,I1b*%
%TO.N,/D5*%
X165100000Y-147320000D03*
%TO.P,U6,14,O2a*%
%TO.N,Net-(J2-Pin_3)*%
X165100000Y-144780000D03*
%TO.P,U6,15,I2b*%
%TO.N,/D6*%
X165100000Y-142240000D03*
%TO.P,U6,16,O1a*%
%TO.N,Net-(J2-Pin_2)*%
X165100000Y-139700000D03*
%TO.P,U6,17,I3b*%
%TO.N,/D7*%
X165100000Y-137160000D03*
%TO.P,U6,18,O0a*%
%TO.N,Net-(J2-Pin_1)*%
X165100000Y-134620000D03*
%TO.P,U6,19,OEb*%
%TO.N,Net-(U1-OEa)*%
X165100000Y-132080000D03*
%TO.P,U6,20,VCC*%
%TO.N,+5V*%
X165100000Y-129540000D03*
%TD*%
D10*
%TO.P,IC1,1,A11*%
%TO.N,/A11*%
X55905000Y-110495000D03*
D11*
%TO.P,IC1,2,A12*%
%TO.N,/A12*%
X55905000Y-113035000D03*
%TO.P,IC1,3,A13*%
%TO.N,/A13*%
X55905000Y-115575000D03*
%TO.P,IC1,4,A14*%
%TO.N,/A14*%
X55905000Y-118115000D03*
%TO.P,IC1,5,A15*%
%TO.N,/A15*%
X55905000Y-120655000D03*
%TO.P,IC1,6,~{CLK}*%
%TO.N,Net-(IC1-~{CLK})*%
X55905000Y-123195000D03*
%TO.P,IC1,7,D4*%
%TO.N,/D4*%
X55905000Y-125735000D03*
%TO.P,IC1,8,D3*%
%TO.N,/D3*%
X55905000Y-128275000D03*
%TO.P,IC1,9,D5*%
%TO.N,/D5*%
X55905000Y-130815000D03*
%TO.P,IC1,10,D6*%
%TO.N,/D6*%
X55905000Y-133355000D03*
%TO.P,IC1,11,VCC*%
%TO.N,+5V*%
X55905000Y-135895000D03*
%TO.P,IC1,12,D2*%
%TO.N,/D2*%
X55905000Y-138435000D03*
%TO.P,IC1,13,D7*%
%TO.N,/D7*%
X55905000Y-140975000D03*
%TO.P,IC1,14,D0*%
%TO.N,/D0*%
X55905000Y-143515000D03*
%TO.P,IC1,15,D1*%
%TO.N,/D1*%
X55905000Y-146055000D03*
%TO.P,IC1,16,~{INT}*%
%TO.N,+5V*%
X55905000Y-148595000D03*
%TO.P,IC1,17,~{NMI}*%
X55905000Y-151135000D03*
%TO.P,IC1,18,~{HALT}*%
%TO.N,unconnected-(IC1-~{HALT}-Pad18)*%
X55905000Y-153675000D03*
%TO.P,IC1,19,~{MREQ}*%
%TO.N,~{MREQ}*%
X55905000Y-156215000D03*
%TO.P,IC1,20,~{IORQ}*%
%TO.N,~{IORQ}*%
X55905000Y-158755000D03*
%TO.P,IC1,21,~{RD}*%
%TO.N,~{RD}*%
X81305000Y-158755000D03*
%TO.P,IC1,22,~{WR}*%
%TO.N,~{WR}*%
X81305000Y-156215000D03*
%TO.P,IC1,23,~{BUSACK}*%
%TO.N,unconnected-(IC1-~{BUSACK}-Pad23)*%
X81305000Y-153675000D03*
%TO.P,IC1,24,~{WAIT}*%
%TO.N,+5V*%
X81305000Y-151135000D03*
%TO.P,IC1,25,~{BUSRQ}*%
X81305000Y-148595000D03*
%TO.P,IC1,26,~{RESET}*%
%TO.N,Net-(IC1-~{RESET})*%
X81305000Y-146055000D03*
%TO.P,IC1,27,~{M1}*%
%TO.N,~{M1}*%
X81305000Y-143515000D03*
%TO.P,IC1,28,~{RFSH}*%
%TO.N,unconnected-(IC1-~{RFSH}-Pad28)*%
X81305000Y-140975000D03*
%TO.P,IC1,29,GND*%
%TO.N,Z80_PWRCAP*%
X81305000Y-138435000D03*
%TO.P,IC1,30,A0*%
%TO.N,/A0*%
X81305000Y-135895000D03*
%TO.P,IC1,31,A1*%
%TO.N,/A1*%
X81305000Y-133355000D03*
%TO.P,IC1,32,A2*%
%TO.N,/A2*%
X81305000Y-130815000D03*
%TO.P,IC1,33,A3*%
%TO.N,/A3*%
X81305000Y-128275000D03*
%TO.P,IC1,34,A4*%
%TO.N,/A4*%
X81305000Y-125735000D03*
%TO.P,IC1,35,A5*%
%TO.N,/A5*%
X81305000Y-123195000D03*
%TO.P,IC1,36,A6*%
%TO.N,/A6*%
X81305000Y-120655000D03*
%TO.P,IC1,37,A7*%
%TO.N,/A7*%
X81305000Y-118115000D03*
%TO.P,IC1,38,A8*%
%TO.N,/A8*%
X81305000Y-115575000D03*
%TO.P,IC1,39,A9*%
%TO.N,/A9*%
X81305000Y-113035000D03*
%TO.P,IC1,40,A10*%
%TO.N,/A10*%
X81305000Y-110495000D03*
%TD*%
D10*
%TO.P,U4,1,A0*%
%TO.N,/A5*%
X107950000Y-96540000D03*
D11*
%TO.P,U4,2,A1*%
%TO.N,/A6*%
X107950000Y-99080000D03*
%TO.P,U4,3,A2*%
%TO.N,/A7*%
X107950000Y-101620000D03*
%TO.P,U4,4,E1*%
%TO.N,/A4*%
X107950000Y-104160000D03*
%TO.P,U4,5,E2*%
%TO.N,~{IORQ}*%
X107950000Y-106700000D03*
%TO.P,U4,6,E3*%
%TO.N,~{M1}*%
X107950000Y-109240000D03*
%TO.P,U4,7,O7*%
%TO.N,unconnected-(U4-O7-Pad7)*%
X107950000Y-111780000D03*
%TO.P,U4,8,GND*%
%TO.N,Z80_PWRCAP*%
X107950000Y-114320000D03*
%TO.P,U4,9,O6*%
%TO.N,unconnected-(U4-O6-Pad9)*%
X115570000Y-114320000D03*
%TO.P,U4,10,O5*%
%TO.N,unconnected-(U4-O5-Pad10)*%
X115570000Y-111780000D03*
%TO.P,U4,11,O4*%
%TO.N,unconnected-(U4-O4-Pad11)*%
X115570000Y-109240000D03*
%TO.P,U4,12,O3*%
%TO.N,unconnected-(U4-O3-Pad12)*%
X115570000Y-106700000D03*
%TO.P,U4,13,O2*%
%TO.N,unconnected-(U4-O2-Pad13)*%
X115570000Y-104160000D03*
%TO.P,U4,14,O1*%
%TO.N,~{KEYPAD_PORT}*%
X115570000Y-101620000D03*
%TO.P,U4,15,O0*%
%TO.N,~{LCD_OUT_PORT}*%
X115570000Y-99080000D03*
%TO.P,U4,16,VCC*%
%TO.N,+5V*%
X115570000Y-96540000D03*
%TD*%
D10*
%TO.P,D8,1,K*%
%TO.N,Net-(D8-K)*%
X184150000Y-116840000D03*
D11*
%TO.P,D8,2,A*%
%TO.N,Net-(D8-A)*%
X176530000Y-116840000D03*
%TD*%
D10*
%TO.P,D2,1,K*%
%TO.N,Net-(D2-K)*%
X184150000Y-86360000D03*
D11*
%TO.P,D2,2,A*%
%TO.N,Net-(D2-A)*%
X176530000Y-86360000D03*
%TD*%
D10*
%TO.P,D7,1,K*%
%TO.N,Net-(D7-K)*%
X184150000Y-111760000D03*
D11*
%TO.P,D7,2,A*%
%TO.N,Net-(D7-A)*%
X176530000Y-111760000D03*
%TD*%
D28*
%TO.N,Net-(U3-Cp)*%
X127686700Y-120451200D03*
%TO.N,Net-(D4-A)*%
X149462100Y-82660100D03*
%TO.N,Net-(U1-OEa)*%
X158834100Y-110303100D03*
%TO.N,Net-(J2-Pin_8)*%
X144005000Y-103355100D03*
%TO.N,Net-(J2-Pin_6)*%
X148653500Y-125459900D03*
X161867900Y-147857300D03*
%TO.N,Net-(IC2_EEPROM1-~{CS})*%
X148755500Y-133686400D03*
%TO.N,/A10*%
X98271700Y-123411800D03*
%TO.N,/A9*%
X102010500Y-126081500D03*
%TO.N,/A8*%
X106307800Y-131470700D03*
%TO.N,~{MREQ}*%
X139609800Y-158007100D03*
%TO.N,/A12*%
X100773300Y-117878300D03*
%TO.N,/A11*%
X100904300Y-124505400D03*
%TO.N,/D7*%
X123069700Y-97802300D03*
%TO.N,/D6*%
X133374900Y-80109200D03*
%TO.N,/D5*%
X136177200Y-107605500D03*
%TO.N,/D4*%
X127883300Y-110393200D03*
%TO.N,/D2*%
X127050300Y-105036000D03*
X130597600Y-82545700D03*
%TO.N,/D0*%
X123789500Y-131202400D03*
%TO.N,/A0*%
X128270000Y-75229800D03*
%TO.N,+5V*%
X113279500Y-122595700D03*
%TO.N,Z80_PWRCAP*%
X151636000Y-114485400D03*
%TD*%
D29*
%TO.N,Net-(U3-Cp)*%
X134620000Y-77720300D02*
X134620000Y-76200000D01*
X132619500Y-79720800D02*
X134620000Y-77720300D01*
X132619500Y-81605400D02*
X132619500Y-79720800D01*
X130810000Y-83414900D02*
X132619500Y-81605400D01*
X130810000Y-86374400D02*
X130810000Y-83414900D01*
X129480300Y-87704100D02*
X130810000Y-86374400D01*
X129480300Y-118657600D02*
X129480300Y-87704100D01*
X127686700Y-120451200D02*
X129480300Y-118657600D01*
%TO.N,Net-(D8-K)*%
X184150000Y-115664200D02*
X184150000Y-116840000D01*
X192157300Y-107656900D02*
X184150000Y-115664200D01*
X193040000Y-107656900D02*
X192157300Y-107656900D01*
X193040000Y-106480000D02*
X193040000Y-107656900D01*
%TO.N,Net-(D7-K)*%
X183023100Y-109506200D02*
X184150000Y-110633100D01*
X183023100Y-100195000D02*
X183023100Y-109506200D01*
X191738100Y-91480000D02*
X183023100Y-100195000D01*
X193040000Y-91480000D02*
X191738100Y-91480000D01*
X184150000Y-111760000D02*
X184150000Y-110633100D01*
%TO.N,Net-(D6-K)*%
X192046200Y-97656900D02*
X184150000Y-105553100D01*
X193040000Y-97656900D02*
X192046200Y-97656900D01*
X193040000Y-96480000D02*
X193040000Y-97656900D01*
X184150000Y-106680000D02*
X184150000Y-105553100D01*
%TO.N,Net-(D5-K)*%
X185245000Y-100473100D02*
X184150000Y-100473100D01*
X191738100Y-93980000D02*
X185245000Y-100473100D01*
X193040000Y-93980000D02*
X191738100Y-93980000D01*
X184150000Y-101600000D02*
X184150000Y-100473100D01*
%TO.N,Net-(D4-A)*%
X163322000Y-96520000D02*
X149462100Y-82660100D01*
X176530000Y-96520000D02*
X163322000Y-96520000D01*
%TO.N,Net-(U1-OEa)*%
X159074000Y-110543000D02*
X158834100Y-110303100D01*
X159074000Y-126819100D02*
X159074000Y-110543000D01*
X157480000Y-128413100D02*
X159074000Y-126819100D01*
X157480000Y-129540000D02*
X157480000Y-128413100D01*
%TO.N,~{KEYPAD_PORT}*%
X91721800Y-100166900D02*
X91440000Y-100166900D01*
X92566900Y-101012000D02*
X91721800Y-100166900D01*
X92566900Y-108073100D02*
X92566900Y-101012000D01*
X91440000Y-109200000D02*
X92566900Y-108073100D01*
X91440000Y-99040000D02*
X91440000Y-100166900D01*
%TO.N,Net-(J2-Pin_8)*%
X157480000Y-134620000D02*
X157480000Y-135183400D01*
X157480000Y-135183400D02*
X157480000Y-135746900D01*
X144510100Y-102850000D02*
X144005000Y-103355100D01*
X149120200Y-102850000D02*
X144510100Y-102850000D01*
X154084400Y-97885800D02*
X149120200Y-102850000D01*
X158389200Y-97885800D02*
X154084400Y-97885800D01*
X159561000Y-99057600D02*
X158389200Y-97885800D01*
X159561000Y-133102400D02*
X159561000Y-99057600D01*
X157480000Y-135183400D02*
X159561000Y-133102400D01*
X157833600Y-135746900D02*
X157480000Y-135746900D01*
X163498600Y-141411900D02*
X157833600Y-135746900D01*
X163498600Y-149915300D02*
X163498600Y-141411900D01*
X164639400Y-151056100D02*
X163498600Y-149915300D01*
X170106100Y-151056100D02*
X164639400Y-151056100D01*
X176530000Y-157480000D02*
X170106100Y-151056100D01*
%TO.N,Net-(J2-Pin_6)*%
X179995700Y-144580000D02*
X176530000Y-148045700D01*
X193640000Y-144580000D02*
X179995700Y-144580000D01*
X157480000Y-144780000D02*
X157480000Y-145239000D01*
X148028500Y-135787500D02*
X157480000Y-145239000D01*
X148028500Y-126084900D02*
X148028500Y-135787500D01*
X148653500Y-125459900D02*
X148028500Y-126084900D01*
X160098300Y-147857300D02*
X161867900Y-147857300D01*
X157480000Y-145239000D02*
X160098300Y-147857300D01*
%TO.N,Net-(J2-Pin_5)*%
X157480000Y-149860000D02*
X156353100Y-149860000D01*
X124460000Y-111760000D02*
X124460000Y-112886900D01*
X146294200Y-159918900D02*
X156353100Y-149860000D01*
X136700800Y-159918900D02*
X146294200Y-159918900D01*
X126506100Y-149724200D02*
X136700800Y-159918900D01*
X126506100Y-114699500D02*
X126506100Y-149724200D01*
X124693500Y-112886900D02*
X126506100Y-114699500D01*
X124460000Y-112886900D02*
X124693500Y-112886900D01*
%TO.N,Net-(J2-Pin_4)*%
X166226900Y-148914500D02*
X176530000Y-138611400D01*
X166226900Y-149860000D02*
X166226900Y-148914500D01*
X165100000Y-149860000D02*
X166226900Y-149860000D01*
%TO.N,Net-(J2-Pin_3)*%
X166226900Y-144197400D02*
X176530000Y-133894300D01*
X166226900Y-144780000D02*
X166226900Y-144197400D01*
X165100000Y-144780000D02*
X166226900Y-144780000D01*
%TO.N,Net-(J2-Pin_2)*%
X166226900Y-139480200D02*
X176530000Y-129177100D01*
X166226900Y-139700000D02*
X166226900Y-139480200D01*
X165100000Y-139700000D02*
X166226900Y-139700000D01*
%TO.N,Net-(U5-Pad9)*%
X148590000Y-111740000D02*
X157480000Y-111740000D01*
%TO.N,~{LCD_OUT_PORT}*%
X140970000Y-109200000D02*
X140970000Y-106660000D01*
%TO.N,Net-(IC6_SRAM1-~{CS})*%
X137160000Y-146065000D02*
X137160000Y-144938100D01*
X148590000Y-114280000D02*
X148590000Y-115406900D01*
X137393500Y-144938100D02*
X137160000Y-144938100D01*
X147020400Y-135311200D02*
X137393500Y-144938100D01*
X147020400Y-116976500D02*
X147020400Y-135311200D01*
X148590000Y-115406900D02*
X147020400Y-116976500D01*
%TO.N,Net-(J2-Pin_1)*%
X176386900Y-124460000D02*
X176530000Y-124460000D01*
X166226900Y-134620000D02*
X176386900Y-124460000D01*
X165100000Y-134620000D02*
X166226900Y-134620000D01*
%TO.N,Net-(IC2_EEPROM1-~{CS})*%
X157480000Y-104120000D02*
X157480000Y-105246900D01*
X158622100Y-123819800D02*
X148755500Y-133686400D01*
X158622100Y-111242200D02*
X158622100Y-123819800D01*
X157849900Y-110470000D02*
X158622100Y-111242200D01*
X157102200Y-110470000D02*
X157849900Y-110470000D01*
X156352100Y-109719900D02*
X157102200Y-110470000D01*
X156352100Y-106141300D02*
X156352100Y-109719900D01*
X157246500Y-105246900D02*
X156352100Y-106141300D01*
X157480000Y-105246900D02*
X157246500Y-105246900D01*
%TO.N,/A10*%
X109220000Y-143525000D02*
X109220000Y-142398100D01*
X98271700Y-131683300D02*
X98271700Y-123411800D01*
X108986500Y-142398100D02*
X98271700Y-131683300D01*
X109220000Y-142398100D02*
X108986500Y-142398100D01*
%TO.N,/A9*%
X109220000Y-135905000D02*
X109220000Y-134778100D01*
X108587300Y-134778100D02*
X109220000Y-134778100D01*
X102010500Y-128201300D02*
X108587300Y-134778100D01*
X102010500Y-126081500D02*
X102010500Y-128201300D01*
%TO.N,/A8*%
X108093100Y-133256000D02*
X108093100Y-133365000D01*
X106307800Y-131470700D02*
X108093100Y-133256000D01*
X109220000Y-133365000D02*
X108093100Y-133365000D01*
%TO.N,/A7*%
X107950000Y-101620000D02*
X107950000Y-102746900D01*
X121920000Y-130825000D02*
X121920000Y-129698100D01*
X108231800Y-102746900D02*
X107950000Y-102746900D01*
X113299900Y-107815000D02*
X108231800Y-102746900D01*
X113299900Y-120879700D02*
X113299900Y-107815000D01*
X114458300Y-122038100D02*
X113299900Y-120879700D01*
X114458300Y-122467700D02*
X114458300Y-122038100D01*
X121688700Y-129698100D02*
X114458300Y-122467700D01*
X121920000Y-129698100D02*
X121688700Y-129698100D01*
%TO.N,/A6*%
X107950000Y-99080000D02*
X107950000Y-100206900D01*
X121920000Y-133365000D02*
X121920000Y-132238100D01*
X122153500Y-132238100D02*
X121920000Y-132238100D01*
X123050300Y-131341300D02*
X122153500Y-132238100D01*
X123050300Y-117636000D02*
X123050300Y-131341300D01*
X115924300Y-110510000D02*
X123050300Y-117636000D01*
X115242500Y-110510000D02*
X115924300Y-110510000D01*
X113751800Y-109019300D02*
X115242500Y-110510000D01*
X113751800Y-105727000D02*
X113751800Y-109019300D01*
X108231700Y-100206900D02*
X113751800Y-105727000D01*
X107950000Y-100206900D02*
X108231700Y-100206900D01*
%TO.N,/A5*%
X107950000Y-96540000D02*
X107950000Y-97666900D01*
X81305000Y-123195000D02*
X81305000Y-122068100D01*
X107114000Y-97666900D02*
X107950000Y-97666900D01*
X99390900Y-105390000D02*
X107114000Y-97666900D01*
X98671400Y-105390000D02*
X99390900Y-105390000D01*
X93017300Y-111044100D02*
X98671400Y-105390000D01*
X93017300Y-111819400D02*
X93017300Y-111044100D01*
X91826700Y-113010000D02*
X93017300Y-111819400D01*
X91070700Y-113010000D02*
X91826700Y-113010000D01*
X82012600Y-122068100D02*
X91070700Y-113010000D01*
X81305000Y-122068100D02*
X82012600Y-122068100D01*
%TO.N,/A4*%
X107950000Y-104160000D02*
X107950000Y-105286900D01*
X121920000Y-138445000D02*
X121920000Y-137318100D01*
X108217100Y-105286900D02*
X107950000Y-105286900D01*
X109767000Y-106836800D02*
X108217100Y-105286900D01*
X109767000Y-117985900D02*
X109767000Y-106836800D01*
X114006400Y-122225300D02*
X109767000Y-117985900D01*
X114006400Y-129638000D02*
X114006400Y-122225300D01*
X121686500Y-137318100D02*
X114006400Y-129638000D01*
X121920000Y-137318100D02*
X121686500Y-137318100D01*
%TO.N,~{M1}*%
X107950000Y-109240000D02*
X107950000Y-110366900D01*
X81305000Y-143515000D02*
X81305000Y-142388100D01*
X81538500Y-142388100D02*
X81305000Y-142388100D01*
X92129900Y-131796700D02*
X81538500Y-142388100D01*
X92129900Y-125484800D02*
X92129900Y-131796700D01*
X107247800Y-110366900D02*
X92129900Y-125484800D01*
X107950000Y-110366900D02*
X107247800Y-110366900D01*
%TO.N,Net-(IC1-~{RESET})*%
X75060500Y-139810500D02*
X75060500Y-55876800D01*
X81305000Y-146055000D02*
X75060500Y-139810500D01*
X68580000Y-49396300D02*
X75060500Y-55876800D01*
X68580000Y-40640000D02*
X68580000Y-49396300D01*
X171446800Y-55876800D02*
X172720000Y-57150000D01*
X75060500Y-55876800D02*
X171446800Y-55876800D01*
%TO.N,~{WR}*%
X81305000Y-156215000D02*
X81305000Y-155088100D01*
X91440000Y-106660000D02*
X91440000Y-107786900D01*
X91206500Y-107786900D02*
X91440000Y-107786900D01*
X90025400Y-108968000D02*
X91206500Y-107786900D01*
X90025400Y-110993200D02*
X90025400Y-108968000D01*
X81633600Y-119385000D02*
X90025400Y-110993200D01*
X80948600Y-119385000D02*
X81633600Y-119385000D01*
X80160800Y-120172800D02*
X80948600Y-119385000D01*
X80160800Y-143983800D02*
X80160800Y-120172800D01*
X80962000Y-144785000D02*
X80160800Y-143983800D01*
X81696200Y-144785000D02*
X80962000Y-144785000D01*
X82477900Y-145566700D02*
X81696200Y-144785000D01*
X82477900Y-154196900D02*
X82477900Y-145566700D01*
X81586700Y-155088100D02*
X82477900Y-154196900D01*
X81305000Y-155088100D02*
X81586700Y-155088100D01*
%TO.N,~{RD}*%
X137160000Y-140985000D02*
X137160000Y-139858100D01*
X140970000Y-101580000D02*
X140970000Y-99040000D01*
X81305000Y-158755000D02*
X82431900Y-158755000D01*
X137391400Y-139858100D02*
X137160000Y-139858100D01*
X142114500Y-135135000D02*
X137391400Y-139858100D01*
X142114500Y-102724500D02*
X142114500Y-135135000D01*
X140970000Y-101580000D02*
X142114500Y-102724500D01*
X88771900Y-152415000D02*
X82431900Y-158755000D01*
X98554900Y-152415000D02*
X88771900Y-152415000D01*
X106212900Y-144757000D02*
X98554900Y-152415000D01*
X109635800Y-144757000D02*
X106212900Y-144757000D01*
X110367000Y-144025800D02*
X109635800Y-144757000D01*
X110367000Y-142132000D02*
X110367000Y-144025800D01*
X109220000Y-140985000D02*
X110367000Y-142132000D01*
%TO.N,~{IORQ}*%
X58301900Y-157485000D02*
X57031900Y-158755000D01*
X81661900Y-157485000D02*
X58301900Y-157485000D01*
X92786100Y-146360800D02*
X81661900Y-157485000D01*
X92786100Y-130379400D02*
X92786100Y-146360800D01*
X93473400Y-129692100D02*
X92786100Y-130379400D01*
X94229500Y-129692100D02*
X93473400Y-129692100D01*
X96622700Y-127298900D02*
X94229500Y-129692100D01*
X96622700Y-124006300D02*
X96622700Y-127298900D01*
X107579000Y-113050000D02*
X96622700Y-124006300D01*
X108326900Y-113050000D02*
X107579000Y-113050000D01*
X109119100Y-112257800D02*
X108326900Y-113050000D01*
X109119100Y-108714300D02*
X109119100Y-112257800D01*
X108231700Y-107826900D02*
X109119100Y-108714300D01*
X107950000Y-107826900D02*
X108231700Y-107826900D01*
X107950000Y-106700000D02*
X107950000Y-107826900D01*
X55905000Y-158755000D02*
X57031900Y-158755000D01*
%TO.N,~{MREQ}*%
X157480000Y-101580000D02*
X156353100Y-101580000D01*
X156353100Y-102563800D02*
X156353100Y-101580000D01*
X149716900Y-109200000D02*
X156353100Y-102563800D01*
X149153500Y-109200000D02*
X149716900Y-109200000D01*
X149153500Y-109200000D02*
X148590000Y-109200000D01*
X147472300Y-150144600D02*
X139609800Y-158007100D01*
X147472300Y-117163700D02*
X147472300Y-150144600D01*
X149734300Y-114901700D02*
X147472300Y-117163700D01*
X149734300Y-113811300D02*
X149734300Y-114901700D01*
X148933000Y-113010000D02*
X149734300Y-113811300D01*
X148198800Y-113010000D02*
X148933000Y-113010000D01*
X147463100Y-112274300D02*
X148198800Y-113010000D01*
X147463100Y-111172000D02*
X147463100Y-112274300D01*
X148308200Y-110326900D02*
X147463100Y-111172000D01*
X148590000Y-110326900D02*
X148308200Y-110326900D01*
X148590000Y-109200000D02*
X148590000Y-110326900D01*
%TO.N,/A15*%
X157480000Y-99040000D02*
X157480000Y-100166900D01*
X157480000Y-109200000D02*
X157480000Y-106660000D01*
X157761800Y-100166900D02*
X157480000Y-100166900D01*
X158606900Y-101012000D02*
X157761800Y-100166900D01*
X158606900Y-105533100D02*
X158606900Y-101012000D01*
X157480000Y-106660000D02*
X158606900Y-105533100D01*
%TO.N,/A12*%
X93980000Y-128285000D02*
X93980000Y-127158100D01*
X94694500Y-127158100D02*
X93980000Y-127158100D01*
X95394600Y-126458000D02*
X94694500Y-127158100D01*
X95394600Y-123257000D02*
X95394600Y-126458000D01*
X100773300Y-117878300D02*
X95394600Y-123257000D01*
%TO.N,/A11*%
X109220000Y-138445000D02*
X109220000Y-137318100D01*
X100904300Y-129235900D02*
X100904300Y-124505400D01*
X108986500Y-137318100D02*
X100904300Y-129235900D01*
X109220000Y-137318100D02*
X108986500Y-137318100D01*
%TO.N,/D7*%
X116840000Y-68580000D02*
X116840000Y-76200000D01*
X132080000Y-99060000D02*
X132080000Y-100186900D01*
X132274400Y-100186900D02*
X132080000Y-100186900D01*
X133658800Y-101571300D02*
X132274400Y-100186900D01*
X133658800Y-109867100D02*
X133658800Y-101571300D01*
X136033100Y-112241400D02*
X133658800Y-109867100D01*
X136033100Y-146633000D02*
X136033100Y-112241400D01*
X136878200Y-147478100D02*
X136033100Y-146633000D01*
X137160000Y-147478100D02*
X136878200Y-147478100D01*
X137160000Y-148605000D02*
X137160000Y-147478100D01*
X101743100Y-154955000D02*
X108093100Y-148605000D01*
X91782400Y-154955000D02*
X101743100Y-154955000D01*
X86855500Y-159881900D02*
X91782400Y-154955000D01*
X55430500Y-159881900D02*
X86855500Y-159881900D01*
X54741600Y-159193000D02*
X55430500Y-159881900D01*
X54741600Y-153168700D02*
X54741600Y-159193000D01*
X55505300Y-152405000D02*
X54741600Y-153168700D01*
X56231000Y-152405000D02*
X55505300Y-152405000D01*
X57069400Y-151566600D02*
X56231000Y-152405000D01*
X57069400Y-142984600D02*
X57069400Y-151566600D01*
X56186700Y-142101900D02*
X57069400Y-142984600D01*
X55905000Y-142101900D02*
X56186700Y-142101900D01*
X55905000Y-140975000D02*
X55905000Y-142101900D01*
X109220000Y-148605000D02*
X108093100Y-148605000D01*
X115649400Y-78517500D02*
X116840000Y-77326900D01*
X115649400Y-90382000D02*
X115649400Y-78517500D01*
X123069700Y-97802300D02*
X115649400Y-90382000D01*
X116840000Y-76200000D02*
X116840000Y-77326900D01*
%TO.N,/D6*%
X119380000Y-68580000D02*
X119380000Y-76200000D01*
X136926500Y-150018100D02*
X137160000Y-150018100D01*
X134686700Y-147778300D02*
X136926500Y-150018100D01*
X134686700Y-111585600D02*
X134686700Y-147778300D01*
X133206900Y-110105800D02*
X134686700Y-111585600D01*
X133206900Y-106112000D02*
X133206900Y-110105800D01*
X132361800Y-105266900D02*
X133206900Y-106112000D01*
X132080000Y-105266900D02*
X132361800Y-105266900D01*
X132080000Y-104140000D02*
X132080000Y-105266900D01*
X137160000Y-151145000D02*
X137160000Y-150018100D01*
X132080000Y-104140000D02*
X132080000Y-103013100D01*
X133374900Y-84986900D02*
X133374900Y-80109200D01*
X129932400Y-88429400D02*
X133374900Y-84986900D01*
X129932400Y-101099000D02*
X129932400Y-88429400D01*
X131846500Y-103013100D02*
X129932400Y-101099000D01*
X132080000Y-103013100D02*
X131846500Y-103013100D01*
%TO.N,/D5*%
X126578200Y-75073100D02*
X127000000Y-75073100D01*
X121920000Y-70414900D02*
X126578200Y-75073100D01*
X121920000Y-68580000D02*
X121920000Y-70414900D01*
X127000000Y-75636500D02*
X127000000Y-75073100D01*
X127000000Y-75636500D02*
X127000000Y-76200000D01*
X55905000Y-130815000D02*
X55905000Y-131941900D01*
X109220000Y-153685000D02*
X109220000Y-154811900D01*
X123754900Y-66745100D02*
X121920000Y-68580000D01*
X130001100Y-66745100D02*
X123754900Y-66745100D01*
X130810000Y-67554000D02*
X130001100Y-66745100D01*
X130810000Y-69905500D02*
X130810000Y-67554000D01*
X136177200Y-75272700D02*
X130810000Y-69905500D01*
X136177200Y-107605500D02*
X136177200Y-75272700D01*
X55623300Y-131941900D02*
X55905000Y-131941900D01*
X54251800Y-133313400D02*
X55623300Y-131941900D01*
X54251800Y-159352200D02*
X54251800Y-133313400D01*
X55255600Y-160356000D02*
X54251800Y-159352200D01*
X102803500Y-160356000D02*
X55255600Y-160356000D01*
X108347600Y-154811900D02*
X102803500Y-160356000D01*
X109220000Y-154811900D02*
X108347600Y-154811900D01*
X132293900Y-110346900D02*
X132080000Y-110346900D01*
X133880200Y-111933200D02*
X132293900Y-110346900D01*
X133880200Y-149560000D02*
X133880200Y-111933200D01*
X136878300Y-152558100D02*
X133880200Y-149560000D01*
X137160000Y-152558100D02*
X136878300Y-152558100D01*
X137160000Y-153685000D02*
X137160000Y-152558100D01*
X132080000Y-109220000D02*
X132080000Y-110346900D01*
%TO.N,/D4*%
X137160000Y-156225000D02*
X137160000Y-155098100D01*
X124881800Y-70414900D02*
X129540000Y-75073100D01*
X124460000Y-70414900D02*
X124881800Y-70414900D01*
X124460000Y-68580000D02*
X124460000Y-70414900D01*
X129540000Y-75652600D02*
X129540000Y-75073100D01*
X132080000Y-114300000D02*
X132080000Y-115426900D01*
X103510200Y-160807900D02*
X108093100Y-156225000D01*
X54991100Y-160807900D02*
X103510200Y-160807900D01*
X53753000Y-159569800D02*
X54991100Y-160807900D01*
X53753000Y-128732200D02*
X53753000Y-159569800D01*
X55623300Y-126861900D02*
X53753000Y-128732200D01*
X55905000Y-126861900D02*
X55623300Y-126861900D01*
X55905000Y-125735000D02*
X55905000Y-126861900D01*
X109220000Y-156225000D02*
X108093100Y-156225000D01*
X132080000Y-150251600D02*
X132080000Y-115426900D01*
X136926500Y-155098100D02*
X132080000Y-150251600D01*
X137160000Y-155098100D02*
X136926500Y-155098100D01*
X129540000Y-75652600D02*
X129540000Y-76200000D01*
X128315900Y-109960600D02*
X127883300Y-110393200D01*
X128315900Y-77424000D02*
X128315900Y-109960600D01*
X128316000Y-77424000D02*
X128315900Y-77424000D01*
X129540000Y-76200000D02*
X128316000Y-77424000D01*
%TO.N,/D3*%
X127000000Y-68580000D02*
X127000000Y-70414900D01*
X137723500Y-158765000D02*
X138286900Y-158765000D01*
X157480000Y-147320000D02*
X156353100Y-147320000D01*
X129540000Y-83820000D02*
X129540000Y-82693100D01*
X144908100Y-158765000D02*
X138286900Y-158765000D01*
X156353100Y-147320000D02*
X144908100Y-158765000D01*
X129540000Y-82529800D02*
X129540000Y-82693100D01*
X130729000Y-81340800D02*
X129540000Y-82529800D01*
X130729000Y-74143900D02*
X130729000Y-81340800D01*
X127000000Y-70414900D02*
X130729000Y-74143900D01*
X137723500Y-158765000D02*
X137160000Y-158765000D01*
X137160000Y-158765000D02*
X137160000Y-157638100D01*
X124460000Y-109220000D02*
X124460000Y-110346900D01*
X129540000Y-83820000D02*
X129540000Y-84946900D01*
X128767800Y-85719100D02*
X129540000Y-84946900D01*
X128767800Y-110592500D02*
X128767800Y-85719100D01*
X126853500Y-112506800D02*
X128767800Y-110592500D01*
X126959700Y-112613100D02*
X126853500Y-112506800D01*
X126959700Y-147719500D02*
X126959700Y-112613100D01*
X136878300Y-157638100D02*
X126959700Y-147719500D01*
X137160000Y-157638100D02*
X136878300Y-157638100D01*
X124693500Y-110346900D02*
X124460000Y-110346900D01*
X126853500Y-112506800D02*
X124693500Y-110346900D01*
%TO.N,/D2*%
X157480000Y-142240000D02*
X157480000Y-143366900D01*
X124226500Y-105266900D02*
X124460000Y-105266900D01*
X123287400Y-106206000D02*
X124226500Y-105266900D01*
X123287400Y-115621400D02*
X123287400Y-106206000D01*
X124968400Y-117302400D02*
X123287400Y-115621400D01*
X124968400Y-152331500D02*
X124968400Y-117302400D01*
X122201800Y-155098100D02*
X124968400Y-152331500D01*
X121920000Y-155098100D02*
X122201800Y-155098100D01*
X121920000Y-156225000D02*
X121920000Y-155098100D01*
X124460000Y-104140000D02*
X124460000Y-105266900D01*
X127050300Y-84997200D02*
X127000000Y-84946900D01*
X127050300Y-105036000D02*
X127050300Y-84997200D01*
X127000000Y-83820000D02*
X127000000Y-84946900D01*
X129540000Y-71020500D02*
X129540000Y-68580000D01*
X133242400Y-74722900D02*
X129540000Y-71020500D01*
X133242400Y-77770400D02*
X133242400Y-74722900D01*
X131627900Y-79384900D02*
X133242400Y-77770400D01*
X131627900Y-81515400D02*
X131627900Y-79384900D01*
X130597600Y-82545700D02*
X131627900Y-81515400D01*
X158405500Y-143366900D02*
X157480000Y-143366900D01*
X162594800Y-147556200D02*
X158405500Y-143366900D01*
X162594800Y-148896800D02*
X162594800Y-147556200D01*
X150619800Y-160871800D02*
X162594800Y-148896800D01*
X122385000Y-160871800D02*
X150619800Y-160871800D01*
X120772200Y-159259000D02*
X122385000Y-160871800D01*
X120772200Y-157372800D02*
X120772200Y-159259000D01*
X121920000Y-156225000D02*
X120772200Y-157372800D01*
%TO.N,/D1*%
X124460000Y-99060000D02*
X124460000Y-97933100D01*
X119380000Y-93084600D02*
X119380000Y-84946900D01*
X124228500Y-97933100D02*
X119380000Y-93084600D01*
X124460000Y-97933100D02*
X124228500Y-97933100D01*
X119380000Y-83820000D02*
X119380000Y-84946900D01*
X157480000Y-137160000D02*
X158606900Y-137160000D01*
X163046700Y-141599800D02*
X158606900Y-137160000D01*
X163046700Y-149180000D02*
X163046700Y-141599800D01*
X150887500Y-161339200D02*
X163046700Y-149180000D01*
X122208300Y-161339200D02*
X150887500Y-161339200D01*
X120283400Y-159414300D02*
X122208300Y-161339200D01*
X120283400Y-155321600D02*
X120283400Y-159414300D01*
X121920000Y-153685000D02*
X120283400Y-155321600D01*
%TO.N,/D0*%
X116840000Y-83820000D02*
X117966900Y-83820000D01*
X117966900Y-83586500D02*
X117966900Y-83820000D01*
X118878900Y-82674500D02*
X117966900Y-83586500D01*
X119866200Y-82674500D02*
X118878900Y-82674500D01*
X134620000Y-68580000D02*
X134620000Y-66745100D01*
X120650000Y-83458300D02*
X119866200Y-82674500D01*
X120650000Y-89747400D02*
X120650000Y-83458300D01*
X123755700Y-92853100D02*
X120650000Y-89747400D01*
X124460000Y-92853100D02*
X123755700Y-92853100D01*
X124460000Y-93980000D02*
X124460000Y-92853100D01*
X121920000Y-151145000D02*
X121920000Y-150018100D01*
X124460000Y-93980000D02*
X124460000Y-95106900D01*
X120793100Y-81747600D02*
X119866200Y-82674500D01*
X120793100Y-67409700D02*
X120793100Y-81747600D01*
X121909600Y-66293200D02*
X120793100Y-67409700D01*
X134168100Y-66293200D02*
X121909600Y-66293200D01*
X134620000Y-66745100D02*
X134168100Y-66293200D01*
X123789500Y-117433300D02*
X123789500Y-131202400D01*
X122343000Y-115986800D02*
X123789500Y-117433300D01*
X122343000Y-102075600D02*
X122343000Y-115986800D01*
X124088600Y-100330000D02*
X122343000Y-102075600D01*
X124819300Y-100330000D02*
X124088600Y-100330000D01*
X125606300Y-99543000D02*
X124819300Y-100330000D01*
X125606300Y-96019700D02*
X125606300Y-99543000D01*
X124693500Y-95106900D02*
X125606300Y-96019700D01*
X124460000Y-95106900D02*
X124693500Y-95106900D01*
X121638300Y-150018100D02*
X121920000Y-150018100D01*
X120769100Y-149148900D02*
X121638300Y-150018100D01*
X120769100Y-145559200D02*
X120769100Y-149148900D01*
X121533300Y-144795000D02*
X120769100Y-145559200D01*
X122289300Y-144795000D02*
X121533300Y-144795000D01*
X123789500Y-143294800D02*
X122289300Y-144795000D01*
X123789500Y-131202400D02*
X123789500Y-143294800D01*
%TO.N,Net-(DIS1-PadP$6)*%
X140736500Y-110613100D02*
X140970000Y-110613100D01*
X137160000Y-107036600D02*
X140736500Y-110613100D01*
X137160000Y-68580000D02*
X137160000Y-107036600D01*
X140970000Y-111740000D02*
X140970000Y-110613100D01*
%TO.N,Net-(DIS1-PadP$5)*%
X140970000Y-104120000D02*
X140970000Y-102993100D01*
X139700000Y-101954400D02*
X139700000Y-68580000D01*
X140738700Y-102993100D02*
X139700000Y-101954400D01*
X140970000Y-102993100D02*
X140738700Y-102993100D01*
%TO.N,/A0*%
X121920000Y-148605000D02*
X121920000Y-147478100D01*
X122201600Y-147478100D02*
X121920000Y-147478100D01*
X124516400Y-145163300D02*
X122201600Y-147478100D01*
X124516400Y-117521000D02*
X124516400Y-145163300D01*
X122816300Y-115820900D02*
X124516400Y-117521000D01*
X122816300Y-104149400D02*
X122816300Y-115820900D01*
X124095700Y-102870000D02*
X122816300Y-104149400D01*
X124840500Y-102870000D02*
X124095700Y-102870000D01*
X126070600Y-101639900D02*
X124840500Y-102870000D01*
X126070600Y-89119700D02*
X126070600Y-101639900D01*
X123266800Y-86315900D02*
X126070600Y-89119700D01*
X123266800Y-81733400D02*
X123266800Y-86315900D01*
X128270000Y-76730200D02*
X123266800Y-81733400D01*
X128270000Y-75229800D02*
X128270000Y-76730200D01*
%TO.N,Net-(DIS1-PadP$3)*%
X154900000Y-79570700D02*
X154900000Y-81240000D01*
X145744200Y-70414900D02*
X154900000Y-79570700D01*
X144780000Y-70414900D02*
X145744200Y-70414900D01*
X144780000Y-68580000D02*
X144780000Y-70414900D01*
%TO.N,+5V*%
X115570000Y-96540000D02*
X115570000Y-95413100D01*
X81305000Y-148595000D02*
X81305000Y-151135000D01*
X55905000Y-151135000D02*
X55905000Y-148595000D01*
X55905000Y-148595000D02*
X55905000Y-147468100D01*
X55905000Y-135895000D02*
X55905000Y-136458400D01*
X55905000Y-136458400D02*
X55905000Y-137021900D01*
X57031900Y-92828100D02*
X60960000Y-88900000D01*
X57031900Y-135331500D02*
X57031900Y-92828100D01*
X55905000Y-136458400D02*
X57031900Y-135331500D01*
X55880000Y-50800000D02*
X55880000Y-38100000D01*
X60960000Y-57106900D02*
X60960000Y-88900000D01*
X55880000Y-52026900D02*
X60960000Y-57106900D01*
X55880000Y-50800000D02*
X55880000Y-52026900D01*
X166237000Y-127276100D02*
X165100000Y-128413100D01*
X166237000Y-101022200D02*
X166237000Y-127276100D01*
X165381700Y-100166900D02*
X166237000Y-101022200D01*
X165100000Y-100166900D02*
X165381700Y-100166900D01*
X165100000Y-99040000D02*
X165100000Y-100166900D01*
X165100000Y-129540000D02*
X165100000Y-128413100D01*
X55671500Y-137021900D02*
X55905000Y-137021900D01*
X54755600Y-137937800D02*
X55671500Y-137021900D01*
X54755600Y-146600400D02*
X54755600Y-137937800D01*
X55623300Y-147468100D02*
X54755600Y-146600400D01*
X55905000Y-147468100D02*
X55623300Y-147468100D01*
X111760000Y-76763400D02*
X111760000Y-77326900D01*
X111760000Y-76763400D02*
X111760000Y-76200000D01*
X111760000Y-72954900D02*
X114300000Y-70414900D01*
X111760000Y-76200000D02*
X111760000Y-72954900D01*
X114300000Y-68580000D02*
X114300000Y-70414900D01*
X111760000Y-78740000D02*
X100560000Y-78740000D01*
X111760000Y-83820000D02*
X111760000Y-78740000D01*
X111760000Y-78740000D02*
X111760000Y-77326900D01*
X99060000Y-99040000D02*
X100186900Y-99040000D01*
X111760000Y-92423000D02*
X111760000Y-83820000D01*
X112579900Y-92423000D02*
X111760000Y-92423000D01*
X115570000Y-95413100D02*
X112579900Y-92423000D01*
X106803900Y-92423000D02*
X100186900Y-99040000D01*
X111760000Y-92423000D02*
X106803900Y-92423000D01*
X109220000Y-125745000D02*
X109220000Y-128285000D01*
X110346900Y-125528300D02*
X113279500Y-122595700D01*
X110346900Y-125745000D02*
X110346900Y-125528300D01*
X109220000Y-125745000D02*
X110346900Y-125745000D01*
X148590000Y-82504300D02*
X148590000Y-99040000D01*
X152354300Y-78740000D02*
X148590000Y-82504300D01*
X152400000Y-78740000D02*
X152354300Y-78740000D01*
%TO.N,Z80_PWRCAP*%
X53340000Y-35560000D02*
X53340000Y-40640000D01*
X58420000Y-35560000D02*
X58420000Y-38100000D01*
X58420000Y-38100000D02*
X58420000Y-40640000D01*
X63500000Y-43180000D02*
X63500000Y-50800000D01*
X58420000Y-38100000D02*
X63500000Y-43180000D01*
X178430000Y-152762900D02*
X178430000Y-157480000D01*
X178430000Y-148045700D02*
X178430000Y-152762900D01*
X178430000Y-124460000D02*
X178430000Y-129177100D01*
X178430000Y-129177100D02*
X178430000Y-133894300D01*
X178430000Y-138611400D02*
X178430000Y-133894300D01*
X178430000Y-143328600D02*
X178430000Y-138611400D01*
X140970000Y-114280000D02*
X140970000Y-113153100D01*
X81538500Y-137308100D02*
X81305000Y-137308100D01*
X91440000Y-127406600D02*
X81538500Y-137308100D01*
X91440000Y-115406900D02*
X91440000Y-127406600D01*
X91440000Y-114280000D02*
X91440000Y-115406900D01*
X81305000Y-138435000D02*
X81305000Y-137308100D01*
X135014500Y-85341400D02*
X134620000Y-84946900D01*
X135014500Y-107474700D02*
X135014500Y-85341400D01*
X140692900Y-113153100D02*
X135014500Y-107474700D01*
X140970000Y-113153100D02*
X140692900Y-113153100D01*
X134620000Y-83820000D02*
X134620000Y-84946900D01*
X91900000Y-80820000D02*
X76200000Y-96520000D01*
X91900000Y-78740000D02*
X91900000Y-80820000D01*
X124460000Y-114300000D02*
X124460000Y-115426900D01*
X121920000Y-158765000D02*
X121920000Y-157638100D01*
X157480000Y-152400000D02*
X156353100Y-152400000D01*
X122153500Y-157638100D02*
X126054200Y-153737400D01*
X121920000Y-157638100D02*
X122153500Y-157638100D01*
X132716700Y-160399900D02*
X126054200Y-153737400D01*
X148353200Y-160399900D02*
X132716700Y-160399900D01*
X156353100Y-152400000D02*
X148353200Y-160399900D01*
X126054200Y-117021100D02*
X126054200Y-153737400D01*
X124460000Y-115426900D02*
X126054200Y-117021100D01*
X154018500Y-83740000D02*
X152400000Y-83740000D01*
X156040300Y-81718200D02*
X154018500Y-83740000D01*
X156040300Y-76595200D02*
X156040300Y-81718200D01*
X149860000Y-70414900D02*
X156040300Y-76595200D01*
X149860000Y-68580000D02*
X149860000Y-70414900D01*
X156147700Y-114485400D02*
X156353100Y-114280000D01*
X151636000Y-114485400D02*
X156147700Y-114485400D01*
X157480000Y-114280000D02*
X156353100Y-114280000D01*
%TD*%
M02*
