%TF.GenerationSoftware,KiCad,Pcbnew,7.0.8*%
%TF.CreationDate,2023-11-04T10:57:41+00:00*%
%TF.ProjectId,Z80Computer,5a383043-6f6d-4707-9574-65722e6b6963,rev?*%
%TF.SameCoordinates,Original*%
%TF.FileFunction,Soldermask,Bot*%
%TF.FilePolarity,Negative*%
%FSLAX46Y46*%
G04 Gerber Fmt 4.6, Leading zero omitted, Abs format (unit mm)*
G04 Created by KiCad (PCBNEW 7.0.8) date 2023-11-04 10:57:41*
%MOMM*%
%LPD*%
G01*
G04 APERTURE LIST*
G04 Aperture macros list*
%AMRoundRect*
0 Rectangle with rounded corners*
0 $1 Rounding radius*
0 $2 $3 $4 $5 $6 $7 $8 $9 X,Y pos of 4 corners*
0 Add a 4 corners polygon primitive as box body*
4,1,4,$2,$3,$4,$5,$6,$7,$8,$9,$2,$3,0*
0 Add four circle primitives for the rounded corners*
1,1,$1+$1,$2,$3*
1,1,$1+$1,$4,$5*
1,1,$1+$1,$6,$7*
1,1,$1+$1,$8,$9*
0 Add four rect primitives between the rounded corners*
20,1,$1+$1,$2,$3,$4,$5,0*
20,1,$1+$1,$4,$5,$6,$7,0*
20,1,$1+$1,$6,$7,$8,$9,0*
20,1,$1+$1,$8,$9,$2,$3,0*%
G04 Aperture macros list end*
%ADD10R,1.600000X1.600000*%
%ADD11O,1.600000X1.600000*%
%ADD12C,1.620000*%
%ADD13C,1.400000*%
%ADD14O,1.400000X1.400000*%
%ADD15C,6.204000*%
%ADD16O,1.712000X3.220000*%
%ADD17RoundRect,0.200100X-0.949900X-0.949900X0.949900X-0.949900X0.949900X0.949900X-0.949900X0.949900X0*%
%ADD18C,2.500000*%
%ADD19C,1.778000*%
%ADD20C,1.600000*%
%ADD21RoundRect,0.250000X0.725000X-0.600000X0.725000X0.600000X-0.725000X0.600000X-0.725000X-0.600000X0*%
%ADD22O,1.950000X1.700000*%
%ADD23R,1.200000X1.200000*%
%ADD24C,1.200000*%
%ADD25R,1.800000X1.800000*%
%ADD26C,1.800000*%
%ADD27RoundRect,0.250000X-0.725000X0.600000X-0.725000X-0.600000X0.725000X-0.600000X0.725000X0.600000X0*%
G04 APERTURE END LIST*
D10*
%TO.C,IC1*%
X55905000Y-110495000D03*
D11*
X55905000Y-113035000D03*
X55905000Y-115575000D03*
X55905000Y-118115000D03*
X55905000Y-120655000D03*
X55905000Y-123195000D03*
X55905000Y-125735000D03*
X55905000Y-128275000D03*
X55905000Y-130815000D03*
X55905000Y-133355000D03*
X55905000Y-135895000D03*
X55905000Y-138435000D03*
X55905000Y-140975000D03*
X55905000Y-143515000D03*
X55905000Y-146055000D03*
X55905000Y-148595000D03*
X55905000Y-151135000D03*
X55905000Y-153675000D03*
X55905000Y-156215000D03*
X55905000Y-158755000D03*
X71145000Y-158755000D03*
X71145000Y-156215000D03*
X71145000Y-153675000D03*
X71145000Y-151135000D03*
X71145000Y-148595000D03*
X71145000Y-146055000D03*
X71145000Y-143515000D03*
X71145000Y-140975000D03*
X71145000Y-138435000D03*
X71145000Y-135895000D03*
X71145000Y-133355000D03*
X71145000Y-130815000D03*
X71145000Y-128275000D03*
X71145000Y-125735000D03*
X71145000Y-123195000D03*
X71145000Y-120655000D03*
X71145000Y-118115000D03*
X71145000Y-115575000D03*
X71145000Y-113035000D03*
X71145000Y-110495000D03*
%TD*%
D10*
%TO.C,U7*%
X157480000Y-99040000D03*
D11*
X157480000Y-101580000D03*
X157480000Y-104120000D03*
X157480000Y-106660000D03*
X157480000Y-109200000D03*
X157480000Y-111740000D03*
X157480000Y-114280000D03*
X165100000Y-114280000D03*
X165100000Y-111740000D03*
X165100000Y-109200000D03*
X165100000Y-106660000D03*
X165100000Y-104120000D03*
X165100000Y-101580000D03*
X165100000Y-99040000D03*
%TD*%
D10*
%TO.C,IC2_EEPROM1*%
X93980000Y-125745000D03*
D11*
X93980000Y-128285000D03*
X93980000Y-130825000D03*
X93980000Y-133365000D03*
X93980000Y-135905000D03*
X93980000Y-138445000D03*
X93980000Y-140985000D03*
X93980000Y-143525000D03*
X93980000Y-146065000D03*
X93980000Y-148605000D03*
X93980000Y-151145000D03*
X93980000Y-153685000D03*
X93980000Y-156225000D03*
X93980000Y-158765000D03*
X109220000Y-158765000D03*
X109220000Y-156225000D03*
X109220000Y-153685000D03*
X109220000Y-151145000D03*
X109220000Y-148605000D03*
X109220000Y-146065000D03*
X109220000Y-143525000D03*
X109220000Y-140985000D03*
X109220000Y-138445000D03*
X109220000Y-135905000D03*
X109220000Y-133365000D03*
X109220000Y-130825000D03*
X109220000Y-128285000D03*
X109220000Y-125745000D03*
%TD*%
D12*
%TO.C,RV1*%
X152400000Y-78740000D03*
X154900000Y-81240000D03*
X152400000Y-83740000D03*
%TD*%
D13*
%TO.C,R2*%
X176530000Y-157480000D03*
D14*
X178430000Y-157480000D03*
%TD*%
D10*
%TO.C,U3*%
X111760000Y-83820000D03*
D11*
X114300000Y-83820000D03*
X116840000Y-83820000D03*
X119380000Y-83820000D03*
X121920000Y-83820000D03*
X124460000Y-83820000D03*
X127000000Y-83820000D03*
X129540000Y-83820000D03*
X132080000Y-83820000D03*
X134620000Y-83820000D03*
X134620000Y-76200000D03*
X132080000Y-76200000D03*
X129540000Y-76200000D03*
X127000000Y-76200000D03*
X124460000Y-76200000D03*
X121920000Y-76200000D03*
X119380000Y-76200000D03*
X116840000Y-76200000D03*
X114300000Y-76200000D03*
X111760000Y-76200000D03*
%TD*%
D15*
%TO.C,DIS1*%
X155360000Y-68380000D03*
X80360000Y-68480000D03*
X155360000Y-37380000D03*
X80360000Y-37380000D03*
D16*
X149860000Y-68580000D03*
X147320000Y-68580000D03*
X144780000Y-68580000D03*
X142240000Y-68580000D03*
X139700000Y-68580000D03*
X137160000Y-68580000D03*
X134620000Y-68580000D03*
X132080000Y-68580000D03*
X129540000Y-68580000D03*
X127000000Y-68580000D03*
X124460000Y-68580000D03*
X121920000Y-68580000D03*
X119380000Y-68580000D03*
X116840000Y-68580000D03*
X114300000Y-68580000D03*
X111760000Y-68580000D03*
%TD*%
D13*
%TO.C,R7*%
X176530000Y-133894300D03*
D14*
X178430000Y-133894300D03*
%TD*%
D17*
%TO.C,J1*%
X55880000Y-38100000D03*
D18*
X53340000Y-35560000D03*
X53340000Y-40640000D03*
X58420000Y-35560000D03*
X58420000Y-40640000D03*
%TD*%
D13*
%TO.C,R5*%
X176530000Y-143328600D03*
D14*
X178430000Y-143328600D03*
%TD*%
D19*
%TO.C,SW1*%
X63500000Y-64770000D03*
X68580000Y-64770000D03*
X68580000Y-72390000D03*
X66040000Y-72390000D03*
X63500000Y-72390000D03*
%TD*%
D10*
%TO.C,X1*%
X60960000Y-96520000D03*
D20*
X76200000Y-96520000D03*
X76200000Y-88900000D03*
X60960000Y-88900000D03*
%TD*%
D13*
%TO.C,R1*%
X66680000Y-40640000D03*
D14*
X68580000Y-40640000D03*
%TD*%
D13*
%TO.C,R6*%
X176530000Y-138611400D03*
D14*
X178430000Y-138611400D03*
%TD*%
D10*
%TO.C,D1*%
X176530000Y-81280000D03*
D11*
X184150000Y-81280000D03*
%TD*%
D21*
%TO.C,J3*%
X193040000Y-108980000D03*
D22*
X193040000Y-106480000D03*
X193040000Y-103980000D03*
X193040000Y-101480000D03*
X193040000Y-98980000D03*
X193040000Y-96480000D03*
X193040000Y-93980000D03*
X193040000Y-91480000D03*
%TD*%
D10*
%TO.C,U2*%
X91440000Y-99040000D03*
D11*
X91440000Y-101580000D03*
X91440000Y-104120000D03*
X91440000Y-106660000D03*
X91440000Y-109200000D03*
X91440000Y-111740000D03*
X91440000Y-114280000D03*
X99060000Y-114280000D03*
X99060000Y-111740000D03*
X99060000Y-109200000D03*
X99060000Y-106660000D03*
X99060000Y-104120000D03*
X99060000Y-101580000D03*
X99060000Y-99040000D03*
%TD*%
D13*
%TO.C,R8*%
X176530000Y-129177100D03*
D14*
X178430000Y-129177100D03*
%TD*%
D13*
%TO.C,R3*%
X176530000Y-148045700D03*
D14*
X178430000Y-148045700D03*
%TD*%
D10*
%TO.C,D6*%
X184150000Y-106680000D03*
D11*
X176530000Y-106680000D03*
%TD*%
D10*
%TO.C,U5*%
X140970000Y-99040000D03*
D11*
X140970000Y-101580000D03*
X140970000Y-104120000D03*
X140970000Y-106660000D03*
X140970000Y-109200000D03*
X140970000Y-111740000D03*
X140970000Y-114280000D03*
X148590000Y-114280000D03*
X148590000Y-111740000D03*
X148590000Y-109200000D03*
X148590000Y-106660000D03*
X148590000Y-104120000D03*
X148590000Y-101580000D03*
X148590000Y-99040000D03*
%TD*%
D13*
%TO.C,R4*%
X176530000Y-152762900D03*
D14*
X178430000Y-152762900D03*
%TD*%
D13*
%TO.C,R9*%
X176530000Y-124460000D03*
D14*
X178430000Y-124460000D03*
%TD*%
D23*
%TO.C,C2*%
X99060000Y-78740000D03*
D24*
X100560000Y-78740000D03*
%TD*%
D10*
%TO.C,D4*%
X184150000Y-96520000D03*
D11*
X176530000Y-96520000D03*
%TD*%
D13*
%TO.C,R10*%
X61600000Y-50800000D03*
D14*
X63500000Y-50800000D03*
%TD*%
D25*
%TO.C,D9*%
X55880000Y-50800000D03*
D26*
X53340000Y-50800000D03*
%TD*%
D10*
%TO.C,D5*%
X184150000Y-101600000D03*
D11*
X176530000Y-101600000D03*
%TD*%
D10*
%TO.C,IC6_SRAM1*%
X121920000Y-125745000D03*
D11*
X121920000Y-128285000D03*
X121920000Y-130825000D03*
X121920000Y-133365000D03*
X121920000Y-135905000D03*
X121920000Y-138445000D03*
X121920000Y-140985000D03*
X121920000Y-143525000D03*
X121920000Y-146065000D03*
X121920000Y-148605000D03*
X121920000Y-151145000D03*
X121920000Y-153685000D03*
X121920000Y-156225000D03*
X121920000Y-158765000D03*
X137160000Y-158765000D03*
X137160000Y-156225000D03*
X137160000Y-153685000D03*
X137160000Y-151145000D03*
X137160000Y-148605000D03*
X137160000Y-146065000D03*
X137160000Y-143525000D03*
X137160000Y-140985000D03*
X137160000Y-138445000D03*
X137160000Y-135905000D03*
X137160000Y-133365000D03*
X137160000Y-130825000D03*
X137160000Y-128285000D03*
X137160000Y-125745000D03*
%TD*%
D10*
%TO.C,U1*%
X124460000Y-91440000D03*
D11*
X124460000Y-93980000D03*
X124460000Y-96520000D03*
X124460000Y-99060000D03*
X124460000Y-101600000D03*
X124460000Y-104140000D03*
X124460000Y-106680000D03*
X124460000Y-109220000D03*
X124460000Y-111760000D03*
X124460000Y-114300000D03*
X132080000Y-114300000D03*
X132080000Y-111760000D03*
X132080000Y-109220000D03*
X132080000Y-106680000D03*
X132080000Y-104140000D03*
X132080000Y-101600000D03*
X132080000Y-99060000D03*
X132080000Y-96520000D03*
X132080000Y-93980000D03*
X132080000Y-91440000D03*
%TD*%
D10*
%TO.C,D3*%
X184150000Y-91440000D03*
D11*
X176530000Y-91440000D03*
%TD*%
D23*
%TO.C,C1*%
X90400000Y-78740000D03*
D24*
X91900000Y-78740000D03*
%TD*%
D27*
%TO.C,J2*%
X193640000Y-132080000D03*
D22*
X193640000Y-134580000D03*
X193640000Y-137080000D03*
X193640000Y-139580000D03*
X193640000Y-142080000D03*
X193640000Y-144580000D03*
X193640000Y-147080000D03*
X193640000Y-149580000D03*
%TD*%
D10*
%TO.C,U6*%
X157480000Y-129540000D03*
D11*
X157480000Y-132080000D03*
X157480000Y-134620000D03*
X157480000Y-137160000D03*
X157480000Y-139700000D03*
X157480000Y-142240000D03*
X157480000Y-144780000D03*
X157480000Y-147320000D03*
X157480000Y-149860000D03*
X157480000Y-152400000D03*
X165100000Y-152400000D03*
X165100000Y-149860000D03*
X165100000Y-147320000D03*
X165100000Y-144780000D03*
X165100000Y-142240000D03*
X165100000Y-139700000D03*
X165100000Y-137160000D03*
X165100000Y-134620000D03*
X165100000Y-132080000D03*
X165100000Y-129540000D03*
%TD*%
D10*
%TO.C,U4*%
X107950000Y-96540000D03*
D11*
X107950000Y-99080000D03*
X107950000Y-101620000D03*
X107950000Y-104160000D03*
X107950000Y-106700000D03*
X107950000Y-109240000D03*
X107950000Y-111780000D03*
X107950000Y-114320000D03*
X115570000Y-114320000D03*
X115570000Y-111780000D03*
X115570000Y-109240000D03*
X115570000Y-106700000D03*
X115570000Y-104160000D03*
X115570000Y-101620000D03*
X115570000Y-99080000D03*
X115570000Y-96540000D03*
%TD*%
D10*
%TO.C,D8*%
X184150000Y-116840000D03*
D11*
X176530000Y-116840000D03*
%TD*%
D10*
%TO.C,D2*%
X184150000Y-86360000D03*
D11*
X176530000Y-86360000D03*
%TD*%
D10*
%TO.C,D7*%
X184150000Y-111760000D03*
D11*
X176530000Y-111760000D03*
%TD*%
M02*
